<?xml version="1.0" standalone="no"?>
<!DOCTYPE svg PUBLIC "-//W3C//DTD SVG 1.1//EN" "http://www.w3.org/Graphics/SVG/1.1/DTD/svg11.dtd" >
<svg>
<metadata>
Created by FontForge 20090622 at Tue Sep 29 15:17:33 2020
 By deploy user
Copyright &#194;&#169; 2018 Monotype Imaging Inc. All rights reserved.
</metadata>
<defs>
<font id="NeuePlak-ExtendedExtraBlack" horiz-adv-x="0" >
  <font-face 
    font-family="Neue Plak Extended ExtraBlack"
    font-weight="900"
    font-stretch="expanded"
    units-per-em="1000"
    panose-1="2 11 11 5 3 2 2 2 2 4"
    ascent="800"
    descent="-200"
    x-height="507"
    cap-height="706"
    bbox="-990 -222 1210 1206"
    underline-thickness="50"
    underline-position="-50"
    unicode-range="U+000D-U+FEFF"
  />
<missing-glyph horiz-adv-x="836" 
d="M43 0v706h750v-706h-750zM275 182h286v342h-286v-342z" />
    <glyph glyph-name=".notdef" horiz-adv-x="836" 
d="M43 0v706h750v-706h-750zM275 182h286v342h-286v-342z" />
    <glyph glyph-name=".null" 
 />
    <glyph glyph-name="nonmarkingreturn" horiz-adv-x="333" 
 />
    <glyph glyph-name="NULL" 
 />
    <glyph glyph-name="NULL" 
 />
    <glyph glyph-name="CR" unicode="&#xd;" horiz-adv-x="205" 
 />
    <glyph glyph-name="space" unicode=" " horiz-adv-x="205" 
 />
    <glyph glyph-name="exclam" unicode="!" horiz-adv-x="351" 
d="M90 257l-30 449h232l-31 -449h-171zM176 -21q-52 0 -85 32t-33 83q0 53 32.5 84.5t85.5 31.5q52 0 84 -31.5t32 -84.5q0 -51 -32.5 -83t-83.5 -32z" />
    <glyph glyph-name="quotedbl" unicode="&#x22;" horiz-adv-x="565" 
d="M80 416l-30 290h206l-30 -290h-146zM339 416l-30 290h207l-31 -290h-146z" />
    <glyph glyph-name="numbersign" unicode="#" horiz-adv-x="933" 
d="M872 411h-122l-23 -116h121l-35 -169h-121l-31 -149h-192l30 149h-159l-31 -149h-193l31 149h-122l36 169h120l24 116h-121l36 169h119l31 149h193l-31 -149h160l30 149h194l-31 -149h123zM534 295l23 116h-159l-24 -116h160z" />
    <glyph glyph-name="dollar" unicode="$" horiz-adv-x="733" 
d="M691 304q18 -41 18 -89q0 -52 -19 -93q-58 -129 -282 -144v-68h-89v68q-218 14 -278 146q-16 39 -18 90h240q0 -18 7 -32q13 -31 55 -40v133q-9 2 -41.5 10.5l-50.5 13.5q-78 23 -120.5 51t-61.5 69q-17 39 -17 85q0 43 17 82q27 62 98 98.5t172 43.5v68h89v-69
q97 -7 165.5 -43.5t96.5 -98.5q17 -36 18 -85h-232q-2 19 -6 29q-13 28 -48 39v-116l76 -20q88 -25 138.5 -52t72.5 -76zM268 506q10 -19 58 -34v102q-50 -5 -60 -31q-3 -6 -3 -16q0 -9 5 -21zM463 170q4 8 4 21t-4 22q-11 23 -61 41v-115q49 5 61 31z" />
    <glyph glyph-name="percent" unicode="%" horiz-adv-x="809" 
d="M195 404q-128 0 -166 83q-14 34 -14 73q0 40 14 73q38 84 166 84q129 0 166 -84q15 -31 15 -73q0 -40 -15 -73q-36 -83 -166 -83zM55 0l554 706h146l-554 -706h-146zM195 506q31 0 39 20q5 11 5 34q0 24 -5 35q-8 20 -39 20q-30 0 -39 -20q-5 -13 -5 -35q0 -23 5 -34
q10 -20 39 -20zM613 -10q-128 0 -166 83q-14 34 -14 73t14 73q38 83 166 83q130 0 166 -83q15 -33 15 -73t-15 -73q-36 -83 -166 -83zM613 92q31 0 39 20q5 10 5 34q0 23 -5 34q-8 20 -39 20q-30 0 -39 -20q-5 -11 -5 -34q0 -24 5 -34q9 -20 39 -20z" />
    <glyph glyph-name="ampersand" unicode="&#x26;" horiz-adv-x="798" 
d="M784 305q-37 -67 -80 -127q35 -8 68 -8v-170q-139 0 -221 38q-94 -49 -229 -49q-141 0 -221.5 52.5t-80.5 145.5q0 72 44.5 123t120.5 93q-64 84 -64 154q0 77 64 124.5t196 47.5q118 0 190.5 -40t72.5 -123q0 -60 -47.5 -103.5t-132.5 -85.5l96 -106q23 33 66 109z
M330 561q0 -30 33 -72q80 41 80 82q0 42 -52 42q-28 0 -44.5 -14t-16.5 -38zM252 208q0 -32 26.5 -49.5t75.5 -17.5q30 0 59 8l-121 131q-40 -34 -40 -72z" />
    <glyph glyph-name="quotesingle" unicode="'" horiz-adv-x="306" 
d="M80 416l-30 290h206l-30 -290h-146z" />
    <glyph glyph-name="parenleft" unicode="(" horiz-adv-x="417" 
d="M220 -203q-76 131 -112 242.5t-36 256.5t36 256.5t112 242.5h189q-75 -128 -112.5 -243.5t-37.5 -255.5q0 -139 37.5 -255.5t112.5 -243.5h-189z" />
    <glyph glyph-name="parenright" unicode=")" horiz-adv-x="417" 
d="M197 -203h-189q75 127 112.5 243.5t37.5 255.5q0 140 -37.5 255.5t-112.5 243.5h189q76 -131 112 -242.5t36 -256.5t-36 -256.5t-112 -242.5z" />
    <glyph glyph-name="asterisk" unicode="*" horiz-adv-x="452" 
d="M180 334l-121 88l101 81l-130 6l47 143l109 -72l-35 126h150l-35 -126l109 72l47 -143l-130 -6l101 -81l-121 -88l-46 123z" />
    <glyph glyph-name="plus" unicode="+" horiz-adv-x="613" 
d="M568 375v-156h-181v-172h-160v172h-182v156h182v173h160v-173h181z" />
    <glyph glyph-name="comma" unicode="," horiz-adv-x="321" 
d="M18 -182l71 343h199l-117 -343h-153z" />
    <glyph glyph-name="hyphen" unicode="-" horiz-adv-x="446" 
d="M45 214v167h356v-167h-356z" />
    <glyph glyph-name="period" unicode="." horiz-adv-x="373" 
d="M186 -21q-52 0 -84.5 32t-32.5 83q0 53 32 84.5t85 31.5q52 0 84.5 -31.5t32.5 -84.5q0 -51 -32.5 -83t-84.5 -32z" />
    <glyph glyph-name="slash" unicode="/" horiz-adv-x="619" 
d="M11 -50l387 779h210l-385 -779h-212z" />
    <glyph glyph-name="zero" unicode="0" horiz-adv-x="784" 
d="M392 -23q-122 0 -207 48t-125 138q-34 77 -34 190t34 190q40 90 125 138t207 48t207 -48t124 -138q34 -77 34 -190t-34 -190q-39 -90 -124 -138t-207 -48zM392 160q81 0 108 59q15 31 15 134t-15 134q-27 59 -108 59q-80 0 -109 -59q-15 -34 -15 -134t15 -134
q29 -59 109 -59z" />
    <glyph glyph-name="one" unicode="1" horiz-adv-x="441" 
d="M154 0v515h-154l43 191h335v-706h-224z" />
    <glyph glyph-name="two" unicode="2" horiz-adv-x="673" 
d="M-7 0v2l328 358q47 52 64.5 78.5t17.5 52.5q0 16 -6 28q-15 37 -71 37q-59 0 -80 -45q-11 -23 -11 -65h-228q0 75 24 129q69 154 299 154q231 0 294 -141q19 -43 19 -94t-20 -89.5t-60 -80.5q-62 -64 -156 -139h246v-185h-660z" />
    <glyph glyph-name="three" unicode="3" horiz-adv-x="685" 
d="M649 278q14 -32 14 -80q0 -47 -17 -84q-63 -137 -304 -137q-244 0 -307 145q-25 56 -25 143h225q0 -46 13 -75q20 -47 85 -47q63 0 84 43q7 15 7 35t-8 40q-20 43 -101 43h-34v131h37q73 0 92 40q5 13 5 28q0 22 -6 35q-18 38 -77 38q-62 0 -82 -42q-6 -14 -8 -33h-221
q0 45 18 84q32 71 111 107.5t192 36.5q107 0 183 -33.5t105 -98.5q15 -34 15 -76q0 -36 -13 -65q-28 -62 -109 -88q94 -19 126 -90z" />
    <glyph glyph-name="four" unicode="4" horiz-adv-x="785" 
d="M775 309v-179h-107v-130h-224v130h-461v2l271 574h414v-397h107zM308 309h136v330h-2z" />
    <glyph glyph-name="five" unicode="5" horiz-adv-x="674" 
d="M336 -23q-231 0 -296 145q-25 57 -25 143h227q0 -49 13 -78q19 -44 79 -44q57 0 78 45q7 17 7 41q0 25 -8 41q-31 70 -221 70q-72 0 -144 -7l67 373h519l-40 -175h-303l-14 -74q51 13 110 13q94 0 159 -32t92 -91q23 -48 23 -111q0 -58 -23 -109q-67 -150 -300 -150z" />
    <glyph glyph-name="six" unicode="6" horiz-adv-x="749" 
d="M709 342q20 -43 20 -103q0 -58 -21 -103q-34 -77 -118 -118t-192 -41q-136 0 -217.5 45.5t-120.5 136.5q-34 77 -34 186q0 116 38 201q82 183 327 183q164 0 257 -91q54 -56 67 -132h-228q-6 18 -19 33q-31 29 -82 29q-85 0 -116 -72q-14 -32 -16 -91q71 62 202 62
q197 0 253 -125zM481 192q8 16 8 41q0 24 -7 41q-22 48 -97 48q-76 0 -99 -50q-7 -15 -7 -40q0 -24 8 -40q21 -49 97 -49t97 49z" />
    <glyph glyph-name="seven" unicode="7" horiz-adv-x="648" 
d="M59 0l262 515h-312v191h657l-344 -706h-263z" />
    <glyph glyph-name="eight" unicode="8" horiz-adv-x="718" 
d="M679 293q17 -39 17 -83q0 -48 -16 -84q-32 -71 -113 -110t-208 -39q-255 0 -320 149q-17 35 -17 84q0 47 16 82q34 76 122 98q-75 20 -99 76q-13 29 -13 65t13 67q27 64 105.5 97.5t192.5 33.5q111 0 189.5 -32.5t107.5 -97.5q14 -31 14 -68q0 -36 -14 -67
q-25 -56 -96 -74q86 -20 119 -97zM279 549q-7 -15 -7 -34q0 -15 6 -30q20 -43 82 -43q61 0 80 41q6 15 6 33q0 19 -6 31q-19 42 -81 42t-80 -40zM449 184q8 16 8 38q0 16 -7 33q-22 48 -93 48q-65 0 -88 -46q-7 -15 -7 -37q0 -21 6 -34q23 -48 93 -48q66 0 88 46z" />
    <glyph glyph-name="nine" unicode="9" horiz-adv-x="749" 
d="M689 548q34 -77 34 -186q0 -116 -38 -201q-82 -183 -326 -183q-166 0 -257 91q-54 54 -67 132h227q6 -21 20 -33q29 -29 82 -29q85 0 115 72q16 36 16 91q-71 -62 -201 -62q-198 0 -254 124q-20 45 -20 103q0 59 21 104q34 77 117.5 117.5t192.5 40.5q136 0 217.5 -45.5
t120.5 -135.5zM463 434q7 17 7 40q0 25 -7 40q-23 50 -98 50q-74 0 -97 -49q-8 -16 -8 -41t8 -41q22 -48 96 -48q76 0 99 49z" />
    <glyph glyph-name="colon" unicode=":" horiz-adv-x="373" 
d="M186 292q-52 0 -84.5 32t-32.5 84t32 84t85 32q52 0 84.5 -32t32.5 -84t-32.5 -84t-84.5 -32zM186 -21q-52 0 -84.5 32t-32.5 83q0 53 32 84.5t85 31.5q52 0 84.5 -31.5t32.5 -84.5q0 -51 -32.5 -83t-84.5 -32z" />
    <glyph glyph-name="semicolon" unicode=";" horiz-adv-x="379" 
d="M193 292q-52 0 -84.5 32t-32.5 84t32 84t85 32q52 0 84.5 -32t32.5 -84t-32.5 -84t-84.5 -32zM18 -182l71 343h199l-117 -343h-153z" />
    <glyph glyph-name="less" unicode="&#x3c;" horiz-adv-x="613" 
d="M568 539v-157l-347 -84l347 -85v-156l-523 143v196z" />
    <glyph glyph-name="equal" unicode="=" horiz-adv-x="613" 
d="M45 328v156h523v-156h-523zM45 112v156h523v-156h-523z" />
    <glyph glyph-name="greater" unicode="&#x3e;" horiz-adv-x="613" 
d="M45 539l523 -143v-196l-523 -143v156l347 85l-347 84v157z" />
    <glyph glyph-name="question" unicode="?" horiz-adv-x="607" 
d="M194 257q129 180 146 209q18 33 18 59q0 53 -58 53q-42 0 -57 -30q-6 -13 -6 -37h-213q0 62 16 96q56 122 264 122q130 0 204.5 -50.5t74.5 -145.5q0 -45 -26.5 -91.5t-126.5 -184.5h-236zM301 -23q-52 0 -85 32t-33 84t32.5 84t85.5 32q51 0 83.5 -32t32.5 -84
t-32.5 -84t-83.5 -32z" />
    <glyph glyph-name="at" unicode="@" horiz-adv-x="977" 
d="M925 489q29 -66 29 -147q0 -78 -26 -134q-68 -149 -284 -149h-87v61q-58 -61 -165 -61q-56 0 -97.5 21.5t-58.5 60.5q-11 23 -11 57q0 32 11 57q21 47 82.5 66t164.5 19h70v5q0 31 -5 40q-11 25 -56 25q-42 0 -54 -23q-4 -7 -5 -19h-189q3 32 13 55q46 97 236 97
q185 0 230 -97q17 -35 17 -117v-147q68 20 99 87q17 38 17 95q0 68 -22 116q-37 82 -128 124.5t-211 42.5q-265 0 -344 -176q-30 -66 -30 -154q0 -91 30 -155q41 -92 141.5 -139t235.5 -47q52 0 105 6v-85q-52 -6 -106 -6q-170 0 -292 60.5t-174 175.5q-37 82 -37 185
q0 100 40 192q50 110 161.5 167.5t271.5 57.5q152 0 266.5 -55.5t161.5 -161.5zM555 253v6h-65q-55 0 -66 -22q-3 -9 -3 -17t3 -17q10 -21 54 -21q56 0 71 32q6 13 6 39z" />
    <glyph glyph-name="A" unicode="A" horiz-adv-x="863" 
d="M631 0l-43 117h-313l-42 -117h-246l278 706h333l278 -706h-245zM334 280h195l-97 265h-2z" />
    <glyph glyph-name="B" unicode="B" horiz-adv-x="728" 
d="M692 287q16 -37 16 -82q0 -48 -17 -85q-26 -59 -91.5 -89.5t-158.5 -30.5h-389v706h401q165 0 209 -98q16 -33 16 -75q0 -39 -13 -68q-25 -57 -105 -81q99 -26 132 -97zM284 568v-137h63q68 0 85 36q5 15 5 33t-5 31q-16 37 -85 37h-63zM453 182q7 15 7 35q0 18 -7 33
q-16 39 -93 39h-76v-150h78q73 0 91 43z" />
    <glyph glyph-name="C" unicode="C" horiz-adv-x="857" 
d="M439 -22q-138 0 -237.5 51.5t-145.5 152.5q-32 73 -32 172q0 96 32 169q45 99 145.5 152t237.5 53q191 0 299 -99q91 -82 97 -212h-246q-8 51 -43 83q-39 35 -110 35q-109 0 -145 -80q-18 -39 -18 -102q0 -66 16 -103q35 -79 147 -79q75 0 116 38q35 31 38 73h246
q-3 -122 -93 -203q-112 -101 -304 -101z" />
    <glyph glyph-name="D" unicode="D" horiz-adv-x="839" 
d="M52 0v706h374q276 0 358 -188q32 -72 32 -165q0 -98 -32 -166q-85 -187 -358 -187h-374zM284 188h116q115 0 151 76q15 31 15 89q0 56 -16 91q-34 74 -150 74h-116v-330z" />
    <glyph glyph-name="E" unicode="E" horiz-adv-x="652" 
d="M52 0v706h563v-176h-331v-92h328v-167h-328v-95h331v-176h-563z" />
    <glyph glyph-name="F" unicode="F" horiz-adv-x="560" 
d="M52 0v706h482v-182h-250v-86h248v-171h-248v-267h-232z" />
    <glyph glyph-name="G" unicode="G" horiz-adv-x="873" 
d="M429 399h420v-30q0 -111 -38 -195q-88 -196 -366 -196q-141 0 -242.5 52t-145.5 150q-33 72 -33 173q0 97 35 173q46 100 145.5 151t240.5 51q197 0 305 -99q36 -32 62 -78.5t32 -93.5h-249q-8 29 -30 51q-38 34 -118 34q-119 0 -156 -82q-17 -38 -17 -106t16 -107
q38 -84 160 -84q119 0 150 67q6 14 8 22h-179v147z" />
    <glyph glyph-name="H" unicode="H" horiz-adv-x="855" 
d="M52 0v706h232v-262h287v262h232v-706h-232v262h-287v-262h-232z" />
    <glyph glyph-name="I" unicode="I" horiz-adv-x="337" 
d="M52 0v706h232v-706h-232z" />
    <glyph glyph-name="J" unicode="J" horiz-adv-x="404" 
d="M100 -7q-41 0 -92 7v192q24 -2 40 -2q51 0 69.5 21t18.5 80v415h232v-448q0 -136 -63 -200.5t-205 -64.5z" />
    <glyph glyph-name="K" unicode="K" horiz-adv-x="821" 
d="M834 0h-293l-257 299v-299h-232v706h232v-249l228 249h284l-308 -320z" />
    <glyph glyph-name="L" unicode="L" horiz-adv-x="507" 
d="M52 0v706h232v-514h214v-192h-446z" />
    <glyph glyph-name="M" unicode="M" horiz-adv-x="1039" 
d="M52 0v706h262l206 -392l205 392h262v-706h-218v386l-199 -386h-101l-199 386v-386h-218z" />
    <glyph glyph-name="N" unicode="N" horiz-adv-x="861" 
d="M52 0v706h243l287 -403v403h227v-706h-248l-282 396v-396h-227z" />
    <glyph glyph-name="O" unicode="O" horiz-adv-x="876" 
d="M438 -23q-138 0 -237 51t-143 150q-34 76 -34 175q0 94 33 171q45 100 144.5 152.5t237.5 52.5q137 0 235.5 -51.5t142.5 -148.5q35 -80 35 -176q0 -101 -37 -180q-45 -96 -143 -146t-234 -50zM439 171q112 0 149 84q15 37 15 98q0 65 -17 102q-36 80 -149 80
q-109 0 -147 -81q-16 -33 -16 -100q0 -64 16 -100q38 -83 149 -83z" />
    <glyph glyph-name="P" unicode="P" horiz-adv-x="706" 
d="M52 0v706h375q194 0 247 -117q22 -50 22 -117q0 -61 -22 -111q-56 -125 -247 -125h-143v-236h-232zM284 395h84q67 0 84 36q9 15 9 40t-8 40q-17 33 -88 33h-81v-149z" />
    <glyph glyph-name="Q" unicode="Q" horiz-adv-x="876" 
d="M817 529q35 -80 35 -176q0 -101 -37 -180q-47 -102 -156 -152l64 -94l-165 -103l-95 153h-25q-138 0 -237 51t-143 150q-34 76 -34 175q0 94 33 171q45 100 144.5 152.5t237.5 52.5q137 0 235.5 -51.5t142.5 -148.5zM507 243l32 -47q32 20 49 59q15 37 15 98
q0 65 -17 102q-36 80 -149 80q-109 0 -147 -81q-16 -33 -16 -100q0 -64 16 -100q30 -66 111 -80z" />
    <glyph glyph-name="R" unicode="R" horiz-adv-x="745" 
d="M755 0h-273l-198 250v-250h-232v706h382q186 0 243 -124q20 -45 20 -106q0 -63 -20 -108q-37 -86 -143 -107zM367 545h-83v-157h83q70 0 89 40q7 16 7 39q0 19 -7 36q-20 42 -89 42z" />
    <glyph glyph-name="S" unicode="S" horiz-adv-x="728" 
d="M361 -23q-124 0 -207 38t-115 109q-16 39 -18 90h248q2 -23 7 -34q20 -43 90 -43q67 0 82 34q5 9 5 21q0 10 -5 22q-6 13 -21 23.5t-39 18.5t-46 14t-56.5 13.5t-54.5 13.5q-139 38 -180 124q-16 37 -16 83q0 44 17 83q30 67 111.5 104.5t197.5 37.5q114 0 194.5 -37
t112.5 -107q17 -38 18 -85h-241q-1 22 -8 36q-17 39 -83 39q-58 0 -72 -29q-3 -8 -3 -17t3 -18q5 -11 16.5 -20t33 -16t39.5 -12t52.5 -13l54.5 -13q82 -22 135.5 -51.5t76.5 -82.5q17 -37 17 -87q0 -53 -19 -94q-32 -71 -117.5 -108t-209.5 -37z" />
    <glyph glyph-name="T" unicode="T" horiz-adv-x="589" 
d="M178 0v524h-170v182h572v-182h-170v-524h-232z" />
    <glyph glyph-name="U" unicode="U" horiz-adv-x="802" 
d="M401 -23q-187 0 -276 79t-89 239v411h232v-397q0 -71 32 -105.5t100 -34.5q69 0 101.5 34.5t32.5 105.5v397h232v-411q0 -161 -89 -239.5t-276 -78.5z" />
    <glyph glyph-name="V" unicode="V" horiz-adv-x="835" 
d="M595 706h252l-306 -706h-247l-307 706h254l177 -452z" />
    <glyph glyph-name="W" unicode="W" horiz-adv-x="1167" 
d="M938 706h242l-230 -706h-236l-130 426l-130 -426h-235l-232 706h242l117 -398l115 398h246l115 -398z" />
    <glyph glyph-name="X" unicode="X" horiz-adv-x="837" 
d="M-13 0l292 374l-259 332h280l119 -169l119 169h279l-259 -334l291 -372h-284l-146 203l-147 -203h-285z" />
    <glyph glyph-name="Y" unicode="Y" horiz-adv-x="742" 
d="M255 0v309l-268 397h258l126 -196l126 196h258l-268 -397v-309h-232z" />
    <glyph glyph-name="Z" unicode="Z" horiz-adv-x="710" 
d="M4 0l322 524h-304v182h677l-313 -523h314v-183h-696z" />
    <glyph glyph-name="bracketleft" unicode="[" horiz-adv-x="414" 
d="M89 -203v998h308v-157h-127v-685h127v-156h-308z" />
    <glyph glyph-name="backslash" unicode="\" horiz-adv-x="619" 
d="M608 -50h-212l-385 779h211z" />
    <glyph glyph-name="bracketright" unicode="]" horiz-adv-x="414" 
d="M325 -203h-307v156h126v685h-126v157h307v-998z" />
    <glyph glyph-name="asciicircum" unicode="^" horiz-adv-x="603" 
d="M586 353h-202l-82 191l-82 -191h-202l157 353h254z" />
    <glyph glyph-name="underscore" unicode="_" horiz-adv-x="538" 
d="M0 -203v167h538v-167h-538z" />
    <glyph glyph-name="grave" unicode="`" horiz-adv-x="424" 
d="M374 553h-198l-126 168h218z" />
    <glyph glyph-name="a" unicode="a" horiz-adv-x="650" 
d="M589 407q24 -53 24 -123v-284h-215v59q-65 -76 -189 -76q-140 0 -181 90q-13 29 -13 65q0 37 13 68q28 62 104 84.5t194 22.5h70v7q0 31 -6 44q-15 32 -66 32t-64 -30q-5 -9 -5 -22h-217q1 34 15 66q52 114 269 114q109 0 174.5 -27.5t92.5 -89.5zM305 123q69 0 86 39
q7 15 7 44v7h-64q-79 0 -90 -26q-4 -10 -4 -19q0 -11 4 -19q12 -26 61 -26z" />
    <glyph glyph-name="b" unicode="b" horiz-adv-x="697" 
d="M656 387q26 -60 26 -134q0 -76 -26 -133q-30 -66 -87 -102t-135 -36q-114 0 -181 79v-61h-210v706h215v-255q66 73 176 73q78 0 135.5 -36t86.5 -101zM446 192q10 23 10 61q0 40 -10 61q-24 52 -91 52q-46 0 -73 -27t-27 -77v-18q0 -49 27 -76t73 -27q66 0 91 51z" />
    <glyph glyph-name="c" unicode="c" horiz-adv-x="682" 
d="M338 -18q-106 0 -185.5 38t-113.5 115q-24 51 -24 118q0 68 24 119q33 76 111.5 114t187.5 38q167 0 260 -83q61 -57 67 -144h-231q-3 29 -25 48q-24 21 -70 21q-64 0 -85 -49q-10 -20 -10 -63t10 -63q23 -50 85 -50q46 0 71 22q22 21 24 51h233q-6 -90 -70 -147
q-93 -85 -259 -85z" />
    <glyph glyph-name="d" unicode="d" horiz-adv-x="697" 
d="M439 706h215v-706h-209v63q-67 -81 -182 -81q-78 0 -135 36t-87 102q-26 57 -26 133q0 74 26 134q29 66 86.5 101.5t135.5 35.5q110 0 176 -73v255zM443 244v18q0 50 -27.5 77t-73.5 27q-67 0 -90 -52q-10 -21 -10 -61q0 -38 10 -61q23 -51 90 -51q46 0 73.5 27t27.5 76z
" />
    <glyph glyph-name="e" unicode="e" horiz-adv-x="678" 
d="M426 143q11 10 14 22h219q-10 -62 -58 -107q-81 -76 -252 -76q-113 0 -195.5 40t-116.5 116q-22 50 -22 116q0 65 23 116q34 76 113 115t185 39q111 0 188 -41.5t111 -119.5q28 -63 28 -159h-431q4 -20 8 -29q22 -52 110 -52q53 0 76 20zM339 388q-73 0 -98 -50
q-7 -16 -9 -31h215q-1 15 -8 30q-23 51 -100 51z" />
    <glyph glyph-name="f" unicode="f" horiz-adv-x="439" 
d="M82 0v346h-72v161h72v22q0 104 57.5 152t186.5 48q55 0 103 -12v-160q-25 10 -61 10q-32 0 -51.5 -13t-19.5 -37v-10h131v-161h-131v-346h-215z" />
    <glyph glyph-name="g" unicode="g" horiz-adv-x="692" 
d="M436 507h213v-464q0 -75 -24 -129q-60 -134 -283 -134q-173 0 -252 72q-49 43 -61 114h227q6 -15 14 -22q24 -20 68 -20q67 0 86 43q8 16 8 43v69q-65 -80 -176 -80q-75 0 -131.5 34.5t-84.5 97.5q-25 56 -25 131t25 131q28 62 84 96.5t132 34.5q114 0 180 -85v68z
M337 152q45 0 70.5 25t25.5 73v20q0 48 -25.5 73t-70.5 25q-65 0 -85 -47q-10 -21 -10 -59q0 -42 10 -63q20 -47 85 -47z" />
    <glyph glyph-name="h" unicode="h" horiz-adv-x="676" 
d="M437 524q98 0 149.5 -53t51.5 -154v-317h-215v275q0 91 -79 91q-86 0 -86 -102v-264h-215v706h215v-264q69 82 179 82z" />
    <glyph glyph-name="i" unicode="i" horiz-adv-x="301" 
d="M151 547q-46 0 -76 28t-30 72q0 43 30 71.5t76 28.5t76 -28.5t30 -71.5q0 -44 -30 -72t-76 -28zM43 0v507h215v-507h-215z" />
    <glyph glyph-name="j" unicode="j" horiz-adv-x="305" 
d="M155 547q-46 0 -76 28t-30 72q0 43 30 71.5t76 28.5t76 -28.5t30 -71.5q0 -44 -30 -72t-76 -28zM47 -216q-33 0 -87 6v172q21 -3 39 -3q49 0 49 49v499h215v-515q0 -109 -50.5 -158.5t-165.5 -49.5z" />
    <glyph glyph-name="k" unicode="k" horiz-adv-x="667" 
d="M690 0h-274l-158 197v-197h-215v706h215v-352l141 153h271l-225 -227z" />
    <glyph glyph-name="l" unicode="l" horiz-adv-x="301" 
d="M43 0v706h215v-706h-215z" />
    <glyph glyph-name="m" unicode="m" horiz-adv-x="1027" 
d="M797 524q93 0 142.5 -51.5t49.5 -146.5v-326h-215v285q0 81 -73 81q-78 0 -78 -87v-279h-215v285q0 81 -73 81q-77 0 -77 -88v-278h-215v507h215v-66q67 83 185 83q123 0 164 -86q72 86 190 86z" />
    <glyph glyph-name="n" unicode="n" horiz-adv-x="676" 
d="M437 524q98 0 149.5 -53t51.5 -154v-317h-215v275q0 91 -79 91q-86 0 -86 -102v-264h-215v507h215v-65q69 82 179 82z" />
    <glyph glyph-name="o" unicode="o" horiz-adv-x="689" 
d="M345 -18q-113 0 -193.5 41t-115.5 120q-21 46 -21 110q0 65 21 111q35 79 115.5 119.5t193.5 40.5t193 -40t114 -116q22 -50 22 -115q0 -64 -22 -114q-34 -76 -114.5 -116.5t-192.5 -40.5zM345 141q71 0 93 49q10 23 10 63q0 42 -10 63q-22 50 -93 50t-93 -51
q-10 -21 -10 -62q0 -40 10 -61q22 -51 93 -51z" />
    <glyph glyph-name="p" unicode="p" horiz-adv-x="697" 
d="M656 387q26 -57 26 -134q0 -76 -26 -133q-29 -66 -87 -102t-135 -36q-110 0 -176 74v-259h-215v710h210v-62q66 79 181 79q78 0 135.5 -35.5t86.5 -101.5zM446 194q10 21 10 59q0 40 -10 61q-24 51 -91 51q-46 0 -73 -26.5t-27 -76.5v-16q0 -49 27 -76t73 -27q67 0 91 51
z" />
    <glyph glyph-name="q" unicode="q" horiz-adv-x="697" 
d="M445 507h209v-710h-215v259q-66 -74 -176 -74q-77 0 -135 36t-87 102q-26 57 -26 133q0 77 26 134q29 66 86.5 101.5t135.5 35.5q117 0 182 -80v63zM342 143q46 0 73.5 27t27.5 76v16q0 50 -27.5 76.5t-73.5 26.5q-68 0 -90 -51q-10 -21 -10 -61q0 -38 10 -59
q22 -51 90 -51z" />
    <glyph glyph-name="r" unicode="r" horiz-adv-x="505" 
d="M43 0v507h213v-56q47 73 121 73q56 0 89.5 -32t33.5 -85q0 -52 -33.5 -85t-85.5 -33q-35 0 -62.5 16.5t-39.5 43.5q-13 -5 -17 -15.5t-4 -38.5v-295h-215z" />
    <glyph glyph-name="s" unicode="s" horiz-adv-x="579" 
d="M285 -20q-203 0 -251 107q-16 37 -16 77h214q0 -20 6 -30q11 -28 51 -28q34 0 43 19q3 6 3 14t-3 14q-3 8 -11.5 14t-23.5 11t-27.5 8.5t-35.5 8.5t-37 9q-122 33 -151 97q-12 24 -12 56q0 35 13 62q24 53 91 79t156 26q191 0 238 -103q14 -30 14 -64h-207q0 16 -5 29
q-10 24 -44 24q-27 0 -36 -16q-4 -6 -4 -14t3 -14q3 -5 8.5 -9.5t14.5 -8.5t17 -7t22 -6.5l22 -5.5t24.5 -5.5t23.5 -4.5q133 -30 165 -103q11 -23 11 -58q0 -38 -13 -67q-50 -111 -263 -111z" />
    <glyph glyph-name="t" unicode="t" horiz-adv-x="449" 
d="M291 -12q-104 0 -152.5 45t-48.5 145v168h-74v161h74v121h215v-121h128v-161h-128v-124q0 -38 16.5 -53t50.5 -15q23 0 57 7v-159q-68 -14 -138 -14z" />
    <glyph glyph-name="u" unicode="u" horiz-adv-x="676" 
d="M418 507h215v-507h-215v65q-69 -82 -179 -82q-98 0 -149.5 53t-51.5 154v317h215v-275q0 -91 79 -91q86 0 86 102v264z" />
    <glyph glyph-name="v" unicode="v" horiz-adv-x="644" 
d="M209 0l-218 507h226l105 -277l106 277h225l-219 -507h-225z" />
    <glyph glyph-name="w" unicode="w" horiz-adv-x="988" 
d="M766 507h231l-197 -507h-219l-87 261l-87 -261h-220l-196 507h230l80 -267l93 267h198l94 -267z" />
    <glyph glyph-name="x" unicode="x" horiz-adv-x="673" 
d="M-15 0l223 260l-209 247h259l79 -110l79 110h259l-208 -247l221 -260h-259l-92 122l-93 -122h-259z" />
    <glyph glyph-name="y" unicode="y" horiz-adv-x="644" 
d="M433 507h220l-226 -506l-90 -204h-213l91 203l-224 507h226l111 -294z" />
    <glyph glyph-name="z" unicode="z" horiz-adv-x="569" 
d="M564 507l-219 -344h208v-163h-548l239 346h-214v161h534z" />
    <glyph glyph-name="braceleft" unicode="{" horiz-adv-x="447" 
d="M307 426q0 -115 -101 -130q101 -15 101 -129v-126q0 -53 19.5 -74.5t78.5 -21.5h25v-148h-91q-99 0 -151 52.5t-52 138.5v138q0 50 -19.5 69.5t-70.5 19.5v162q51 0 70.5 20t19.5 70v137q0 86 52 138.5t151 52.5h91v-148h-25q-59 0 -78.5 -21t-19.5 -75v-125z" />
    <glyph glyph-name="bar" unicode="|" horiz-adv-x="392" 
d="M94 -203v959h204v-959h-204z" />
    <glyph glyph-name="braceright" unicode="}" horiz-adv-x="447" 
d="M311 467q0 -50 20 -70t70 -20v-162q-50 0 -70 -19.5t-20 -69.5v-138q0 -86 -52 -138.5t-150 -52.5h-91v148h25q58 0 77.5 21.5t19.5 74.5v126q0 114 102 129q-102 15 -102 130v125q0 54 -19.5 75t-77.5 21h-25v148h91q98 0 150 -52.5t52 -138.5v-137z" />
    <glyph glyph-name="asciitilde" unicode="~" horiz-adv-x="613" 
d="M410 176q-42 0 -111 37q-44 25 -62 25q-37 0 -41 -60h-141q7 241 149 241q45 0 110 -37q44 -25 63 -25q37 0 40 60h141q-7 -241 -148 -241z" />
    <glyph glyph-name="uni00A0" unicode="&#xa0;" horiz-adv-x="205" 
 />
    <glyph glyph-name="exclamdown" unicode="&#xa1;" horiz-adv-x="351" 
d="M176 293q-52 0 -85 32t-33 83q0 53 32.5 84.5t85.5 31.5q52 0 84 -31.5t32 -84.5q0 -51 -32.5 -83t-83.5 -32zM59 -203l31 449h172l29 -449h-232z" />
    <glyph glyph-name="cent" unicode="&#xa2;" horiz-adv-x="692" 
d="M425 261q23 21 26 53h226q-6 -90 -69 -149q-76 -69 -213 -82v-83h-89v82q-97 7 -168 45.5t-100 107.5q-23 52 -23 117q0 68 24 118q31 69 101 108t166 46v82h89v-83q138 -12 215 -81q61 -57 67 -145h-227q-3 30 -25 49q-12 10 -35 17v-219q21 4 35 17zM250 290
q17 -37 62 -47v221q-43 -11 -61 -46q-11 -23 -11 -66q0 -39 10 -62z" />
    <glyph glyph-name="sterling" unicode="&#xa3;" horiz-adv-x="750" 
d="M503 265h225q0 -90 -23 -147q-55 -118 -243 -118h-443v157h84v164h-84v90h84v36q0 87 27 146q61 136 290 136q222 0 280 -127q24 -54 24 -132h-226q0 37 -10 60q-16 37 -69 37q-54 0 -72 -40q-12 -27 -12 -71v-45h191v-90h-191v-164h60q78 0 98 48q10 23 10 60z" />
    <glyph glyph-name="currency" unicode="&#xa4;" horiz-adv-x="688" 
d="M597 244q-14 -31 -40 -61l105 -123h-145l-51 60q-56 -24 -126 -24q-62 0 -120 21l-49 -57h-145l102 118q-27 27 -45 66q-22 49 -22 109t22 109q19 40 46 67l-103 117h147l49 -57q52 21 118 21q70 0 125 -23l50 59h147l-107 -121q27 -29 42 -63q23 -48 23 -109t-23 -109z
M242 308q27 -58 98 -58q73 0 98 58q9 20 9 45t-9 45q-25 58 -98 58t-98 -58q-8 -21 -8 -45t8 -45z" />
    <glyph glyph-name="yen" unicode="&#xa5;" horiz-adv-x="731" 
d="M750 706l-256 -358h183v-79h-197v-33h197v-80h-197v-156h-233v156h-192v80h192v33h-192v79h177l-250 358h262l122 -195l129 195h255z" />
    <glyph glyph-name="brokenbar" unicode="&#xa6;" horiz-adv-x="392" 
d="M94 427v329h204v-329h-204zM94 -203v330h204v-330h-204z" />
    <glyph glyph-name="section" unicode="&#xa7;" horiz-adv-x="599" 
d="M562 43q16 -34 16 -75q0 -43 -15 -74q-54 -114 -268 -114q-207 0 -256 109q-16 34 -16 89h218q0 -24 6 -37q12 -28 50 -28q40 0 50 24q4 9 4 21q0 13 -5 25q-2 5 -5.5 9.5t-8.5 8.5l-9.5 7.5t-12.5 7.5t-12.5 6t-15.5 6.5t-15.5 6l-18 6t-17.5 6.5q-55 20 -81 31t-61 37
t-50 59q-15 32 -15 74q0 34 13 62q25 54 105 81q-68 35 -91 86q-14 31 -14 66q0 41 15 71q26 58 95 86.5t159 28.5q88 0 153.5 -27.5t92.5 -84.5q14 -35 14 -74h-210q0 14 -5 26q-12 26 -46 26t-44 -23q-3 -8 -3 -17q0 -10 4 -19q3 -6 7.5 -11.5t12 -10.5t13.5 -8.5t18 -8.5
l18 -7.5t21.5 -8.5t21.5 -8q36 -13 57 -22t50 -25t48.5 -37t31.5 -48q15 -29 15 -78q0 -38 -13 -64q-21 -47 -80 -73q55 -32 79 -83zM234 278q-4 -9 -4 -21t4 -21q14 -32 66 -32q50 0 65 31q4 9 4 22t-4 21q-14 32 -65 32q-52 0 -66 -32z" />
    <glyph glyph-name="dieresis" unicode="&#xa8;" horiz-adv-x="550" 
d="M151 548q-44 0 -72.5 27t-28.5 69q0 43 28.5 70t72.5 27t73 -27t29 -70q0 -42 -29 -69t-73 -27zM397 547q-44 0 -72.5 27t-28.5 69q0 43 28.5 70t72.5 27t73 -27t29 -70q0 -42 -29 -69t-73 -27z" />
    <glyph glyph-name="copyright" unicode="&#xa9;" horiz-adv-x="881" 
d="M443 -23q-139 0 -240 54.5t-144 150.5q-35 78 -35 170q0 89 35 167q45 100 146 155t238 55q133 0 234.5 -53.5t146.5 -151.5q33 -75 33 -171t-34 -170q-41 -95 -146 -150.5t-234 -55.5zM440 60q109 0 184 42.5t111 121.5q25 54 25 127q0 77 -26 135q-35 78 -110.5 119
t-181.5 41q-108 0 -185 -42t-111 -121q-25 -56 -25 -130q0 -75 25 -131q73 -162 294 -162zM441 118q-84 0 -147 32t-91 96q-21 45 -21 107q0 61 21 108q28 63 91 95t146 32q122 0 193 -65q60 -53 61 -133h-180q-1 9 -6 20q-16 37 -68 37q-48 0 -66 -37q-10 -23 -10 -57
q0 -32 10 -55q17 -37 68 -37t67 36q3 7 5 17h180q-2 -80 -60 -132q-70 -64 -193 -64z" />
    <glyph glyph-name="ordfeminine" unicode="&#xaa;" horiz-adv-x="468" 
d="M425 634q17 -39 17 -87v-199h-169v37q-49 -49 -126 -49q-98 0 -127 63q-9 18 -9 46t10 49q18 41 66 58.5t133 17.5h53v2q0 20 -4 29q-9 18 -36 18t-33 -16q-3 -5 -3 -11h-171q2 26 12 47q35 80 194 80q79 0 126 -19.5t67 -65.5zM269 465q4 9 4 23v8h-46q-31 0 -37 -14
q-3 -4 -3 -12q0 -6 3 -11q6 -14 34 -14q36 0 45 20z" />
    <glyph glyph-name="guillemotleft" unicode="&#xab;" horiz-adv-x="676" 
d="M173 123l-160 169l160 170h202l-160 -170l160 -169h-202zM461 123l-160 169l160 170h202l-160 -170l160 -169h-202z" />
    <glyph glyph-name="logicalnot" unicode="&#xac;" horiz-adv-x="613" 
d="M408 47v246h-363v156h523v-402h-160z" />
    <glyph glyph-name="uni00AD" unicode="&#xad;" horiz-adv-x="446" 
d="M45 214v167h356v-167h-356z" />
    <glyph glyph-name="registered" unicode="&#xae;" horiz-adv-x="499" 
d="M466 603q18 -37 18 -91t-18 -91q-25 -55 -81.5 -85.5t-134.5 -30.5q-79 0 -135.5 30.5t-81.5 85.5q-18 41 -18 91q0 48 18 89q25 56 81.5 87t135.5 31q78 0 134.5 -30.5t81.5 -85.5zM405 440q14 29 14 72t-14 72q-34 78 -155 78q-122 0 -156 -78q-13 -27 -13 -72
q0 -42 13 -72q34 -78 156 -78q120 0 155 78zM364 556q0 -41 -35 -57q33 -10 33 -55v-42h-92v42q0 26 -26 26h-11v-68h-93v220h135q89 0 89 -66zM250 530q21 0 21 16q0 17 -21 17h-17v-33h17z" />
    <glyph glyph-name="macron" unicode="&#xaf;" horiz-adv-x="471" 
d="M50 577v134h371v-134h-371z" />
    <glyph glyph-name="degree" unicode="&#xb0;" horiz-adv-x="439" 
d="M220 361q-87 0 -142 51.5t-55 131.5q0 81 55 133t142 52t141.5 -52t54.5 -133q0 -80 -54.5 -131.5t-141.5 -51.5zM220 485q27 0 43 16t16 43q0 28 -16.5 44t-42.5 16q-27 0 -43.5 -16.5t-16.5 -43.5t16.5 -43t43.5 -16z" />
    <glyph glyph-name="plusminus" unicode="&#xb1;" horiz-adv-x="613" 
d="M387 463h181v-150h-181v-104h-163v104h-179v150h179v104h163v-104zM45 28v151h523v-151h-523z" />
    <glyph glyph-name="uni00B2" unicode="&#xb2;" horiz-adv-x="430" 
d="M-5 438v7l208 197q43 40 43 61q0 9 -3 13q-9 14 -32 14q-27 0 -37 -19q-5 -12 -5 -26h-157q0 35 13 65q40 89 188 89q149 0 185 -81q11 -24 11 -51q0 -47 -42 -82q-24 -22 -80 -59h127v-128h-419z" />
    <glyph glyph-name="uni00B3" unicode="&#xb3;" horiz-adv-x="432" 
d="M407 590q9 -18 9 -43q0 -23 -9 -43q-37 -79 -197 -79q-151 0 -188 81q-14 34 -14 81l148 1q0 -21 5 -34q10 -21 43 -21q31 0 41 18q3 6 3 15q0 8 -3 15q-8 17 -48 17h-19v80h21q36 0 44 17q2 6 2 13q0 10 -4 15q-8 13 -36 13q-30 0 -38 -19q-2 -5 -4 -16h-147q0 26 10 53
q19 43 70 64t118 21q64 0 114 -19.5t67 -57.5q8 -19 8 -41q0 -18 -6 -33q-17 -35 -64 -50q58 -11 74 -48z" />
    <glyph glyph-name="acute" unicode="&#xb4;" horiz-adv-x="424" 
d="M50 553l105 168h219l-126 -168h-198z" />
    <glyph glyph-name="uni00B5" unicode="&#xb5;" horiz-adv-x="681" 
d="M423 507h215v-507h-215v62q-57 -80 -144 -80q-19 0 -34 3q12 -73 12 -152v-36h-214v710h215v-275q0 -48 19 -69.5t58 -21.5q88 0 88 102v264z" />
    <glyph glyph-name="paragraph" unicode="&#xb6;" horiz-adv-x="919" 
d="M358 -203v417h-79q-190 0 -247 127q-22 47 -22 119t22 120q57 126 251 126h627v-164h-84v-745h-192v745h-85v-745h-191z" />
    <glyph glyph-name="periodcentered" unicode="&#xb7;" horiz-adv-x="373" 
d="M186 182q-52 0 -84.5 32t-32.5 83q0 53 32 84.5t85 31.5q52 0 84.5 -31.5t32.5 -84.5q0 -51 -32.5 -83t-84.5 -32z" />
    <glyph glyph-name="cedilla" unicode="&#xb8;" horiz-adv-x="418" 
d="M252 0q58 -1 87 -29t29 -75q0 -65 -47.5 -91.5t-137.5 -26.5q-73 0 -133 19l23 93q45 -16 89 -16q61 0 61 30q0 28 -61 28h-79l27 102h151z" />
    <glyph glyph-name="uni00B9" unicode="&#xb9;" horiz-adv-x="297" 
d="M89 438v263h-89l24 125h223v-388h-158z" />
    <glyph glyph-name="ordmasculine" unicode="&#xba;" horiz-adv-x="494" 
d="M247 336q-78 0 -136.5 28t-83.5 83q-16 35 -16 81t16 81q25 54 84 82t136 28q78 0 136.5 -28t83.5 -82q16 -35 16 -81t-16 -81q-25 -55 -83.5 -83t-136.5 -28zM247 461q41 0 53 28q6 13 6 39q0 24 -6 38q-13 29 -53 29q-39 0 -52 -29q-6 -14 -6 -38q0 -26 6 -39
q12 -28 52 -28z" />
    <glyph glyph-name="guillemotright" unicode="&#xbb;" horiz-adv-x="676" 
d="M215 123h-202l160 169l-160 170h202l160 -170zM503 123h-202l160 169l-160 170h202l160 -170z" />
    <glyph glyph-name="onequarter" unicode="&#xbc;" horiz-adv-x="972" 
d="M89 318v263h-89l24 125h223v-388h-158zM88 0l521 706h126l-521 -706h-126zM742 0v60h-276v2l149 326h278v-209h70v-119h-70v-60h-151zM677 179h65v165z" />
    <glyph glyph-name="onehalf" unicode="&#xbd;" horiz-adv-x="920" 
d="M89 318v263h-89l24 125h223v-388h-158zM88 0l521 706h126l-521 -706h-126zM485 0v7l208 197q43 40 43 61q0 9 -3 13q-9 14 -32 14q-27 0 -37 -19q-5 -12 -5 -26h-157q0 35 13 65q40 89 188 89q149 0 185 -81q11 -24 11 -51q0 -47 -42 -82q-24 -22 -80 -59h127v-128h-419z
" />
    <glyph glyph-name="threequarters" unicode="&#xbe;" horiz-adv-x="1094" 
d="M407 384q-37 -79 -197 -79q-151 0 -188 81q-14 34 -14 81l148 1q0 -21 5 -34q10 -21 43 -21q31 0 41 18q3 6 3 15q0 8 -3 15q-8 17 -48 17h-19v80h21q36 0 44 17q2 6 2 13q0 10 -4 15q-8 13 -36 13q-30 0 -38 -19q-2 -5 -4 -16h-147q0 26 10 53q19 43 70 64t118 21
q64 0 114 -19.5t67 -57.5q8 -19 8 -41q0 -18 -6 -33q-17 -35 -64 -50q58 -11 74 -48q9 -18 9 -43q0 -23 -9 -43zM731 706h126l-521 -706h-126zM1015 179h70v-119h-70v-60h-151v60h-276v2l149 326h278v-209zM864 179v165l-65 -165h65z" />
    <glyph glyph-name="questiondown" unicode="&#xbf;" horiz-adv-x="607" 
d="M310 293q-52 0 -85 32t-33 83q0 53 32.5 84.5t85.5 31.5q52 0 84 -31.5t32 -84.5q0 -51 -32.5 -83t-83.5 -32zM303 -220q-130 0 -204.5 49.5t-74.5 143.5q0 45 27 91.5t125 180.5h236q-129 -178 -144 -204q-19 -33 -19 -59q0 -52 58 -52q42 0 57 31q5 14 5 36h214
q0 -59 -16 -95q-55 -122 -264 -122z" />
    <glyph glyph-name="Agrave" unicode="&#xc0;" horiz-adv-x="863" 
d="M558 754h-205l-126 158h226zM631 0l-43 117h-313l-42 -117h-246l278 706h333l278 -706h-245zM334 280h195l-97 265h-2z" />
    <glyph glyph-name="Aacute" unicode="&#xc1;" horiz-adv-x="863" 
d="M635 912l-125 -158h-206l106 158h225zM631 0l-43 117h-313l-42 -117h-246l278 706h333l278 -706h-245zM334 280h195l-97 265h-2z" />
    <glyph glyph-name="Acircumflex" unicode="&#xc2;" horiz-adv-x="863" 
d="M431 825l-55 -70h-195l121 157h259l121 -157h-195zM631 0l-43 117h-313l-42 -117h-246l278 706h333l278 -706h-245zM334 280h195l-97 265h-2z" />
    <glyph glyph-name="Atilde" unicode="&#xc3;" horiz-adv-x="863" 
d="M363 792q-32 0 -37 -37h-123q7 85 42 124.5t100 39.5q38 0 89 -24q34 -16 58 -16q17 0 26.5 8t16.5 28h125q-9 -164 -135 -164q-36 0 -91 21q-53 20 -71 20zM631 0l-43 117h-313l-42 -117h-246l278 706h333l278 -706h-245zM334 280h195l-97 265h-2z" />
    <glyph glyph-name="Adieresis" unicode="&#xc4;" horiz-adv-x="863" 
d="M302 746q-44 0 -72 26.5t-28 67.5q0 42 28 69t72 27t72 -27t28 -69q0 -41 -28 -67.5t-72 -26.5zM560 746q-43 0 -71.5 26.5t-28.5 67.5q0 42 28.5 69t71.5 27q44 0 72.5 -27t28.5 -69q0 -41 -28.5 -67.5t-72.5 -26.5zM631 0l-43 117h-313l-42 -117h-246l278 706h333
l278 -706h-245zM334 280h195l-97 265h-2z" />
    <glyph glyph-name="Aring" unicode="&#xc5;" horiz-adv-x="863" 
d="M431 726q-71 0 -115.5 37.5t-44.5 99.5t44.5 99.5t115.5 37.5q70 0 114.5 -37.5t44.5 -99.5t-44 -99.5t-115 -37.5zM431 912q-24 0 -38 -13t-14 -36q0 -22 14 -35t38 -13t38 13t14 35q0 23 -13.5 36t-38.5 13zM631 0l-43 117h-313l-42 -117h-246l278 706h333l278 -706
h-245zM334 280h195l-97 265h-2z" />
    <glyph glyph-name="AE" unicode="&#xc6;" horiz-adv-x="1028" 
d="M991 530h-324l19 -92h302v-167h-268l19 -95h252v-176h-454l-22 117h-235l-43 -117h-250l294 706h710v-176zM339 280h146l-49 262h-2z" />
    <glyph glyph-name="Ccedilla" unicode="&#xc7;" horiz-adv-x="857" 
d="M590 282h246q-3 -122 -93 -203q-73 -66 -188 -89q58 -25 58 -94q0 -65 -47.5 -91.5t-137.5 -26.5q-73 0 -133 19l23 93q45 -16 89 -16q61 0 61 30q0 28 -61 28h-79l14 53q-211 32 -286 197q-32 73 -32 172q0 96 32 169q45 99 145.5 152t237.5 53q191 0 299 -99
q91 -82 97 -212h-246q-8 51 -43 83q-39 35 -110 35q-109 0 -145 -80q-18 -39 -18 -102q0 -66 16 -103q35 -79 147 -79q75 0 116 38q35 31 38 73z" />
    <glyph glyph-name="Egrave" unicode="&#xc8;" horiz-adv-x="652" 
d="M465 754h-205l-126 158h226zM52 0v706h563v-176h-331v-92h328v-167h-328v-95h331v-176h-563z" />
    <glyph glyph-name="Eacute" unicode="&#xc9;" horiz-adv-x="652" 
d="M211 754l106 158h225l-125 -158h-206zM52 0v706h563v-176h-331v-92h328v-167h-328v-95h331v-176h-563z" />
    <glyph glyph-name="Ecircumflex" unicode="&#xca;" horiz-adv-x="652" 
d="M87 755l121 157h259l121 -157h-195l-56 70l-55 -70h-195zM52 0v706h563v-176h-331v-92h328v-167h-328v-95h331v-176h-563z" />
    <glyph glyph-name="Edieresis" unicode="&#xcb;" horiz-adv-x="652" 
d="M209 746q-44 0 -72 26.5t-28 67.5q0 42 28 69t72 27t72 -27t28 -69q0 -41 -28 -67.5t-72 -26.5zM467 746q-43 0 -71.5 26.5t-28.5 67.5q0 42 28.5 69t71.5 27q44 0 72.5 -27t28.5 -69q0 -41 -28.5 -67.5t-72.5 -26.5zM52 0v706h563v-176h-331v-92h328v-167h-328v-95h331
v-176h-563z" />
    <glyph glyph-name="Igrave" unicode="&#xcc;" horiz-adv-x="337" 
d="M295 754h-205l-126 158h226zM52 0v706h232v-706h-232z" />
    <glyph glyph-name="Iacute" unicode="&#xcd;" horiz-adv-x="337" 
d="M42 754l106 158h225l-125 -158h-206zM52 0v706h232v-706h-232z" />
    <glyph glyph-name="Icircumflex" unicode="&#xce;" horiz-adv-x="337" 
d="M-61 755l98 157h259l98 -157h-188l-39 67l-40 -67h-188zM52 0v706h232v-706h-232z" />
    <glyph glyph-name="Idieresis" unicode="&#xcf;" horiz-adv-x="337" 
d="M61 749q-39 0 -65.5 27t-26.5 66q0 40 26.5 68t65.5 28q40 0 66.5 -28t26.5 -68q0 -39 -26.5 -66t-66.5 -27zM276 748q-40 0 -66.5 27.5t-26.5 66.5q0 40 26.5 67.5t66.5 27.5q39 0 66 -28t27 -67t-27 -66.5t-66 -27.5zM52 0v706h232v-706h-232z" />
    <glyph glyph-name="Eth" unicode="&#xd0;" horiz-adv-x="839" 
d="M784 518q32 -72 32 -165q0 -98 -32 -166q-85 -187 -358 -187h-374v293h-55v124h55v289h374q276 0 358 -188zM551 264q15 31 15 89q0 56 -16 91q-34 74 -150 74h-116v-101h156v-124h-156v-105h116q115 0 151 76z" />
    <glyph glyph-name="Ntilde" unicode="&#xd1;" horiz-adv-x="861" 
d="M530 751q-36 0 -91 21q-53 20 -71 20q-32 0 -37 -37h-123q7 85 42 124.5t100 39.5q38 0 89 -24q34 -16 58 -16q17 0 26.5 8t16.5 28h125q-9 -164 -135 -164zM52 0v706h243l287 -403v403h227v-706h-248l-282 396v-396h-227z" />
    <glyph glyph-name="Ograve" unicode="&#xd2;" horiz-adv-x="876" 
d="M565 754h-205l-126 158h226zM438 -23q-138 0 -237 51t-143 150q-34 76 -34 175q0 94 33 171q45 100 144.5 152.5t237.5 52.5q137 0 235.5 -51.5t142.5 -148.5q35 -80 35 -176q0 -101 -37 -180q-45 -96 -143 -146t-234 -50zM439 171q112 0 149 84q15 37 15 98
q0 65 -17 102q-36 80 -149 80q-109 0 -147 -81q-16 -33 -16 -100q0 -64 16 -100q38 -83 149 -83z" />
    <glyph glyph-name="Oacute" unicode="&#xd3;" horiz-adv-x="876" 
d="M311 754l106 158h225l-125 -158h-206zM438 -23q-138 0 -237 51t-143 150q-34 76 -34 175q0 94 33 171q45 100 144.5 152.5t237.5 52.5q137 0 235.5 -51.5t142.5 -148.5q35 -80 35 -176q0 -101 -37 -180q-45 -96 -143 -146t-234 -50zM439 171q112 0 149 84q15 37 15 98
q0 65 -17 102q-36 80 -149 80q-109 0 -147 -81q-16 -33 -16 -100q0 -64 16 -100q38 -83 149 -83z" />
    <glyph glyph-name="Ocircumflex" unicode="&#xd4;" horiz-adv-x="876" 
d="M188 755l121 157h259l121 -157h-195l-56 70l-55 -70h-195zM438 -23q-138 0 -237 51t-143 150q-34 76 -34 175q0 94 33 171q45 100 144.5 152.5t237.5 52.5q137 0 235.5 -51.5t142.5 -148.5q35 -80 35 -176q0 -101 -37 -180q-45 -96 -143 -146t-234 -50zM439 171
q112 0 149 84q15 37 15 98q0 65 -17 102q-36 80 -149 80q-109 0 -147 -81q-16 -33 -16 -100q0 -64 16 -100q38 -83 149 -83z" />
    <glyph glyph-name="Otilde" unicode="&#xd5;" horiz-adv-x="876" 
d="M532 751q-36 0 -91 21q-53 20 -71 20q-32 0 -37 -37h-123q7 85 42 124.5t100 39.5q38 0 89 -24q34 -16 58 -16q17 0 26.5 8t16.5 28h125q-9 -164 -135 -164zM438 -23q-138 0 -237 51t-143 150q-34 76 -34 175q0 94 33 171q45 100 144.5 152.5t237.5 52.5
q137 0 235.5 -51.5t142.5 -148.5q35 -80 35 -176q0 -101 -37 -180q-45 -96 -143 -146t-234 -50zM439 171q112 0 149 84q15 37 15 98q0 65 -17 102q-36 80 -149 80q-109 0 -147 -81q-16 -33 -16 -100q0 -64 16 -100q38 -83 149 -83z" />
    <glyph glyph-name="Odieresis" unicode="&#xd6;" horiz-adv-x="876" 
d="M309 746q-44 0 -72 26.5t-28 67.5q0 42 28 69t72 27t72 -27t28 -69q0 -41 -28 -67.5t-72 -26.5zM567 746q-43 0 -71.5 26.5t-28.5 67.5q0 42 28.5 69t71.5 27q44 0 72.5 -27t28.5 -69q0 -41 -28.5 -67.5t-72.5 -26.5zM438 -23q-138 0 -237 51t-143 150q-34 76 -34 175
q0 94 33 171q45 100 144.5 152.5t237.5 52.5q137 0 235.5 -51.5t142.5 -148.5q35 -80 35 -176q0 -101 -37 -180q-45 -96 -143 -146t-234 -50zM439 171q112 0 149 84q15 37 15 98q0 65 -17 102q-36 80 -149 80q-109 0 -147 -81q-16 -33 -16 -100q0 -64 16 -100
q38 -83 149 -83z" />
    <glyph glyph-name="multiply" unicode="&#xd7;" horiz-adv-x="613" 
d="M552 433l-135 -135l135 -135l-110 -110l-135 135l-136 -135l-109 110l135 135l-135 135l109 110l136 -136l135 135z" />
    <glyph glyph-name="Oslash" unicode="&#xd8;" horiz-adv-x="876" 
d="M782 587q21 -26 35 -58q35 -80 35 -176q0 -101 -37 -180q-45 -96 -143 -146t-234 -50q-165 0 -268 70l-53 -47h-152l130 116q-25 33 -37 62q-34 76 -34 175q0 94 33 171q45 100 144.5 152.5t237.5 52.5q162 0 268 -71l51 48h157zM290 454q-16 -33 -16 -100q0 -43 8 -77
l257 233q-38 25 -102 25q-109 0 -147 -81zM588 255q15 37 15 98q0 46 -7 74l-256 -231q41 -25 99 -25q112 0 149 84z" />
    <glyph glyph-name="Ugrave" unicode="&#xd9;" horiz-adv-x="802" 
d="M528 754h-205l-126 158h226zM401 -23q-187 0 -276 79t-89 239v411h232v-397q0 -71 32 -105.5t100 -34.5q69 0 101.5 34.5t32.5 105.5v397h232v-411q0 -161 -89 -239.5t-276 -78.5z" />
    <glyph glyph-name="Uacute" unicode="&#xda;" horiz-adv-x="802" 
d="M275 754l106 158h225l-125 -158h-206zM401 -23q-187 0 -276 79t-89 239v411h232v-397q0 -71 32 -105.5t100 -34.5q69 0 101.5 34.5t32.5 105.5v397h232v-411q0 -161 -89 -239.5t-276 -78.5z" />
    <glyph glyph-name="Ucircumflex" unicode="&#xdb;" horiz-adv-x="802" 
d="M151 755l121 157h259l121 -157h-195l-56 70l-55 -70h-195zM401 -23q-187 0 -276 79t-89 239v411h232v-397q0 -71 32 -105.5t100 -34.5q69 0 101.5 34.5t32.5 105.5v397h232v-411q0 -161 -89 -239.5t-276 -78.5z" />
    <glyph glyph-name="Udieresis" unicode="&#xdc;" horiz-adv-x="802" 
d="M272 746q-44 0 -72 26.5t-28 67.5q0 42 28 69t72 27t72 -27t28 -69q0 -41 -28 -67.5t-72 -26.5zM530 746q-43 0 -71.5 26.5t-28.5 67.5q0 42 28.5 69t71.5 27q44 0 72.5 -27t28.5 -69q0 -41 -28.5 -67.5t-72.5 -26.5zM401 -23q-187 0 -276 79t-89 239v411h232v-397
q0 -71 32 -105.5t100 -34.5q69 0 101.5 34.5t32.5 105.5v397h232v-411q0 -161 -89 -239.5t-276 -78.5z" />
    <glyph glyph-name="Yacute" unicode="&#xdd;" horiz-adv-x="742" 
d="M246 754l106 158h225l-125 -158h-206zM255 0v309l-268 397h258l126 -196l126 196h258l-268 -397v-309h-232z" />
    <glyph glyph-name="Thorn" unicode="&#xde;" horiz-adv-x="706" 
d="M52 0v706h232v-98h135q195 0 253 -128q24 -54 24 -125t-24 -125q-58 -128 -253 -128h-135v-102h-232zM284 268h78q70 0 91 44q8 19 8 43t-8 43q-21 44 -91 44h-78v-174z" />
    <glyph glyph-name="germandbls" unicode="&#xdf;" horiz-adv-x="681" 
d="M648 311q18 -41 18 -97q0 -55 -18 -94q-55 -122 -275 -122q-42 0 -81 3v134q9 -1 27 -1q89 0 111 50q9 21 9 51q0 27 -8 48q-22 48 -107 48h-28v128h20q77 0 96 42q5 13 5 30q0 15 -5 28q-17 35 -68 35q-55 0 -75 -44q-11 -23 -11 -71v-479h-215v467q0 75 23 125
q60 137 279 137q222 0 274 -116q14 -31 14 -69q0 -35 -13 -64q-25 -54 -84 -74q81 -24 112 -95z" />
    <glyph glyph-name="agrave" unicode="&#xe0;" horiz-adv-x="650" 
d="M456 553h-198l-126 168h218zM589 407q24 -53 24 -123v-284h-215v59q-65 -76 -189 -76q-140 0 -181 90q-13 29 -13 65q0 37 13 68q28 62 104 84.5t194 22.5h70v7q0 31 -6 44q-15 32 -66 32t-64 -30q-5 -9 -5 -22h-217q1 34 15 66q52 114 269 114q109 0 174.5 -27.5
t92.5 -89.5zM305 123q69 0 86 39q7 15 7 44v7h-64q-79 0 -90 -26q-4 -10 -4 -19q0 -11 4 -19q12 -26 61 -26z" />
    <glyph glyph-name="aacute" unicode="&#xe1;" horiz-adv-x="650" 
d="M531 721l-126 -168h-198l105 168h219zM589 407q24 -53 24 -123v-284h-215v59q-65 -76 -189 -76q-140 0 -181 90q-13 29 -13 65q0 37 13 68q28 62 104 84.5t194 22.5h70v7q0 31 -6 44q-15 32 -66 32t-64 -30q-5 -9 -5 -22h-217q1 34 15 66q52 114 269 114
q109 0 174.5 -27.5t92.5 -89.5zM305 123q69 0 86 39q7 15 7 44v7h-64q-79 0 -90 -26q-4 -10 -4 -19q0 -11 4 -19q12 -26 61 -26z" />
    <glyph glyph-name="acircumflex" unicode="&#xe2;" horiz-adv-x="650" 
d="M331 629l-47 -76h-185l108 168h249l107 -168h-185zM589 407q24 -53 24 -123v-284h-215v59q-65 -76 -189 -76q-140 0 -181 90q-13 29 -13 65q0 37 13 68q28 62 104 84.5t194 22.5h70v7q0 31 -6 44q-15 32 -66 32t-64 -30q-5 -9 -5 -22h-217q1 34 15 66q52 114 269 114
q109 0 174.5 -27.5t92.5 -89.5zM305 123q69 0 86 39q7 15 7 44v7h-64q-79 0 -90 -26q-4 -10 -4 -19q0 -11 4 -19q12 -26 61 -26z" />
    <glyph glyph-name="atilde" unicode="&#xe3;" horiz-adv-x="650" 
d="M269 597q-33 0 -39 -44h-117q6 91 37 134.5t92 43.5q42 0 88 -24q44 -22 62 -22q16 0 25 9.5t13 33.5h118q-4 -94 -34.5 -135t-90.5 -41q-44 0 -88 21q-52 24 -66 24zM589 407q24 -53 24 -123v-284h-215v59q-65 -76 -189 -76q-140 0 -181 90q-13 29 -13 65q0 37 13 68
q28 62 104 84.5t194 22.5h70v7q0 31 -6 44q-15 32 -66 32t-64 -30q-5 -9 -5 -22h-217q1 34 15 66q52 114 269 114q109 0 174.5 -27.5t92.5 -89.5zM305 123q69 0 86 39q7 15 7 44v7h-64q-79 0 -90 -26q-4 -10 -4 -19q0 -11 4 -19q12 -26 61 -26z" />
    <glyph glyph-name="adieresis" unicode="&#xe4;" horiz-adv-x="650" 
d="M208 548q-44 0 -72.5 27t-28.5 69q0 43 28.5 70t72.5 27t73 -27t29 -70q0 -42 -29 -69t-73 -27zM454 547q-44 0 -72.5 27t-28.5 69q0 43 28.5 70t72.5 27t73 -27t29 -70q0 -42 -29 -69t-73 -27zM589 407q24 -53 24 -123v-284h-215v59q-65 -76 -189 -76q-140 0 -181 90
q-13 29 -13 65q0 37 13 68q28 62 104 84.5t194 22.5h70v7q0 31 -6 44q-15 32 -66 32t-64 -30q-5 -9 -5 -22h-217q1 34 15 66q52 114 269 114q109 0 174.5 -27.5t92.5 -89.5zM305 123q69 0 86 39q7 15 7 44v7h-64q-79 0 -90 -26q-4 -10 -4 -19q0 -11 4 -19q12 -26 61 -26z
" />
    <glyph glyph-name="aring" unicode="&#xe5;" horiz-adv-x="650" 
d="M331 542q-71 0 -115.5 37.5t-44.5 99.5t44.5 99.5t115.5 37.5q70 0 114.5 -37.5t44.5 -99.5t-44 -99.5t-115 -37.5zM331 728q-24 0 -38 -13t-14 -36q0 -22 14 -35t38 -13t38 13t14 35q0 23 -13.5 36t-38.5 13zM589 407q24 -53 24 -123v-284h-215v59q-65 -76 -189 -76
q-140 0 -181 90q-13 29 -13 65q0 37 13 68q28 62 104 84.5t194 22.5h70v7q0 31 -6 44q-15 32 -66 32t-64 -30q-5 -9 -5 -22h-217q1 34 15 66q52 114 269 114q109 0 174.5 -27.5t92.5 -89.5zM305 123q69 0 86 39q7 15 7 44v7h-64q-79 0 -90 -26q-4 -10 -4 -19q0 -11 4 -19
q12 -26 61 -26z" />
    <glyph glyph-name="ae" unicode="&#xe6;" horiz-adv-x="1016" 
d="M760 140q11 11 14 25h223q-10 -67 -58 -113q-79 -70 -231 -70q-160 0 -239 87q-85 -87 -231 -87q-168 0 -211 95q-12 31 -12 61q0 37 13 68q27 63 103 85t195 22h70v7q0 31 -7 46q-14 30 -65 30t-64 -30q-5 -9 -5 -22h-217q1 34 15 66q52 114 269 114q134 0 197 -43
q72 43 176 43q102 0 172.5 -40.5t104.5 -114.5q29 -64 29 -165h-386q3 -20 9 -35q20 -46 82 -46q37 0 54 17zM698 388q-54 0 -73 -46q-7 -14 -10 -35h166q-1 21 -9 36q-21 45 -74 45zM398 206v7h-64q-78 0 -90 -26q-4 -10 -4 -17q0 -13 4 -21q13 -26 61 -26q69 0 86 39
q7 15 7 44z" />
    <glyph glyph-name="ccedilla" unicode="&#xe7;" horiz-adv-x="682" 
d="M434 214h233q-6 -90 -70 -147q-59 -55 -149 -74q68 -20 68 -97q0 -65 -47.5 -91.5t-137.5 -26.5q-73 0 -133 19l23 93q45 -16 89 -16q61 0 61 30q0 28 -61 28h-79l15 58q-156 28 -207 145q-24 51 -24 118q0 68 24 119q33 76 111.5 114t187.5 38q167 0 260 -83
q61 -57 67 -144h-231q-3 29 -25 48q-24 21 -70 21q-64 0 -85 -49q-10 -20 -10 -63t10 -63q23 -50 85 -50q46 0 71 22q22 21 24 51z" />
    <glyph glyph-name="egrave" unicode="&#xe8;" horiz-adv-x="678" 
d="M464 553h-198l-126 168h218zM426 143q11 10 14 22h219q-10 -62 -58 -107q-81 -76 -252 -76q-113 0 -195.5 40t-116.5 116q-22 50 -22 116q0 65 23 116q34 76 113 115t185 39q111 0 188 -41.5t111 -119.5q28 -63 28 -159h-431q4 -20 8 -29q22 -52 110 -52q53 0 76 20z
M339 388q-73 0 -98 -50q-7 -16 -9 -31h215q-1 15 -8 30q-23 51 -100 51z" />
    <glyph glyph-name="eacute" unicode="&#xe9;" horiz-adv-x="678" 
d="M539 721l-126 -168h-198l105 168h219zM426 143q11 10 14 22h219q-10 -62 -58 -107q-81 -76 -252 -76q-113 0 -195.5 40t-116.5 116q-22 50 -22 116q0 65 23 116q34 76 113 115t185 39q111 0 188 -41.5t111 -119.5q28 -63 28 -159h-431q4 -20 8 -29q22 -52 110 -52
q53 0 76 20zM339 388q-73 0 -98 -50q-7 -16 -9 -31h215q-1 15 -8 30q-23 51 -100 51z" />
    <glyph glyph-name="ecircumflex" unicode="&#xea;" horiz-adv-x="678" 
d="M339 629l-47 -76h-185l108 168h249l107 -168h-185zM426 143q11 10 14 22h219q-10 -62 -58 -107q-81 -76 -252 -76q-113 0 -195.5 40t-116.5 116q-22 50 -22 116q0 65 23 116q34 76 113 115t185 39q111 0 188 -41.5t111 -119.5q28 -63 28 -159h-431q4 -20 8 -29
q22 -52 110 -52q53 0 76 20zM339 388q-73 0 -98 -50q-7 -16 -9 -31h215q-1 15 -8 30q-23 51 -100 51z" />
    <glyph glyph-name="edieresis" unicode="&#xeb;" horiz-adv-x="678" 
d="M215 548q-44 0 -72.5 27t-28.5 69q0 43 28.5 70t72.5 27t73 -27t29 -70q0 -42 -29 -69t-73 -27zM461 547q-44 0 -72.5 27t-28.5 69q0 43 28.5 70t72.5 27t73 -27t29 -70q0 -42 -29 -69t-73 -27zM426 143q11 10 14 22h219q-10 -62 -58 -107q-81 -76 -252 -76
q-113 0 -195.5 40t-116.5 116q-22 50 -22 116q0 65 23 116q34 76 113 115t185 39q111 0 188 -41.5t111 -119.5q28 -63 28 -159h-431q4 -20 8 -29q22 -52 110 -52q53 0 76 20zM339 388q-73 0 -98 -50q-7 -16 -9 -31h215q-1 15 -8 30q-23 51 -100 51z" />
    <glyph glyph-name="igrave" unicode="&#xec;" horiz-adv-x="301" 
d="M276 553h-194l-110 168h218zM43 0v507h215v-507h-215z" />
    <glyph glyph-name="iacute" unicode="&#xed;" horiz-adv-x="301" 
d="M26 553l85 168h219l-110 -168h-194zM43 0v507h215v-507h-215z" />
    <glyph glyph-name="icircumflex" unicode="&#xee;" horiz-adv-x="301" 
d="M-33 553l84 168h200l83 -168h-149l-34 76l-34 -76h-150zM43 0v507h215v-507h-215z" />
    <glyph glyph-name="idieresis" unicode="&#xef;" horiz-adv-x="301" 
d="M56 553q-40 0 -64 25t-24 65q0 41 24 66.5t64 25.5q38 0 62 -25.5t24 -66.5q0 -40 -24 -65t-62 -25zM246 553q-39 0 -63 25t-24 65q0 41 24 66.5t63 25.5t63 -25.5t24 -66.5q0 -40 -24 -65t-63 -25zM43 0v507h215v-507h-215z" />
    <glyph glyph-name="eth" unicode="&#xf0;" horiz-adv-x="704" 
d="M644 450q38 -86 38 -183q0 -75 -25 -128q-67 -157 -321 -157q-237 0 -301 140q-20 46 -20 104q0 63 21 108q29 66 93.5 102.5t151.5 36.5q83 0 138 -33q-23 43 -68 96l-249 -56v114l161 36l-77 74v2h262q18 -18 27 -28l153 35v-115l-67 -15q54 -70 83 -133zM443 185
q8 21 8 48q0 29 -9 50q-24 50 -95 50q-72 0 -95 -51q-9 -19 -9 -49q0 -26 8 -47q23 -51 96 -51t96 50z" />
    <glyph glyph-name="ntilde" unicode="&#xf1;" horiz-adv-x="676" 
d="M279 597q-33 0 -39 -44h-117q6 91 37 134.5t92 43.5q42 0 88 -24q44 -22 62 -22q16 0 25 9.5t13 33.5h118q-4 -94 -34.5 -135t-90.5 -41q-44 0 -88 21q-52 24 -66 24zM437 524q98 0 149.5 -53t51.5 -154v-317h-215v275q0 91 -79 91q-86 0 -86 -102v-264h-215v507h215v-65
q69 82 179 82z" />
    <glyph glyph-name="ograve" unicode="&#xf2;" horiz-adv-x="689" 
d="M470 553h-198l-126 168h218zM345 -18q-113 0 -193.5 41t-115.5 120q-21 46 -21 110q0 65 21 111q35 79 115.5 119.5t193.5 40.5t193 -40t114 -116q22 -50 22 -115q0 -64 -22 -114q-34 -76 -114.5 -116.5t-192.5 -40.5zM345 141q71 0 93 49q10 23 10 63q0 42 -10 63
q-22 50 -93 50t-93 -51q-10 -21 -10 -62q0 -40 10 -61q22 -51 93 -51z" />
    <glyph glyph-name="oacute" unicode="&#xf3;" horiz-adv-x="689" 
d="M221 553l105 168h219l-126 -168h-198zM345 -18q-113 0 -193.5 41t-115.5 120q-21 46 -21 110q0 65 21 111q35 79 115.5 119.5t193.5 40.5t193 -40t114 -116q22 -50 22 -115q0 -64 -22 -114q-34 -76 -114.5 -116.5t-192.5 -40.5zM345 141q71 0 93 49q10 23 10 63
q0 42 -10 63q-22 50 -93 50t-93 -51q-10 -21 -10 -62q0 -40 10 -61q22 -51 93 -51z" />
    <glyph glyph-name="ocircumflex" unicode="&#xf4;" horiz-adv-x="689" 
d="M113 553l108 168h249l107 -168h-185l-47 76l-47 -76h-185zM345 -18q-113 0 -193.5 41t-115.5 120q-21 46 -21 110q0 65 21 111q35 79 115.5 119.5t193.5 40.5t193 -40t114 -116q22 -50 22 -115q0 -64 -22 -114q-34 -76 -114.5 -116.5t-192.5 -40.5zM345 141q71 0 93 49
q10 23 10 63q0 42 -10 63q-22 50 -93 50t-93 -51q-10 -21 -10 -62q0 -40 10 -61q22 -51 93 -51z" />
    <glyph glyph-name="otilde" unicode="&#xf5;" horiz-adv-x="689" 
d="M437 552q-44 0 -88 21q-52 24 -66 24q-33 0 -39 -44h-117q6 91 37 134.5t92 43.5q42 0 88 -24q44 -22 62 -22q16 0 25 9.5t13 33.5h118q-4 -94 -34.5 -135t-90.5 -41zM345 -18q-113 0 -193.5 41t-115.5 120q-21 46 -21 110q0 65 21 111q35 79 115.5 119.5t193.5 40.5
t193 -40t114 -116q22 -50 22 -115q0 -64 -22 -114q-34 -76 -114.5 -116.5t-192.5 -40.5zM345 141q71 0 93 49q10 23 10 63q0 42 -10 63q-22 50 -93 50t-93 -51q-10 -21 -10 -62q0 -40 10 -61q22 -51 93 -51z" />
    <glyph glyph-name="odieresis" unicode="&#xf6;" horiz-adv-x="689" 
d="M222 548q-44 0 -72.5 27t-28.5 69q0 43 28.5 70t72.5 27t73 -27t29 -70q0 -42 -29 -69t-73 -27zM468 547q-44 0 -72.5 27t-28.5 69q0 43 28.5 70t72.5 27t73 -27t29 -70q0 -42 -29 -69t-73 -27zM345 -18q-113 0 -193.5 41t-115.5 120q-21 46 -21 110q0 65 21 111
q35 79 115.5 119.5t193.5 40.5t193 -40t114 -116q22 -50 22 -115q0 -64 -22 -114q-34 -76 -114.5 -116.5t-192.5 -40.5zM345 141q71 0 93 49q10 23 10 63q0 42 -10 63q-22 50 -93 50t-93 -51q-10 -21 -10 -62q0 -40 10 -61q22 -51 93 -51z" />
    <glyph glyph-name="divide" unicode="&#xf7;" horiz-adv-x="613" 
d="M306 408q-41 0 -67.5 25.5t-26.5 66.5t26 65.5t68 24.5t68 -24.5t26 -65.5t-26.5 -66.5t-67.5 -25.5zM45 220v156h523v-156h-523zM306 6q-41 0 -67.5 25.5t-26.5 65.5q0 41 26 65.5t68 24.5t68 -24.5t26 -65.5q0 -40 -26.5 -65.5t-67.5 -25.5z" />
    <glyph glyph-name="oslash" unicode="&#xf8;" horiz-adv-x="689" 
d="M612 429q26 -30 40 -61q22 -50 22 -115q0 -64 -22 -114q-34 -76 -114.5 -116.5t-192.5 -40.5q-115 0 -198 43l-30 -26h-128l90 79q-27 28 -43 65q-21 46 -21 110q0 65 21 111q35 79 115.5 119.5t193.5 40.5q117 0 197 -42l27 24h129zM252 315q-10 -21 -10 -62
q0 -15 2 -35l156 137q-21 11 -55 11q-71 0 -93 -51zM438 190q10 23 10 63q0 16 -2 36l-156 -137q24 -11 55 -11q71 0 93 49z" />
    <glyph glyph-name="ugrave" unicode="&#xf9;" horiz-adv-x="676" 
d="M462 553h-198l-126 168h218zM418 507h215v-507h-215v65q-69 -82 -179 -82q-98 0 -149.5 53t-51.5 154v317h215v-275q0 -91 79 -91q86 0 86 102v264z" />
    <glyph glyph-name="uacute" unicode="&#xfa;" horiz-adv-x="676" 
d="M537 721l-126 -168h-198l105 168h219zM418 507h215v-507h-215v65q-69 -82 -179 -82q-98 0 -149.5 53t-51.5 154v317h215v-275q0 -91 79 -91q86 0 86 102v264z" />
    <glyph glyph-name="ucircumflex" unicode="&#xfb;" horiz-adv-x="676" 
d="M337 629l-47 -76h-185l108 168h249l107 -168h-185zM418 507h215v-507h-215v65q-69 -82 -179 -82q-98 0 -149.5 53t-51.5 154v317h215v-275q0 -91 79 -91q86 0 86 102v264z" />
    <glyph glyph-name="udieresis" unicode="&#xfc;" horiz-adv-x="676" 
d="M213 548q-44 0 -72.5 27t-28.5 69q0 43 28.5 70t72.5 27t73 -27t29 -70q0 -42 -29 -69t-73 -27zM459 547q-44 0 -72.5 27t-28.5 69q0 43 28.5 70t72.5 27t73 -27t29 -70q0 -42 -29 -69t-73 -27zM418 507h215v-507h-215v65q-69 -82 -179 -82q-98 0 -149.5 53t-51.5 154
v317h215v-275q0 -91 79 -91q86 0 86 102v264z" />
    <glyph glyph-name="yacute" unicode="&#xfd;" horiz-adv-x="644" 
d="M525 721l-126 -168h-198l105 168h219zM433 507h220l-226 -506l-90 -204h-213l91 203l-224 507h226l111 -294z" />
    <glyph glyph-name="thorn" unicode="&#xfe;" horiz-adv-x="697" 
d="M656 385q26 -57 26 -133t-26 -133q-29 -65 -86.5 -101t-135.5 -36q-110 0 -176 74v-259h-215v909h215v-258q66 74 176 74q78 0 135.5 -36t86.5 -101zM446 192q10 21 10 60q0 40 -10 61q-24 50 -91 50q-46 0 -73 -26t-27 -76v-17q0 -50 27 -76t73 -26q67 0 91 50z" />
    <glyph glyph-name="ydieresis" unicode="&#xff;" horiz-adv-x="644" 
d="M202 548q-44 0 -72.5 27t-28.5 69q0 43 28.5 70t72.5 27t73 -27t29 -70q0 -42 -29 -69t-73 -27zM448 547q-44 0 -72.5 27t-28.5 69q0 43 28.5 70t72.5 27t73 -27t29 -70q0 -42 -29 -69t-73 -27zM433 507h220l-226 -506l-90 -204h-213l91 203l-224 507h226l111 -294z" />
    <glyph glyph-name="Amacron" unicode="&#x100;" horiz-adv-x="863" 
d="M619 901v-134h-376v134h376zM631 0l-43 117h-313l-42 -117h-246l278 706h333l278 -706h-245zM334 280h195l-97 265h-2z" />
    <glyph glyph-name="amacron" unicode="&#x101;" horiz-adv-x="650" 
d="M517 711v-134h-371v134h371zM589 407q24 -53 24 -123v-284h-215v59q-65 -76 -189 -76q-140 0 -181 90q-13 29 -13 65q0 37 13 68q28 62 104 84.5t194 22.5h70v7q0 31 -6 44q-15 32 -66 32t-64 -30q-5 -9 -5 -22h-217q1 34 15 66q52 114 269 114q109 0 174.5 -27.5
t92.5 -89.5zM305 123q69 0 86 39q7 15 7 44v7h-64q-79 0 -90 -26q-4 -10 -4 -19q0 -11 4 -19q12 -26 61 -26z" />
    <glyph glyph-name="Abreve" unicode="&#x102;" horiz-adv-x="863" 
d="M433 751q-101 0 -157.5 41.5t-60.5 119.5h151q8 -52 67 -52q30 0 45.5 12t22.5 40h147q-5 -78 -60 -119.5t-155 -41.5zM631 0l-43 117h-313l-42 -117h-246l278 706h333l278 -706h-245zM334 280h195l-97 265h-2z" />
    <glyph glyph-name="abreve" unicode="&#x103;" horiz-adv-x="650" 
d="M332 545q-100 0 -157 45t-62 131h144q11 -62 75 -62q33 0 50.5 14.5t23.5 47.5h143q-5 -86 -60 -131t-157 -45zM589 407q24 -53 24 -123v-284h-215v59q-65 -76 -189 -76q-140 0 -181 90q-13 29 -13 65q0 37 13 68q28 62 104 84.5t194 22.5h70v7q0 31 -6 44q-15 32 -66 32
t-64 -30q-5 -9 -5 -22h-217q1 34 15 66q52 114 269 114q109 0 174.5 -27.5t92.5 -89.5zM305 123q69 0 86 39q7 15 7 44v7h-64q-79 0 -90 -26q-4 -10 -4 -19q0 -11 4 -19q12 -26 61 -26z" />
    <glyph glyph-name="Aogonek" unicode="&#x104;" horiz-adv-x="863" 
d="M789 -77q0 -34 47 -34q22 0 40 7v-103q-40 -13 -100 -13q-70 0 -112 27t-42 78q0 77 98 115h-89l-43 117h-313l-42 -117h-246l278 706h333l278 -706q-87 -35 -87 -77zM334 280h195l-97 265h-2z" />
    <glyph glyph-name="aogonek" unicode="&#x105;" horiz-adv-x="650" 
d="M613 0q-87 -35 -87 -77q0 -34 47 -34q22 0 40 7v-103q-40 -13 -100 -13q-70 0 -112 27t-42 78q0 77 98 115h-59v59q-65 -76 -189 -76q-140 0 -181 90q-13 29 -13 65q0 37 13 68q28 62 104 84.5t194 22.5h70v7q0 31 -6 44q-15 32 -66 32t-64 -30q-5 -9 -5 -22h-217
q1 34 15 66q52 114 269 114q109 0 174.5 -27.5t92.5 -89.5q24 -53 24 -123v-284zM305 123q69 0 86 39q7 15 7 44v7h-64q-79 0 -90 -26q-4 -10 -4 -19q0 -11 4 -19q12 -26 61 -26z" />
    <glyph glyph-name="Cacute" unicode="&#x106;" horiz-adv-x="857" 
d="M312 754l106 158h225l-125 -158h-206zM439 -22q-138 0 -237.5 51.5t-145.5 152.5q-32 73 -32 172q0 96 32 169q45 99 145.5 152t237.5 53q191 0 299 -99q91 -82 97 -212h-246q-8 51 -43 83q-39 35 -110 35q-109 0 -145 -80q-18 -39 -18 -102q0 -66 16 -103
q35 -79 147 -79q75 0 116 38q35 31 38 73h246q-3 -122 -93 -203q-112 -101 -304 -101z" />
    <glyph glyph-name="cacute" unicode="&#x107;" horiz-adv-x="682" 
d="M216 553l105 168h219l-126 -168h-198zM338 -18q-106 0 -185.5 38t-113.5 115q-24 51 -24 118q0 68 24 119q33 76 111.5 114t187.5 38q167 0 260 -83q61 -57 67 -144h-231q-3 29 -25 48q-24 21 -70 21q-64 0 -85 -49q-10 -20 -10 -63t10 -63q23 -50 85 -50q46 0 71 22
q22 21 24 51h233q-6 -90 -70 -147q-93 -85 -259 -85z" />
    <glyph glyph-name="Ccircumflex" unicode="&#x108;" horiz-adv-x="857" 
d="M188 755l121 157h259l121 -157h-195l-56 70l-55 -70h-195zM439 -22q-138 0 -237.5 51.5t-145.5 152.5q-32 73 -32 172q0 96 32 169q45 99 145.5 152t237.5 53q191 0 299 -99q91 -82 97 -212h-246q-8 51 -43 83q-39 35 -110 35q-109 0 -145 -80q-18 -39 -18 -102
q0 -66 16 -103q35 -79 147 -79q75 0 116 38q35 31 38 73h246q-3 -122 -93 -203q-112 -101 -304 -101z" />
    <glyph glyph-name="ccircumflex" unicode="&#x109;" horiz-adv-x="682" 
d="M108 553l108 168h249l107 -168h-185l-47 76l-47 -76h-185zM338 -18q-106 0 -185.5 38t-113.5 115q-24 51 -24 118q0 68 24 119q33 76 111.5 114t187.5 38q167 0 260 -83q61 -57 67 -144h-231q-3 29 -25 48q-24 21 -70 21q-64 0 -85 -49q-10 -20 -10 -63t10 -63
q23 -50 85 -50q46 0 71 22q22 21 24 51h233q-6 -90 -70 -147q-93 -85 -259 -85z" />
    <glyph glyph-name="Cdotaccent" unicode="&#x10a;" horiz-adv-x="857" 
d="M439 746q-47 0 -78.5 30t-31.5 74t31.5 74t78.5 30t78.5 -30t31.5 -74t-31.5 -74t-78.5 -30zM439 -22q-138 0 -237.5 51.5t-145.5 152.5q-32 73 -32 172q0 96 32 169q45 99 145.5 152t237.5 53q191 0 299 -99q91 -82 97 -212h-246q-8 51 -43 83q-39 35 -110 35
q-109 0 -145 -80q-18 -39 -18 -102q0 -66 16 -103q35 -79 147 -79q75 0 116 38q35 31 38 73h246q-3 -122 -93 -203q-112 -101 -304 -101z" />
    <glyph glyph-name="cdotaccent" unicode="&#x10b;" horiz-adv-x="682" 
d="M340 547q-46 0 -76 28.5t-30 72.5t30 72.5t76 28.5q47 0 77 -28.5t30 -72.5t-30 -72.5t-77 -28.5zM338 -18q-106 0 -185.5 38t-113.5 115q-24 51 -24 118q0 68 24 119q33 76 111.5 114t187.5 38q167 0 260 -83q61 -57 67 -144h-231q-3 29 -25 48q-24 21 -70 21
q-64 0 -85 -49q-10 -20 -10 -63t10 -63q23 -50 85 -50q46 0 71 22q22 21 24 51h233q-6 -90 -70 -147q-93 -85 -259 -85z" />
    <glyph glyph-name="Ccaron" unicode="&#x10c;" horiz-adv-x="857" 
d="M689 912l-121 -157h-259l-121 157h195l56 -70l55 70h195zM439 -22q-138 0 -237.5 51.5t-145.5 152.5q-32 73 -32 172q0 96 32 169q45 99 145.5 152t237.5 53q191 0 299 -99q91 -82 97 -212h-246q-8 51 -43 83q-39 35 -110 35q-109 0 -145 -80q-18 -39 -18 -102
q0 -66 16 -103q35 -79 147 -79q75 0 116 38q35 31 38 73h246q-3 -122 -93 -203q-112 -101 -304 -101z" />
    <glyph glyph-name="ccaron" unicode="&#x10d;" horiz-adv-x="682" 
d="M572 721l-107 -168h-250l-107 168h185l47 -76l47 76h185zM338 -18q-106 0 -185.5 38t-113.5 115q-24 51 -24 118q0 68 24 119q33 76 111.5 114t187.5 38q167 0 260 -83q61 -57 67 -144h-231q-3 29 -25 48q-24 21 -70 21q-64 0 -85 -49q-10 -20 -10 -63t10 -63
q23 -50 85 -50q46 0 71 22q22 21 24 51h233q-6 -90 -70 -147q-93 -85 -259 -85z" />
    <glyph glyph-name="Dcaron" unicode="&#x10e;" horiz-adv-x="839" 
d="M666 912l-121 -157h-259l-121 157h195l56 -70l55 70h195zM52 0v706h374q276 0 358 -188q32 -72 32 -165q0 -98 -32 -166q-85 -187 -358 -187h-374zM284 188h116q115 0 151 76q15 31 15 89q0 56 -16 91q-34 74 -150 74h-116v-330z" />
    <glyph glyph-name="dcaron" unicode="&#x10f;" horiz-adv-x="876" 
d="M439 451v255h215v-706h-209v63q-67 -81 -182 -81q-78 0 -135 36t-87 102q-26 57 -26 133q0 74 26 134q29 66 86.5 101.5t135.5 35.5q110 0 176 -73zM699 706h200l-54 -174h-169zM443 244v18q0 50 -27.5 77t-73.5 27q-67 0 -90 -52q-10 -21 -10 -61q0 -38 10 -61
q23 -51 90 -51q46 0 73.5 27t27.5 76z" />
    <glyph glyph-name="Dcroat" unicode="&#x110;" horiz-adv-x="839" 
d="M784 518q32 -72 32 -165q0 -98 -32 -166q-85 -187 -358 -187h-374v293h-55v124h55v289h374q276 0 358 -188zM551 264q15 31 15 89q0 56 -16 91q-34 74 -150 74h-116v-101h156v-124h-156v-105h116q115 0 151 76z" />
    <glyph glyph-name="dcroat" unicode="&#x111;" horiz-adv-x="697" 
d="M697 659v-100h-43v-559h-209v63q-67 -81 -182 -81q-78 0 -135 36t-87 102q-26 57 -26 133q0 74 26 134q29 66 86.5 101.5t135.5 35.5q110 0 176 -73v108h-191v100h191v47h215v-47h43zM443 244v18q0 50 -27.5 77t-73.5 27q-67 0 -90 -52q-10 -21 -10 -61q0 -38 10 -61
q23 -51 90 -51q46 0 73.5 27t27.5 76z" />
    <glyph glyph-name="Emacron" unicode="&#x112;" horiz-adv-x="652" 
d="M150 767v134h376v-134h-376zM52 0v706h563v-176h-331v-92h328v-167h-328v-95h331v-176h-563z" />
    <glyph glyph-name="emacron" unicode="&#x113;" horiz-adv-x="678" 
d="M525 711v-134h-371v134h371zM426 143q11 10 14 22h219q-10 -62 -58 -107q-81 -76 -252 -76q-113 0 -195.5 40t-116.5 116q-22 50 -22 116q0 65 23 116q34 76 113 115t185 39q111 0 188 -41.5t111 -119.5q28 -63 28 -159h-431q4 -20 8 -29q22 -52 110 -52q53 0 76 20z
M339 388q-73 0 -98 -50q-7 -16 -9 -31h215q-1 15 -8 30q-23 51 -100 51z" />
    <glyph glyph-name="Ebreve" unicode="&#x114;" horiz-adv-x="652" 
d="M340 751q-101 0 -157.5 41.5t-60.5 119.5h151q8 -52 67 -52q30 0 45.5 12t22.5 40h147q-5 -78 -60 -119.5t-155 -41.5zM52 0v706h563v-176h-331v-92h328v-167h-328v-95h331v-176h-563z" />
    <glyph glyph-name="ebreve" unicode="&#x115;" horiz-adv-x="678" 
d="M340 545q-100 0 -157 45t-62 131h144q11 -62 75 -62q33 0 50.5 14.5t23.5 47.5h143q-5 -86 -60 -131t-157 -45zM426 143q11 10 14 22h219q-10 -62 -58 -107q-81 -76 -252 -76q-113 0 -195.5 40t-116.5 116q-22 50 -22 116q0 65 23 116q34 76 113 115t185 39
q111 0 188 -41.5t111 -119.5q28 -63 28 -159h-431q4 -20 8 -29q22 -52 110 -52q53 0 76 20zM339 388q-73 0 -98 -50q-7 -16 -9 -31h215q-1 15 -8 30q-23 51 -100 51z" />
    <glyph glyph-name="Edotaccent" unicode="&#x116;" horiz-adv-x="652" 
d="M338 746q-47 0 -78.5 30t-31.5 74t31.5 74t78.5 30t78.5 -30t31.5 -74t-31.5 -74t-78.5 -30zM52 0v706h563v-176h-331v-92h328v-167h-328v-95h331v-176h-563z" />
    <glyph glyph-name="edotaccent" unicode="&#x117;" horiz-adv-x="678" 
d="M338 547q-46 0 -76 28.5t-30 72.5t30 72.5t76 28.5q47 0 77 -28.5t30 -72.5t-30 -72.5t-77 -28.5zM426 143q11 10 14 22h219q-10 -62 -58 -107q-81 -76 -252 -76q-113 0 -195.5 40t-116.5 116q-22 50 -22 116q0 65 23 116q34 76 113 115t185 39q111 0 188 -41.5
t111 -119.5q28 -63 28 -159h-431q4 -20 8 -29q22 -52 110 -52q53 0 76 20zM339 388q-73 0 -98 -50q-7 -16 -9 -31h215q-1 15 -8 30q-23 51 -100 51z" />
    <glyph glyph-name="Eogonek" unicode="&#x118;" horiz-adv-x="652" 
d="M615 530h-331v-92h328v-167h-328v-95h331v-176q-87 -35 -87 -77q0 -34 47 -34q22 0 40 7v-103q-40 -13 -100 -13q-70 0 -112 27t-42 78q0 77 98 115h-407v706h563v-176z" />
    <glyph glyph-name="eogonek" unicode="&#x119;" horiz-adv-x="678" 
d="M426 143q11 10 14 22h219q-13 -81 -111 -150q-43 -30 -60 -48t-17 -39q0 -39 48 -39q21 0 38 7v-104q-40 -12 -100 -12q-69 0 -111 28t-42 82q0 55 47 92h-2q-113 0 -195.5 40t-116.5 116q-22 50 -22 116q0 65 23 116q34 76 113 115t185 39q111 0 188 -41.5t111 -119.5
q28 -63 28 -159h-431q4 -20 8 -29q22 -52 110 -52q53 0 76 20zM339 388q-73 0 -98 -50q-7 -16 -9 -31h215q-1 15 -8 30q-23 51 -100 51z" />
    <glyph glyph-name="Ecaron" unicode="&#x11a;" horiz-adv-x="652" 
d="M588 912l-121 -157h-259l-121 157h195l56 -70l55 70h195zM52 0v706h563v-176h-331v-92h328v-167h-328v-95h331v-176h-563z" />
    <glyph glyph-name="ecaron" unicode="&#x11b;" horiz-adv-x="678" 
d="M464 553h-250l-107 168h185l47 -76l47 76h185zM426 143q11 10 14 22h219q-10 -62 -58 -107q-81 -76 -252 -76q-113 0 -195.5 40t-116.5 116q-22 50 -22 116q0 65 23 116q34 76 113 115t185 39q111 0 188 -41.5t111 -119.5q28 -63 28 -159h-431q4 -20 8 -29
q22 -52 110 -52q53 0 76 20zM339 388q-73 0 -98 -50q-7 -16 -9 -31h215q-1 15 -8 30q-23 51 -100 51z" />
    <glyph glyph-name="Gcircumflex" unicode="&#x11c;" horiz-adv-x="873" 
d="M444 825l-55 -70h-195l121 157h259l121 -157h-195zM429 399h420v-30q0 -111 -38 -195q-88 -196 -366 -196q-141 0 -242.5 52t-145.5 150q-33 72 -33 173q0 97 35 173q46 100 145.5 151t240.5 51q197 0 305 -99q36 -32 62 -78.5t32 -93.5h-249q-8 29 -30 51
q-38 34 -118 34q-119 0 -156 -82q-17 -38 -17 -106t16 -107q38 -84 160 -84q119 0 150 67q6 14 8 22h-179v147z" />
    <glyph glyph-name="gcircumflex" unicode="&#x11d;" horiz-adv-x="692" 
d="M340 629l-47 -76h-185l108 168h249l107 -168h-185zM436 507h213v-464q0 -75 -24 -129q-60 -134 -283 -134q-173 0 -252 72q-49 43 -61 114h227q6 -15 14 -22q24 -20 68 -20q67 0 86 43q8 16 8 43v69q-65 -80 -176 -80q-75 0 -131.5 34.5t-84.5 97.5q-25 56 -25 131
t25 131q28 62 84 96.5t132 34.5q114 0 180 -85v68zM337 152q45 0 70.5 25t25.5 73v20q0 48 -25.5 73t-70.5 25q-65 0 -85 -47q-10 -21 -10 -59q0 -42 10 -63q20 -47 85 -47z" />
    <glyph glyph-name="Gbreve" unicode="&#x11e;" horiz-adv-x="873" 
d="M447 751q-101 0 -157.5 41.5t-60.5 119.5h151q8 -52 67 -52q30 0 45.5 12t22.5 40h147q-5 -78 -60 -119.5t-155 -41.5zM429 399h420v-30q0 -111 -38 -195q-88 -196 -366 -196q-141 0 -242.5 52t-145.5 150q-33 72 -33 173q0 97 35 173q46 100 145.5 151t240.5 51
q197 0 305 -99q36 -32 62 -78.5t32 -93.5h-249q-8 29 -30 51q-38 34 -118 34q-119 0 -156 -82q-17 -38 -17 -106t16 -107q38 -84 160 -84q119 0 150 67q6 14 8 22h-179v147z" />
    <glyph glyph-name="gbreve" unicode="&#x11f;" horiz-adv-x="692" 
d="M341 545q-100 0 -157 45t-62 131h144q11 -62 75 -62q33 0 50.5 14.5t23.5 47.5h143q-5 -86 -60 -131t-157 -45zM436 507h213v-464q0 -75 -24 -129q-60 -134 -283 -134q-173 0 -252 72q-49 43 -61 114h227q6 -15 14 -22q24 -20 68 -20q67 0 86 43q8 16 8 43v69
q-65 -80 -176 -80q-75 0 -131.5 34.5t-84.5 97.5q-25 56 -25 131t25 131q28 62 84 96.5t132 34.5q114 0 180 -85v68zM337 152q45 0 70.5 25t25.5 73v20q0 48 -25.5 73t-70.5 25q-65 0 -85 -47q-10 -21 -10 -59q0 -42 10 -63q20 -47 85 -47z" />
    <glyph glyph-name="Gdotaccent" unicode="&#x120;" horiz-adv-x="873" 
d="M445 746q-47 0 -78.5 30t-31.5 74t31.5 74t78.5 30t78.5 -30t31.5 -74t-31.5 -74t-78.5 -30zM429 399h420v-30q0 -111 -38 -195q-88 -196 -366 -196q-141 0 -242.5 52t-145.5 150q-33 72 -33 173q0 97 35 173q46 100 145.5 151t240.5 51q197 0 305 -99q36 -32 62 -78.5
t32 -93.5h-249q-8 29 -30 51q-38 34 -118 34q-119 0 -156 -82q-17 -38 -17 -106t16 -107q38 -84 160 -84q119 0 150 67q6 14 8 22h-179v147z" />
    <glyph glyph-name="gdotaccent" unicode="&#x121;" horiz-adv-x="692" 
d="M339 547q-46 0 -76 28.5t-30 72.5t30 72.5t76 28.5q47 0 77 -28.5t30 -72.5t-30 -72.5t-77 -28.5zM436 507h213v-464q0 -75 -24 -129q-60 -134 -283 -134q-173 0 -252 72q-49 43 -61 114h227q6 -15 14 -22q24 -20 68 -20q67 0 86 43q8 16 8 43v69q-65 -80 -176 -80
q-75 0 -131.5 34.5t-84.5 97.5q-25 56 -25 131t25 131q28 62 84 96.5t132 34.5q114 0 180 -85v68zM337 152q45 0 70.5 25t25.5 73v20q0 48 -25.5 73t-70.5 25q-65 0 -85 -47q-10 -21 -10 -59q0 -42 10 -63q20 -47 85 -47z" />
    <glyph glyph-name="uni0122" unicode="&#x122;" horiz-adv-x="873" 
d="M429 399h420v-30q0 -111 -38 -195q-88 -196 -366 -196q-141 0 -242.5 52t-145.5 150q-33 72 -33 173q0 97 35 173q46 100 145.5 151t240.5 51q197 0 305 -99q36 -32 62 -78.5t32 -93.5h-249q-8 29 -30 51q-38 34 -118 34q-119 0 -156 -82q-17 -38 -17 -106t16 -107
q38 -84 160 -84q119 0 150 67q6 14 8 22h-179v147zM306 -202l30 148h221l-58 -148h-193z" />
    <glyph glyph-name="uni0123" unicode="&#x123;" horiz-adv-x="692" 
d="M452 717l-31 -148h-220l58 148h193zM436 507h213v-464q0 -75 -24 -129q-60 -134 -283 -134q-173 0 -252 72q-49 43 -61 114h227q6 -15 14 -22q24 -20 68 -20q67 0 86 43q8 16 8 43v69q-65 -80 -176 -80q-75 0 -131.5 34.5t-84.5 97.5q-25 56 -25 131t25 131
q28 62 84 96.5t132 34.5q114 0 180 -85v68zM337 152q45 0 70.5 25t25.5 73v20q0 48 -25.5 73t-70.5 25q-65 0 -85 -47q-10 -21 -10 -59q0 -42 10 -63q20 -47 85 -47z" />
    <glyph glyph-name="Hcircumflex" unicode="&#x124;" horiz-adv-x="855" 
d="M177 755l121 157h259l121 -157h-195l-56 70l-55 -70h-195zM52 0v706h232v-262h287v262h232v-706h-232v262h-287v-262h-232z" />
    <glyph glyph-name="hcircumflex" unicode="&#x125;" horiz-adv-x="676" 
d="M338 825l-55 -70h-195l121 157h259l121 -157h-195zM437 524q98 0 149.5 -53t51.5 -154v-317h-215v275q0 91 -79 91q-86 0 -86 -102v-264h-215v706h215v-264q69 82 179 82z" />
    <glyph glyph-name="Hbar" unicode="&#x126;" horiz-adv-x="855" 
d="M571 706h232v-706h-232v262h-287v-262h-232v706h232v-76h287v76zM284 444h287v76h-287v-76z" />
    <glyph glyph-name="hbar" unicode="&#x127;" horiz-adv-x="676" 
d="M437 524q98 0 149.5 -53t51.5 -154v-317h-215v275q0 91 -79 91q-86 0 -86 -102v-264h-215v559h-45v100h45v47h215v-47h189v-100h-189v-117q69 82 179 82z" />
    <glyph glyph-name="Itilde" unicode="&#x128;" horiz-adv-x="337" 
d="M232 751q-42 0 -79 27q-29 19 -43 19q-23 0 -26 -42h-108q9 161 122 161q44 0 81 -30q24 -17 36 -17q14 0 20 9.5t10 33.5h109q-5 -81 -33 -121t-89 -40zM52 0v706h232v-706h-232z" />
    <glyph glyph-name="itilde" unicode="&#x129;" horiz-adv-x="301" 
d="M218 552q-38 0 -73 25q-27 20 -38 20q-25 0 -30 -43h-106q5 93 30 135t81 42q39 0 73 -26q26 -19 38 -19q25 0 30 42h106q-4 -92 -29 -134t-82 -42zM43 0v507h215v-507h-215z" />
    <glyph glyph-name="Imacron" unicode="&#x12a;" horiz-adv-x="337" 
d="M2 767v134h331v-134h-331zM52 0v706h232v-706h-232z" />
    <glyph glyph-name="imacron" unicode="&#x12b;" horiz-adv-x="301" 
d="M-7 577v134h315v-134h-315zM43 0v507h215v-507h-215z" />
    <glyph glyph-name="Ibreve" unicode="&#x12c;" horiz-adv-x="337" 
d="M169 748q-92 0 -143.5 42.5t-53.5 121.5h147q3 -30 14.5 -41.5t35.5 -11.5q23 0 34 12t15 41h147q-2 -79 -53 -121.5t-143 -42.5zM52 0v706h232v-706h-232z" />
    <glyph glyph-name="ibreve" unicode="&#x12d;" horiz-adv-x="301" 
d="M151 543q-85 0 -131 45.5t-48 132.5h131q1 -39 12.5 -54t35.5 -15q23 0 34.5 15t12.5 54h131q-2 -87 -48 -132.5t-130 -45.5zM43 0v507h215v-507h-215z" />
    <glyph glyph-name="Iogonek" unicode="&#x12e;" horiz-adv-x="337" 
d="M218 -81q0 -30 34 -30q18 0 33 7v-104q-37 -12 -90 -12q-65 0 -104.5 25.5t-39.5 76.5q0 78 78 118h-77v706h232v-706h1q-67 -37 -67 -81z" />
    <glyph glyph-name="iogonek" unicode="&#x12f;" horiz-adv-x="301" 
d="M150 547q-45 0 -75 28t-30 72q0 43 30 71.5t75 28.5q46 0 76 -28t30 -72t-29.5 -72t-76.5 -28zM258 0q-67 -37 -67 -81q0 -30 34 -30q18 0 33 7v-104q-38 -12 -90 -12q-65 0 -104.5 25.5t-39.5 76.5q0 78 78 118h-59v507h215v-507z" />
    <glyph glyph-name="Idotaccent" unicode="&#x130;" horiz-adv-x="337" 
d="M168 746q-47 0 -78.5 30t-31.5 74t31.5 74t78.5 30t78.5 -30t31.5 -74t-31.5 -74t-78.5 -30zM52 0v706h232v-706h-232z" />
    <glyph glyph-name="dotlessi" unicode="&#x131;" horiz-adv-x="301" 
d="M43 0v507h215v-507h-215z" />
    <glyph glyph-name="IJ" unicode="&#x132;" horiz-adv-x="741" 
d="M52 0v706h232v-706h-232zM437 -7q-41 0 -92 7v192q24 -2 40 -2q51 0 69.5 21t18.5 80v415h232v-448q0 -136 -63 -200.5t-205 -64.5z" />
    <glyph glyph-name="ij" unicode="&#x133;" horiz-adv-x="606" 
d="M151 547q-46 0 -76 28t-30 72q0 43 30 71.5t76 28.5t76 -28.5t30 -71.5q0 -44 -30 -72t-76 -28zM456 547q-46 0 -76 28t-30 72q0 43 30 71.5t76 28.5t76 -28.5t30 -71.5q0 -44 -30 -72t-76 -28zM43 0v507h215v-507h-215zM348 -216q-33 0 -87 6v172q21 -3 39 -3
q49 0 49 49v499h215v-515q0 -109 -50.5 -158.5t-165.5 -49.5z" />
    <glyph glyph-name="Jcircumflex" unicode="&#x134;" horiz-adv-x="404" 
d="M26 755l98 157h259l98 -157h-188l-39 67l-40 -67h-188zM100 -7q-41 0 -92 7v192q24 -2 40 -2q51 0 69.5 21t18.5 80v415h232v-448q0 -136 -63 -200.5t-205 -64.5z" />
    <glyph glyph-name="jcircumflex" unicode="&#x135;" horiz-adv-x="305" 
d="M-29 553l84 168h200l83 -168h-149l-34 76l-34 -76h-150zM47 -216q-33 0 -87 6v172q21 -3 39 -3q49 0 49 49v499h215v-515q0 -109 -50.5 -158.5t-165.5 -49.5z" />
    <glyph glyph-name="uni0136" unicode="&#x136;" horiz-adv-x="821" 
d="M488 386l346 -386h-293l-257 299v-299h-232v706h232v-249l228 249h284zM263 -202l30 148h221l-58 -148h-193z" />
    <glyph glyph-name="uni0137" unicode="&#x137;" horiz-adv-x="667" 
d="M258 197v-197h-215v706h215v-352l141 153h271l-225 -227l245 -280h-274zM195 -202l30 148h221l-58 -148h-193z" />
    <glyph glyph-name="kgreenlandic" unicode="&#x138;" horiz-adv-x="667" 
d="M690 0h-274l-158 197v-197h-215v507h215v-153l141 153h271l-225 -227z" />
    <glyph glyph-name="Lacute" unicode="&#x139;" horiz-adv-x="507" 
d="M55 754l106 158h225l-125 -158h-206zM52 0v706h232v-514h214v-192h-446z" />
    <glyph glyph-name="lacute" unicode="&#x13a;" horiz-adv-x="301" 
d="M24 754l106 158h225l-125 -158h-206zM43 0v706h215v-706h-215z" />
    <glyph glyph-name="uni013B" unicode="&#x13b;" horiz-adv-x="507" 
d="M52 0v706h232v-514h214v-192h-446zM140 -202l30 148h221l-58 -148h-193z" />
    <glyph glyph-name="uni013C" unicode="&#x13c;" horiz-adv-x="301" 
d="M43 0v706h215v-706h-215zM12 -202l30 148h221l-58 -148h-193z" />
    <glyph glyph-name="Lcaron" unicode="&#x13d;" horiz-adv-x="507" 
d="M52 0v706h232v-514h214v-192h-446zM310 532l23 174h200l-54 -174h-169z" />
    <glyph glyph-name="lcaron" unicode="&#x13e;" horiz-adv-x="479" 
d="M43 0v706h215v-706h-215zM279 532l23 174h200l-54 -174h-169z" />
    <glyph glyph-name="Ldot" unicode="&#x13f;" horiz-adv-x="594" 
d="M52 0v706h232v-514h214v-192h-446zM467 314q-52 0 -85 32.5t-33 83.5q0 53 32.5 84.5t85.5 31.5q52 0 84 -31.5t32 -84.5q0 -51 -32.5 -83.5t-83.5 -32.5z" />
    <glyph glyph-name="ldot" unicode="&#x140;" horiz-adv-x="545" 
d="M43 0v706h215v-706h-215zM424 253q-52 0 -85 32.5t-33 83.5q0 53 32.5 84.5t85.5 31.5q52 0 84 -31.5t32 -84.5q0 -51 -32.5 -83.5t-83.5 -32.5z" />
    <glyph glyph-name="Lslash" unicode="&#x141;" horiz-adv-x="507" 
d="M284 192h214v-192h-446v251l-58 -33v147l58 34v307h232v-209l134 77v-149l-134 -77v-156z" />
    <glyph glyph-name="lslash" unicode="&#x142;" horiz-adv-x="344" 
d="M343 554v-161l-68 -46v-347h-215v244l-60 -39v160l60 39v302h215v-198z" />
    <glyph glyph-name="Nacute" unicode="&#x143;" horiz-adv-x="861" 
d="M310 754l106 158h225l-125 -158h-206zM52 0v706h243l287 -403v403h227v-706h-248l-282 396v-396h-227z" />
    <glyph glyph-name="nacute" unicode="&#x144;" horiz-adv-x="676" 
d="M541 721l-126 -168h-198l105 168h219zM437 524q98 0 149.5 -53t51.5 -154v-317h-215v275q0 91 -79 91q-86 0 -86 -102v-264h-215v507h215v-65q69 82 179 82z" />
    <glyph glyph-name="uni0145" unicode="&#x145;" horiz-adv-x="861" 
d="M52 0v706h243l287 -403v403h227v-706h-248l-282 396v-396h-227zM277 -202l30 148h221l-58 -148h-193z" />
    <glyph glyph-name="uni0146" unicode="&#x146;" horiz-adv-x="676" 
d="M437 524q98 0 149.5 -53t51.5 -154v-317h-215v275q0 91 -79 91q-86 0 -86 -102v-264h-215v507h215v-65q69 82 179 82zM201 -202l30 148h221l-58 -148h-193z" />
    <glyph glyph-name="Ncaron" unicode="&#x147;" horiz-adv-x="861" 
d="M687 912l-121 -157h-259l-121 157h195l56 -70l55 70h195zM52 0v706h243l287 -403v403h227v-706h-248l-282 396v-396h-227z" />
    <glyph glyph-name="ncaron" unicode="&#x148;" horiz-adv-x="676" 
d="M466 553h-250l-107 168h185l47 -76l47 76h185zM437 524q98 0 149.5 -53t51.5 -154v-317h-215v275q0 91 -79 91q-86 0 -86 -102v-264h-215v507h215v-65q69 82 179 82z" />
    <glyph glyph-name="napostrophe" unicode="&#x149;" horiz-adv-x="898" 
d="M85 706h214l-128 -290h-156zM659 524q99 0 150 -53t51 -154v-317h-215v275q0 91 -78 91q-87 0 -87 -102v-264h-215v507h215v-66q70 83 179 83z" />
    <glyph glyph-name="Eng" unicode="&#x14a;" horiz-adv-x="861" 
d="M582 706h227v-707q0 -109 -53 -158.5t-171 -49.5q-48 0 -90 6v172q19 -3 35 -3q52 0 52 44v3l-303 383v-396h-227v706h243l287 -363v363z" />
    <glyph glyph-name="eng" unicode="&#x14b;" horiz-adv-x="676" 
d="M435 524q100 0 151.5 -53t51.5 -154v-318q0 -109 -51 -158.5t-164 -49.5q-46 0 -88 6v172q15 -3 39 -3q49 0 49 48v261q0 91 -79 91q-86 0 -86 -102v-264h-215v507h215v-65q69 82 177 82z" />
    <glyph glyph-name="Omacron" unicode="&#x14c;" horiz-adv-x="876" 
d="M250 767v134h376v-134h-376zM438 -23q-138 0 -237 51t-143 150q-34 76 -34 175q0 94 33 171q45 100 144.5 152.5t237.5 52.5q137 0 235.5 -51.5t142.5 -148.5q35 -80 35 -176q0 -101 -37 -180q-45 -96 -143 -146t-234 -50zM439 171q112 0 149 84q15 37 15 98
q0 65 -17 102q-36 80 -149 80q-109 0 -147 -81q-16 -33 -16 -100q0 -64 16 -100q38 -83 149 -83z" />
    <glyph glyph-name="omacron" unicode="&#x14d;" horiz-adv-x="689" 
d="M160 577v134h371v-134h-371zM345 -18q-113 0 -193.5 41t-115.5 120q-21 46 -21 110q0 65 21 111q35 79 115.5 119.5t193.5 40.5t193 -40t114 -116q22 -50 22 -115q0 -64 -22 -114q-34 -76 -114.5 -116.5t-192.5 -40.5zM345 141q71 0 93 49q10 23 10 63q0 42 -10 63
q-22 50 -93 50t-93 -51q-10 -21 -10 -62q0 -40 10 -61q22 -51 93 -51z" />
    <glyph glyph-name="Obreve" unicode="&#x14e;" horiz-adv-x="876" 
d="M440 751q-101 0 -157.5 41.5t-60.5 119.5h151q8 -52 67 -52q30 0 45.5 12t22.5 40h147q-5 -78 -60 -119.5t-155 -41.5zM438 -23q-138 0 -237 51t-143 150q-34 76 -34 175q0 94 33 171q45 100 144.5 152.5t237.5 52.5q137 0 235.5 -51.5t142.5 -148.5q35 -80 35 -176
q0 -101 -37 -180q-45 -96 -143 -146t-234 -50zM439 171q112 0 149 84q15 37 15 98q0 65 -17 102q-36 80 -149 80q-109 0 -147 -81q-16 -33 -16 -100q0 -64 16 -100q38 -83 149 -83z" />
    <glyph glyph-name="obreve" unicode="&#x14f;" horiz-adv-x="689" 
d="M346 545q-100 0 -157 45t-62 131h144q11 -62 75 -62q33 0 50.5 14.5t23.5 47.5h143q-5 -86 -60 -131t-157 -45zM345 -18q-113 0 -193.5 41t-115.5 120q-21 46 -21 110q0 65 21 111q35 79 115.5 119.5t193.5 40.5t193 -40t114 -116q22 -50 22 -115q0 -64 -22 -114
q-34 -76 -114.5 -116.5t-192.5 -40.5zM345 141q71 0 93 49q10 23 10 63q0 42 -10 63q-22 50 -93 50t-93 -51q-10 -21 -10 -62q0 -40 10 -61q22 -51 93 -51z" />
    <glyph glyph-name="Ohungarumlaut" unicode="&#x150;" horiz-adv-x="876" 
d="M218 755l106 157h188l-130 -157h-164zM448 755l106 157h189l-131 -157h-164zM438 -23q-138 0 -237 51t-143 150q-34 76 -34 175q0 94 33 171q45 100 144.5 152.5t237.5 52.5q137 0 235.5 -51.5t142.5 -148.5q35 -80 35 -176q0 -101 -37 -180q-45 -96 -143 -146t-234 -50z
M439 171q112 0 149 84q15 37 15 98q0 65 -17 102q-36 80 -149 80q-109 0 -147 -81q-16 -33 -16 -100q0 -64 16 -100q38 -83 149 -83z" />
    <glyph glyph-name="ohungarumlaut" unicode="&#x151;" horiz-adv-x="689" 
d="M127 553l107 168h188l-132 -168h-163zM357 553l107 168h188l-131 -168h-164zM345 -18q-113 0 -193.5 41t-115.5 120q-21 46 -21 110q0 65 21 111q35 79 115.5 119.5t193.5 40.5t193 -40t114 -116q22 -50 22 -115q0 -64 -22 -114q-34 -76 -114.5 -116.5t-192.5 -40.5z
M345 141q71 0 93 49q10 23 10 63q0 42 -10 63q-22 50 -93 50t-93 -51q-10 -21 -10 -62q0 -40 10 -61q22 -51 93 -51z" />
    <glyph glyph-name="OE" unicode="&#x152;" horiz-adv-x="1195" 
d="M1158 530h-331v-92h328v-167h-328v-95h331v-176h-596q-52 -13 -123 -13q-138 0 -238 49.5t-144 146.5q-33 75 -33 170t33 170q44 97 144 146.5t238 49.5q71 0 123 -13h596v-176zM290 254q39 -84 149 -84q112 0 149 85q15 37 15 98q0 65 -17 102q-36 80 -149 80
q-109 0 -147 -81q-16 -33 -16 -100q0 -64 16 -100z" />
    <glyph glyph-name="oe" unicode="&#x153;" horiz-adv-x="1021" 
d="M766 140q11 11 14 25h223q-11 -67 -59 -113q-79 -70 -231 -70q-122 0 -199 53q-74 -53 -191 -53q-103 0 -177 39t-107 112q-24 53 -24 120q0 69 24 121q33 73 107 111.5t177 38.5q115 0 189 -51q74 51 188 51q206 0 278 -155q28 -64 28 -165h-385q2 -20 9 -35
q20 -46 82 -46q37 0 54 17zM703 388q-52 0 -73 -46q-7 -14 -10 -35h167q-3 21 -9 36q-21 45 -75 45zM389 182q11 26 11 71q0 46 -11 72q-18 41 -66 41t-66 -41q-12 -25 -12 -72q0 -46 12 -71q18 -41 66 -41t66 41z" />
    <glyph glyph-name="Racute" unicode="&#x154;" horiz-adv-x="745" 
d="M559 912l-125 -158h-206l106 158h225zM755 0h-273l-198 250v-250h-232v706h382q186 0 243 -124q20 -45 20 -106q0 -63 -20 -108q-37 -86 -143 -107zM367 545h-83v-157h83q70 0 89 40q7 16 7 39q0 19 -7 36q-20 42 -89 42z" />
    <glyph glyph-name="racute" unicode="&#x155;" horiz-adv-x="505" 
d="M138 553l105 168h219l-126 -168h-198zM43 0v507h213v-56q47 73 121 73q56 0 89.5 -32t33.5 -85q0 -52 -33.5 -85t-85.5 -33q-35 0 -62.5 16.5t-39.5 43.5q-13 -5 -17 -15.5t-4 -38.5v-295h-215z" />
    <glyph glyph-name="uni0156" unicode="&#x156;" horiz-adv-x="745" 
d="M284 250v-250h-232v706h382q186 0 243 -124q20 -45 20 -106q0 -63 -20 -108q-37 -86 -143 -107l221 -261h-273zM367 545h-83v-157h83q70 0 89 40q7 16 7 39q0 19 -7 36q-20 42 -89 42zM241 -202l30 148h221l-58 -148h-193z" />
    <glyph glyph-name="uni0157" unicode="&#x157;" horiz-adv-x="505" 
d="M43 0v507h213v-56q47 73 121 73q56 0 89.5 -32t33.5 -85q0 -52 -33.5 -85t-85.5 -33q-35 0 -62.5 16.5t-39.5 43.5q-13 -5 -17 -15.5t-4 -38.5v-295h-215zM9 -202l30 148h221l-58 -148h-193z" />
    <glyph glyph-name="Rcaron" unicode="&#x158;" horiz-adv-x="745" 
d="M484 755h-259l-121 157h195l56 -70l55 70h195zM755 0h-273l-198 250v-250h-232v706h382q186 0 243 -124q20 -45 20 -106q0 -63 -20 -108q-37 -86 -143 -107zM367 545h-83v-157h83q70 0 89 40q7 16 7 39q0 19 -7 36q-20 42 -89 42z" />
    <glyph glyph-name="rcaron" unicode="&#x159;" horiz-adv-x="505" 
d="M494 721l-107 -168h-250l-107 168h185l47 -76l47 76h185zM43 0v507h213v-56q47 73 121 73q56 0 89.5 -32t33.5 -85q0 -52 -33.5 -85t-85.5 -33q-35 0 -62.5 16.5t-39.5 43.5q-13 -5 -17 -15.5t-4 -38.5v-295h-215z" />
    <glyph glyph-name="Sacute" unicode="&#x15a;" horiz-adv-x="728" 
d="M227 754l106 158h225l-125 -158h-206zM361 -23q-124 0 -207 38t-115 109q-16 39 -18 90h248q2 -23 7 -34q20 -43 90 -43q67 0 82 34q5 9 5 21q0 10 -5 22q-6 13 -21 23.5t-39 18.5t-46 14t-56.5 13.5t-54.5 13.5q-139 38 -180 124q-16 37 -16 83q0 44 17 83
q30 67 111.5 104.5t197.5 37.5q114 0 194.5 -37t112.5 -107q17 -38 18 -85h-241q-1 22 -8 36q-17 39 -83 39q-58 0 -72 -29q-3 -8 -3 -17t3 -18q5 -11 16.5 -20t33 -16t39.5 -12t52.5 -13l54.5 -13q82 -22 135.5 -51.5t76.5 -82.5q17 -37 17 -87q0 -53 -19 -94
q-32 -71 -117.5 -108t-209.5 -37z" />
    <glyph glyph-name="sacute" unicode="&#x15b;" horiz-adv-x="579" 
d="M166 553l105 168h219l-126 -168h-198zM285 -20q-203 0 -251 107q-16 37 -16 77h214q0 -20 6 -30q11 -28 51 -28q34 0 43 19q3 6 3 14t-3 14q-3 8 -11.5 14t-23.5 11t-27.5 8.5t-35.5 8.5t-37 9q-122 33 -151 97q-12 24 -12 56q0 35 13 62q24 53 91 79t156 26
q191 0 238 -103q14 -30 14 -64h-207q0 16 -5 29q-10 24 -44 24q-27 0 -36 -16q-4 -6 -4 -14t3 -14q3 -5 8.5 -9.5t14.5 -8.5t17 -7t22 -6.5l22 -5.5t24.5 -5.5t23.5 -4.5q133 -30 165 -103q11 -23 11 -58q0 -38 -13 -67q-50 -111 -263 -111z" />
    <glyph glyph-name="Scircumflex" unicode="&#x15c;" horiz-adv-x="728" 
d="M107 755l121 157h259l121 -157h-195l-56 70l-55 -70h-195zM361 -23q-124 0 -207 38t-115 109q-16 39 -18 90h248q2 -23 7 -34q20 -43 90 -43q67 0 82 34q5 9 5 21q0 10 -5 22q-6 13 -21 23.5t-39 18.5t-46 14t-56.5 13.5t-54.5 13.5q-139 38 -180 124q-16 37 -16 83
q0 44 17 83q30 67 111.5 104.5t197.5 37.5q114 0 194.5 -37t112.5 -107q17 -38 18 -85h-241q-1 22 -8 36q-17 39 -83 39q-58 0 -72 -29q-3 -8 -3 -17t3 -18q5 -11 16.5 -20t33 -16t39.5 -12t52.5 -13l54.5 -13q82 -22 135.5 -51.5t76.5 -82.5q17 -37 17 -87q0 -53 -19 -94
q-32 -71 -117.5 -108t-209.5 -37z" />
    <glyph glyph-name="scircumflex" unicode="&#x15d;" horiz-adv-x="579" 
d="M58 553l108 168h249l107 -168h-185l-47 76l-47 -76h-185zM285 -20q-203 0 -251 107q-16 37 -16 77h214q0 -20 6 -30q11 -28 51 -28q34 0 43 19q3 6 3 14t-3 14q-3 8 -11.5 14t-23.5 11t-27.5 8.5t-35.5 8.5t-37 9q-122 33 -151 97q-12 24 -12 56q0 35 13 62q24 53 91 79
t156 26q191 0 238 -103q14 -30 14 -64h-207q0 16 -5 29q-10 24 -44 24q-27 0 -36 -16q-4 -6 -4 -14t3 -14q3 -5 8.5 -9.5t14.5 -8.5t17 -7t22 -6.5l22 -5.5t24.5 -5.5t23.5 -4.5q133 -30 165 -103q11 -23 11 -58q0 -38 -13 -67q-50 -111 -263 -111z" />
    <glyph glyph-name="Scedilla" unicode="&#x15e;" horiz-adv-x="728" 
d="M690 303q17 -37 17 -87q0 -53 -19 -94q-46 -104 -204 -134q55 -25 55 -92q0 -65 -47.5 -91.5t-137.5 -26.5q-75 0 -133 19l23 93q44 -16 89 -16q61 0 61 30q0 28 -61 28h-79l14 51q-178 26 -229 141q-16 39 -18 90h248q2 -23 7 -34q20 -43 90 -43q67 0 82 34q5 9 5 21
q0 10 -5 22q-6 13 -21 23.5t-39 18.5t-46 14t-56.5 13.5t-54.5 13.5q-139 38 -180 124q-16 37 -16 83q0 44 17 83q30 67 111.5 104.5t197.5 37.5q114 0 194.5 -37t112.5 -107q17 -38 18 -85h-241q-1 22 -8 36q-17 39 -83 39q-58 0 -72 -29q-3 -8 -3 -17t3 -18
q5 -11 16.5 -20t33 -16t39.5 -12t52.5 -13l54.5 -13q82 -22 135.5 -51.5t76.5 -82.5z" />
    <glyph glyph-name="scedilla" unicode="&#x15f;" horiz-adv-x="579" 
d="M550 216q11 -23 11 -58q0 -38 -13 -67q-33 -75 -146 -99q64 -23 64 -96q0 -65 -47.5 -91.5t-137.5 -26.5q-73 0 -133 19l23 93q45 -16 89 -16q61 0 61 30q0 28 -61 28h-79l15 55q-128 21 -162 100q-16 37 -16 77h214q0 -20 6 -30q11 -28 51 -28q34 0 43 19q3 6 3 14
t-3 14q-3 8 -11.5 14t-23.5 11t-27.5 8.5t-35.5 8.5t-37 9q-122 33 -151 97q-12 24 -12 56q0 35 13 62q24 53 91 79t156 26q191 0 238 -103q14 -30 14 -64h-207q0 16 -5 29q-10 24 -44 24q-27 0 -36 -16q-4 -6 -4 -14t3 -14q3 -5 8.5 -9.5t14.5 -8.5t17 -7t22 -6.5l22 -5.5
t24.5 -5.5t23.5 -4.5q133 -30 165 -103z" />
    <glyph glyph-name="Scaron" unicode="&#x160;" horiz-adv-x="728" 
d="M608 912l-121 -157h-260l-120 157h194l56 -70l55 70h196zM361 -23q-124 0 -207 38t-115 109q-16 39 -18 90h248q2 -23 7 -34q20 -43 90 -43q67 0 82 34q5 9 5 21q0 10 -5 22q-6 13 -21 23.5t-39 18.5t-46 14t-56.5 13.5t-54.5 13.5q-139 38 -180 124q-16 37 -16 83
q0 44 17 83q30 67 111.5 104.5t197.5 37.5q114 0 194.5 -37t112.5 -107q17 -38 18 -85h-241q-1 22 -8 36q-17 39 -83 39q-58 0 -72 -29q-3 -8 -3 -17t3 -18q5 -11 16.5 -20t33 -16t39.5 -12t52.5 -13l54.5 -13q82 -22 135.5 -51.5t76.5 -82.5q17 -37 17 -87q0 -53 -19 -94
q-32 -71 -117.5 -108t-209.5 -37z" />
    <glyph glyph-name="scaron" unicode="&#x161;" horiz-adv-x="579" 
d="M522 721l-107 -168h-250l-107 168h185l47 -76l47 76h185zM285 -20q-203 0 -251 107q-16 37 -16 77h214q0 -20 6 -30q11 -28 51 -28q34 0 43 19q3 6 3 14t-3 14q-3 8 -11.5 14t-23.5 11t-27.5 8.5t-35.5 8.5t-37 9q-122 33 -151 97q-12 24 -12 56q0 35 13 62q24 53 91 79
t156 26q191 0 238 -103q14 -30 14 -64h-207q0 16 -5 29q-10 24 -44 24q-27 0 -36 -16q-4 -6 -4 -14t3 -14q3 -5 8.5 -9.5t14.5 -8.5t17 -7t22 -6.5l22 -5.5t24.5 -5.5t23.5 -4.5q133 -30 165 -103q11 -23 11 -58q0 -38 -13 -67q-50 -111 -263 -111z" />
    <glyph glyph-name="uni0162" unicode="&#x162;" horiz-adv-x="589" 
d="M410 0h-57q58 -1 87 -29t29 -75q0 -65 -47.5 -91.5t-137.5 -26.5q-73 0 -133 19l23 93q45 -16 89 -16q61 0 61 30q0 28 -61 28h-79l18 68h-24v524h-170v182h572v-182h-170v-524z" />
    <glyph glyph-name="uni0163" unicode="&#x163;" horiz-adv-x="449" 
d="M379 -6q64 -23 64 -96q0 -65 -47.5 -91.5t-137.5 -26.5q-73 0 -133 19l23 93q45 -16 89 -16q61 0 61 30q0 28 -61 28h-79l20 74q-88 38 -88 170v168h-74v161h74v121h215v-121h128v-161h-128v-124q0 -38 16.5 -53t50.5 -15q23 0 57 7v-159q-30 -6 -50 -8z" />
    <glyph glyph-name="Tcaron" unicode="&#x164;" horiz-adv-x="589" 
d="M545 912l-121 -157h-259l-121 157h195l56 -70l55 70h195zM178 0v524h-170v182h572v-182h-170v-524h-232z" />
    <glyph glyph-name="tcaron" unicode="&#x165;" horiz-adv-x="527" 
d="M329 532l23 174h200l-54 -174h-169zM291 -12q-104 0 -152.5 45t-48.5 145v168h-74v161h74v121h215v-121h128v-161h-128v-124q0 -38 16.5 -53t50.5 -15q23 0 57 7v-159q-68 -14 -138 -14z" />
    <glyph glyph-name="Tbar" unicode="&#x166;" horiz-adv-x="589" 
d="M580 524h-170v-108h121v-124h-121v-292h-232v292h-121v124h121v108h-170v182h572v-182z" />
    <glyph glyph-name="tbar" unicode="&#x167;" horiz-adv-x="449" 
d="M433 346h-128v-38h125v-104h-124q6 -50 66 -50q23 0 57 7v-159q-68 -14 -138 -14q-104 0 -152.5 45t-48.5 145v26h-74v104h74v38h-74v161h74v121h215v-121h128v-161z" />
    <glyph glyph-name="Utilde" unicode="&#x168;" horiz-adv-x="802" 
d="M495 751q-36 0 -91 21q-53 20 -71 20q-32 0 -37 -37h-123q7 85 42 124.5t100 39.5q38 0 89 -24q34 -16 58 -16q17 0 26.5 8t16.5 28h125q-9 -164 -135 -164zM401 -23q-187 0 -276 79t-89 239v411h232v-397q0 -71 32 -105.5t100 -34.5q69 0 101.5 34.5t32.5 105.5v397h232
v-411q0 -161 -89 -239.5t-276 -78.5z" />
    <glyph glyph-name="utilde" unicode="&#x169;" horiz-adv-x="676" 
d="M275 597q-33 0 -39 -44h-117q6 91 37 134.5t92 43.5q42 0 88 -24q44 -22 62 -22q16 0 25 9.5t13 33.5h118q-4 -94 -34.5 -135t-90.5 -41q-44 0 -88 21q-52 24 -66 24zM418 507h215v-507h-215v65q-69 -82 -179 -82q-98 0 -149.5 53t-51.5 154v317h215v-275q0 -91 79 -91
q86 0 86 102v264z" />
    <glyph glyph-name="Umacron" unicode="&#x16a;" horiz-adv-x="802" 
d="M213 767v134h376v-134h-376zM401 -23q-187 0 -276 79t-89 239v411h232v-397q0 -71 32 -105.5t100 -34.5q69 0 101.5 34.5t32.5 105.5v397h232v-411q0 -161 -89 -239.5t-276 -78.5z" />
    <glyph glyph-name="umacron" unicode="&#x16b;" horiz-adv-x="676" 
d="M523 711v-134h-371v134h371zM418 507h215v-507h-215v65q-69 -82 -179 -82q-98 0 -149.5 53t-51.5 154v317h215v-275q0 -91 79 -91q86 0 86 102v264z" />
    <glyph glyph-name="Ubreve" unicode="&#x16c;" horiz-adv-x="802" 
d="M403 751q-101 0 -157.5 41.5t-60.5 119.5h151q8 -52 67 -52q30 0 45.5 12t22.5 40h147q-5 -78 -60 -119.5t-155 -41.5zM401 -23q-187 0 -276 79t-89 239v411h232v-397q0 -71 32 -105.5t100 -34.5q69 0 101.5 34.5t32.5 105.5v397h232v-411q0 -161 -89 -239.5t-276 -78.5z
" />
    <glyph glyph-name="ubreve" unicode="&#x16d;" horiz-adv-x="676" 
d="M338 545q-100 0 -157 45t-62 131h144q11 -62 75 -62q33 0 50.5 14.5t23.5 47.5h143q-5 -86 -60 -131t-157 -45zM418 507h215v-507h-215v65q-69 -82 -179 -82q-98 0 -149.5 53t-51.5 154v317h215v-275q0 -91 79 -91q86 0 86 102v264z" />
    <glyph glyph-name="Uring" unicode="&#x16e;" horiz-adv-x="802" 
d="M401 726q-71 0 -115.5 37.5t-44.5 99.5t44.5 99.5t115.5 37.5q70 0 114.5 -37.5t44.5 -99.5t-44 -99.5t-115 -37.5zM401 815q24 0 38 13t14 35q0 23 -13.5 36t-38.5 13q-24 0 -38 -13t-14 -36q0 -22 14 -35t38 -13zM401 -23q-187 0 -276 79t-89 239v411h232v-397
q0 -71 32 -105.5t100 -34.5q69 0 101.5 34.5t32.5 105.5v397h232v-411q0 -161 -89 -239.5t-276 -78.5z" />
    <glyph glyph-name="uring" unicode="&#x16f;" horiz-adv-x="676" 
d="M337 542q-71 0 -115.5 37.5t-44.5 99.5t44.5 99.5t115.5 37.5q70 0 114.5 -37.5t44.5 -99.5t-44 -99.5t-115 -37.5zM337 728q-24 0 -38 -13t-14 -36q0 -22 14 -35t38 -13t38 13t14 35q0 23 -13.5 36t-38.5 13zM418 507h215v-507h-215v65q-69 -82 -179 -82
q-98 0 -149.5 53t-51.5 154v317h215v-275q0 -91 79 -91q86 0 86 102v264z" />
    <glyph glyph-name="Uhungarumlaut" unicode="&#x170;" horiz-adv-x="802" 
d="M181 755l106 157h188l-130 -157h-164zM411 755l106 157h189l-131 -157h-164zM401 -23q-187 0 -276 79t-89 239v411h232v-397q0 -71 32 -105.5t100 -34.5q69 0 101.5 34.5t32.5 105.5v397h232v-411q0 -161 -89 -239.5t-276 -78.5z" />
    <glyph glyph-name="uhungarumlaut" unicode="&#x171;" horiz-adv-x="676" 
d="M414 721l-132 -168h-163l107 168h188zM513 553h-164l107 168h188zM418 243v264h215v-507h-215v65q-69 -82 -179 -82q-98 0 -149.5 53t-51.5 154v317h215v-275q0 -91 79 -91q86 0 86 102z" />
    <glyph glyph-name="Uogonek" unicode="&#x172;" horiz-adv-x="802" 
d="M534 706h232v-411q0 -204 -154 -283q-45 -22 -65.5 -41.5t-20.5 -42.5q0 -39 47 -39q22 0 40 7v-104q-42 -12 -100 -12q-69 0 -111.5 28t-42.5 82q0 53 42 87q-187 0 -276 79t-89 239v411h232v-397q0 -71 32 -105.5t100 -34.5q69 0 101.5 34.5t32.5 105.5v397z" />
    <glyph glyph-name="uogonek" unicode="&#x173;" horiz-adv-x="676" 
d="M633 0q-87 -35 -87 -77q0 -34 47 -34q22 0 40 7v-103q-40 -13 -100 -13q-70 0 -112 27t-42 78q0 77 98 115h-59v65q-69 -82 -179 -82q-98 0 -149.5 53t-51.5 154v317h215v-275q0 -91 79 -91q86 0 86 102v264h215v-507z" />
    <glyph glyph-name="Wcircumflex" unicode="&#x174;" horiz-adv-x="1167" 
d="M584 825l-55 -70h-195l121 157h259l121 -157h-195zM938 706h242l-230 -706h-236l-130 426l-130 -426h-235l-232 706h242l117 -398l115 398h246l115 -398z" />
    <glyph glyph-name="wcircumflex" unicode="&#x175;" horiz-adv-x="988" 
d="M492 629l-47 -76h-185l108 168h249l107 -168h-185zM766 507h231l-197 -507h-219l-87 261l-87 -261h-220l-196 507h230l80 -267l93 267h198l94 -267z" />
    <glyph glyph-name="Ycircumflex" unicode="&#x176;" horiz-adv-x="742" 
d="M122 755l121 157h259l121 -157h-195l-56 70l-55 -70h-195zM255 0v309l-268 397h258l126 -196l126 196h258l-268 -397v-309h-232z" />
    <glyph glyph-name="ycircumflex" unicode="&#x177;" horiz-adv-x="644" 
d="M326 629l-47 -76h-185l108 168h249l107 -168h-185zM433 507h220l-226 -506l-90 -204h-213l91 203l-224 507h226l111 -294z" />
    <glyph glyph-name="Ydieresis" unicode="&#x178;" horiz-adv-x="742" 
d="M243 746q-44 0 -72 26.5t-28 67.5q0 42 28 69t72 27t72 -27t28 -69q0 -41 -28 -67.5t-72 -26.5zM501 746q-43 0 -71.5 26.5t-28.5 67.5q0 42 28.5 69t71.5 27q44 0 72.5 -27t28.5 -69q0 -41 -28.5 -67.5t-72.5 -26.5zM255 0v309l-268 397h258l126 -196l126 196h258
l-268 -397v-309h-232z" />
    <glyph glyph-name="Zacute" unicode="&#x179;" horiz-adv-x="710" 
d="M224 754l106 158h225l-125 -158h-206zM4 0l322 524h-304v182h677l-313 -523h314v-183h-696z" />
    <glyph glyph-name="zacute" unicode="&#x17a;" horiz-adv-x="569" 
d="M491 721l-126 -168h-198l105 168h219zM564 507l-219 -344h208v-163h-548l239 346h-214v161h534z" />
    <glyph glyph-name="Zdotaccent" unicode="&#x17b;" horiz-adv-x="710" 
d="M351 746q-47 0 -78.5 30t-31.5 74t31.5 74t78.5 30t78.5 -30t31.5 -74t-31.5 -74t-78.5 -30zM4 0l322 524h-304v182h677l-313 -523h314v-183h-696z" />
    <glyph glyph-name="zdotaccent" unicode="&#x17c;" horiz-adv-x="569" 
d="M290 547q-46 0 -76 28.5t-30 72.5t30 72.5t76 28.5q47 0 77 -28.5t30 -72.5t-30 -72.5t-77 -28.5zM564 507l-219 -344h208v-163h-548l239 346h-214v161h534z" />
    <glyph glyph-name="Zcaron" unicode="&#x17d;" horiz-adv-x="710" 
d="M601 912l-121 -157h-259l-121 157h195l56 -70l55 70h195zM4 0l322 524h-304v182h677l-313 -523h314v-183h-696z" />
    <glyph glyph-name="zcaron" unicode="&#x17e;" horiz-adv-x="569" 
d="M416 553h-250l-107 168h185l47 -76l47 76h185zM564 507l-219 -344h208v-163h-548l239 346h-214v161h534z" />
    <glyph glyph-name="uni018F" unicode="&#x18f;" horiz-adv-x="873" 
d="M814 526q35 -76 35 -173q0 -100 -32 -173q-44 -98 -146 -150t-243 -52q-278 0 -366 196q-38 84 -38 195v30h574q-3 33 -16 61q-37 82 -156 82q-80 0 -118 -34q-22 -22 -30 -51h-249q6 46 32 92.5t62 79.5q108 99 305 99q141 0 240.5 -51t145.5 -151zM423 163
q122 0 160 84l2 5h-320q2 -8 8 -22q31 -67 150 -67z" />
    <glyph glyph-name="florin" unicode="&#x192;" horiz-adv-x="499" 
d="M113 -12q-55 0 -103 12v160q28 -10 60 -10q72 0 72 60v135h-131v90h131v82q0 110 57.5 161t186.5 51q55 0 103 -12v-160q-25 10 -61 10q-71 0 -71 -66v-66h132v-90h-132v-148q0 -108 -57.5 -158.5t-186.5 -50.5z" />
    <glyph glyph-name="Aringacute" unicode="&#x1fa;" horiz-adv-x="863" 
d="M635 1206l-125 -158h-206l106 158h225zM431 726q-71 0 -115.5 37.5t-44.5 99.5t44.5 99.5t115.5 37.5q70 0 114.5 -37.5t44.5 -99.5t-44 -99.5t-115 -37.5zM431 912q-24 0 -38 -13t-14 -36q0 -22 14 -35t38 -13t38 13t14 35q0 23 -13.5 36t-38.5 13zM631 0l-43 117h-313
l-42 -117h-246l278 706h333l278 -706h-245zM334 280h195l-97 265h-2z" />
    <glyph glyph-name="aringacute" unicode="&#x1fb;" horiz-adv-x="650" 
d="M531 1031l-126 -168h-198l105 168h219zM331 542q-71 0 -115.5 37.5t-44.5 99.5t44.5 99.5t115.5 37.5q70 0 114.5 -37.5t44.5 -99.5t-44 -99.5t-115 -37.5zM331 728q-24 0 -38 -13t-14 -36q0 -22 14 -35t38 -13t38 13t14 35q0 23 -13.5 36t-38.5 13zM589 407
q24 -53 24 -123v-284h-215v59q-65 -76 -189 -76q-140 0 -181 90q-13 29 -13 65q0 37 13 68q28 62 104 84.5t194 22.5h70v7q0 31 -6 44q-15 32 -66 32t-64 -30q-5 -9 -5 -22h-217q1 34 15 66q52 114 269 114q109 0 174.5 -27.5t92.5 -89.5zM305 123q69 0 86 39q7 15 7 44v7
h-64q-79 0 -90 -26q-4 -10 -4 -19q0 -11 4 -19q12 -26 61 -26z" />
    <glyph glyph-name="AEacute" unicode="&#x1fc;" horiz-adv-x="1028" 
d="M739 912l-125 -158h-206l106 158h225zM991 530h-324l19 -92h302v-167h-268l19 -95h252v-176h-454l-22 117h-235l-43 -117h-250l294 706h710v-176zM339 280h146l-49 262h-2z" />
    <glyph glyph-name="aeacute" unicode="&#x1fd;" horiz-adv-x="1016" 
d="M730 721l-126 -168h-198l105 168h219zM760 140q11 11 14 25h223q-10 -67 -58 -113q-79 -70 -231 -70q-160 0 -239 87q-85 -87 -231 -87q-168 0 -211 95q-12 31 -12 61q0 37 13 68q27 63 103 85t195 22h70v7q0 31 -7 46q-14 30 -65 30t-64 -30q-5 -9 -5 -22h-217
q1 34 15 66q52 114 269 114q134 0 197 -43q72 43 176 43q102 0 172.5 -40.5t104.5 -114.5q29 -64 29 -165h-386q3 -20 9 -35q20 -46 82 -46q37 0 54 17zM698 388q-54 0 -73 -46q-7 -14 -10 -35h166q-1 21 -9 36q-21 45 -74 45zM398 206v7h-64q-78 0 -90 -26q-4 -10 -4 -17
q0 -13 4 -21q13 -26 61 -26q69 0 86 39q7 15 7 44z" />
    <glyph glyph-name="Oslashacute" unicode="&#x1fe;" horiz-adv-x="876" 
d="M642 912l-125 -158h-206l106 158h225zM782 587q21 -26 35 -58q35 -80 35 -176q0 -101 -37 -180q-45 -96 -143 -146t-234 -50q-165 0 -268 70l-53 -47h-152l130 116q-25 33 -37 62q-34 76 -34 175q0 94 33 171q45 100 144.5 152.5t237.5 52.5q162 0 268 -71l51 48h157z
M290 454q-16 -33 -16 -100q0 -43 8 -77l257 233q-38 25 -102 25q-109 0 -147 -81zM588 255q15 37 15 98q0 46 -7 74l-256 -231q41 -25 99 -25q112 0 149 84z" />
    <glyph glyph-name="oslashacute" unicode="&#x1ff;" horiz-adv-x="689" 
d="M545 721l-126 -168h-198l105 168h219zM612 429q26 -30 40 -61q22 -50 22 -115q0 -64 -22 -114q-34 -76 -114.5 -116.5t-192.5 -40.5q-115 0 -198 43l-30 -26h-128l90 79q-27 28 -43 65q-21 46 -21 110q0 65 21 111q35 79 115.5 119.5t193.5 40.5q117 0 197 -42l27 24h129
zM252 315q-10 -21 -10 -62q0 -15 2 -35l156 137q-21 11 -55 11q-71 0 -93 -51zM438 190q10 23 10 63q0 16 -2 36l-156 -137q24 -11 55 -11q71 0 93 49z" />
    <glyph glyph-name="uni0218" unicode="&#x218;" horiz-adv-x="728" 
d="M361 -23q-124 0 -207 38t-115 109q-16 39 -18 90h248q2 -23 7 -34q20 -43 90 -43q67 0 82 34q5 9 5 21q0 10 -5 22q-6 13 -21 23.5t-39 18.5t-46 14t-56.5 13.5t-54.5 13.5q-139 38 -180 124q-16 37 -16 83q0 44 17 83q30 67 111.5 104.5t197.5 37.5q114 0 194.5 -37
t112.5 -107q17 -38 18 -85h-241q-1 22 -8 36q-17 39 -83 39q-58 0 -72 -29q-3 -8 -3 -17t3 -18q5 -11 16.5 -20t33 -16t39.5 -12t52.5 -13l54.5 -13q82 -22 135.5 -51.5t76.5 -82.5q17 -37 17 -87q0 -53 -19 -94q-32 -71 -117.5 -108t-209.5 -37zM229 -202l30 148h221
l-58 -148h-193z" />
    <glyph glyph-name="uni0219" unicode="&#x219;" horiz-adv-x="579" 
d="M285 -20q-203 0 -251 107q-16 37 -16 77h214q0 -20 6 -30q11 -28 51 -28q34 0 43 19q3 6 3 14t-3 14q-3 8 -11.5 14t-23.5 11t-27.5 8.5t-35.5 8.5t-37 9q-122 33 -151 97q-12 24 -12 56q0 35 13 62q24 53 91 79t156 26q191 0 238 -103q14 -30 14 -64h-207q0 16 -5 29
q-10 24 -44 24q-27 0 -36 -16q-4 -6 -4 -14t3 -14q3 -5 8.5 -9.5t14.5 -8.5t17 -7t22 -6.5l22 -5.5t24.5 -5.5t23.5 -4.5q133 -30 165 -103q11 -23 11 -58q0 -38 -13 -67q-50 -111 -263 -111zM153 -202l30 148h221l-58 -148h-193z" />
    <glyph glyph-name="uni021A" unicode="&#x21a;" horiz-adv-x="589" 
d="M178 0v524h-170v182h572v-182h-170v-524h-232zM156 -202l30 148h221l-58 -148h-193z" />
    <glyph glyph-name="uni021B" unicode="&#x21b;" horiz-adv-x="449" 
d="M291 -12q-104 0 -152.5 45t-48.5 145v168h-74v161h74v121h215v-121h128v-161h-128v-124q0 -38 16.5 -53t50.5 -15q23 0 57 7v-159q-68 -14 -138 -14zM131 -200l30 148h221l-58 -148h-193z" />
    <glyph glyph-name="uni0237" unicode="&#x237;" horiz-adv-x="305" 
d="M47 -216q-33 0 -87 6v172q21 -3 39 -3q49 0 49 49v499h215v-515q0 -109 -50.5 -158.5t-165.5 -49.5z" />
    <glyph glyph-name="uni0259" unicode="&#x259;" horiz-adv-x="678" 
d="M641 369q22 -50 22 -116q0 -65 -23 -116q-34 -76 -113 -115t-185 -39q-111 0 -188 41.5t-111 119.5q-28 63 -28 159h431q-4 20 -8 29q-22 52 -110 52q-53 0 -76 -20q-11 -10 -14 -22h-219q10 62 58 107q81 76 252 76q113 0 195.5 -40t116.5 -116zM339 119q73 0 98 50
q7 16 9 31h-215q1 -15 8 -30q23 -51 100 -51z" />
    <glyph glyph-name="circumflex" unicode="&#x2c6;" horiz-adv-x="564" 
d="M50 553l108 168h249l107 -168h-185l-47 76l-47 -76h-185z" />
    <glyph glyph-name="caron" unicode="&#x2c7;" horiz-adv-x="564" 
d="M514 721l-107 -168h-250l-107 168h185l47 -76l47 76h185z" />
    <glyph glyph-name="uni02C9" unicode="&#x2c9;" horiz-adv-x="471" 
d="M50 577v134h371v-134h-371z" />
    <glyph glyph-name="breve" unicode="&#x2d8;" horiz-adv-x="536" 
d="M269 545q-100 0 -157 45t-62 131h144q11 -62 75 -62q33 0 50.5 14.5t23.5 47.5h143q-5 -86 -60 -131t-157 -45z" />
    <glyph glyph-name="dotaccent" unicode="&#x2d9;" horiz-adv-x="313" 
d="M156 547q-46 0 -76 28.5t-30 72.5t30 72.5t76 28.5q47 0 77 -28.5t30 -72.5t-30 -72.5t-77 -28.5z" />
    <glyph glyph-name="ring" unicode="&#x2da;" horiz-adv-x="419" 
d="M210 542q-71 0 -115.5 37.5t-44.5 99.5t44.5 99.5t115.5 37.5q70 0 114.5 -37.5t44.5 -99.5t-44 -99.5t-115 -37.5zM210 631q24 0 38 13t14 35q0 23 -13.5 36t-38.5 13q-24 0 -38 -13t-14 -36q0 -22 14 -35t38 -13z" />
    <glyph glyph-name="ogonek" unicode="&#x2db;" horiz-adv-x="355" 
d="M204 -220q-70 0 -112 27t-42 78q0 77 98 115h156q-87 -35 -87 -77q0 -34 47 -34q22 0 40 7v-103q-40 -13 -100 -13z" />
    <glyph glyph-name="tilde" unicode="&#x2dc;" horiz-adv-x="535" 
d="M360 552q-44 0 -88 21q-52 24 -66 24q-34 0 -39 -44h-117q6 91 37 134.5t92 43.5q42 0 88 -24q44 -22 62 -22q16 0 25 9.5t13 33.5h118q-4 -94 -34.5 -135t-90.5 -41z" />
    <glyph glyph-name="hungarumlaut" unicode="&#x2dd;" horiz-adv-x="625" 
d="M50 553l107 168h188l-132 -168h-163zM280 553l107 168h188l-131 -168h-164z" />
    <glyph glyph-name="gravecomb" unicode="&#x300;" 
d="M-50 553h-198l-126 168h218z" />
    <glyph glyph-name="acutecomb" unicode="&#x301;" 
d="M-374 553l105 168h219l-126 -168h-198z" />
    <glyph glyph-name="uni0302" unicode="&#x302;" 
d="M-514 553l108 168h249l107 -168h-185l-47 76l-47 -76h-185z" />
    <glyph glyph-name="tildecomb" unicode="&#x303;" 
d="M-175 552q-44 0 -88 21q-52 24 -66 24q-33 0 -39 -44h-117q6 91 37 134.5t92 43.5q42 0 88 -24q44 -22 62 -22q16 0 25 9.5t13 33.5h118q-4 -94 -34.5 -135t-90.5 -41z" />
    <glyph glyph-name="uni0304" unicode="&#x304;" 
d="M-421 577v134h371v-134h-371z" />
    <glyph glyph-name="uni0306" unicode="&#x306;" 
d="M-267 545q-100 0 -157 45t-62 131h144q11 -62 75 -62q33 0 50.5 14.5t23.5 47.5h143q-5 -86 -60 -131t-157 -45z" />
    <glyph glyph-name="uni0307" unicode="&#x307;" 
d="M-157 547q-46 0 -76 28.5t-30 72.5t30 72.5t76 28.5q47 0 77 -28.5t30 -72.5t-30 -72.5t-77 -28.5z" />
    <glyph glyph-name="uni0308" unicode="&#x308;" 
d="M-399 548q-44 0 -72.5 27t-28.5 69q0 43 28.5 70t72.5 27t73 -27t29 -70q0 -42 -29 -69t-73 -27zM-153 547q-44 0 -72.5 27t-28.5 69q0 43 28.5 70t72.5 27t73 -27t29 -70q0 -42 -29 -69t-73 -27z" />
    <glyph glyph-name="uni030A" unicode="&#x30a;" 
d="M-209 542q-71 0 -115.5 37.5t-44.5 99.5t44.5 99.5t115.5 37.5q70 0 114.5 -37.5t44.5 -99.5t-44 -99.5t-115 -37.5zM-209 631q24 0 38 13t14 35q0 23 -13.5 36t-38.5 13q-24 0 -38 -13t-14 -36q0 -22 14 -35t38 -13z" />
    <glyph glyph-name="uni030B" unicode="&#x30b;" 
d="M-575 553l107 168h188l-132 -168h-163zM-345 553l107 168h188l-131 -168h-164z" />
    <glyph glyph-name="uni030C" unicode="&#x30c;" 
d="M-50 721l-107 -168h-250l-107 168h185l47 -76l47 76h185z" />
    <glyph glyph-name="uni0312" unicode="&#x312;" 
d="M-50 717l-31 -148h-220l58 148h193z" />
    <glyph glyph-name="uni0326" unicode="&#x326;" 
d="M-301 -202l30 148h221l-58 -148h-193z" />
    <glyph glyph-name="uni0327" unicode="&#x327;" 
d="M-166 0q58 -1 87 -29t29 -75q0 -65 -47.5 -91.5t-137.5 -26.5q-73 0 -133 19l23 93q45 -16 89 -16q61 0 61 30q0 28 -61 28h-79l27 102h151z" />
    <glyph glyph-name="uni0328" unicode="&#x328;" 
d="M-151 -220q-70 0 -112 27t-42 78q0 77 98 115h156q-87 -35 -87 -77q0 -34 47 -34q22 0 40 7v-103q-40 -13 -100 -13z" />
    <glyph glyph-name="uni0335" unicode="&#x335;" 
d="M-464 249v104h414v-104h-414z" />
    <glyph glyph-name="uni0336" unicode="&#x336;" 
d="M-389 573v110h389v-110h-389z" />
    <glyph glyph-name="uni0337" unicode="&#x337;" 
d="M-171 439l171 115v-161l-171 -116v40l-172 -112v160l172 113v-39z" />
    <glyph glyph-name="uni0338" unicode="&#x338;" 
d="M-749 0l176 154l1 -4l308 272v-1l95 86h129l-189 -168l-2 5l-310 -272v-1l-80 -71h-128z" />
    <glyph glyph-name="uni0394" unicode="&#x394;" horiz-adv-x="863" 
d="M598 706l278 -706h-889l278 706h333zM292 162h280l-140 383h-2z" />
    <glyph glyph-name="uni03A9" unicode="&#x3a9;" horiz-adv-x="791" 
d="M600 196v-34h147v-162h-315v325q65 10 88 62q11 23 11 59q0 34 -10 54q-28 63 -125 63q-98 0 -126 -63q-10 -20 -10 -54q0 -36 11 -59q23 -51 88 -62v-325h-314v162h146v34q-104 40 -144 130q-23 50 -23 119t23 120q37 81 127.5 122.5t221.5 41.5q130 0 220.5 -41.5
t127.5 -122.5q23 -51 23 -120t-23 -119q-40 -90 -144 -130z" />
    <glyph glyph-name="uni03BC" unicode="&#x3bc;" horiz-adv-x="681" 
d="M423 507h215v-507h-215v62q-57 -80 -144 -80q-19 0 -34 3q12 -73 12 -152v-36h-214v710h215v-275q0 -48 19 -69.5t58 -21.5q88 0 88 102v264z" />
    <glyph glyph-name="pi" unicode="&#x3c0;" horiz-adv-x="840" 
d="M698 -12q-104 0 -152.5 45t-48.5 145v168h-153v-346h-215v346h-84v161h750v-161h-83v-124q0 -38 16.5 -53t50.5 -15h16v-159q-54 -7 -97 -7z" />
    <glyph glyph-name="Wgrave" unicode="&#x1e80;" horiz-adv-x="1167" 
d="M712 754h-205l-126 158h226zM938 706h242l-230 -706h-236l-130 426l-130 -426h-235l-232 706h242l117 -398l115 398h246l115 -398z" />
    <glyph glyph-name="wgrave" unicode="&#x1e81;" horiz-adv-x="988" 
d="M617 553h-198l-126 168h218zM766 507h231l-197 -507h-219l-87 261l-87 -261h-220l-196 507h230l80 -267l93 267h198l94 -267z" />
    <glyph glyph-name="Wacute" unicode="&#x1e82;" horiz-adv-x="1167" 
d="M789 912l-125 -158h-206l106 158h225zM938 706h242l-230 -706h-236l-130 426l-130 -426h-235l-232 706h242l117 -398l115 398h246l115 -398z" />
    <glyph glyph-name="wacute" unicode="&#x1e83;" horiz-adv-x="988" 
d="M691 721l-126 -168h-198l105 168h219zM766 507h231l-197 -507h-219l-87 261l-87 -261h-220l-196 507h230l80 -267l93 267h198l94 -267z" />
    <glyph glyph-name="Wdieresis" unicode="&#x1e84;" horiz-adv-x="1167" 
d="M455 746q-44 0 -72 26.5t-28 67.5q0 42 28 69t72 27t72 -27t28 -69q0 -41 -28 -67.5t-72 -26.5zM713 746q-43 0 -71.5 26.5t-28.5 67.5q0 42 28.5 69t71.5 27q44 0 72.5 -27t28.5 -69q0 -41 -28.5 -67.5t-72.5 -26.5zM938 706h242l-230 -706h-236l-130 426l-130 -426
h-235l-232 706h242l117 -398l115 398h246l115 -398z" />
    <glyph glyph-name="wdieresis" unicode="&#x1e85;" horiz-adv-x="988" 
d="M368 548q-44 0 -72.5 27t-28.5 69q0 43 28.5 70t72.5 27t73 -27t29 -70q0 -42 -29 -69t-73 -27zM614 547q-44 0 -72.5 27t-28.5 69q0 43 28.5 70t72.5 27t73 -27t29 -70q0 -42 -29 -69t-73 -27zM766 507h231l-197 -507h-219l-87 261l-87 -261h-220l-196 507h230l80 -267
l93 267h198l94 -267z" />
    <glyph glyph-name="uni1E9E" unicode="&#x1e9e;" horiz-adv-x="804" 
d="M766 329q19 -44 19 -98q0 -56 -20 -102q-61 -134 -293 -134q-70 0 -123 9v177q42 -7 82 -7q87 0 105 43q6 13 6 30q0 19 -6 32q-19 39 -107 39q-23 0 -47 -3v2l85 207h-184v-524h-231v706h705v-2l-114 -277q90 -24 123 -98z" />
    <glyph glyph-name="Ygrave" unicode="&#x1ef2;" horiz-adv-x="742" 
d="M500 754h-205l-126 158h226zM255 0v309l-268 397h258l126 -196l126 196h258l-268 -397v-309h-232z" />
    <glyph glyph-name="ygrave" unicode="&#x1ef3;" horiz-adv-x="644" 
d="M451 553h-198l-126 168h218zM433 507h220l-226 -506l-90 -204h-213l91 203l-224 507h226l111 -294z" />
    <glyph glyph-name="uni2009" unicode="&#x2009;" horiz-adv-x="82" 
 />
    <glyph glyph-name="uni2011" unicode="&#x2011;" horiz-adv-x="446" 
d="M45 214v167h356v-167h-356z" />
    <glyph glyph-name="endash" unicode="&#x2013;" horiz-adv-x="628" 
d="M45 211v168h538v-168h-538z" />
    <glyph glyph-name="emdash" unicode="&#x2014;" horiz-adv-x="1256" 
d="M45 211v168h1165v-168h-1165z" />
    <glyph glyph-name="quoteleft" unicode="&#x2018;" horiz-adv-x="315" 
d="M299 706l-69 -290h-215l129 290h155z" />
    <glyph glyph-name="quoteright" unicode="&#x2019;" horiz-adv-x="315" 
d="M15 416l70 290h214l-128 -290h-156z" />
    <glyph glyph-name="quotesinglbase" unicode="&#x201a;" horiz-adv-x="315" 
d="M15 -144l70 290h214l-128 -290h-156z" />
    <glyph glyph-name="quotedblleft" unicode="&#x201c;" horiz-adv-x="578" 
d="M299 706l-69 -290h-215l129 290h155zM562 706l-69 -290h-215l129 290h155z" />
    <glyph glyph-name="quotedblright" unicode="&#x201d;" horiz-adv-x="578" 
d="M15 416l70 290h214l-128 -290h-156zM278 416l69 290h215l-129 -290h-155z" />
    <glyph glyph-name="quotedblbase" unicode="&#x201e;" horiz-adv-x="578" 
d="M15 -144l70 290h214l-128 -290h-156zM278 -144l69 290h215l-129 -290h-155z" />
    <glyph glyph-name="dagger" unicode="&#x2020;" horiz-adv-x="511" 
d="M501 554v-180h-133v-374h-224v374h-134v180h134v152h224v-152h133z" />
    <glyph glyph-name="daggerdbl" unicode="&#x2021;" horiz-adv-x="511" 
d="M501 410h-133v-114h133v-180h-133v-116h-224v116h-134v180h134v114h-134v180h134v116h224v-116h133v-180z" />
    <glyph glyph-name="bullet" unicode="&#x2022;" horiz-adv-x="532" 
d="M266 175q-78 0 -127 49t-49 127q0 79 48 127.5t128 48.5q78 0 127 -48.5t49 -127.5q0 -78 -49.5 -127t-126.5 -49z" />
    <glyph glyph-name="ellipsis" unicode="&#x2026;" horiz-adv-x="968" 
d="M186 -21q-52 0 -84.5 32t-32.5 83q0 53 32 84.5t85 31.5q52 0 84.5 -31.5t32.5 -84.5q0 -51 -32.5 -83t-84.5 -32zM484 -21q-52 0 -84.5 32t-32.5 83q0 53 32 84.5t85 31.5q52 0 84.5 -31.5t32.5 -84.5q0 -51 -32.5 -83t-84.5 -32zM782 -21q-52 0 -85 32t-33 83
q0 53 32.5 84.5t85.5 31.5q52 0 84 -31.5t32 -84.5q0 -51 -32.5 -83t-83.5 -32z" />
    <glyph glyph-name="perthousand" unicode="&#x2030;" horiz-adv-x="1200" 
d="M195 404q-128 0 -166 83q-14 34 -14 73q0 40 14 73q38 84 166 84q129 0 166 -84q15 -31 15 -73q0 -40 -15 -73q-36 -83 -166 -83zM55 0l554 706h146l-554 -706h-146zM195 506q31 0 39 20q5 11 5 34q0 24 -5 35q-8 20 -39 20q-30 0 -39 -20q-5 -13 -5 -35q0 -23 5 -34
q10 -20 39 -20zM613 -10q-128 0 -166 83q-14 34 -14 73t14 73q38 83 166 83q130 0 166 -83q15 -33 15 -73t-15 -73q-36 -83 -166 -83zM1004 -10q-128 0 -166 83q-14 34 -14 73t14 73q38 83 166 83q130 0 166 -83q15 -33 15 -73t-15 -73q-36 -83 -166 -83zM613 92q31 0 39 20
q5 10 5 34q0 23 -5 34q-8 20 -39 20q-30 0 -39 -20q-5 -11 -5 -34q0 -24 5 -34q9 -20 39 -20zM1004 92q31 0 39 20q5 10 5 34q0 23 -5 34q-8 20 -39 20q-30 0 -39 -20q-5 -11 -5 -34q0 -24 5 -34q9 -20 39 -20z" />
    <glyph glyph-name="guilsinglleft" unicode="&#x2039;" horiz-adv-x="388" 
d="M173 123l-160 169l160 170h202l-160 -170l160 -169h-202z" />
    <glyph glyph-name="guilsinglright" unicode="&#x203a;" horiz-adv-x="388" 
d="M215 123h-202l160 169l-160 170h202l160 -170z" />
    <glyph glyph-name="fraction" unicode="&#x2044;" horiz-adv-x="229" 
d="M-209 0l521 706h126l-521 -706h-126z" />
    <glyph glyph-name="uni2070" unicode="&#x2070;" horiz-adv-x="492" 
d="M246 425q-158 0 -205 104q-20 46 -20 103t20 103q47 104 205 104t205 -104q20 -46 20 -103t-20 -103q-47 -104 -205 -104zM246 549q39 0 51 26q7 15 7 57q0 40 -7 57q-11 25 -51 25q-39 0 -50 -25q-7 -14 -7 -57q0 -44 7 -57q12 -26 50 -26z" />
    <glyph glyph-name="uni2074" unicode="&#x2074;" horiz-adv-x="492" 
d="M262 438v60h-276v2l149 326h278v-209h70v-119h-70v-60h-151zM197 617h65v165z" />
    <glyph glyph-name="uni2075" unicode="&#x2075;" horiz-adv-x="424" 
d="M212 425q-147 0 -186 88q-14 31 -14 72l151 1q0 -17 5 -30q12 -24 45 -24q28 0 38 18q3 8 3 15q0 9 -4 17q-19 34 -147 34q-27 0 -71 -2l42 212h320l-18 -105h-182l-5 -30q23 3 64 3q117 0 148 -70q11 -24 11 -54t-11 -55q-41 -90 -189 -90z" />
    <glyph glyph-name="uni2076" unicode="&#x2076;" horiz-adv-x="475" 
d="M450 619q9 -23 9 -49q0 -29 -11 -53q-41 -92 -202 -92t-209 103q-18 41 -18 98q0 61 20 104q49 109 205 109q113 0 169 -56q29 -29 38 -72h-152q-3 8 -8 13q-16 14 -42 14q-46 0 -62 -36q-8 -16 -8 -39v-3q43 30 118 30q120 0 153 -71zM291 545q4 9 4 19q0 6 -4 16
q-9 21 -46 21t-46 -20q-4 -10 -4 -17q0 -10 4 -19q10 -18 46 -18q35 0 46 18z" />
    <glyph glyph-name="uni2077" unicode="&#x2077;" horiz-adv-x="405" 
d="M27 438l147 263h-167v125h413l-216 -388h-177z" />
    <glyph glyph-name="uni2078" unicode="&#x2078;" horiz-adv-x="449" 
d="M424 602q9 -20 9 -45q0 -27 -9 -48q-38 -84 -199 -84t-200 84q-9 21 -9 48q0 25 9 45q18 39 66 51q-40 11 -53 41q-6 15 -6 34q0 22 8 38q16 37 66.5 55t118.5 18t118 -18t67 -55q8 -19 8 -38q0 -16 -7 -34q-14 -30 -53 -41q49 -11 66 -51zM185 730q-2 -6 -2 -13t2 -13
q8 -19 40 -19q31 0 39 19q2 6 2 13t-2 13q-8 18 -39 18q-33 0 -40 -18zM269 550q3 6 3 16q0 9 -3 15q-9 21 -44 21q-36 0 -45 -21q-3 -6 -3 -15q0 -10 3 -16q11 -21 45 -21q36 0 44 21z" />
    <glyph glyph-name="uni2079" unicode="&#x2079;" horiz-adv-x="475" 
d="M438 736q18 -41 18 -98q0 -61 -20 -104q-49 -109 -205 -109q-113 0 -169 56q-29 29 -38 72h152q3 -8 8 -13q16 -14 42 -14q46 0 62 36q8 16 8 39v3q-43 -30 -118 -30q-120 0 -153 71q-9 23 -9 49q0 29 11 53q41 92 202 92t209 -103zM276 683q4 10 4 17q0 10 -4 19
q-11 18 -46 18t-46 -18q-4 -9 -4 -19q0 -6 4 -16q9 -21 46 -21t46 20z" />
    <glyph glyph-name="uni207A" unicode="&#x207a;" horiz-adv-x="371" 
d="M344 683v-102h-104v-89h-109v89h-104v102h104v89h109v-89h104z" />
    <glyph glyph-name="uni207B" unicode="&#x207b;" horiz-adv-x="371" 
d="M27 581v102h317v-102h-317z" />
    <glyph glyph-name="uni207C" unicode="&#x207c;" horiz-adv-x="367" 
d="M27 647v89h313v-89h-313zM27 528v90h313v-90h-313z" />
    <glyph glyph-name="uni207D" unicode="&#x207d;" horiz-adv-x="259" 
d="M131 356q-45 74 -66.5 135t-21.5 141q0 81 21 141.5t67 135.5h124q-45 -73 -67 -136t-22 -141q0 -77 22 -140t67 -136h-124z" />
    <glyph glyph-name="uni207E" unicode="&#x207e;" horiz-adv-x="259" 
d="M128 356h-123q45 74 67 136.5t22 139.5t-22 139.5t-67 137.5h123q46 -74 67 -135t21 -142t-21 -142t-67 -134z" />
    <glyph glyph-name="uni207F" unicode="&#x207f;" horiz-adv-x="481" 
d="M316 719q68 0 105 -36.5t37 -106.5v-228h-169v194q0 51 -45 51q-48 0 -48 -60v-185h-169v358h169v-35q53 48 120 48z" />
    <glyph glyph-name="uni2080" unicode="&#x2080;" horiz-adv-x="492" 
d="M246 -133q-158 0 -205 104q-20 46 -20 103t20 103q47 104 205 104t205 -104q20 -46 20 -103t-20 -103q-47 -104 -205 -104zM246 -9q39 0 51 26q7 15 7 57q0 40 -7 57q-11 25 -51 25q-39 0 -50 -25q-7 -14 -7 -57q0 -44 7 -57q12 -26 50 -26z" />
    <glyph glyph-name="uni2081" unicode="&#x2081;" horiz-adv-x="297" 
d="M89 -120v263h-89l24 125h223v-388h-158z" />
    <glyph glyph-name="uni2082" unicode="&#x2082;" horiz-adv-x="430" 
d="M-5 -120v7l208 197q43 40 43 61q0 9 -3 13q-9 14 -32 14q-27 0 -37 -19q-5 -12 -5 -26h-157q0 35 13 65q40 89 188 89q149 0 185 -81q11 -24 11 -51q0 -47 -42 -82q-24 -22 -80 -59h127v-128h-419z" />
    <glyph glyph-name="uni2083" unicode="&#x2083;" horiz-adv-x="432" 
d="M407 32q9 -18 9 -43q0 -23 -9 -43q-37 -79 -197 -79q-151 0 -188 81q-14 34 -14 81l148 1q0 -21 5 -34q10 -21 43 -21q31 0 41 18q3 6 3 15q0 7 -3 15q-8 17 -48 17h-19v80h21q36 0 44 17q2 6 2 13q0 10 -4 15q-8 13 -36 13q-30 0 -38 -19q-2 -5 -4 -16h-147q0 26 10 53
q19 43 70 64t118 21q64 0 114 -19.5t67 -57.5q8 -19 8 -41q0 -18 -6 -33q-17 -35 -64 -50q58 -11 74 -48z" />
    <glyph glyph-name="uni2084" unicode="&#x2084;" horiz-adv-x="492" 
d="M262 -120v60h-276v2l149 326h278v-209h70v-119h-70v-60h-151zM197 59h65v165z" />
    <glyph glyph-name="uni2085" unicode="&#x2085;" horiz-adv-x="424" 
d="M212 -133q-147 0 -186 88q-14 31 -14 72l151 1q0 -17 5 -30q12 -24 45 -24q28 0 38 18q3 8 3 15q0 9 -4 17q-19 34 -147 34q-27 0 -71 -2l42 212h320l-18 -105h-182l-5 -30q22 3 64 3q117 0 148 -70q11 -24 11 -54t-11 -55q-41 -90 -189 -90z" />
    <glyph glyph-name="uni2086" unicode="&#x2086;" horiz-adv-x="475" 
d="M450 61q9 -23 9 -49q0 -29 -11 -53q-41 -92 -202 -92t-209 103q-18 41 -18 98q0 61 20 104q49 109 205 109q113 0 169 -56q29 -29 38 -72h-152q-3 8 -8 13q-16 14 -42 14q-46 0 -62 -36q-8 -16 -8 -39v-3q43 30 118 30q120 0 153 -71zM291 -13q4 9 4 19q0 6 -4 16
q-9 21 -46 21t-46 -20q-4 -10 -4 -17q0 -10 4 -19q11 -18 46 -18t46 18z" />
    <glyph glyph-name="uni2087" unicode="&#x2087;" horiz-adv-x="405" 
d="M27 -120l147 263h-167v125h413l-216 -388h-177z" />
    <glyph glyph-name="uni2088" unicode="&#x2088;" horiz-adv-x="449" 
d="M424 44q9 -20 9 -45q0 -27 -9 -48q-38 -84 -199 -84t-200 84q-9 21 -9 48q0 25 9 45q18 39 66 51q-40 11 -53 41q-6 15 -6 34q0 22 8 38q16 37 66.5 55t118.5 18t118 -18t67 -55q8 -19 8 -38q0 -16 -7 -34q-14 -30 -53 -41q49 -11 66 -51zM185 172q-2 -6 -2 -13t2 -13
q8 -19 40 -19q31 0 39 19q2 6 2 13t-2 13q-8 18 -39 18q-33 0 -40 -18zM269 -8q3 6 3 16q0 9 -3 15q-9 21 -44 21q-36 0 -45 -21q-3 -6 -3 -15q0 -10 3 -16q11 -21 45 -21q36 0 44 21z" />
    <glyph glyph-name="uni2089" unicode="&#x2089;" horiz-adv-x="475" 
d="M438 178q18 -41 18 -98q0 -60 -19 -104q-50 -109 -206 -109q-112 0 -169 56q-29 29 -38 72h152q3 -8 8 -13q16 -14 42 -14q46 0 63 36q7 18 7 39v3q-41 -30 -117 -30q-121 0 -154 71q-9 23 -9 49q0 29 11 53q41 92 202 92q163 0 209 -103zM277 125q3 7 3 17t-4 19
q-11 18 -46 18q-36 0 -45 -18q-5 -9 -5 -19q0 -6 4 -16q9 -21 46 -21q36 0 47 20z" />
    <glyph glyph-name="uni208A" unicode="&#x208a;" horiz-adv-x="370" 
d="M344 125v-102h-104v-89h-109v89h-104v102h104v89h109v-89h104z" />
    <glyph glyph-name="uni208B" unicode="&#x208b;" horiz-adv-x="371" 
d="M27 23v102h317v-102h-317z" />
    <glyph glyph-name="uni208C" unicode="&#x208c;" horiz-adv-x="367" 
d="M27 89v89h313v-89h-313zM27 -30v90h313v-90h-313z" />
    <glyph glyph-name="uni208D" unicode="&#x208d;" horiz-adv-x="259" 
d="M131 -202q-45 74 -66.5 135t-21.5 141q0 81 21 141.5t67 135.5h124q-45 -73 -67 -136t-22 -141q0 -77 22 -140t67 -136h-124z" />
    <glyph glyph-name="uni208E" unicode="&#x208e;" horiz-adv-x="259" 
d="M128 -202h-123q45 74 67 136.5t22 139.5t-22 139.5t-67 137.5h123q46 -74 67 -135t21 -142t-21 -142t-67 -134z" />
    <glyph glyph-name="uni2099" unicode="&#x2099;" horiz-adv-x="481" 
d="M316 185q68 0 105 -36.5t37 -106.5v-227h-169v193q0 52 -45 52q-48 0 -48 -61v-184h-169v358h169v-35q52 47 120 47z" />
    <glyph glyph-name="Euro" unicode="&#x20ac;" horiz-adv-x="909" 
d="M641 282h247q-5 -122 -93 -203q-112 -101 -305 -101q-138 0 -237.5 51.5t-144.5 152.5q-17 36 -24 79h-65v80h56v13v21h-56v80h67q7 32 22 68q45 99 145 152t237 53q190 0 300 -99q91 -84 96 -212h-246q-6 51 -43 83q-39 35 -110 35q-108 0 -145 -80h200v-80h-217v-22
v-12h217v-80h-205q2 -8 4 -11q35 -79 146 -79q75 0 117 38q34 31 37 73z" />
    <glyph glyph-name="uni20B9" unicode="&#x20b9;" horiz-adv-x="743" 
d="M733 706v-90h-162q23 -21 36 -51q12 -28 17 -66h109v-90h-108q-5 -42 -18 -72q-40 -89 -154 -109l204 -228h-282l-302 344h219q75 0 96 47q4 7 6 18h-352v90h350l-4 10q-21 47 -96 47h-250v150h691z" />
    <glyph glyph-name="uni20BA" unicode="&#x20ba;" horiz-adv-x="722" 
d="M486 330h226q0 -108 -32 -179q-68 -151 -288 -151h-289v257l-84 -32v94l84 33v38l-84 -33v94l84 33v222h232v-143l207 80v-94l-207 -81v-37l207 80v-94l-207 -81v-154h21q87 0 116 66q14 32 14 82z" />
    <glyph glyph-name="uni20BC" unicode="&#x20bc;" horiz-adv-x="1024" 
d="M920 502q52 -72 52 -201v-301h-232v310q0 62 -19 97q-26 47 -93 47v-454h-232v454q-63 0 -92 -47q-20 -35 -20 -97v-310h-232v301q0 140 63 213q78 107 281 107v85h232v-85q215 0 292 -119z" />
    <glyph glyph-name="uni2113" unicode="&#x2113;" horiz-adv-x="593" 
d="M288 198q22 -45 104 -45q60 0 120 22v-160q-76 -27 -169 -27q-248 0 -278 189q-17 -1 -52 -1v140h48v122q0 146 59 212t193 66t193.5 -55.5t59.5 -169.5q0 -122 -65.5 -193t-212.5 -100zM276 506v-161q43 18 59 52t16 94q0 51 -9.5 68.5t-29.5 17.5t-28 -15t-8 -56z" />
    <glyph glyph-name="uni2117" unicode="&#x2117;" horiz-adv-x="881" 
d="M443 -23q-139 0 -240 54.5t-144 150.5q-35 78 -35 170q0 89 35 167q45 100 146 155t238 55q133 0 234.5 -53.5t146.5 -151.5q33 -75 33 -171t-34 -170q-41 -95 -146 -150.5t-234 -55.5zM440 60q109 0 184 42.5t111 121.5q25 54 25 127q0 77 -26 135q-35 78 -110.5 119
t-181.5 41q-108 0 -185 -42t-111 -121q-25 -56 -25 -130q0 -75 25 -131q73 -162 294 -162zM248 133v441h253q119 0 157 -83q14 -29 14 -77q0 -46 -14 -77q-37 -82 -157 -82h-83v-122h-170zM418 373h42q28 0 37 20q4 8 4 21t-4 21q-9 20 -37 20h-42v-82z" />
    <glyph glyph-name="trademark" unicode="&#x2122;" horiz-adv-x="811" 
d="M78 396v206h-73v104h280v-104h-73v-206h-134zM312 396v310h149l85 -152l86 152h147v-310h-124v143l-80 -143h-58l-80 143v-143h-125z" />
    <glyph glyph-name="uni2126" unicode="&#x2126;" horiz-adv-x="791" 
d="M600 196v-34h147v-162h-315v325q65 10 88 62q11 23 11 59q0 34 -10 54q-28 63 -125 63q-98 0 -126 -63q-10 -20 -10 -54q0 -36 11 -59q23 -51 88 -62v-325h-314v162h146v34q-104 40 -144 130q-23 50 -23 119t23 120q37 81 127.5 122.5t221.5 41.5q130 0 220.5 -41.5
t127.5 -122.5q23 -51 23 -120t-23 -119q-40 -90 -144 -130z" />
    <glyph glyph-name="estimated" unicode="&#x212e;" horiz-adv-x="830" 
d="M415 -11q-100 0 -186 42.5t-139.5 121.5t-53.5 177q0 145 110.5 243t268.5 98q156 0 267 -99.5t111 -247.5h-608q-10 0 -10 -11v-197q47 -51 110 -78.5t130 -27.5q73 0 139 32.5t113 88.5h57q-56 -68 -138 -105t-171 -37zM185 347h461q9 0 9 11v184q-44 51 -108 79.5
t-132 28.5q-70 0 -133 -28.5t-107 -78.5v-185q0 -11 10 -11z" />
    <glyph glyph-name="partialdiff" unicode="&#x2202;" horiz-adv-x="749" 
d="M689 556q34 -79 34 -181q0 -121 -39 -206q-86 -192 -347 -192q-106 0 -184.5 38.5t-110.5 112.5q-22 45 -22 108q0 57 20 100q56 125 254 125q129 0 201 -61q0 62 -18 102q-30 66 -103 66q-48 0 -76 -28q-13 -12 -20 -34h-227q13 79 66 130q91 93 260 93q233 0 312 -173z
M463 193q7 15 7 36q0 22 -7 39q-22 48 -99 48q-35 0 -60.5 -13.5t-35.5 -36.5q-7 -15 -7 -37q0 -23 7 -38q22 -48 95 -48q78 0 100 50z" />
    <glyph glyph-name="uni2206" unicode="&#x2206;" horiz-adv-x="863" 
d="M598 706l278 -706h-889l278 706h333zM292 162h280l-140 383h-2z" />
    <glyph glyph-name="product" unicode="&#x220f;" horiz-adv-x="855" 
d="M52 -203v909h751v-909h-232v718h-287v-718h-232z" />
    <glyph glyph-name="summation" unicode="&#x2211;" horiz-adv-x="700" 
d="M4 -203l298 484l-289 425h661v-182h-273l166 -243l-183 -302h316v-182h-696z" />
    <glyph glyph-name="minus" unicode="&#x2212;" horiz-adv-x="613" 
d="M45 220v156h523v-156h-523z" />
    <glyph glyph-name="uni2215" unicode="&#x2215;" horiz-adv-x="613" 
d="M49 0l340 706h176l-340 -706h-176z" />
    <glyph glyph-name="uni2219" unicode="&#x2219;" horiz-adv-x="613" 
d="M306 182q-52 0 -84.5 32.5t-32.5 83.5q0 53 32 84.5t85 31.5q52 0 84.5 -31.5t32.5 -84.5q0 -51 -32.5 -83.5t-84.5 -32.5z" />
    <glyph glyph-name="radical" unicode="&#x221a;" horiz-adv-x="807" 
d="M597 706h223l-269 -917h-259l-154 418l-128 -33v197l262 61l144 -404z" />
    <glyph glyph-name="infinity" unicode="&#x221e;" horiz-adv-x="899" 
d="M863 355q21 -45 21 -104q0 -58 -21 -103q-25 -57 -79 -89.5t-129 -32.5q-119 0 -205 95q-88 -95 -206 -95q-75 0 -129 32.5t-79 89.5q-21 45 -21 103q0 59 21 104q25 57 79 89.5t129 32.5q118 0 206 -95q86 95 205 95q75 0 129 -32.5t79 -89.5zM261 196q43 0 86 55
q-43 56 -86 56q-36 0 -49 -29q-5 -12 -5 -27q0 -14 5 -26q13 -29 49 -29zM687 225q5 9 5 26q0 18 -5 27q-13 29 -49 29q-43 0 -86 -56q43 -55 86 -55q36 0 49 29z" />
    <glyph glyph-name="integral" unicode="&#x222b;" horiz-adv-x="541" 
d="M105 -210q-59 0 -105 7l40 170q21 -3 35 -3q50 0 58 49l73 491q18 113 78.5 161.5t168.5 48.5q45 0 88 -8l-40 -175q-12 4 -26 4q-40 0 -49 -49l-72 -488q-19 -114 -79.5 -161t-169.5 -47z" />
    <glyph glyph-name="approxequal" unicode="&#x2248;" horiz-adv-x="613" 
d="M409 310q-49 0 -111 30q-44 19 -63 19q-37 0 -40 -48h-131q7 192 138 192q44 0 111 -29q46 -20 63 -20q37 0 40 49h131q-4 -101 -38.5 -147t-99.5 -46zM409 92q-49 0 -111 30q-44 19 -63 19q-37 0 -40 -48h-131q4 101 38.5 147t99.5 46q42 0 111 -30q46 -20 63 -20
q37 0 40 49h131q-7 -193 -138 -193z" />
    <glyph glyph-name="notequal" unicode="&#x2260;" horiz-adv-x="613" 
d="M568 328h-188l-38 -60h226v-156h-310l-58 -93h-98l58 93h-115v156h200l38 60h-238v156h323l58 93h97l-58 -93h103v-156z" />
    <glyph glyph-name="lessequal" unicode="&#x2264;" horiz-adv-x="613" 
d="M568 566v-150l-377 -34l377 -33v-151l-523 77v214zM45 28v151h523v-151h-523z" />
    <glyph glyph-name="greaterequal" unicode="&#x2265;" horiz-adv-x="613" 
d="M45 566l523 -77v-214l-523 -77v151l377 33l-377 34v150zM45 28v151h523v-151h-523z" />
    <glyph glyph-name="lozenge" unicode="&#x25ca;" horiz-adv-x="707" 
d="M236 -203l-218 455l218 454h236l218 -454l-218 -455h-236zM354 -4l110 256l-110 255l-110 -255z" />
    <glyph glyph-name="uniFB00" unicode="&#xfb00;" horiz-adv-x="886" 
d="M82 0v346h-72v161h72v22q0 104 57.5 152t186.5 48q55 0 103 -12v-160q-25 10 -61 10q-32 0 -51.5 -13t-19.5 -37v-10h131v-161h-131v-346h-215zM529 0v346h-72v161h72v22q0 104 57.5 152t186.5 48q55 0 103 -12v-160q-25 10 -61 10q-32 0 -51.5 -13t-19.5 -37v-10h131
v-161h-131v-346h-215z" />
    <glyph glyph-name="fi" unicode="&#xfb01;" horiz-adv-x="740" 
d="M590 547q-46 0 -76 28t-30 72q0 43 30 71.5t76 28.5t76 -28.5t30 -71.5q0 -44 -30 -72t-76 -28zM82 0v346h-72v161h72v22q0 104 57.5 152t186.5 48q55 0 103 -12v-160q-25 10 -61 10q-32 0 -51.5 -13t-19.5 -37v-10h131v-161h-131v-346h-215zM482 0v507h215v-507h-215z
" />
    <glyph glyph-name="fl" unicode="&#xfb02;" horiz-adv-x="740" 
d="M82 0v346h-72v161h72v22q0 104 57.5 152t186.5 48q55 0 103 -12v-160q-25 10 -61 10q-32 0 -51.5 -13t-19.5 -37v-10h131v-161h-131v-346h-215zM482 0v706h215v-706h-215z" />
    <glyph glyph-name="uniFB03" unicode="&#xfb03;" horiz-adv-x="1187" 
d="M1037 547q-46 0 -76 28t-30 72q0 43 30 71.5t76 28.5t76 -28.5t30 -71.5q0 -44 -30 -72t-76 -28zM82 0v346h-72v161h72v22q0 104 57.5 152t186.5 48q55 0 103 -12v-160q-25 10 -61 10q-32 0 -51.5 -13t-19.5 -37v-10h131v-161h-131v-346h-215zM529 0v346h-72v161h72v22
q0 104 57.5 152t186.5 48q55 0 103 -12v-160q-25 10 -61 10q-32 0 -51.5 -13t-19.5 -37v-10h131v-161h-131v-346h-215zM929 0v507h215v-507h-215z" />
    <glyph glyph-name="uniFB04" unicode="&#xfb04;" horiz-adv-x="1187" 
d="M82 0v346h-72v161h72v22q0 104 57.5 152t186.5 48q55 0 103 -12v-160q-25 10 -61 10q-32 0 -51.5 -13t-19.5 -37v-10h131v-161h-131v-346h-215zM529 0v346h-72v161h72v22q0 104 57.5 152t186.5 48q55 0 103 -12v-160q-25 10 -61 10q-32 0 -51.5 -13t-19.5 -37v-10h131
v-161h-131v-346h-215zM929 0v706h215v-706h-215z" />
    <glyph glyph-name="uniFEFF" unicode="&#xfeff;" 
 />
    <glyph glyph-name="uni00A40301" horiz-adv-x="404" 
d="M129 754l106 158h225l-125 -158h-206zM100 -7q-41 0 -92 7v192q24 -2 40 -2q51 0 69.5 21t18.5 80v415h232v-448q0 -136 -63 -200.5t-205 -64.5z" />
    <glyph glyph-name="M.ss01" horiz-adv-x="963" 
d="M52 0v706h254l177 -254l174 254h254v-706h-218v444l-161 -236h-101l-161 236v-444h-218z" />
    <glyph glyph-name="Q.ss02" horiz-adv-x="876" 
d="M815 173q-40 -84 -122 -135l78 -127l-201 -104l-94 171q-13 -1 -38 -1q-138 0 -237 51t-143 150q-34 76 -34 175q0 94 33 171q45 100 144.5 152.5t237.5 52.5q137 0 235.5 -51.5t142.5 -148.5q35 -80 35 -176q0 -101 -37 -180zM290 254q38 -83 149 -83q112 0 149 84
q15 37 15 98q0 65 -17 102q-36 80 -149 80q-109 0 -147 -81q-16 -33 -16 -100q0 -64 16 -100z" />
    <glyph glyph-name="R.ss03" horiz-adv-x="732" 
d="M589 325q52 -19 72.5 -59t20.5 -107v-159h-232v148q0 48 -23 72t-76 24h-67v-244h-232v706h371q197 0 251 -121q18 -43 18 -96q0 -43 -16 -81q-24 -53 -87 -83zM365 393q65 0 86 44q6 16 6 40q0 20 -7 35q-20 43 -85 43h-81v-162h81z" />
    <glyph glyph-name="Racute.ss03" horiz-adv-x="732" 
d="M574 912l-125 -158h-206l106 158h225zM589 325q52 -19 72.5 -59t20.5 -107v-159h-232v148q0 48 -23 72t-76 24h-67v-244h-232v706h371q197 0 251 -121q18 -43 18 -96q0 -43 -16 -81q-24 -53 -87 -83zM365 393q65 0 86 44q6 16 6 40q0 20 -7 35q-20 43 -85 43h-81v-162h81
z" />
    <glyph glyph-name="Rcaron.ss03" horiz-adv-x="732" 
d="M499 755h-259l-121 157h195l56 -70l55 70h195zM589 325q52 -19 72.5 -59t20.5 -107v-159h-232v148q0 48 -23 72t-76 24h-67v-244h-232v706h371q197 0 251 -121q18 -43 18 -96q0 -43 -16 -81q-24 -53 -87 -83zM365 393q65 0 86 44q6 16 6 40q0 20 -7 35q-20 43 -85 43h-81
v-162h81z" />
    <glyph glyph-name="uni0156.ss03" horiz-adv-x="732" 
d="M589 325q52 -19 72.5 -59t20.5 -107v-159h-232v148q0 48 -23 72t-76 24h-67v-244h-232v706h371q197 0 251 -121q18 -43 18 -96q0 -43 -16 -81q-24 -53 -87 -83zM365 393q65 0 86 44q6 16 6 40q0 20 -7 35q-20 43 -85 43h-81v-162h81zM229 -202l30 148h221l-58 -148h-193z
" />
    <glyph glyph-name="Oslash.ss04" horiz-adv-x="876" 
d="M787 581q17 -23 30 -52q35 -80 35 -176q0 -101 -37 -180q-45 -96 -143 -146t-234 -50q-111 0 -195 33l-93 -112l-149 128l88 98q-16 23 -31 54q-34 76 -34 175q0 94 33 171q45 100 144.5 152.5t237.5 52.5q108 0 193 -32l95 111l149 -129zM588 255q15 37 15 98
q0 65 -17 102q-36 80 -149 80q-109 0 -147 -81q-16 -33 -16 -100q0 -64 16 -100q38 -83 149 -83q112 0 149 84z" />
    <glyph glyph-name="i.loclTRK" horiz-adv-x="301" 
d="M150 547q-45 0 -75 28t-30 72q0 43 30 71.5t75 28.5q46 0 76 -28t30 -72t-29.5 -72t-76.5 -28zM43 0v507h215v-507h-215z" />
    <glyph glyph-name="uni006A0301" horiz-adv-x="305" 
d="M30 553l85 168h219l-110 -168h-194zM47 -216q-33 0 -87 6v172q21 -3 39 -3q49 0 49 49v499h215v-515q0 -109 -50.5 -158.5t-165.5 -49.5z" />
    <glyph glyph-name="oslash.ss04" horiz-adv-x="689" 
d="M652 368q22 -50 22 -115q0 -64 -22 -114q-34 -76 -114.5 -116.5t-192.5 -40.5q-55 0 -108 11l-75 -101l-144 105l64 77q-28 29 -46 69q-21 46 -21 110q0 65 21 111q35 79 115.5 119.5t193.5 40.5q56 0 108 -11l74 101l145 -104l-64 -77q29 -30 44 -65zM438 190
q10 23 10 63q0 42 -10 63q-22 50 -93 50t-93 -51q-10 -21 -10 -62q0 -40 10 -61q22 -51 93 -51t93 49z" />
    <glyph glyph-name="r.ss05" horiz-adv-x="472" 
d="M406 515q28 0 57 -8v-173q-30 7 -64 7q-141 0 -141 -158v-183h-215v507h212v-71q53 79 151 79z" />
    <glyph glyph-name="racute.ss05" horiz-adv-x="472" 
d="M430 721l-110 -168h-194l85 168h219zM406 515q28 0 57 -8v-173q-30 7 -64 7q-141 0 -141 -158v-183h-215v507h212v-71q53 79 151 79z" />
    <glyph glyph-name="rcaron.ss05" horiz-adv-x="472" 
d="M349 553h-200l-84 168h150l34 -76l34 76h149zM406 515q28 0 57 -8v-173q-30 7 -64 7q-141 0 -141 -158v-183h-215v507h212v-71q53 79 151 79z" />
    <glyph glyph-name="uni0157.ss05" horiz-adv-x="472" 
d="M406 515q28 0 57 -8v-173q-30 7 -64 7q-141 0 -141 -158v-183h-215v507h212v-71q53 79 151 79zM7 -202l30 148h221l-58 -148h-193z" />
    <glyph glyph-name="f_i" horiz-adv-x="740" 
d="M590 547q-46 0 -76 28t-30 72q0 43 30 71.5t76 28.5t76 -28.5t30 -71.5q0 -44 -30 -72t-76 -28zM82 0v346h-72v161h72v22q0 104 57.5 152t186.5 48q55 0 103 -12v-160q-25 10 -61 10q-32 0 -51.5 -13t-19.5 -37v-10h131v-161h-131v-346h-215zM482 0v507h215v-507h-215z
" />
    <glyph glyph-name="f_l" horiz-adv-x="740" 
d="M82 0v346h-72v161h72v22q0 104 57.5 152t186.5 48q55 0 103 -12v-160q-25 10 -61 10q-32 0 -51.5 -13t-19.5 -37v-10h131v-161h-131v-346h-215zM482 0v706h215v-706h-215z" />
    <glyph glyph-name="zero.tf" horiz-adv-x="729" 
d="M365 -23q-227 0 -305 176q-37 83 -37 200t37 200q78 176 305 176q226 0 305 -176q36 -81 36 -200t-36 -200q-79 -176 -305 -176zM365 160q61 0 83 49q16 36 16 144t-16 144q-22 49 -83 49q-62 0 -84 -49q-16 -36 -16 -144t16 -144q22 -49 84 -49z" />
    <glyph glyph-name="one.tf" horiz-adv-x="729" 
d="M285 0v515h-158l42 191h340v-706h-224z" />
    <glyph glyph-name="two.tf" horiz-adv-x="729" 
d="M16 0v2l327 358q47 52 64.5 78.5t17.5 52.5q0 15 -5 28q-16 37 -72 37q-59 0 -80 -45q-11 -26 -11 -65h-227q0 77 23 129q69 154 299 154q231 0 294 -141q19 -43 19 -94t-20 -89.5t-60 -80.5q-67 -69 -156 -139h246v-185h-659z" />
    <glyph glyph-name="three.tf" horiz-adv-x="729" 
d="M671 278q14 -32 14 -80q0 -47 -17 -84q-63 -137 -304 -137q-244 0 -307 145q-25 56 -25 143h225q0 -46 13 -75q20 -47 86 -47q61 0 82 44q7 15 7 38q0 20 -7 36q-19 43 -101 43h-34v131h36q75 0 92 40q6 12 6 28q0 21 -6 34q-18 39 -77 39q-62 0 -82 -42q-6 -14 -8 -33
h-221q0 47 17 84q67 144 303 144q108 0 184 -33.5t105 -98.5q15 -34 15 -76q0 -36 -13 -65q-28 -62 -109 -88q94 -19 126 -90z" />
    <glyph glyph-name="four.tf" horiz-adv-x="729" 
d="M711 309v-179h-94v-130h-218v130h-407v2l231 574h394v-397h94zM275 309h124v330h-1z" />
    <glyph glyph-name="five.tf" horiz-adv-x="729" 
d="M364 -23q-231 0 -296 145q-26 60 -26 143h228q0 -49 13 -78q19 -44 79 -44q58 0 77 45q8 16 8 41q0 22 -8 41q-32 70 -222 70q-71 0 -143 -7l67 373h518l-40 -175h-302l-15 -74q51 13 110 13q95 0 160 -32t92 -91q22 -49 22 -111q0 -57 -22 -109q-67 -150 -300 -150z" />
    <glyph glyph-name="six.tf" horiz-adv-x="729" 
d="M689 344q20 -45 20 -105q0 -59 -21 -106q-34 -74 -115 -115t-185 -41q-248 0 -326 173q-36 80 -36 195q0 119 39 205q81 179 316 179q159 0 246 -89q55 -55 68 -134h-226q-6 21 -20 35q-27 27 -73 27q-75 0 -106 -68q-16 -37 -18 -95q70 62 194 62q188 0 243 -123z
M463 190q8 19 8 43q0 26 -8 43q-21 46 -88 46q-68 0 -90 -48q-8 -16 -8 -42q0 -23 8 -42q21 -47 89 -47t89 47z" />
    <glyph glyph-name="seven.tf" horiz-adv-x="729" 
d="M119 0l262 515h-330v191h675l-344 -706h-263z" />
    <glyph glyph-name="eight.tf" horiz-adv-x="729" 
d="M685 293q17 -39 17 -83q0 -45 -17 -84q-66 -149 -321 -149q-253 0 -320 149q-17 39 -17 84t17 82q33 76 121 98q-74 20 -99 76q-13 29 -13 65t13 67q28 64 106 97.5t193 33.5q111 0 189 -32.5t107 -97.5q14 -31 14 -68q0 -38 -13 -67q-26 -56 -96 -74q85 -20 119 -97z
M285 549q-7 -15 -7 -34q0 -18 6 -30q18 -43 81 -43q61 0 80 41q6 15 6 33q0 19 -6 31q-19 42 -81 42t-79 -40zM455 184q7 14 7 38q0 16 -7 33q-22 48 -92 48q-67 0 -88 -46q-8 -15 -8 -37q0 -21 7 -34q22 -48 92 -48q66 0 89 46z" />
    <glyph glyph-name="nine.tf" horiz-adv-x="729" 
d="M667 556q36 -80 36 -195q0 -118 -38 -205q-81 -179 -316 -179q-158 0 -247 89q-54 54 -67 134h225q6 -21 20 -35q27 -27 74 -27q76 0 105 68q16 34 18 95q-70 -62 -193 -62q-188 0 -244 123q-20 45 -20 105q0 61 22 106q33 74 114 115t185 41q248 0 326 -173zM444 432
q8 16 8 42q0 23 -8 42q-21 47 -89 47t-89 -47q-8 -19 -8 -43q0 -26 8 -43q22 -46 88 -46q68 0 90 48z" />
    <glyph glyph-name="zero.dnom" horiz-adv-x="492" 
d="M246 -13q-158 0 -205 104q-20 46 -20 103t20 103q47 104 205 104t205 -104q20 -46 20 -103t-20 -103q-47 -104 -205 -104zM246 111q39 0 51 26q7 15 7 57q0 40 -7 57q-11 25 -51 25q-39 0 -50 -25q-7 -14 -7 -57q0 -44 7 -57q12 -26 50 -26z" />
    <glyph glyph-name="one.dnom" horiz-adv-x="297" 
d="M89 0v263h-89l24 125h223v-388h-158z" />
    <glyph glyph-name="two.dnom" horiz-adv-x="430" 
d="M-5 0v7l208 197q43 40 43 61q0 9 -3 13q-9 14 -32 14q-27 0 -37 -19q-5 -12 -5 -26h-157q0 35 13 65q40 89 188 89q149 0 185 -81q11 -24 11 -51q0 -47 -42 -82q-24 -22 -80 -59h127v-128h-419z" />
    <glyph glyph-name="three.dnom" horiz-adv-x="432" 
d="M407 152q9 -18 9 -43q0 -23 -9 -43q-37 -79 -197 -79q-151 0 -188 81q-14 34 -14 81l148 1q0 -21 5 -34q10 -21 43 -21q31 0 41 18q3 6 3 15q0 8 -3 15q-8 17 -48 17h-19v80h21q36 0 44 17q2 6 2 13q0 10 -4 15q-8 13 -36 13q-30 0 -38 -19q-2 -5 -4 -16h-147q0 26 10 53
q19 43 70 64t118 21q64 0 114 -19.5t67 -57.5q8 -19 8 -41q0 -18 -6 -33q-17 -35 -64 -50q58 -11 74 -48z" />
    <glyph glyph-name="four.dnom" horiz-adv-x="492" 
d="M262 0v60h-276v2l149 326h278v-209h70v-119h-70v-60h-151zM197 179h65v165z" />
    <glyph glyph-name="five.dnom" horiz-adv-x="424" 
d="M212 -13q-147 0 -186 88q-14 31 -14 72l151 1q0 -17 5 -30q12 -24 45 -24q28 0 38 18q3 8 3 15q0 9 -4 17q-19 34 -147 34q-27 0 -71 -2l42 212h320l-18 -105h-182l-5 -30q22 3 64 3q117 0 148 -70q11 -24 11 -54t-11 -55q-41 -90 -189 -90z" />
    <glyph glyph-name="six.dnom" horiz-adv-x="475" 
d="M450 181q9 -22 9 -49q0 -29 -11 -53q-41 -92 -202 -92t-209 103q-18 40 -18 98q0 61 20 104q49 109 205 109q113 0 169 -56q29 -29 38 -72h-152q-3 8 -8 13q-16 14 -42 14q-46 0 -62 -36q-8 -16 -8 -39v-3q43 30 118 30q120 0 153 -71zM291 107q4 9 4 19q0 6 -4 16
q-9 21 -46 21t-46 -20q-4 -10 -4 -17q0 -10 4 -19q11 -18 46 -18t46 18z" />
    <glyph glyph-name="seven.dnom" horiz-adv-x="405" 
d="M27 0l147 263h-167v125h413l-216 -388h-177z" />
    <glyph glyph-name="eight.dnom" horiz-adv-x="449" 
d="M424 164q9 -20 9 -45q0 -27 -9 -48q-38 -84 -199 -84t-200 84q-9 21 -9 48q0 25 9 45q18 39 66 51q-40 11 -53 41q-6 15 -6 34q0 22 8 38q16 37 66.5 55t118.5 18t118 -18t67 -55q8 -19 8 -38q0 -16 -7 -34q-14 -30 -53 -41q49 -11 66 -51zM185 292q-2 -6 -2 -13t2 -13
q8 -19 40 -19q31 0 39 19q2 6 2 13t-2 13q-8 18 -39 18q-33 0 -40 -18zM269 112q3 6 3 16q0 9 -3 15q-9 21 -44 21q-36 0 -45 -21q-3 -6 -3 -15q0 -10 3 -16q11 -21 45 -21q36 0 44 21z" />
    <glyph glyph-name="nine.dnom" horiz-adv-x="475" 
d="M438 298q18 -40 18 -98q0 -61 -20 -104q-49 -109 -205 -109q-113 0 -169 56q-29 29 -38 72h152q3 -8 8 -13q16 -14 42 -14q46 0 62 36q8 16 8 39v3q-43 -30 -118 -30q-120 0 -153 71q-9 23 -9 49q0 29 11 53q41 92 202 92t209 -103zM276 245q4 10 4 17q0 10 -4 19
q-11 18 -46 18t-46 -18q-4 -9 -4 -19q0 -6 4 -16q9 -21 46 -21t46 20z" />
    <glyph glyph-name="zero.numr" horiz-adv-x="492" 
d="M246 305q-158 0 -205 104q-20 46 -20 103t20 103q47 104 205 104t205 -104q20 -46 20 -103t-20 -103q-47 -104 -205 -104zM246 429q39 0 51 26q7 15 7 57q0 40 -7 57q-11 25 -51 25q-39 0 -50 -25q-7 -14 -7 -57q0 -44 7 -57q12 -26 50 -26z" />
    <glyph glyph-name="one.numr" horiz-adv-x="297" 
d="M89 318v263h-89l24 125h223v-388h-158z" />
    <glyph glyph-name="two.numr" horiz-adv-x="430" 
d="M-5 318v7l208 197q43 40 43 61q0 9 -3 13q-9 14 -32 14q-27 0 -37 -19q-5 -12 -5 -26h-157q0 35 13 65q40 89 188 89q149 0 185 -81q11 -24 11 -51q0 -47 -42 -82q-24 -22 -80 -59h127v-128h-419z" />
    <glyph glyph-name="three.numr" horiz-adv-x="432" 
d="M407 470q9 -18 9 -43q0 -23 -9 -43q-37 -79 -197 -79q-151 0 -188 81q-14 34 -14 81l148 1q0 -21 5 -34q10 -21 43 -21q31 0 41 18q3 6 3 15q0 8 -3 15q-8 17 -48 17h-19v80h21q36 0 44 17q2 6 2 13q0 10 -4 15q-8 13 -36 13q-30 0 -38 -19q-2 -5 -4 -16h-147q0 26 10 53
q19 43 70 64t118 21q64 0 114 -19.5t67 -57.5q8 -19 8 -41q0 -18 -6 -33q-17 -35 -64 -50q58 -11 74 -48z" />
    <glyph glyph-name="four.numr" horiz-adv-x="492" 
d="M262 318v60h-276v2l149 326h278v-209h70v-119h-70v-60h-151zM197 497h65v165z" />
    <glyph glyph-name="five.numr" horiz-adv-x="424" 
d="M212 305q-147 0 -186 88q-14 31 -14 72l151 1q0 -17 5 -30q12 -24 45 -24q28 0 38 18q3 8 3 15q0 9 -4 17q-19 34 -147 34q-27 0 -71 -2l42 212h320l-18 -105h-182l-5 -30q23 3 64 3q117 0 148 -70q11 -24 11 -54t-11 -55q-41 -90 -189 -90z" />
    <glyph glyph-name="six.numr" horiz-adv-x="475" 
d="M450 499q9 -23 9 -49q0 -29 -11 -53q-41 -92 -202 -92t-209 103q-18 40 -18 98q0 61 20 104q49 109 205 109q113 0 169 -56q29 -29 38 -72h-152q-3 8 -8 13q-16 14 -42 14q-46 0 -62 -36q-8 -16 -8 -39v-3q43 30 118 30q120 0 153 -71zM291 425q4 9 4 19q0 6 -4 16
q-9 21 -46 21t-46 -20q-4 -10 -4 -17q0 -10 4 -19q10 -18 46 -18q35 0 46 18z" />
    <glyph glyph-name="seven.numr" horiz-adv-x="405" 
d="M27 318l147 263h-167v125h413l-216 -388h-177z" />
    <glyph glyph-name="eight.numr" horiz-adv-x="449" 
d="M424 482q9 -20 9 -45q0 -27 -9 -48q-38 -84 -199 -84t-200 84q-9 21 -9 48q0 25 9 45q18 39 66 51q-40 11 -53 41q-6 15 -6 34q0 22 8 38q16 37 66.5 55t118.5 18t118 -18t67 -55q8 -19 8 -38q0 -16 -7 -34q-14 -30 -53 -41q49 -11 66 -51zM185 610q-2 -6 -2 -13t2 -13
q8 -19 40 -19q31 0 39 19q2 6 2 13t-2 13q-8 18 -39 18q-33 0 -40 -18zM269 430q3 6 3 16q0 9 -3 15q-9 21 -44 21q-36 0 -45 -21q-3 -6 -3 -15q0 -10 3 -16q11 -21 45 -21q36 0 44 21z" />
    <glyph glyph-name="nine.numr" horiz-adv-x="475" 
d="M438 616q18 -40 18 -98q0 -61 -20 -104q-49 -109 -205 -109q-113 0 -169 56q-29 29 -38 72h152q3 -8 8 -13q16 -14 42 -14q46 0 62 36q8 16 8 39v3q-43 -30 -118 -30q-120 0 -153 71q-9 23 -9 49q0 29 11 53q41 92 202 92t209 -103zM276 563q4 10 4 17q0 10 -4 19
q-11 18 -46 18t-46 -18q-4 -9 -4 -19q0 -6 4 -16q9 -21 46 -21t46 20z" />
    <glyph glyph-name="colon.case" horiz-adv-x="373" 
d="M186 394q-52 0 -84.5 32t-32.5 83q0 53 32 84.5t85 31.5q52 0 84.5 -31.5t32.5 -84.5q0 -51 -32.5 -83t-84.5 -32zM186 81q-52 0 -84.5 32t-32.5 83q0 53 32 84.5t85 31.5q52 0 84.5 -31.5t32.5 -84.5q0 -51 -32.5 -83t-84.5 -32z" />
    <glyph glyph-name="semicolon.case" horiz-adv-x="379" 
d="M193 394q-52 0 -84.5 32t-32.5 83q0 53 32 84.5t85 31.5q52 0 84.5 -31.5t32.5 -84.5q0 -51 -32.5 -83t-84.5 -32zM18 -80l71 343h199l-117 -343h-153z" />
    <glyph glyph-name="exclamdown.case" horiz-adv-x="351" 
d="M176 723q52 0 84.5 -32t32.5 -83q0 -53 -32 -84.5t-85 -31.5q-52 0 -84.5 31.5t-32.5 84.5q0 51 32.5 83t84.5 32zM261 445l31 -449h-232l30 449h171z" />
    <glyph glyph-name="questiondown.case" horiz-adv-x="607" 
d="M306 730q52 0 84.5 -32t32.5 -84t-32 -84t-85 -32q-52 0 -84.5 32t-32.5 84t32.5 84t84.5 32zM412 450q-128 -180 -144 -209q-19 -33 -19 -59q0 -53 58 -53q42 0 57 30q5 14 5 37h214q0 -59 -16 -96q-56 -122 -264 -122q-130 0 -204.5 50.5t-74.5 145.5q0 45 26.5 92
t125.5 184h236z" />
    <glyph glyph-name="periodcentered.case" horiz-adv-x="373" 
d="M186 251q-52 0 -84.5 32.5t-32.5 83.5q0 53 32 84.5t85 31.5q52 0 84.5 -31.5t32.5 -84.5q0 -51 -32.5 -83.5t-84.5 -32.5z" />
    <glyph glyph-name="periodcentered.loclCAT.case" horiz-adv-x="87" 
d="M-40 314q-52 0 -85 32.5t-33 83.5q0 53 32.5 84.5t85.5 31.5q52 0 84 -31.5t32 -84.5q0 -51 -32.5 -83.5t-83.5 -32.5z" />
    <glyph glyph-name="slash.case" horiz-adv-x="619" 
d="M11 -50l400 807h211l-399 -807h-212z" />
    <glyph glyph-name="periodcentered.loclCAT" horiz-adv-x="245" 
d="M123 253q-52 0 -85 32.5t-33 83.5q0 53 32.5 84.5t85.5 31.5q52 0 84 -31.5t32 -84.5q0 -51 -32.5 -83.5t-83.5 -32.5z" />
    <glyph glyph-name="parenleft.case" horiz-adv-x="417" 
d="M220 -158q-76 130 -112 244t-36 267q0 150 36.5 267t111.5 246h189q-74 -126 -112 -247.5t-38 -265.5q0 -148 37.5 -266t112.5 -245h-189z" />
    <glyph glyph-name="parenright.case" horiz-adv-x="417" 
d="M197 -158h-189q75 127 112.5 245t37.5 266q0 144 -38 265.5t-112 247.5h189q76 -129 112.5 -246t36.5 -267q0 -153 -36.5 -267t-112.5 -244z" />
    <glyph glyph-name="braceleft.case" horiz-adv-x="447" 
d="M307 483q0 -115 -101 -130q101 -15 101 -129v-134q0 -53 19.5 -74.5t78.5 -21.5h25v-148h-91q-99 0 -151 52.5t-52 138.5v146q0 50 -19.5 69.5t-70.5 19.5v162q51 0 70.5 20t19.5 70v145q0 86 52 138.5t151 52.5h91v-148h-25q-59 0 -78.5 -21.5t-19.5 -74.5v-133z" />
    <glyph glyph-name="braceright.case" horiz-adv-x="447" 
d="M311 524q0 -50 20 -70t70 -20v-162q-50 0 -70 -19.5t-20 -69.5v-146q0 -86 -52 -138.5t-150 -52.5h-91v148h25q58 0 77.5 21.5t19.5 74.5v134q0 114 102 129q-102 15 -102 130v133q0 53 -19.5 74.5t-77.5 21.5h-25v148h91q98 0 150 -52.5t52 -138.5v-145z" />
    <glyph glyph-name="bracketleft.case" horiz-adv-x="414" 
d="M89 -158v1024h308v-158h-127v-710h127v-156h-308z" />
    <glyph glyph-name="bracketright.case" horiz-adv-x="414" 
d="M325 -158h-307v156h126v710h-126v158h307v-1024z" />
    <glyph glyph-name="hyphen.case" horiz-adv-x="446" 
d="M45 283v168h356v-168h-356z" />
    <glyph glyph-name="uni00AD.case" horiz-adv-x="446" 
d="M45 283v168h356v-168h-356z" />
    <glyph glyph-name="endash.case" horiz-adv-x="628" 
d="M45 281v168h538v-168h-538z" />
    <glyph glyph-name="emdash.case" horiz-adv-x="1256" 
d="M45 281v168h1165v-168h-1165z" />
    <glyph glyph-name="guillemotleft.case" horiz-adv-x="676" 
d="M173 192l-160 170l160 170h202l-160 -170l160 -170h-202zM461 192l-160 170l160 170h202l-160 -170l160 -170h-202z" />
    <glyph glyph-name="guillemotright.case" horiz-adv-x="676" 
d="M215 192h-202l160 170l-160 170h202l160 -170zM503 192h-202l160 170l-160 170h202l160 -170z" />
    <glyph glyph-name="guilsinglleft.case" horiz-adv-x="388" 
d="M173 192l-160 170l160 170h202l-160 -170l160 -170h-202z" />
    <glyph glyph-name="guilsinglright.case" horiz-adv-x="388" 
d="M215 192h-202l160 170l-160 170h202l160 -170z" />
    <glyph glyph-name="cent.ss06" horiz-adv-x="682" 
d="M434 314h233q-6 -90 -70 -148q-66 -60 -173 -77v-89h-160v87q-171 25 -225 148q-24 49 -24 118t24 118q54 124 225 148v87h160v-88q107 -18 174 -78q61 -55 67 -144h-231q-3 29 -25 48q-24 21 -70 21q-64 0 -85 -48q-10 -20 -10 -63q0 -44 10 -64q22 -49 85 -49
q47 0 71 21q22 22 24 52z" />
    <glyph glyph-name="dollar.ss06" horiz-adv-x="733" 
d="M692 303q17 -37 17 -87q0 -53 -19 -94q-52 -118 -243 -140v-96h-170v96q-183 25 -236 142q-16 39 -18 90h248q1 -20 7 -34q20 -43 91 -43q66 0 82 34q4 9 4 21q0 13 -4 22q-6 13 -21 23.5t-39 18.5t-46 13.5l-56.5 13.5t-55.5 14q-139 38 -180 124q-16 37 -16 83
q0 44 17 83q24 54 81.5 89t141.5 47v97h170v-97q170 -24 223 -138q16 -34 18 -85h-241q-1 21 -7 36q-17 39 -83 39q-57 0 -72 -29q-4 -7 -4 -17t4 -18q5 -11 16.5 -20t33 -16t39 -12t52 -13l54.5 -13q82 -22 135.5 -51.5t76.5 -82.5z" />
    <glyph glyph-name="paragraph.ss07" horiz-adv-x="919" 
d="M358 -203v417h-79q-190 0 -247 127q-22 47 -22 119t22 120q57 126 251 126h627v-164h-84v-745h-192v745h-85v-745h-191zM303 376h55v168h-55q-65 0 -84 -41q-8 -18 -8 -43q0 -27 7 -42q19 -42 85 -42z" />
    <glyph glyph-name="caroncomb.alt" 
d="M-200 532l23 174h200l-54 -174h-169z" />
    <glyph glyph-name="uni0335.Eth" 
d="M-443 293v124h443v-124h-443z" />
    <glyph glyph-name="uni0335.Tbar" 
d="M-524 281v124h474v-124h-474z" />
    <glyph glyph-name="caron.alt" horiz-adv-x="323" 
d="M50 532l23 174h200l-54 -174h-169z" />
    <glyph glyph-name="uni0308.case" 
d="M-410 746q-44 0 -72 26.5t-28 67.5q0 42 28 69t72 27t72 -27t28 -69q0 -41 -28 -67.5t-72 -26.5zM-152 746q-43 0 -71.5 26.5t-28.5 67.5q0 42 28.5 69t71.5 27q44 0 72.5 -27t28.5 -69q0 -41 -28.5 -67.5t-72.5 -26.5z" />
    <glyph glyph-name="uni0307.case" 
d="M-160 746q-47 0 -78.5 30t-31.5 74t31.5 74t78.5 30t78.5 -30t31.5 -74t-31.5 -74t-78.5 -30z" />
    <glyph glyph-name="gravecomb.case" 
d="M-50 754h-205l-126 158h226z" />
    <glyph glyph-name="acutecomb.case" 
d="M-381 754l106 158h225l-125 -158h-206z" />
    <glyph glyph-name="uni030B.case" 
d="M-575 755l106 157h188l-130 -157h-164zM-345 755l106 157h189l-131 -157h-164z" />
    <glyph glyph-name="uni0302.case" 
d="M-551 755l121 157h259l121 -157h-195l-56 70l-55 -70h-195z" />
    <glyph glyph-name="uni030C.case" 
d="M-50 912l-121 -157h-259l-121 157h195l56 -70l55 70h195z" />
    <glyph glyph-name="uni0306.case" 
d="M-265 751q-101 0 -157.5 41.5t-60.5 119.5h151q8 -52 67 -52q30 0 45.5 12t22.5 40h147q-5 -78 -60 -119.5t-155 -41.5z" />
    <glyph glyph-name="uni030A.case" 
d="M-209 726q-71 0 -115.5 37.5t-44.5 99.5t44.5 99.5t115.5 37.5q70 0 114.5 -37.5t44.5 -99.5t-44 -99.5t-115 -37.5zM-209 815q24 0 38 13t14 35q0 23 -13.5 36t-38.5 13q-24 0 -38 -13t-14 -36q0 -22 14 -35t38 -13z" />
    <glyph glyph-name="tildecomb.case" 
d="M-185 751q-36 0 -91 21q-53 20 -71 20q-32 0 -37 -37h-123q7 85 42 124.5t100 39.5q38 0 89 -24q34 -16 58 -16q17 0 26.5 8t16.5 28h125q-9 -164 -135 -164z" />
    <glyph glyph-name="uni0304.case" 
d="M-426 767v134h376v-134h-376z" />
    <glyph glyph-name="uni0337.case" 
d="M-250 428l250 143v-149l-250 -143v35l-174 -99v147l174 101v-35z" />
    <glyph glyph-name="uni0338.case" 
d="M-990 0l239 212l5 -1l423 383l2 -4l124 116h157l-237 -212l-4 4l-424 -384l-4 1l-129 -115h-152z" />
    <glyph glyph-name="uni0308.narrow.case" 
d="M-358 749q-39 0 -65.5 27t-26.5 66q0 40 26.5 68t65.5 28q40 0 66.5 -28t26.5 -68q0 -39 -26.5 -66t-66.5 -27zM-143 748q-40 0 -66.5 27.5t-26.5 66.5q0 40 26.5 67.5t66.5 27.5q39 0 66 -28t27 -67t-27 -66.5t-66 -27.5z" />
    <glyph glyph-name="uni0302.narrow.case" 
d="M-505 755l98 157h259l98 -157h-188l-39 67l-40 -67h-188z" />
    <glyph glyph-name="uni0306.narrow.case" 
d="M-246 748q-92 0 -143.5 42.5t-53.5 121.5h147q3 -30 14.5 -41.5t35.5 -11.5q23 0 34 12t15 41h147q-2 -79 -53 -121.5t-143 -42.5z" />
    <glyph glyph-name="tildecomb.narrow.case" 
d="M-172 751q-42 0 -79 27q-29 19 -43 19q-23 0 -26 -42h-108q9 161 122 161q44 0 81 -30q24 -17 36 -17q14 0 20 9.5t10 33.5h109q-5 -81 -33 -121t-89 -40z" />
    <glyph glyph-name="uni0304.narrow.case" 
d="M-381 767v134h331v-134h-331z" />
    <glyph glyph-name="uni0335.dh" 
d="M-449 247v100h449v-100h-449z" />
    <glyph glyph-name="uni0307.i" 
d="M-156 547q-45 0 -75 28t-30 72q0 43 30 71.5t75 28.5q46 0 76 -28t30 -72t-29.5 -72t-76.5 -28z" />
    <glyph glyph-name="uni0308.narrow" 
d="M-327 553q-40 0 -64 25t-24 65q0 41 24 66.5t64 25.5q38 0 62 -25.5t24 -66.5q0 -40 -24 -65t-62 -25zM-137 553q-39 0 -63 25t-24 65q0 41 24 66.5t63 25.5t63 -25.5t24 -66.5q0 -40 -24 -65t-63 -25z" />
    <glyph glyph-name="gravecomb.narrow" 
d="M-50 553h-194l-110 168h218z" />
    <glyph glyph-name="acutecomb.narrow" 
d="M-354 553l85 168h219l-110 -168h-194z" />
    <glyph glyph-name="uni0302.narrow" 
d="M-417 553l84 168h200l83 -168h-149l-34 76l-34 -76h-150z" />
    <glyph glyph-name="uni030C.narrow" 
d="M-421 721h150l34 -76l34 76h149l-83 -168h-200z" />
    <glyph glyph-name="uni0306.narrow" 
d="M-228 543q-85 0 -131 45.5t-48 132.5h131q1 -39 12.5 -54t35.5 -15q23 0 34.5 15t12.5 54h131q-2 -87 -48 -132.5t-130 -45.5z" />
    <glyph glyph-name="tildecomb.narrow" 
d="M-161 552q-38 0 -73 25q-27 20 -38 20q-25 0 -30 -43h-106q5 93 30 135t81 42q39 0 73 -26q26 -19 38 -19q25 0 30 42h106q-4 -92 -29 -134t-82 -42z" />
    <glyph glyph-name="uni0304.narrow" 
d="M-365 577v134h315v-134h-315z" />
    <glyph glyph-name="uni0328.narrow" 
d="M-141 -220q-65 0 -104.5 25.5t-39.5 76.5q0 78 78 118h156q-67 -37 -67 -81q0 -30 34 -30q18 0 33 7v-104q-38 -12 -90 -12z" />
    <glyph glyph-name="uni0338.ss04" 
d="M-187 309l-76 170l99 135l145 -104zM-529 -108l-144 105l171 204l76 -171z" />
    <glyph glyph-name="uni0338.case.ss04" 
d="M-199 458l-87 190l137 160l149 -129zM-726 -102l-149 128l205 230l107 -162z" />
    </font>
</defs>
</svg>
