<?xml version="1.0" standalone="no"?>
<!DOCTYPE svg PUBLIC "-//W3C//DTD SVG 1.1//EN" "http://www.w3.org/Graphics/SVG/1.1/DTD/svg11.dtd" >
<svg>
<metadata>
Created by FontForge 20090622 at Tue Sep 29 15:32:16 2020
 By deploy user
Copyright &#194;&#169; 2015 by Connary Fagen. All rights reserved.
</metadata>
<defs>
<font id="QuincyCF-Regular" horiz-adv-x="463" >
  <font-face 
    font-family="Quincy CF"
    font-weight="400"
    font-stretch="normal"
    units-per-em="1000"
    panose-1="0 0 5 0 0 0 0 0 0 0"
    ascent="800"
    descent="-200"
    x-height="451"
    cap-height="621"
    bbox="-243.667 -296.571 936 893"
    underline-thickness="50"
    underline-position="-50"
    unicode-range="U+0020-U+FB02"
  />
<missing-glyph horiz-adv-x="515" 
d="M422 800v-1030h-326v1030h326zM343 731h-170v-34h67v-38h-68v-34h171v34h-68v38h68v34zM275 598h-103v-107h171v35h-68v72zM240 563v-37h-34v37h34zM343 463h-171v-34h68v-38h-68v-34h103v72h68v34zM343 401h-34v-68h-137v-35h171v103zM343 276h-103v-58h35v24h34v-49
h-103v83h-34v-117h171v117zM343 98h-171v-117h171v117zM309 64v-49h-103v49h103zM343 -43h-171v-34h72l-72 -48v-34h171v34h-105l72 48h33v34z" />
    <glyph glyph-name="fi" unicode="fi" horiz-adv-x="584" 
d="M300 627q-70 0 -97.5 -37t-27.5 -104v-29h120q-10 -31 -14 -37t-18 -6h-88v-362q0 -17 9.5 -22.5t42.5 -5.5v-24h-176v24q27 0 35.5 5.5t8.5 22.5v362h-56q-10 0 -10 10v33h66v17q0 95 48.5 144t156.5 49q86 0 148 -35.5t62 -83.5q0 -22 -9.5 -30.5t-32.5 -8.5
q-45 0 -45 39q0 37 -27 58t-96 21zM497 53q0 -28 43 -28v-25h-165v25q44 0 44 28v325q0 17 -6.5 24t-21.5 7h-20v38l94 9q32 3 32 -31v-372z" />
    <glyph glyph-name="fl" unicode="fl" horiz-adv-x="602" 
d="M525 81q0 -28 12.5 -39.5t46.5 -3.5l-11 -30q-24 -8 -50 -8q-37 0 -57.5 23t-20.5 62v451q0 32 -46 61.5t-105 29.5q-64 0 -91.5 -40.5t-27.5 -100.5v-29h140q-10 -31 -14 -37t-18 -6h-108v-362q0 -17 9.5 -22.5t42.5 -5.5v-24h-176v24q28 0 36 5t8 23v362h-56
q-10 0 -10 10v33h66v17q0 87 49 140t150 53q88 0 157 -19l45 8q15 2 22 -5t8 -19.5t0 -32.5q-1 -11 -1 -17v-501z" />
    <glyph glyph-name="f_f" unicode="ff" horiz-adv-x="732" 
d="M731 598q11 -12 11.5 -27t-12.5 -27q-14 -11 -29 -9t-22 15q-9 18 -14 27t-15.5 23t-24.5 20.5t-32 6.5q-85 0 -85 -113v-57h152q-10 -30 -15 -36.5t-19 -6.5h-118v-362q0 -17 9.5 -22.5t42.5 -5.5v-24h-179v24q28 0 37 5.5t9 22.5v362h-58q-10 0 -10 10v33h68v41v9
q-2 44 -36 84t-92 40q-62 0 -93 -43.5t-31 -101.5v-29h128q-11 -31 -15 -37t-17 -6h-96v-362q0 -17 9.5 -22.5t42.5 -5.5v-24h-176v24q27 0 35.5 5.5t8.5 22.5v362h-56q-10 0 -10 10v33h66v17q0 86 52.5 141.5t151.5 55.5q91 0 161 -56q41 52 116 52q105 0 155 -69z" />
    <glyph glyph-name=".notdef" horiz-adv-x="515" 
d="M422 800v-1030h-326v1030h326zM343 731h-170v-34h67v-38h-68v-34h171v34h-68v38h68v34zM275 598h-103v-107h171v35h-68v72zM240 563v-37h-34v37h34zM343 463h-171v-34h68v-38h-68v-34h103v72h68v34zM343 401h-34v-68h-137v-35h171v103zM343 276h-103v-58h35v24h34v-49
h-103v83h-34v-117h171v117zM343 98h-171v-117h171v117zM309 64v-49h-103v49h103zM343 -43h-171v-34h72l-72 -48v-34h171v34h-105l72 48h33v34z" />
    <glyph glyph-name=".null" horiz-adv-x="0" 
 />
    <glyph glyph-name="nonmarkingreturn" horiz-adv-x="333" 
 />
    <glyph glyph-name="space" unicode=" " horiz-adv-x="220" 
 />
    <glyph glyph-name="exclam" unicode="!" horiz-adv-x="231" 
d="M104 217q-2 80 -23 199t-21 170q0 67 58 67t58 -67q0 -51 -21.5 -170t-23.5 -199h-27zM122 -10q-22 0 -38.5 16t-16.5 39t16.5 39t38.5 16t38 -16.5t16 -38.5t-16 -38.5t-38 -16.5z" />
    <glyph glyph-name="quotedbl" unicode="&#x22;" horiz-adv-x="284" 
d="M63 453q3 -19 14 -19q12 0 15 19l22 163q2 20 -8 32t-29 12t-28.5 -12t-7.5 -32zM192 453q3 -19 14 -19q12 0 15 19l22 163q2 20 -8 32t-29 12t-28.5 -12t-7.5 -32z" />
    <glyph glyph-name="numbersign" unicode="#" horiz-adv-x="587" 
d="M542 466q16 0 14 -15l-1 -17q0 -15 -16 -15h-107l-48 -189h117q15 0 14 -15l-1 -18q-2 -15 -16 -15h-126l-53 -212h-54l54 212h-126l-54 -212h-54l55 212h-91q-15 0 -14 15l1 18q2 15 16 15h100l49 189h-111q-14 0 -14 15l1 17q1 15 16 15h120l54 206h49l-52 -206h129
l53 206h49l-51 -206h98zM332 230l48 189h-128l-47 -189h127z" />
    <glyph glyph-name="dollar" unicode="$" horiz-adv-x="541" 
d="M513 183q7 -63 -27 -109t-85 -66.5t-109 -22.5v-46h-41v48q-34 3 -68 16l-47.5 18t-48.5 -2l-52 157l28 9q21 7 32 -13q21 -39 22 -41q39 -82 134 -97v244q-29 9 -40 13t-38.5 15t-41.5 21.5t-32.5 27.5t-28.5 39t-14 49q-10 69 44 129t151 66v51h41v-52q61 -4 115 -36
t72 -35l13 -127l-29 -5q-20 -3 -24 12l-11 40q-10 41 -49 72t-87 39v-238q106 -31 151 -63q63 -45 70 -113zM138 469q5 -38 34.5 -59.5t78.5 -37.5v226q-55 -7 -87 -45t-26 -84zM292 32q58 2 96.5 29.5t31.5 89.5q-5 47 -37.5 71t-90.5 43v-233z" />
    <glyph glyph-name="percent" unicode="%" horiz-adv-x="662" 
d="M520 636h45l-432 -641h-75l442 613q-107 -86 -188 -48q6 -26 1 -55q-8 -49 -51.5 -93t-97.5 -44t-82 43t-20 94q10 50 54 94t98 44q29 0 52 -14l16 -7q16 -8 20.5 -9.5t21 -8t25.5 -7t27 -3t32 0.5l33 7t38.5 13t40.5 21zM249 505q18 103 -40 103q-60 0 -80 -103
q-16 -100 41 -100q59 0 79 100zM490 264q55 0 82.5 -43.5t16.5 -94.5q-7 -48 -51 -92.5t-98 -44.5t-82 43t-20 94q11 50 55 94t97 44zM525 126q20 103 -40 103q-58 0 -80 -103q-16 -100 41 -100q61 0 79 100z" />
    <glyph glyph-name="ampersand" unicode="&#x26;" horiz-adv-x="740" 
d="M272 322l-25 4q-36 5 -73.5 -36t-37.5 -106q0 -86 51.5 -125.5t128.5 -39.5q81 0 137 48t56 120q0 38 -19 61.5t-50 23.5q-32 0 -46 -23.5t5 -45.5h-30q-22 20 -22 51q0 20 15.5 34.5t51.5 38.5l128 82l14 9l14 9l11.5 8t11.5 9t9.5 8.5t8.5 9.5t6 10t5 11.5t2.5 12.5
t1.5 15q0 40 -29 58t-61 11l-22 -4q-13 -3 -15 11q-3 14 9 19q33 11 57 15q53 6 91.5 -27t38.5 -99q0 -20 -7 -39t-21.5 -35.5t-28 -29.5t-37 -27l-36.5 -21.5t-38.5 -20.5t-32.5 -17q95 -31 97 -125q1 -84 -83 -139.5t-193 -55.5q-114 0 -192 57.5t-78 150.5q0 84 44 126
t101 41q-88 57 -88 136q0 52 45 96.5t126 44.5q55 0 97 -23.5t59 -70.5q8 -21 0 -37.5t-27 -18.5q-20 -2 -34 9t-15 30q-2 41 -21 56t-60 15q-84 0 -84 -107q0 -48 24 -83.5t69 -49.5z" />
    <glyph glyph-name="quotesingle" unicode="'" horiz-adv-x="155" 
d="M63 453q3 -19 14 -19q12 0 15 19l22 163q2 20 -8 32t-29 12t-28.5 -12t-7.5 -32z" />
    <glyph glyph-name="parenleft" unicode="(" horiz-adv-x="309" 
d="M130 296q-2 -138 36.5 -255t109.5 -189q5 -5 6 -9t-2 -6.5t-9 -2.5h-9q-11 0 -19 7q-89 80 -143.5 199.5t-54.5 255.5t54.5 255.5t143.5 199.5q8 7 19 7h7q10 0 13.5 -4t-1.5 -9q-74 -72 -113.5 -190.5t-37.5 -258.5z" />
    <glyph glyph-name="parenright" unicode=")" horiz-adv-x="309" 
d="M179 296q2 140 -37.5 258.5t-113.5 190.5q-5 5 -1.5 9t13.5 4h7q11 0 19 -7q89 -80 143.5 -199.5t54.5 -255.5t-54.5 -255.5t-143.5 -199.5q-8 -7 -19 -7h-9q-9 0 -10.5 5t5.5 13q71 72 109.5 189t36.5 255z" />
    <glyph glyph-name="asterisk" unicode="*" horiz-adv-x="317" 
d="M148 520q2 -6 6 -8.5t7.5 0t5.5 8.5l31 78q-4 34 -40 39q-36 -5 -40 -39zM133 508l-55 67q-32 14 -54 -14q-14 -34 13 -54l80 -18q11 -2 17 5t-1 14zM184 508q-7 -7 -1 -14t17 -5l80 18q27 21 13 54q-23 27 -54 14zM118 473l-81 -17q-27 -21 -13 -55q22 -28 54 -14l54 67
q7 7 1.5 14t-15.5 5zM199 473q-10 2 -15.5 -5t1.5 -14l54 -67q31 -13 54 14q13 33 -13 55zM148 444l-30 -78q4 -34 40 -39q36 5 40 39l-30 78q-4 10 -10 10t-10 -10z" />
    <glyph glyph-name="plus" unicode="+" horiz-adv-x="510" 
d="M440 279v-54h-157v-160h-54v160h-159v54h159v157h54v-157h157z" />
    <glyph glyph-name="comma" unicode="," horiz-adv-x="198" 
d="M156 -30q-11 -38 -49 -71q-8 -6 -16 2l-13 14q26 28 33 45q8 24 3 34q-10 -3 -25 -2q-20 3 -32.5 20t-9.5 38q3 23 21 37.5t40 11.5q20 -3 33.5 -18.5t17.5 -34.5q7 -40 -3 -76z" />
    <glyph glyph-name="hyphen" unicode="-" horiz-adv-x="380" 
d="M45 275h270v-48h-270v48z" />
    <glyph glyph-name="period" unicode="." horiz-adv-x="219" 
d="M109 -10q-22 0 -38 16.5t-16 38.5t16 38.5t38 16.5q23 0 39 -16t16 -39t-16 -39t-39 -16z" />
    <glyph glyph-name="slash" unicode="/" horiz-adv-x="417" 
d="M314 641h56l-267 -641h-56z" />
    <glyph glyph-name="zero" unicode="0" horiz-adv-x="562" 
d="M527 313q0 -84 -25 -155.5t-82.5 -120.5t-138.5 -49t-138.5 49t-82.5 120.5t-25 155.5t25 155t82.5 119.5t138.5 48.5t138.5 -48.5t82.5 -119.5t25 -155zM281 25q83 0 116.5 69.5t33.5 218.5t-33.5 218t-116.5 69t-116.5 -69t-33.5 -218t33.5 -218.5t116.5 -69.5z" />
    <glyph glyph-name="one" unicode="1" horiz-adv-x="311" 
d="M201 62q0 -7 4.5 -12t15 -8.5l16.5 -5.5t21.5 -4.5t17.5 -3.5v-28h-231v28q4 1 13.5 2.5t14.5 3t13.5 3.5t13.5 4t10 5t7.5 7t2.5 9v453q0 18 -7.5 26.5t-21.5 4.5l-51 -14v34l132 59q29 13 29 -16v-547z" />
    <glyph glyph-name="two" unicode="2" horiz-adv-x="579" 
d="M534 122l-23 -99q-6 -23 -30 -23h-436q36 185 228 313q9 6 34 21.5t34 22t26 21t24 26t13 29t6 37.5q0 54 -36 89.5t-92 35.5q-53 0 -87.5 -23.5t-43.5 -65.5q-8 -34 -1 -64.5t6 -37.5q-17 -35 -50 -35q-20 0 -35 14.5t-15 32.5q0 97 60.5 159t168.5 62q104 0 158 -48.5
t54 -131.5q0 -23 -5 -42.5t-17.5 -37.5t-22 -30.5t-31 -28.5t-32 -23t-37.5 -23.5l-35 -21.5l-41 -25.5t-40 -25.5l-30.5 -22.5t-33 -29.5l-24 -31.5t-26.5 -42.5l294 -2q34 0 50 5t29 24l16 22h23z" />
    <glyph glyph-name="three" unicode="3" horiz-adv-x="575" 
d="M392 371q48 4 93 -45t45 -120q0 -90 -71.5 -154t-170.5 -64q-105 0 -168 49.5t-69 134.5q-4 51 42 51q27 0 34.5 -9t10 -38t10.5 -52q19 -51 51.5 -75.5t93.5 -24.5q59 0 103.5 45.5t44.5 117.5q0 65 -37 100t-85 35q-20 0 -38 -6l-41 -14l-13 33l43 17q123 49 123 138
q0 51 -28.5 79.5t-82.5 28.5q-92 0 -104 -90q-2 -16 -2 -30t-2 -24q-26 -29 -59.5 -17.5t-33.5 47.5q0 58 55 105.5t146 47.5t144 -45.5t53 -100.5q0 -42 -24 -73t-63 -47z" />
    <glyph glyph-name="four" unicode="4" horiz-adv-x="558" 
d="M508 204h-101v-143q0 -8 5 -14t17.5 -9.5t18.5 -5t23 -4.5v-28h-213v28q16 3 23 4.5t18 5t16 9.5t5 14v143h-284v27l330 405q11 14 26 10t15 -19v-381h101v-42zM92 246h228v265z" />
    <glyph glyph-name="five" unicode="5" horiz-adv-x="577" 
d="M527 205q0 -90 -71 -153.5t-173 -63.5q-104 0 -167.5 50t-69.5 136q-2 25 10.5 37t33.5 12q26 0 33 -9t9.5 -38t10.5 -52q19 -50 50.5 -74.5t89.5 -24.5q62 0 106 45t44 117q0 80 -49 134.5t-120 54.5q-19 0 -36.5 -2.5t-29 -5.5t-25.5 -9.5t-20.5 -10t-19 -11
t-15.5 -9.5h-34l22 293h336l17 13l17 1l-8 -77l-17 -15h-311l-13 -180q26 26 71 42t92 16q41 0 81.5 -12.5t76 -37.5t57.5 -68t22 -98z" />
    <glyph glyph-name="six" unicode="6" horiz-adv-x="538" 
d="M419 570q-6 -8 -18 -3l-34.5 16.5t-26.5 8.5t-37 4q-151 0 -170 -270q16 20 58 41.5t90 21.5q90 0 151 -53.5t61 -139.5q0 -82 -59 -145t-159 -63q-63 0 -109.5 24.5t-72 67.5t-37 93t-11.5 108q1 84 27 162.5t85.5 135.5t140.5 57q77 0 127 -37q10 -7 2 -18zM135 281
q-5 -123 33.5 -188t106.5 -65q69 0 100.5 47t31.5 124q0 68 -33 109t-90 41q-52 0 -100 -26t-49 -42z" />
    <glyph glyph-name="seven" unicode="7" horiz-adv-x="538" 
d="M423 545h-339l-21 -45h-23l22 98q5 23 28 23h413l-315 -626h-16q-14 0 -21.5 10.5t-0.5 23.5z" />
    <glyph glyph-name="eight" unicode="8" horiz-adv-x="573" 
d="M380 348q69 -23 106 -66t37 -116q0 -72 -68.5 -126t-170.5 -54q-105 0 -169.5 56.5t-64.5 133.5q0 125 128 169q-46 17 -69.5 52.5t-23.5 78.5q0 62 53.5 107t146.5 45q88 0 139.5 -45t51.5 -109q0 -37 -25 -72.5t-71 -53.5zM265 372l53 -12q38 -8 68.5 32t30.5 84
q0 48 -30 82t-104 34q-111 0 -111 -116q0 -82 93 -104zM428 172q0 52 -30.5 83t-102.5 47l-78 18q-34 8 -66.5 -37.5t-32.5 -106.5t43 -107t122 -46q76 0 110.5 43t34.5 106z" />
    <glyph glyph-name="nine" unicode="9" horiz-adv-x="538" 
d="M119 58q6 8 18 3q32 -17 50.5 -23t47.5 -6q151 0 170 269q-16 -20 -58 -41t-90 -21q-90 0 -151 53.5t-61 138.5q0 82 58.5 145t159.5 63q63 0 109.5 -24.5t72 -67t37 -92.5t11.5 -108q-1 -84 -27 -162.5t-85.5 -136t-140.5 -57.5q-77 0 -127 37q-10 7 -2 18zM403 346
q5 123 -33.5 188t-106.5 65q-69 0 -100.5 -47t-31.5 -124q0 -67 33 -108.5t90 -41.5q52 0 100 26t49 42z" />
    <glyph glyph-name="colon" unicode=":" horiz-adv-x="220" 
d="M110 323q-22 0 -38 16t-16 39q0 22 16 38t38 16t38.5 -16t16.5 -38q0 -23 -16 -39t-39 -16zM111 -10q-23 0 -39 16t-16 39t16 39t39 16q22 0 38 -16.5t16 -38.5t-16 -38.5t-38 -16.5z" />
    <glyph glyph-name="semicolon" unicode=";" horiz-adv-x="198" 
d="M104 322q-22 0 -38 16t-16 39q0 22 16 38t38 16t38.5 -16t16.5 -38q0 -23 -16 -39t-39 -16zM156 -30q-11 -38 -49 -71q-8 -6 -16 2l-13 14q26 28 33 45q8 24 3 34q-10 -3 -25 -2q-20 3 -32.5 20t-9.5 38q3 23 21 37.5t40 11.5q20 -3 33.5 -18.5t17.5 -34.5q7 -40 -3 -76z
" />
    <glyph glyph-name="less" unicode="&#x3c;" horiz-adv-x="509" 
d="M70 278q184 70 369 171v-56q-143 -81 -325 -142q185 -63 325 -143v-55q-185 101 -369 171v54z" />
    <glyph glyph-name="equal" unicode="=" horiz-adv-x="510" 
d="M70 369h370v-54h-370v54zM70 189h370v-54h-370v54z" />
    <glyph glyph-name="greater" unicode="&#x3e;" horiz-adv-x="509" 
d="M439 278v-54q-185 -70 -369 -171v55q140 80 325 143q-182 61 -325 142v56q184 -101 369 -171z" />
    <glyph glyph-name="question" unicode="?" horiz-adv-x="473" 
d="M45 497q0 -29 10.5 -48.5t25.5 -27t32 -5t30 14.5q21 14 3 65t-7 73q29 56 106 56q46 0 72.5 -25t26.5 -64q2 -35 -15 -62.5t-78 -75.5q-51 -41 -43 -102l11 -89h30l9 89q1 11 16.5 23.5t46.5 33.5t55 42q42 38 49.5 85.5t-14 86t-67 65t-100.5 26.5q-91 0 -145 -45.5
t-54 -115.5zM239 -10q-22 0 -38 16t-16 39t16 39t38 16t38 -16.5t16 -38.5t-16 -38.5t-38 -16.5z" />
    <glyph glyph-name="at" unicode="@" horiz-adv-x="716" 
d="M465 -68q-50 -15 -106 -15q-133 0 -223.5 94t-90.5 238q0 143 90.5 237t223.5 94q134 0 223.5 -90.5t89.5 -237.5q0 -78 -26.5 -121t-101.5 -58q-87 -18 -102 57q-13 -30 -45 -49.5t-74 -19.5q-50 0 -83.5 22.5t-33.5 68.5q0 34 16.5 57.5t69.5 44t147 33.5v12
q0 20 -3 36.5t-11 33t-26 25.5t-44 7q-30 -2 -39 -5q-13 -3 -17 -13.5t-2.5 -22.5t-1.5 -25q-9 -28 -46 -23q-35 7 -25 50q7 27 42.5 47t79.5 24q78 6 119 -27.5t41 -105.5v-161q0 -43 38 -35q14 3 25 10.5t17.5 19t10.5 22t5 27l1.5 25t0 24.5t-0.5 19q0 132 -63.5 212.5
t-180.5 80.5t-180 -83.5t-63 -212.5q0 -125 67 -210.5t176 -85.5q24 0 56 6q29 7 39 -8zM339 99q58 0 100 66v94q-72 -11 -109.5 -28t-46.5 -33.5t-9 -43.5q0 -23 17.5 -39t47.5 -16z" />
    <glyph glyph-name="A" unicode="A" horiz-adv-x="702" 
d="M592 115q22 -49 38.5 -64t51.5 -23v-28h-218v28q41 7 49.5 18.5t-3.5 30.5l-59 139h-254l-55 -134q-8 -22 6 -34t52 -20v-28h-180v28q36 8 49.5 18.5t27.5 43.5l224 539l30 -8q21 -7 30 -28zM212 254h223l-115 267z" />
    <glyph glyph-name="B" unicode="B" horiz-adv-x="607" 
d="M416 336q74 -13 115 -56t41 -103q0 -88 -62 -133.5t-175 -43.5l-88 2q-127 8 -222 -2v35q65 14 65 48v459q0 34 -64 44v35h288q224 0 224 -147q0 -44 -31.5 -83t-90.5 -55zM175 581v-226h208q21 0 42 34.5t21 85.5q0 106 -120 106h-151zM329 43q78 0 114.5 30.5
t36.5 103.5q0 70 -54 106t-183 36h-68v-235q0 -41 29 -41h125z" />
    <glyph glyph-name="C" unicode="C" horiz-adv-x="625" 
d="M552 415q-17 -6 -23 11q-2 6 -14 36q-28 68 -77.5 101t-109.5 33q-84 0 -143.5 -65.5t-59.5 -187.5q0 -135 69 -222t154 -87q57 0 94.5 26.5t69.5 72.5q4 5 8 12l6 10.5t5.5 7.5t6.5 5.5t7 1.5q6 0 18 -7t15 -12q5 -10 -16 -44q-73 -122 -233 -122q-125 0 -212.5 97.5
t-87.5 237.5q0 131 84.5 224t204.5 93q113 0 183 -82q21 0 29 49q3 17 19 17h20l11 -196z" />
    <glyph glyph-name="D" unicode="D" horiz-adv-x="634" 
d="M227 621q181 0 271.5 -71.5t90.5 -238.5q0 -324 -350 -309q-128 8 -224 -2v35q65 14 65 48v459q0 33 -65 49v30h212zM258 49q128 -10 184.5 58t56.5 204q0 127 -58 198.5t-176 71.5h-100v-496q0 -17 7 -23.5t28 -8.5z" />
    <glyph glyph-name="E" unicode="E" horiz-adv-x="572" 
d="M537 116q-17 -35 -32 -93q-6 -23 -30 -23h-440v29q38 12 45 21q8 9 8 28v468q0 13 -2 20.5t-12.5 13.5t-14.5 7.5t-24 7.5v26h437q10 0 13.5 -3.5t3.5 -14.5v-100h-29l-15 33q-19 41 -80 41h-187v-239h181q7 0 12.5 1t10 4.5l7 5.5t6.5 9.5t5 9.5t5 12.5t5 12.5h18v-153
h-18q-2 4 -6 14.5t-5.5 14t-6 11t-8.5 10t-10.5 5t-14.5 2.5h-181v-255l229 2q11 0 19.5 1.5t13.5 3t10.5 6t7.5 7t7.5 10.5t8.5 11l26 33h37z" />
    <glyph glyph-name="F" unicode="F" horiz-adv-x="544" 
d="M514 503h-29l-16 33q-19 41 -80 41h-221v-239h181q7 0 12.5 1t10 4.5l7 5.5t6.5 9.5t5 9.5t5 12.5t5 12.5h19v-153h-19q-2 4 -6 14.5t-5.5 14t-6 11t-8.5 10t-10.5 5t-14.5 2.5h-181v-225q0 -6 0.5 -11t2.5 -8.5t3 -6.5t5 -5.5t5.5 -4t7.5 -4t8 -3t10.5 -3t10.5 -3.5v-23
h-196v23q2 1 10.5 3.5t10.5 3t8 3t7.5 4t5.5 4t5 5.5t3 6.5t2.5 8.5t0.5 11v474q0 13 -2 20.5t-12.5 13.5t-14.5 7.5t-24 7.5v26h439q6 0 14 -4.5t10 -9.5z" />
    <glyph glyph-name="G" unicode="G" horiz-adv-x="675" 
d="M529 408q-3 5 -9 20t-10 26q-30 70 -81 105.5t-113 35.5q-82 0 -138 -65.5t-56 -204.5q0 -141 58.5 -218.5t145.5 -77.5q61 0 114 34.5t53 66.5v90q0 32 -32 32h-45v43l224 1v-44h-31q-32 0 -32 -32v-215q0 -10 -14 -12t-16 7l-24 78q-92 -88 -197 -88
q-130 0 -215.5 91.5t-85.5 238.5q0 136 83.5 226.5t207.5 90.5q116 0 183 -90q24 0 29 81h36l14 -200z" />
    <glyph glyph-name="H" unicode="H" horiz-adv-x="671" 
d="M643 595q-38 -12 -45 -21q-8 -9 -8 -28v-474q0 -6 0.5 -11t2.5 -8.5t3 -6.5t5 -5.5t5.5 -4t7.5 -4t8 -3t10.5 -3t10.5 -3.5v-23h-195v23q2 1 9.5 3t9.5 3t7.5 3t7 3t5.5 3t5 4t3.5 5.5t3 7t1 8t0.5 9.5v222h-328v-222q0 -5 0.5 -9.5t1 -8t3 -7t3.5 -5.5t5 -4t5.5 -3t7 -3
t7.5 -3t9.5 -3t9.5 -3v-23h-195v23q2 1 10.5 3.5t10.5 3t8 3t7.5 4t5.5 4t5 5.5t3 6.5t2.5 8.5t0.5 11v474q0 13 -2 20.5t-12.5 13.5t-14.5 7.5t-24 7.5v26h195v-26q-23 -7 -30.5 -10t-14.5 -12.5t-7 -26.5v-210h328v210q0 17 -7 26.5t-14.5 12.5t-30.5 10v26h195v-26z" />
    <glyph glyph-name="I" unicode="I" horiz-adv-x="274" 
d="M180 72q0 -7 1 -12t2.5 -9t5.5 -7.5t6 -5.5t8.5 -4.5l9 -3.5t11.5 -3.5t12 -3.5v-23h-196v23q3 1 12 3.5t11.5 3.5l9 3.5t8.5 4.5t6 5.5t5 7.5t2 9t1 12v474q0 5 -0.5 9.5t-1.5 8t-3.5 6.5t-3.5 5t-5.5 4.5t-6 3.5t-7.5 3t-8 3t-9.5 3t-9.5 3v26h196v-26l-11 -3.5t-10 -3
t-8.5 -3t-8.5 -4l-6 -4.5t-5.5 -5.5t-3.5 -6.5t-2.5 -8.5t-0.5 -10.5v-474z" />
    <glyph glyph-name="J" unicode="J" horiz-adv-x="335" 
d="M295 621v-26q-2 -1 -9.5 -3t-9.5 -3t-8 -3t-7.5 -3t-6 -3.5t-5.5 -4.5t-3.5 -5t-3.5 -6.5t-1.5 -8t-0.5 -9.5v-567q0 -143 -136 -143q-51 0 -80 25.5t-29 55.5q0 52 49 52q41 0 41 -46q0 -20 9 -36.5t27 -16.5q34 0 34 57v619q0 6 -0.5 10.5t-2.5 8.5t-3.5 6.5t-5.5 5.5
l-6 4.5t-8.5 4t-8.5 3t-10 3l-11 3.5v26h196z" />
    <glyph glyph-name="K" unicode="K" horiz-adv-x="633" 
d="M476 103q28 -31 52 -48.5t35 -21t35 -9.5v-24h-222v24q38 11 41 16q2 5 -4 12l-214 239h-39v-219q0 -7 1 -12t2.5 -9t5.5 -7.5t6 -5.5t8.5 -4.5l9 -3.5t11.5 -3.5t12 -3.5v-23h-196v23q3 1 12 3.5t11.5 3.5l9 3.5t8.5 4.5t6 5.5t5 7.5t2 9t1 12v474q0 5 -0.5 9.5t-1.5 8
t-3.5 6.5t-3.5 5t-5.5 4.5t-6 3.5t-7.5 3t-8 3t-9.5 3t-9.5 3v26h196v-26l-11 -3.5t-10 -3t-8.5 -3t-8.5 -4l-6 -4.5t-5.5 -5.5t-3.5 -6.5t-2.5 -8.5t-0.5 -10.5v-207h19q28 0 46 21l193 206q5 7 6 12t-6 8t-13.5 5t-15.5 3v27h165v-27q-57 -7 -76 -27l-215 -229z" />
    <glyph glyph-name="L" unicode="L" horiz-adv-x="551" 
d="M516 113l-24 -90q-8 -23 -30 -23h-448v23q3 1 12 3.5t11.5 3.5l9 3.5t8.5 4.5t6 5.5t5 7.5t2 9t1 12v474q0 5 -0.5 9.5t-1.5 8t-3.5 6.5t-3.5 5t-5.5 4.5t-6 3.5t-7.5 3t-8 3t-9 3t-10 3v26h195v-26q-2 -1 -9.5 -3t-9.5 -3t-8 -3t-7.5 -3t-6 -3.5t-5.5 -4.5t-3.5 -5
t-3.5 -6.5t-1.5 -8t-0.5 -9.5v-464q1 -21 10.5 -31t24.5 -9l193 8q26 1 37.5 2.5t23.5 8.5t19 20l17 32h37z" />
    <glyph glyph-name="M" unicode="M" horiz-adv-x="820" 
d="M780 597q-27 -8 -38 -21.5t-11 -39.5v-463q0 -24 9.5 -32.5t39.5 -17.5v-23h-185v23q37 13 44 23q7 9 7 27v441l-225 -459q-7 -13 -12.5 -17t-11 0t-12.5 17l-253 462v-444q0 -24 10.5 -32t42.5 -18v-23h-155v23l24 8t15.5 7.5t12 13.5t2.5 21v463q0 25 -13 38.5
t-41 22.5v24h148l246 -453l226 453h130v-24z" />
    <glyph glyph-name="N" unicode="N" horiz-adv-x="654" 
d="M629 621v-23q-58 -16 -58 -49v-549q0 -5 -3 -6.5t-7.5 0t-8.5 6.5l-423 513v-440q0 -33 57 -49v-24h-161v24q58 16 58 49v476q0 33 -58 49v23h136l356 -450v378q0 33 -58 49v23h170z" />
    <glyph glyph-name="O" unicode="O" horiz-adv-x="650" 
d="M620 316q0 -142 -83.5 -236.5t-211.5 -94.5q-127 0 -211 96t-84 235q0 138 83.5 229.5t211.5 91.5q129 0 212 -91t83 -230zM323 31q98 0 149.5 56t51.5 199q0 135 -62 223t-137 88q-96 0 -147 -53.5t-51 -197.5q0 -141 60 -228t136 -87z" />
    <glyph glyph-name="P" unicode="P" horiz-adv-x="559" 
d="M295 621q107 0 173 -51.5t66 -139.5q0 -87 -69 -137t-183 -50h-117v-171q0 -7 1 -12t2.5 -9t5.5 -7.5t6 -5.5t8.5 -4.5l9 -3.5t11.5 -3.5t12 -3.5v-23h-196v23q3 1 12 3.5t11.5 3.5l9 3.5t8.5 4.5t6 5.5t5 7.5t2 9t1 12v474q0 5 -0.5 9.5t-1.5 8t-3.5 6.5t-3.5 5
t-5.5 4.5t-6 3.5t-7.5 3t-8 3t-9.5 3t-9.5 3v26h270zM296 276q141 0 141 154q0 71 -30.5 113t-97.5 42h-144v-309h131z" />
    <glyph glyph-name="Q" unicode="Q" horiz-adv-x="690" 
d="M610 -11q40 -1 40 -44q-1 -46 -38 -78.5t-88 -31.5q-57 2 -131 48l-134 93q-44 28 -81.5 18.5t-37.5 -43.5q0 -18 -11.5 -30t-27.5 -12q-15 1 -26 14t-11 31q0 30 22 55.5t55 37.5q-52 45 -81.5 114t-29.5 148q0 138 83.5 229.5t211.5 91.5q129 0 212 -91t83 -230
q0 -134 -74 -226t-190 -103l99 -76q44 -30 79.5 -15t36.5 50q-2 50 39 50zM127 339q0 -109 36.5 -186.5t93.5 -109.5q12 -5 24 -12q25 -7 42 -7q98 0 149.5 56t51.5 199q0 135 -62 223t-137 88q-96 0 -147 -53.5t-51 -197.5z" />
    <glyph glyph-name="R" unicode="R" horiz-adv-x="628" 
d="M603 30v-30h-104q-90 49 -116 161q-17 72 -43 99t-90 27h-77v-215q0 -7 1 -12t2.5 -9t5 -7.5l5.5 -5.5t8.5 -4.5t8.5 -3.5t11 -3.5t12 -3.5v-23h-192v23q2 1 10.5 3.5t10.5 3t8 3t7.5 4t5.5 4t5 5.5t3 6.5t2.5 8.5t0.5 11v465q0 25 -12.5 38.5t-40.5 22.5v23h261
q103 0 163.5 -47t60.5 -123q0 -58 -42.5 -100t-120.5 -59q59 -8 83 -37t40 -87q14 -52 40.5 -93.5t59.5 -44.5h23zM305 320q118 0 118 131q0 57 -27.5 95.5t-82.5 38.5h-140v-265h132z" />
    <glyph glyph-name="S" unicode="S" horiz-adv-x="544" 
d="M463 434q-20 -3 -24 12l-11 40q-12 46 -59 79.5t-101 33.5q-61 0 -98.5 -40.5t-31.5 -89.5q3 -19 13.5 -35t21.5 -25.5t33 -19t33.5 -13.5t36.5 -12q4 -1 30.5 -8.5t41 -13l41.5 -16.5t44.5 -23.5t36.5 -29.5t29.5 -40t13.5 -50q7 -64 -29 -111t-90 -67t-113 -20
q-45 0 -85 13.5t-55.5 21t-53.5 -0.5l-52 157l28 9q21 7 32 -13q21 -39 22 -41q23 -45 65.5 -72t99.5 -27q61 0 103 27.5t35 91.5q-1 15 -7 28.5t-11.5 23t-19 19l-21 14.5t-26 12.5l-26 10.5t-29 10l-27.5 9q-92 29 -128 54q-59 42 -69 111q-10 73 48.5 134t163.5 61
q56 0 94.5 -15t66.5 -34t50 -23l13 -127z" />
    <glyph glyph-name="T" unicode="T" horiz-adv-x="584" 
d="M553 599l6 -91h-20l-13 33q-12 30 -45 30h-145v-499q0 -7 1 -12t2 -9t5 -7.5t6 -5.5t8.5 -4.5l9 -3.5t11.5 -3.5t12 -3.5v-23h-197v23q3 1 12 3.5t11.5 3.5l9 3.5t8.5 4.5t6 5.5t5.5 7.5t2.5 9t1 12v499h-146q-33 0 -46 -30l-13 -33h-20l7 91q1 22 21 22h478q21 0 22 -22
z" />
    <glyph glyph-name="U" unicode="U" horiz-adv-x="639" 
d="M599 621v-25q-15 -2 -23.5 -5t-15 -9.5t-6.5 -17.5v-310q0 -122 -61 -193t-170 -71q-126 0 -192.5 70t-66.5 192v312q0 16 -11 22t-33 10v25h181v-25q-15 -2 -23.5 -5t-15.5 -9.5t-7 -17.5v-267q0 -264 168 -264q74 0 123.5 51.5t49.5 164.5v315q0 16 -11.5 22.5
t-35.5 9.5v25h150z" />
    <glyph glyph-name="V" unicode="V" horiz-adv-x="676" 
d="M656 621v-27q-30 -3 -42.5 -13.5t-25.5 -40.5l-233 -545h-12q-22 0 -32 24l-215 496q-20 47 -36 61.5t-50 17.5v27h211v-27q-34 -3 -46 -9t-7 -19l190 -445l186 435q13 31 -56 38v27h168z" />
    <glyph glyph-name="W" unicode="W" horiz-adv-x="945" 
d="M764 621h166v-27q-31 -5 -44 -16.5t-24 -40.5l-190 -542h-12q-22 0 -32 24l-154 396l-137 -420h-11q-22 0 -32 24l-193 493q-19 47 -35.5 61.5t-50.5 20.5v27h191v-27q-21 -6 -29.5 -12.5t-4.5 -18.5l166 -431l112 344l-14 36q-19 47 -35.5 61.5t-50.5 20.5v27h191v-27
q-18 -5 -27.5 -14t-6.5 -17l165 -431l145 421q6 17 -8 26t-45 15v27z" />
    <glyph glyph-name="X" unicode="X" horiz-adv-x="672" 
d="M546 113l22 -30t18.5 -24t14.5 -14t19 -11.5t22 -3.5v-30h-201v30q24 3 37 11.5t4 20.5l-177 222l-154 -212q-12 -17 0.5 -28t43.5 -14v-30h-176v30q30 3 47 15t39 43l173 231l-153 193l-22 28t-18 23t-14 14.5t-18.5 12t-22.5 4.5v27h200v-27q-23 -4 -36 -12.5t-5 -18.5
l160 -202l137 192q10 15 -5 26t-47 15v27h173v-27q-30 -3 -46 -16t-35 -41l-151 -209z" />
    <glyph glyph-name="Y" unicode="Y" horiz-adv-x="622" 
d="M436 621h171v-27q-29 -3 -45.5 -16t-38.5 -43l-169 -237v-235q0 -8 5.5 -14t18 -9.5t22 -5l27.5 -4.5v-30h-226v30l28 4.5t22 5t18.5 9.5t5.5 14v209l-167 238l-15 22t-13.5 19.5l-11 13.5t-11.5 12t-11 7.5t-14.5 6.5t-16.5 3v27h199v-27q-23 -4 -34 -13t-3 -20
l156 -223l151 213q11 17 -3 28t-45 15v27z" />
    <glyph glyph-name="Z" unicode="Z" horiz-adv-x="595" 
d="M555 114l-25 -114h-474q-20 0 -26 16t7 33l383 531l-325 -4q-19 0 -27 -31l-10 -40h-33l20 116h506l-422 -581l346 5q9 0 15.5 5t9.5 10t7 16l15 38h33z" />
    <glyph glyph-name="bracketleft" unicode="[" horiz-adv-x="260" 
d="M117 715v-837l97 -19q21 -3 21 -16v-9l-190 9v907l190 9v-9q0 -12 -21 -16z" />
    <glyph glyph-name="backslash" unicode="\" horiz-adv-x="413" 
d="M101 641l267 -641h-56l-267 641h56z" />
    <glyph glyph-name="bracketright" unicode="]" horiz-adv-x="260" 
d="M143 715l-97 19q-21 4 -21 16v9l190 -9v-907l-190 -9v9q0 13 21 16l97 19v837z" />
    <glyph glyph-name="asciicircum" unicode="^" horiz-adv-x="368" 
d="M175 675q11 13 18 0l152 -204q5 -7 2.5 -13.5t-10.5 -6.5h-17q-3 0 -17 12l-119 129l-119 -129q-10 -12 -16 -12h-18q-7 0 -10 6.5t2 13.5z" />
    <glyph glyph-name="underscore" unicode="_" horiz-adv-x="597" 
d="M30 -20h512v-42h-512v42z" />
    <glyph glyph-name="grave" unicode="`" horiz-adv-x="288" 
d="M228 566l-114 110q-16 16 -31 15t-24 -17q-22 -38 11 -56l142 -77q16 -9 24 2q8 10 -8 23z" />
    <glyph glyph-name="a" unicode="a" horiz-adv-x="471" 
d="M396 82q0 -26 12.5 -33.5t42.5 -2.5v-31q-37 -23 -70 -23q-22 0 -38.5 26t-21.5 74q-20 -41 -58.5 -71t-90.5 -31q-63 -1 -108 31t-45 90q0 42 22 70.5t89.5 54.5t186.5 42v12q0 68 -21.5 100.5t-72.5 32.5q-49 0 -69.5 -17.5t-20.5 -67.5q0 -13 -15.5 -20t-34.5 -7
q-37 0 -39 39q0 53 53 81.5t130 28.5q82 0 125.5 -43t43.5 -120v-215zM190 35q21 0 39 6.5t32.5 20.5t22.5 22.5t20 27.5t13 21v113q-68 -10 -112.5 -24.5t-65.5 -33t-28 -35.5t-7 -39q0 -35 23 -57t63 -22z" />
    <glyph glyph-name="b" unicode="b" horiz-adv-x="520" 
d="M297 462q85 0 134 -62.5t49 -172.5q0 -108 -54.5 -171.5t-131.5 -63.5q-59 0 -99 30t-52 63l-40 -83q-7 -14 -20 -10.5t-13 15.5v564q0 33 -27 33h-28v33l111 20q24 5 24 -19v-156q0 -63 -16 -124l17 22q21 24 33.5 36.5t44.5 29t68 16.5zM283 32q116 0 116 182
q0 79 -30 135t-85 56q-50 0 -77 -16t-56 -53v-196q16 -45 50 -76.5t82 -31.5z" />
    <glyph glyph-name="c" unicode="c" horiz-adv-x="454" 
d="M411 86q-48 -94 -186 -94q-83 0 -141.5 66t-58.5 168q0 109 59.5 171.5t146.5 62.5q83 0 129 -38t46 -90q0 -14 -11.5 -24.5t-31.5 -10.5q-44 0 -44 32v6q0 25 -1.5 36.5t-8 24.5t-22.5 18t-44 5q-74 0 -104 -39.5t-30 -133.5q0 -81 43.5 -142.5t113.5 -62.5q21 0 35 2.5
t26 11l16 11.5t15.5 19t13.5 18q9 15 20 2z" />
    <glyph glyph-name="d" unicode="d" horiz-adv-x="530" 
d="M449 93q0 -25 13 -33t43 -3v-33l-63 -24q-24 -7 -45.5 17t-27.5 75q-11 -20 -17.5 -29.5t-24 -30t-42.5 -30.5t-56 -10q-77 0 -135.5 62.5t-58.5 162.5q0 99 51 169t131 70q14 0 26.5 -1t23.5 -4.5t19.5 -5.5t18.5 -8t14.5 -8t14.5 -10t12 -10t12 -11t11 -10v171
q0 24 -13 34.5t-42 9.5v34l106 19q15 2 22 -5t8 -19.5t0 -32.5q-1 -11 -1 -17v-489zM369 144v193q-53 79 -132 79q-56 0 -88 -52t-32 -134q0 -76 39 -131.5t94 -55.5q81 0 119 101z" />
    <glyph glyph-name="e" unicode="e" 
d="M433 275q0 -52 -56 -52h-259q0 -82 43.5 -134.5t102.5 -52.5q76 0 131 74l27 -35q-18 -24 -33 -38.5t-53 -30.5t-88 -16q-93 0 -155.5 68t-62.5 172q0 107 59.5 167.5t149.5 60.5q78 0 136 -51t58 -132zM349 264q1 69 -28 112.5t-82 43.5q-56 0 -88.5 -43.5t-32.5 -112.5
h231z" />
    <glyph glyph-name="f" unicode="f" horiz-adv-x="395" 
d="M401 598q11 -12 11.5 -27t-12.5 -27q-14 -11 -29 -9t-22 15q-9 18 -14 27t-15.5 23t-24.5 20.5t-32 6.5q-85 0 -85 -113v-57h152q-10 -30 -15 -36.5t-19 -6.5h-118v-362q0 -17 9.5 -22.5t42.5 -5.5v-24h-179v24q28 0 37 5.5t9 22.5v362h-58q-10 0 -10 10v33h68v41
q0 79 39 124t110 45q105 0 155 -69z" />
    <glyph glyph-name="g" unicode="g" horiz-adv-x="533" 
d="M469 458q15 0 27 -11t12 -28q0 -20 -11 -31t-26 -6q-25 7 -36.5 -7.5t-11.5 -64.5q0 -62 -47.5 -103t-135.5 -41q-34 0 -69 11q-55 5 -68 -23q-11 -24 23 -45q20 -13 53 -18l102 -17q107 -16 150 -43.5t43 -90.5q0 -74 -64.5 -117t-174.5 -43q-97 0 -153.5 33.5
t-56.5 93.5q0 49 33.5 79t80.5 41q-83 15 -108 71q-21 45 11 77q29 30 86 23q-67 45 -67 117q0 65 45 104t139 39q53 0 94 -21t51 -47q6 68 79 68zM241 203q101 0 101 113q0 23 -3 38.5t-12.5 32t-31 25t-55.5 8.5q-97 0 -97 -104q0 -16 1 -28t6.5 -29.5t15.5 -28.5t29 -19
t46 -8zM174 23q-32 -8 -48 -41.5t-16 -67.5q0 -99 125 -99q92 0 127 23t35 88q0 37 -20.5 52.5t-71.5 24.5z" />
    <glyph glyph-name="h" unicode="h" horiz-adv-x="548" 
d="M474 84q0 -28 12.5 -40.5t47.5 -4.5l-13 -31q-18 -8 -54 -8q-34 0 -55 21t-21 51v220q0 117 -81 117q-32 0 -66.5 -17.5t-53 -34t-32.5 -32.5v-272q0 -17 11.5 -22.5t38.5 -5.5v-25h-182v25q25 0 36 5.5t11 22.5v509q0 47 -59 39v36l110 20q6 -1 10.5 0.5t8 -2t5.5 -5
t3.5 -7.5t2 -9.5t1 -10.5t0 -12t-0.5 -13.5v-14.5v-203l-4 -30q21 37 69 73.5t113 36.5q74 0 108 -38t34 -136v-202z" />
    <glyph glyph-name="i" unicode="i" horiz-adv-x="250" 
d="M125 572q-20 0 -34.5 14.5t-14.5 34.5q0 19 14.5 33.5t34.5 14.5t34.5 -14.5t14.5 -33.5q0 -20 -14.5 -34.5t-34.5 -14.5zM167 53q0 -28 43 -28v-25h-165v25q44 0 44 28v325q0 17 -6.5 24t-21.5 7h-20v38l94 9q32 3 32 -31v-372z" />
    <glyph glyph-name="j" unicode="j" horiz-adv-x="219" 
d="M111 572q-20 0 -34.5 14.5t-14.5 34.5q0 19 14.5 33.5t34.5 14.5t34.5 -14.5t14.5 -33.5q0 -20 -14.5 -34.5t-34.5 -14.5zM121 456q32 3 32 -31v-499q0 -100 -70 -129q-47 -19 -86.5 -7t-46.5 45q-9 38 17 51q31 15 46 -4q2 -1 8.5 -15.5t14.5 -25.5t16 -8q24 10 24 50
v495q0 17 -6.5 24t-21.5 7h-20v38z" />
    <glyph glyph-name="k" unicode="k" horiz-adv-x="519" 
d="M433 49q16 -16 25.5 -20.5t30.5 -4.5v-24h-166v24q35 0 32 13q-1 3 -4 6l-196 196v-187q0 -28 32 -28v-24h-148v24q36 0 36 28v536q0 33 -28 33h-27v31l111 15q24 3 24 -19v-391l175 138q17 15 0 23q-9 4 -28 4v29h159v-29q-38 0 -61 -20l-175 -138z" />
    <glyph glyph-name="l" unicode="l" horiz-adv-x="233" 
d="M153 85q0 -27 13 -38t47 -3l-11 -37q-35 -15 -51 -15q-36 0 -56.5 24.5t-20.5 64.5v478q0 47 -59 39v39l109 19q6 0 10.5 0.5t8 -2.5t5.5 -4.5t3.5 -7t2 -9.5t0.5 -11t-0.5 -12t-0.5 -13.5v-14.5v-497z" />
    <glyph glyph-name="m" unicode="m" horiz-adv-x="812" 
d="M732 53q0 -17 11.5 -22.5t38.5 -5.5v-25h-183v25q25 0 36 5.5t11 22.5v245q0 110 -70 110q-45 0 -79 -31.5t-50 -72.5v-251q0 -16 11.5 -22t37.5 -6v-25h-182v25q25 0 36 5.5t11 22.5v245q0 55 -15.5 82.5t-53.5 27.5q-79 0 -129 -104v-251q0 -17 11.5 -22.5t38.5 -5.5
v-25h-176v25q25 0 36 5.5t11 22.5v312q0 47 -59 39v38l111 17q24 3 27.5 -19t-4.5 -56l-4 -39q35 60 59 82q37 33 86 33q122 0 142 -104q10 19 18 31.5t25.5 32t42.5 30t55 10.5q149 0 149 -166v-241z" />
    <glyph glyph-name="n" unicode="n" horiz-adv-x="549" 
d="M467 84q0 -28 13 -39.5t49 -3.5l-13 -31q-28 -10 -54 -10q-34 0 -55 21t-21 51v220q0 57 -18.5 87t-63.5 30q-66 0 -139 -84v-272q0 -17 11.5 -22.5t38.5 -5.5v-25h-178v25q25 0 36 5.5t11 22.5v312q0 47 -59 39v38l111 17q25 3 28.5 -19t-3.5 -55l-4 -35q64 110 169 110
q74 0 107 -38t34 -136v-202z" />
    <glyph glyph-name="o" unicode="o" horiz-adv-x="485" 
d="M241 458q90 0 152 -63.5t62 -164.5q0 -105 -61.5 -172.5t-148.5 -67.5q-89 0 -152 66t-63 166q0 105 62 170.5t149 65.5zM374 207q0 90 -41.5 150t-102.5 60q-117 0 -117 -172q0 -90 40.5 -149.5t102.5 -59.5q118 0 118 171z" />
    <glyph glyph-name="p" unicode="p" horiz-adv-x="515" 
d="M304 462q87 0 135.5 -61t48.5 -174q0 -108 -53.5 -170.5t-130.5 -62.5q-53 0 -90.5 23t-55.5 54v-200q0 -17 11.5 -22.5t38.5 -5.5v-27h-176v27q25 0 36 5.5t11 22.5v492q0 47 -59 39v41l111 17q25 4 29.5 -21t-7.5 -58q1 1 7 7.5t9 9.5l10.5 10t12.5 11t14 10.5t16 10.5
t17.5 8.5t20 7t21 4.5t23.5 2zM294 35q112 0 112 179q0 80 -28 135.5t-83 55.5q-53 0 -81 -17t-56 -54v-191q16 -46 50.5 -77t85.5 -31z" />
    <glyph glyph-name="q" unicode="q" horiz-adv-x="537" 
d="M517 -84v-45l-128 -83q-11 -7 -20 -2.5t-9 14.5v195q0 94 15 149l-14 -49q-12 -40 -45.5 -70.5t-95.5 -30.5q-92 0 -143.5 62.5t-51.5 181.5q0 105 50 164.5t134 59.5q83 0 150 -89l44 79q5 15 19.5 12t14.5 -14v-534q0 -5 -1 -10t-2 -8q-2 -5 -1.5 -5.5t6.5 0.5z
M359 324q-1 1 -7.5 12l-9 15t-10.5 14.5t-14 15.5t-16 12.5t-20 11.5t-24 7t-29 3q-61 0 -91 -39.5t-30 -125.5q0 -91 33.5 -142.5t94.5 -51.5q85 0 123 86v182z" />
    <glyph glyph-name="r" unicode="r" horiz-adv-x="399" 
d="M341 371q-7 -11 -17 -10t-16.5 6.5t-19.5 12t-27 6.5q-30 0 -52.5 -23t-31.5 -45.5t-14 -45.5v-219q0 -17 12.5 -22.5t41.5 -5.5v-25h-183v25q27 0 39 6t12 22v309q0 47 -60 39v39l109 16q24 3 28 -19.5t-3 -56.5l-9 -84l7 40q10 56 52 88t102 32q33 0 52.5 -18.5
t0.5 -39.5z" />
    <glyph glyph-name="s" unicode="s" horiz-adv-x="435" 
d="M406 124q0 -62 -53 -98t-139 -36q-67 0 -119 25.5t-59 46.5q-25 78 11 85q36 4 42.5 0.5t8.5 -19.5q13 -98 116 -98q56 0 83 21.5t27 58.5q0 49 -125 88q-61 19 -109.5 55t-48.5 86q0 53 43 85.5t129 32.5q64 0 114 -26.5t52 -45.5q7 -84 -24 -84q-56 -4 -51 31
q5 40 -17 63t-74 23q-48 0 -72.5 -20t-24.5 -50q0 -13 8.5 -25t18 -20t29.5 -16.5t30.5 -12l32.5 -10.5q93 -29 126 -55q45 -34 45 -85z" />
    <glyph glyph-name="t" unicode="t" horiz-adv-x="324" 
d="M285 63q3 2 9.5 -4.5t9.5 -14.5t-2 -13q-46 -38 -109 -38q-111 0 -111 137v281h-56v37q64 0 117 108q3 7 8 9.5t9 -0.5t4 -9v-99h114v-31q0 -15 -15 -15h-99v-290q0 -33 13 -57.5t38 -24.5q41 0 70 24z" />
    <glyph glyph-name="u" unicode="u" horiz-adv-x="537" 
d="M456 82q0 -26 12.5 -33.5t43.5 -2.5v-31l-53 -21q-30 -11 -52.5 19t-29.5 97v2q-15 -42 -51.5 -81t-96.5 -39q-75 0 -118 43.5t-43 126.5v222q0 32 -28 32h-15v28l99 16q23 2 23 -19v-284q0 -62 24 -88t78 -26q90 0 128 127v214q0 17 -6 24.5t-21 7.5h-15v28l98 16
q23 4 23 -19v-359z" />
    <glyph glyph-name="v" unicode="v" horiz-adv-x="508" 
d="M257 0q-19 0 -28 21l-140 319q-30 67 -58 78l-21 8v25h187v-25l-20 -8q-13 -5 -17 -10t-1.5 -20.5t15.5 -47.5l97 -237l84 234q17 50 16 62.5t-19 18.5l-22 8v25h168v-25l-23 -8q-40 -13 -67 -80l-139 -338h-12z" />
    <glyph glyph-name="w" unicode="w" horiz-adv-x="775" 
d="M597 451q84 -3 168 0v-26l-23 -8q-39 -13 -67 -79l-140 -338h-13q-19 0 -29 22l-107 252l-123 -274h-12q-19 0 -29 22l-127 318q-25 64 -59 77l-21 8v26q94 -3 187 0v-26l-23 -8q-19 -7 -21.5 -17t14.5 -60l93 -229l93 227v2q-28 64 -37 71q-4 4 -9 6l-33 8v26
q99 -3 200 0v-26l-37 -8q-20 -5 -23 -17t15 -60l102 -229l84 226q18 49 17.5 61.5t-18.5 18.5l-22 8v26z" />
    <glyph glyph-name="x" unicode="x" horiz-adv-x="544" 
d="M490 34l29 -5v-29h-201v29l29 4q18 2 22.5 6.5t-6.5 21.5l-108 134l-96 -129q-10 -14 -5.5 -22.5t18.5 -10.5l23 -4v-29h-170v29l29 5q26 3 50 33l126 159l-121 151q-12 15 -24 24t-17.5 10.5l-20.5 5.5l-21 5v29q100 -3 200 0v-29l-28 -4q-22 -3 -3 -30l85 -109l83 103
q26 30 -6 36l-23 4v29q84 -3 168 0v-29l-24 -5q-40 -8 -78 -53l-95 -118l141 -181q22 -27 44 -31z" />
    <glyph glyph-name="y" unicode="y" horiz-adv-x="518" 
d="M498 451v-25l-14 -6q-4 -2 -10.5 -4.5l-10.5 -4t-8.5 -4t-7.5 -6t-5 -8.5l-198 -477q-29 -69 -55 -100t-72 -31q-33 0 -56.5 15t-27.5 40q-10 56 45 56q18 0 25 -9t7 -19.5t6 -19.5t22 -9q5 0 9.5 2t8 4.5t7.5 7.5t6.5 8.5t6 11l5 10.5t5 11.5t4.5 10.5l48 116l-177 372
q-10 19 -33 27l-18 6v25h185v-25l-25 -5q-32 -6 -22 -28l129 -281l111 281q4 10 -3 17.5t-20 10.5l-28 5v25h161z" />
    <glyph glyph-name="z" unicode="z" horiz-adv-x="468" 
d="M428 105l-18 -105h-350q-20 0 -26 16t6 32l263 366l-221 -8q-6 0 -11 -4.5t-6.5 -8.5l-4.5 -12t-4 -11l-6 -19h-30l18 109h389l-304 -413l242 5q5 0 8.5 1.5t6 4t5 6.5t3.5 7t3 8.5t3 7.5l6 18h28z" />
    <glyph glyph-name="braceleft" unicode="{" horiz-adv-x="264" 
d="M181 43q0 -78 12.5 -121.5t45.5 -60.5l-13 -27q-48 19 -75 53.5t-34.5 69.5t-7.5 86v181q0 22 -12 32.5t-52 28.5v21q40 18 52 28.5t12 32.5v181q0 51 7.5 86t34.5 69.5t75 53.5l13 -27q-33 -17 -45.5 -60.5t-12.5 -121.5v-187q0 -40 -72 -64v-3q36 -12 54 -26t18 -37
v-188z" />
    <glyph glyph-name="bar" unicode="|" horiz-adv-x="240" 
d="M90 800h60v-1015h-60v1015z" />
    <glyph glyph-name="braceright" unicode="}" horiz-adv-x="264" 
d="M84 43v188q0 23 18 37t53 26v3q-71 24 -71 64v187q0 77 -13 121t-46 61l13 27q48 -19 75 -53.5t34.5 -69.5t7.5 -86v-181q0 -22 12 -32.5t52 -28.5v-21q-40 -18 -52 -28.5t-12 -32.5v-181q0 -51 -7.5 -86t-34.5 -69.5t-75 -53.5l-13 27q33 17 46 61t13 121z" />
    <glyph glyph-name="asciitilde" unicode="~" horiz-adv-x="520" 
d="M450 292h-33q-6 0 -27 -21t-42 -21q-32 0 -77.5 29t-83.5 29q-40 0 -71 -25.5t-46 -69.5h33q10 0 18 11.5t19.5 23.5t30.5 12q22 0 74 -33.5t93 -33.5q35 0 67.5 27t44.5 72z" />
    <glyph glyph-name="exclamdown" unicode="&#xa1;" horiz-adv-x="231" 
d="M122 563q22 0 38 -16.5t16 -38.5t-16 -38.5t-38 -16.5t-38.5 16.5t-16.5 38.5t16.5 38.5t38.5 16.5zM104 336h27q2 -80 23.5 -199t21.5 -170q0 -67 -58 -67t-58 67q0 51 21 170t23 199z" />
    <glyph glyph-name="cent" unicode="&#xa2;" 
d="M392 105l19 -19q-48 -94 -186 -94q-19 0 -42 5l-15 -58h-41l19 71q-54 26 -87.5 83.5t-33.5 132.5q0 109 59.5 171.5t146.5 62.5q13 0 37 -2l17 61h41l-19 -70q48 -15 73.5 -47t25.5 -70q0 -14 -11.5 -24.5t-31.5 -10.5q-44 0 -44 32v8q0 22 -0.5 32.5t-6 22.5t-16.5 18
l-96 -351q33 -18 66 -18q21 0 35 2.5t26 11l16 11.5t15.5 19t13.5 18q9 15 20 2zM109 246q0 -99 58 -160l90 333h-14q-74 0 -104 -39.5t-30 -133.5z" />
    <glyph glyph-name="sterling" unicode="&#xa3;" horiz-adv-x="567" 
d="M495 113h30l-24 -90q-6 -23 -32 -23h-417v56q104 61 104 136q0 26 -18 64h-93v44h68q-53 84 -53 148q0 79 64 134t172 55q98 0 156 -54t58 -138q0 -29 -12.5 -51t-34.5 -22q-35 0 -53 37q-1 9 6.5 29.5t7.5 37.5q0 45 -33 80.5t-95 35.5q-71 0 -109.5 -34.5t-38.5 -88.5
q0 -41 11 -68.5t35 -58t31 -42.5h128v-44h-110q6 -22 6 -51q0 -105 -84 -155q19 1 67.5 1t82 1t73.5 4.5t64.5 12.5t31.5 23z" />
    <glyph glyph-name="currency" unicode="&#xa4;" horiz-adv-x="597" 
d="M506 228q0 -76 -49 -134l61 -60l-28 -28l-61 60q-58 -47 -132 -47q-73 0 -130 46l-60 -59l-28 28l60 59q-49 58 -49 135q0 74 47 132l-58 58l28 29l59 -58q57 47 131 47q75 0 133 -48l60 59l28 -29l-59 -59q47 -58 47 -131zM298 61q66 0 114 50t48 117t-48 116t-114 49
q-67 0 -113.5 -49t-46.5 -116q0 -68 46.5 -117.5t113.5 -49.5z" />
    <glyph glyph-name="yen" unicode="&#xa5;" horiz-adv-x="623" 
d="M436 621h171v-27q-29 -3 -45.5 -16t-38.5 -43l-141 -198h150v-44h-178v-65h178v-44h-178v-121q0 -8 5.5 -14t18 -9.5t22 -5l27.5 -4.5v-30h-226v30l28 4.5t22 5t18.5 9.5t5.5 14v121h-153v44h153v44l-14 21h-139v44h108l-122 173l-15 22t-13.5 19.5l-11 13.5t-11.5 12
t-11 7.5t-14.5 6.5t-16.5 3v27h199v-27q-23 -4 -34 -13t-3 -20l156 -223l151 213q11 17 -3 28t-45 15v27z" />
    <glyph glyph-name="brokenbar" unicode="&#xa6;" horiz-adv-x="240" 
d="M90 451v349h60v-349h-60zM90 -215v349h60v-349h-60z" />
    <glyph glyph-name="section" unicode="&#xa7;" horiz-adv-x="508" 
d="M477 73q10 -82 -56 -128t-159 -46q-21 0 -39.5 1.5t-35 5t-28.5 6.5t-26.5 9l-21 8.5t-20 9.5t-16.5 8l-43 153l23 8q17 8 23 -9q7 -15 18 -55q16 -51 57.5 -77.5t102.5 -26.5q30 0 52.5 4t44 14t31.5 31.5t5 52.5q-2 14 -7.5 25.5t-11.5 19.5t-18.5 15.5l-19.5 11.5
t-24.5 9.5t-24 7l-27 6t-24.5 5.5q-2 0 -25.5 5t-30 6.5t-27.5 8t-30 11.5t-25 15.5t-24 21t-16 26.5t-11 35q-10 67 38 120q-27 25 -34 68q-11 76 41.5 127t146.5 51q55 0 87 -7.5t66.5 -28t41.5 -23.5l10 -121l-23 -5q-14 -5 -19 9q-2 12 -17 57q-12 41 -46 60t-100 19
q-56 0 -88.5 -29.5t-25.5 -77.5q3 -21 12.5 -34.5t25.5 -20.5t28.5 -10t35 -6.5t33.5 -5.5q2 -1 23 -5l31.5 -6t33 -9t36.5 -13.5t32.5 -17.5t30 -24t20.5 -31t12 -39q8 -70 -37 -119q33 -32 39 -76zM119 298q3 -13 8.5 -23.5t15.5 -18t17.5 -12.5t23 -9.5t23 -6l26 -5
l23.5 -4.5q96 -21 128 -36q7 22 3 54q-2 16 -7 28.5t-17 22l-19 15t-27 12l-26 8.5t-31 7t-28 6q-8 2 -30 6t-39 8.5t-32 10.5q-17 -31 -12 -63z" />
    <glyph glyph-name="dieresis" unicode="&#xa8;" horiz-adv-x="423" 
d="M117 569q-21 0 -36.5 15.5t-15.5 36.5t15.5 36.5t36.5 15.5t36.5 -15.5t15.5 -36.5t-15.5 -36.5t-36.5 -15.5zM306 569q-21 0 -36.5 15.5t-15.5 36.5t15.5 36.5t36.5 15.5t36.5 -15.5t15.5 -36.5t-15.5 -36.5t-36.5 -15.5z" />
    <glyph glyph-name="copyright" unicode="&#xa9;" horiz-adv-x="762" 
d="M382 580q141 0 235 -95.5t94 -244.5t-94 -244.5t-235 -95.5t-236 95.5t-95 244.5t95 244.5t236 95.5zM646 240q0 132 -70.5 216t-193.5 84q-124 0 -194 -84t-70 -216t70 -216t194 -84q123 0 193.5 84t70.5 216zM530 118q-38 -75 -144 -75q-64 0 -111.5 54t-47.5 136
q0 88 47.5 139.5t115.5 51.5q65 0 101.5 -30.5t36.5 -72.5q0 -12 -8.5 -21t-24.5 -9q-35 0 -35 27q0 19 -0.5 25.5t-3 18.5t-8.5 16t-18 8t-30 4q-57 0 -80.5 -32.5t-23.5 -108.5q0 -67 33.5 -116t87.5 -49q49 0 76 39q14 20 25 9z" />
    <glyph glyph-name="ordfeminine" unicode="&#xaa;" horiz-adv-x="358" 
d="M281 393q0 -33 35 -18v-26l-44 -13q-16 -5 -29.5 11.5t-16.5 48.5q-10 -26 -33 -43.5t-58 -18.5q-39 -1 -65.5 16.5t-26.5 52.5q0 40 38 64.5t145 39.5v10q0 35 -13.5 59t-48.5 21q-17 -1 -32 -6q-9 -3 -12 -10.5t-2.5 -19t-1.5 -17.5q-2 -9 -13 -13.5t-24 -2.5
q-27 3 -18 38q4 20 31 35.5t60 18.5q61 5 95 -21.5t34 -80.5v-125zM147 363q22 0 39.5 12t24 21.5t15.5 26.5v64q-41 -6 -68 -16t-38.5 -22.5t-15 -22.5t-3.5 -22q0 -19 12.5 -30t33.5 -11zM54 270h249v-35h-249v35z" />
    <glyph glyph-name="guillemotleft" unicode="&#xab;" horiz-adv-x="392" 
d="M36 229l154 149v-45l-74 -104l74 -103v-46zM194 229l154 149v-45l-74 -104l74 -103v-46z" />
    <glyph glyph-name="logicalnot" unicode="&#xac;" horiz-adv-x="567" 
d="M497 369v-226h-54v172h-373v54h427z" />
    <glyph glyph-name="uni00AD" unicode="&#xad;" horiz-adv-x="380" 
d="M45 275h270v-48h-270v48z" />
    <glyph glyph-name="registered" unicode="&#xae;" horiz-adv-x="762" 
d="M382 579q140 0 234 -95.5t94 -243.5t-94 -243.5t-234 -95.5t-235 95.5t-95 243.5t95 243.5t235 95.5zM382 -59q122 0 192.5 84t70.5 215t-70.5 215t-192.5 84q-123 0 -193 -84t-70 -215t70 -215t193 -84zM487 163q6 -26 23 -49t32 -23v-25h-39q-52 0 -76 91
q-10 39 -24.5 53t-46.5 14h-31v-110q0 -12 5.5 -16.5t22.5 -10.5v-20h-119v20q12 3 16.5 5.5t7 7.5t2.5 14v255q0 14 -5.5 19.5t-20.5 10.5v20h149q57 0 93 -28t36 -70q0 -80 -104 -86q40 -3 55 -20t24 -52zM386 251q60 0 60 70q0 30 -14 50.5t-41 20.5h-66v-141h61z" />
    <glyph glyph-name="macron" unicode="&#xaf;" horiz-adv-x="439" 
d="M58 615q0 17 20 17h283q20 0 20 -17v-11q0 -17 -20 -17h-283q-20 0 -20 17v11z" />
    <glyph glyph-name="degree" unicode="&#xb0;" horiz-adv-x="305" 
d="M153 634q47 0 79.5 -33t32.5 -82t-32.5 -82t-79.5 -33t-80 33t-33 82t33 82t80 33zM215 519q0 35 -16.5 57.5t-45.5 22.5q-28 0 -44.5 -22.5t-16.5 -57.5q0 -34 16.5 -57t44.5 -23q29 0 45.5 23t16.5 57z" />
    <glyph glyph-name="plusminus" unicode="&#xb1;" horiz-adv-x="510" 
d="M283 380h157v-54h-157v-160h-54v160h-159v54h159v157h54v-157zM70 4v54h370v-54h-370z" />
    <glyph glyph-name="uni00B2" unicode="&#xb2;" horiz-adv-x="300" 
d="M255 448l-10 -47q-3 -14 -21 -14h-179q7 32 24 57.5t32 37.5t38 26q15 9 23.5 15.5t15.5 17.5t7 24q0 20 -10.5 33.5t-28.5 13.5q-32 0 -39 -28q-2 -11 0.5 -22t1.5 -16q-11 -22 -34 -15t-23 23q-2 37 24 62t72 25q45 0 69 -20.5t24 -55.5q0 -11 -4 -21t-8 -16.5
t-14 -14.5t-14.5 -11t-18.5 -11t-16 -9q-57 -32 -67 -48q-2 -4 -3 -7h104q16 0 21 8l9 13h25z" />
    <glyph glyph-name="uni00B3" unicode="&#xb3;" horiz-adv-x="313" 
d="M222 538q17 -8 29 -25t12 -41q0 -37 -29.5 -63t-71.5 -26q-45 0 -73.5 24t-28.5 55q0 24 25 24q15 0 21 -5.5t8 -20t3 -17.5q6 -19 16 -26t30 -7q18 0 31.5 15t13.5 40q0 35 -23 42.5t-48 -7.5l-10 24l24 11q41 15 41 44q0 35 -32 35q-27 0 -37 -21t-4 -42l-35 6
q-12 5 -12 14q-1 31 23 51t64 20q38 0 61.5 -19.5t23.5 -41.5q0 -27 -22 -43z" />
    <glyph glyph-name="acute" unicode="&#xb4;" horiz-adv-x="301" 
d="M68 566q-16 -13 -8 -23q8 -11 23 -2l143 77q33 18 11 56q-9 16 -24 17t-32 -15z" />
    <glyph glyph-name="paragraph" unicode="&#xb6;" horiz-adv-x="602" 
d="M557 593q-16 -3 -24 -5.5t-14.5 -9.5t-6.5 -18v-566q0 -18 9.5 -26t35.5 -12v-23h-346v23q36 4 47.5 12t11.5 26v246h-17q-106 0 -169.5 51t-63.5 139t67.5 139.5t174.5 51.5h295v-28zM239 273h31v314h-22q-73 0 -100.5 -40t-27.5 -117q0 -75 26 -116t93 -41zM427 -6v565
q0 17 -5 22.5t-18 5.5h-49v-593q0 -18 8 -25.5t28 -7.5t28 7.5t8 25.5z" />
    <glyph glyph-name="periodcentered" unicode="&#xb7;" horiz-adv-x="209" 
d="M104 239q-22 0 -38 16t-16 39q0 22 16 38t38 16t38.5 -16t16.5 -38q0 -23 -16 -39t-39 -16z" />
    <glyph glyph-name="cedilla" unicode="&#xb8;" horiz-adv-x="251" 
d="M79 -122q7 -39 20 -49q8 -6 21 -7q26 -1 42.5 11.5t20.5 36.5q4 25 -12 39.5t-45 11.5q-10 -1 -23 -3.5t-14 -2.5q-12 -2 -17 7.5t1 18.5q9 15 29 59h53l-22 -48q42 11 78 -15.5t28 -72.5q-13 -78 -123 -72q-40 2 -64.5 18.5t-29.5 41.5q-5 24 15.5 34.5t41.5 -8.5z" />
    <glyph glyph-name="uni00B9" unicode="&#xb9;" horiz-adv-x="186" 
d="M122 431q0 -16 29 -18v-21h-109v21q29 2 29 18v168l-31 -10v26l56 25q24 10 26 -15v-194z" />
    <glyph glyph-name="ordmasculine" unicode="&#xba;" horiz-adv-x="356" 
d="M178 620q55 -1 95.5 -39.5t40.5 -101.5q0 -65 -40.5 -104.5t-95.5 -39.5q-54 0 -94.5 39t-40.5 100q0 66 40 105.5t95 40.5zM258 467q0 51 -24.5 88.5t-55.5 37.5q-79 0 -79 -107q0 -50 24.5 -86.5t54.5 -36.5q40 0 60 24t20 80zM54 270h249v-35h-249v35z" />
    <glyph glyph-name="guillemotright" unicode="&#xbb;" horiz-adv-x="392" 
d="M198 229l-154 -149v46l74 103l-74 104v45zM356 229l-154 -149v46l74 103l-74 104v45z" />
    <glyph glyph-name="onequarter" unicode="&#xbc;" horiz-adv-x="640" 
d="M71 431v168l-31 -10v26l56 25q24 10 26 -15v-194q0 -16 29 -18v-21h-109v21q29 2 29 18zM463 636h53l-432 -641h-53zM590 71h-38v-36q0 -18 25 -18v-23h-102v23q24 0 24 18v36h-103v26l120 148q9 11 22.5 7t13.5 -16v-137h38v-28zM439 99h60v71z" />
    <glyph glyph-name="onehalf" unicode="&#xbd;" horiz-adv-x="640" 
d="M122 431q0 -16 29 -18v-21h-109v21q29 2 29 18v168l-31 -10v26l56 25q24 10 26 -15v-194zM463 636h53l-432 -641h-53zM596 55l-10 -47q-3 -14 -21 -14h-179q7 32 24 57.5t32 37.5t38 26q15 9 23.5 15.5t15.5 17.5t7 24q0 20 -10.5 33.5t-28.5 13.5q-32 0 -39 -28
q-2 -11 0.5 -22t1.5 -16q-10 -22 -33.5 -15t-23.5 23q-2 37 24 62t72 25q45 0 69 -20.5t24 -55.5q0 -11 -4 -21t-8 -16.5t-14 -14.5t-14.5 -11t-18.5 -11t-16 -9q-57 -32 -67 -48q-2 -4 -3 -7h104q16 0 21 8l9 13h25z" />
    <glyph glyph-name="threequarters" unicode="&#xbe;" horiz-adv-x="739" 
d="M263 472q0 -37 -29.5 -63t-71.5 -26q-45 0 -73.5 24t-28.5 55q0 24 25 24q15 0 21 -5.5t8 -20t3 -17.5q6 -19 16 -26t30 -7q18 0 31.5 15t13.5 40q0 35 -23 42.5t-48 -7.5l-10 24l24 11q41 15 41 44q0 35 -32 35q-27 0 -37 -21t-4 -42l-35 6q-12 5 -12 14q-1 31 23 51
t64 20q38 0 61.5 -19.5t23.5 -41.5q0 -27 -22 -43q17 -8 29 -25t12 -41zM563 636h53l-432 -641h-53zM695 71h-38v-36q0 -18 25 -18v-23h-101v23q24 0 24 18v36h-104v26l120 148q9 11 22.5 7t13.5 -16v-137h38v-28zM544 99h61v71z" />
    <glyph glyph-name="questiondown" unicode="&#xbf;" horiz-adv-x="473" 
d="M234 563q22 0 38 -16t16 -39t-16 -39t-38 -16t-38 16.5t-16 38.5t16 38.5t38 16.5zM428 57q0 28 -10.5 48t-25.5 27t-32 4.5t-30 -14.5q-21 -13 -3 -64.5t7 -73.5q-29 -56 -106 -56q-46 0 -72.5 25.5t-26.5 64.5q-2 34 15 61.5t78 76.5q51 41 43 101l-11 89h-30l-9 -89
q-1 -11 -16.5 -23t-46.5 -33t-55 -43q-42 -38 -49.5 -85t14 -86t67 -65.5t100.5 -26.5q91 0 145 45.5t54 116.5z" />
    <glyph glyph-name="Agrave" unicode="&#xc0;" horiz-adv-x="702" 
d="M244 788q-33 18 -11 56q9 16 24 17t32 -15l113 -110q16 -13 8 -23q-7 -11 -23 -2zM592 115q22 -49 38.5 -64t51.5 -23v-28h-218v28q41 7 49.5 18.5t-3.5 30.5l-59 139h-254l-55 -134q-8 -22 6 -34t52 -20v-28h-180v28q36 8 49.5 18.5t27.5 43.5l224 539l30 -8
q21 -7 30 -28zM212 254h223l-115 267z" />
    <glyph glyph-name="Aacute" unicode="&#xc1;" horiz-adv-x="702" 
d="M333 711q-15 -9 -23 2q-8 10 8 23l113 110q17 16 32 15t24 -17q22 -38 -11 -56zM592 115q22 -49 38.5 -64t51.5 -23v-28h-218v28q41 7 49.5 18.5t-3.5 30.5l-59 139h-254l-55 -134q-8 -22 6 -34t52 -20v-28h-180v28q36 8 49.5 18.5t27.5 43.5l224 539l30 -8q21 -7 30 -28
zM212 254h223l-115 267z" />
    <glyph glyph-name="Acircumflex" unicode="&#xc2;" horiz-adv-x="702" 
d="M348 778l-103 -74h-46l149 154l149 -154h-45zM592 115q22 -49 38.5 -64t51.5 -23v-28h-218v28q41 7 49.5 18.5t-3.5 30.5l-59 139h-254l-55 -134q-8 -22 6 -34t52 -20v-28h-180v28q36 8 49.5 18.5t27.5 43.5l224 539l30 -8q21 -7 30 -28zM212 254h223l-115 267z" />
    <glyph glyph-name="Atilde" unicode="&#xc3;" horiz-adv-x="702" 
d="M193 737h-23q-8 41 25.5 68.5t76.5 27.5q34 0 78.5 -29t74.5 -29q24 0 45.5 15t21.5 27h30q-7 -47 -38.5 -73.5t-77.5 -26.5q-34 0 -81.5 34t-68.5 34q-29 0 -46 -16t-17 -32zM592 115q22 -49 38.5 -64t51.5 -23v-28h-218v28q41 7 49.5 18.5t-3.5 30.5l-59 139h-254
l-55 -134q-8 -22 6 -34t52 -20v-28h-180v28q36 8 49.5 18.5t27.5 43.5l224 539l30 -8q21 -7 30 -28zM212 254h223l-115 267z" />
    <glyph glyph-name="Adieresis" unicode="&#xc4;" horiz-adv-x="702" 
d="M246 739q-21 0 -36.5 15.5t-15.5 36.5t15.5 36.5t36.5 15.5t36.5 -15.5t15.5 -36.5t-15.5 -36.5t-36.5 -15.5zM435 739q-21 0 -36.5 15.5t-15.5 36.5t15.5 36.5t36.5 15.5t36.5 -15.5t15.5 -36.5t-15.5 -36.5t-36.5 -15.5zM592 115q22 -49 38.5 -64t51.5 -23v-28h-218v28
q41 7 49.5 18.5t-3.5 30.5l-59 139h-254l-55 -134q-8 -22 6 -34t52 -20v-28h-180v28q36 8 49.5 18.5t27.5 43.5l224 539l30 -8q21 -7 30 -28zM212 254h223l-115 267z" />
    <glyph glyph-name="Aring" unicode="&#xc5;" horiz-adv-x="702" 
d="M345 723q-37 0 -63 25t-26 60t26 60t63 25t62.5 -25t25.5 -60t-25.5 -60t-62.5 -25zM345 860q-16 0 -29 -16t-13 -36q0 -21 12.5 -36t29.5 -15q15 0 27.5 15t12.5 36q0 20 -12.5 36t-27.5 16zM592 115q22 -49 38.5 -64t51.5 -23v-28h-218v28q41 7 49.5 18.5t-3.5 30.5
l-59 139h-254l-55 -134q-8 -22 6 -34t52 -20v-28h-180v28q36 8 49.5 18.5t27.5 43.5l224 539l30 -8q21 -7 30 -28zM212 254h223l-115 267z" />
    <glyph glyph-name="AE" unicode="&#xc6;" horiz-adv-x="971" 
d="M899 116h37q-18 -35 -32 -93q-6 -23 -30 -23h-440v29q38 12 45 21q8 9 8 28v141h-222l-99 -141q-13 -20 2 -31.5t60 -19.5v-27h-208v27q42 7 59.5 18t39.5 43l320 454q16 20 15.5 32.5t-20.5 20.5h2h-2v26h437q10 0 13.5 -3.5t3.5 -14.5v-100h-29l-15 33q-19 41 -80 41
h-187v-239h181q7 0 12.5 1t10 4.5l7 5.5t6.5 9.5t5 9.5t5 12.5t5 12.5h18v-153h-18q-2 4 -6 14.5t-5.5 14t-6 11t-8.5 10t-10.5 5t-14.5 2.5h-181v-255l229 2q11 0 19.5 1.5t13.5 3t10.5 6t7.5 7t7.5 10.5t8.5 11zM291 256h196v279z" />
    <glyph glyph-name="Ccedilla" unicode="&#xc7;" horiz-adv-x="625" 
d="M545 170q6 0 18 -7t15 -12q5 -10 -16 -44q-69 -115 -217 -122l-15 -33q42 11 78 -15.5t28 -72.5q-13 -78 -123 -72q-40 2 -64.5 18.5t-29.5 41.5q-5 24 15.5 34.5t41.5 -8.5q7 -39 20 -49q8 -6 21 -7q26 -1 42.5 11.5t20.5 36.5q4 25 -12 39.5t-45 11.5q-10 -1 -23 -3.5
t-14 -2.5q-12 -2 -17 7.5t1 18.5q9 14 23 46q-113 15 -188.5 109.5t-75.5 223.5q0 131 84.5 224t204.5 93q113 0 183 -82q21 0 29 49q3 17 19 17h20l11 -196l-28 -10q-17 -6 -23 11q-2 6 -14 36q-28 68 -77.5 101t-109.5 33q-84 0 -143.5 -65.5t-59.5 -187.5q0 -135 69 -222
t154 -87q57 0 94.5 26.5t69.5 72.5q4 5 8 12l6 10.5t5.5 7.5t6.5 5.5t7 1.5z" />
    <glyph glyph-name="Egrave" unicode="&#xc8;" horiz-adv-x="572" 
d="M334 736l-113 110q-17 16 -32 15t-24 -17q-22 -38 11 -56l143 -77q16 -9 23 2q8 10 -8 23zM537 116q-17 -35 -32 -93q-6 -23 -30 -23h-440v29q38 12 45 21q8 9 8 28v468q0 13 -2 20.5t-12.5 13.5t-14.5 7.5t-24 7.5v26h437q10 0 13.5 -3.5t3.5 -14.5v-100h-29l-15 33
q-19 41 -80 41h-187v-239h181q7 0 12.5 1t10 4.5l7 5.5t6.5 9.5t5 9.5t5 12.5t5 12.5h18v-153h-18q-2 4 -6 14.5t-5.5 14t-6 11t-8.5 10t-10.5 5t-14.5 2.5h-181v-255l229 2q11 0 19.5 1.5t13.5 3t10.5 6t7.5 7t7.5 10.5t8.5 11l26 33h37z" />
    <glyph glyph-name="Eacute" unicode="&#xc9;" horiz-adv-x="572" 
d="M250 736q-16 -13 -8 -23q8 -11 23 -2l143 77q33 18 11 56q-9 16 -24 17t-32 -15zM537 116q-17 -35 -32 -93q-6 -23 -30 -23h-440v29q38 12 45 21q8 9 8 28v468q0 13 -2 20.5t-12.5 13.5t-14.5 7.5t-24 7.5v26h437q10 0 13.5 -3.5t3.5 -14.5v-100h-29l-15 33
q-19 41 -80 41h-187v-239h181q7 0 12.5 1t10 4.5l7 5.5t6.5 9.5t5 9.5t5 12.5t5 12.5h18v-153h-18q-2 4 -6 14.5t-5.5 14t-6 11t-8.5 10t-10.5 5t-14.5 2.5h-181v-255l229 2q11 0 19.5 1.5t13.5 3t10.5 6t7.5 7t7.5 10.5t8.5 11l26 33h37z" />
    <glyph glyph-name="Ecircumflex" unicode="&#xca;" horiz-adv-x="572" 
d="M280 858l149 -154h-45l-104 74l-103 -74h-46zM537 116q-17 -35 -32 -93q-6 -23 -30 -23h-440v29q38 12 45 21q8 9 8 28v468q0 13 -2 20.5t-12.5 13.5t-14.5 7.5t-24 7.5v26h437q10 0 13.5 -3.5t3.5 -14.5v-100h-29l-15 33q-19 41 -80 41h-187v-239h181q7 0 12.5 1t10 4.5
l7 5.5t6.5 9.5t5 9.5t5 12.5t5 12.5h18v-153h-18q-2 4 -6 14.5t-5.5 14t-6 11t-8.5 10t-10.5 5t-14.5 2.5h-181v-255l229 2q11 0 19.5 1.5t13.5 3t10.5 6t7.5 7t7.5 10.5t8.5 11l26 33h37z" />
    <glyph glyph-name="Edieresis" unicode="&#xcb;" horiz-adv-x="572" 
d="M178 739q-21 0 -36.5 15.5t-15.5 36.5t15.5 36.5t36.5 15.5t36.5 -15.5t15.5 -36.5t-15.5 -36.5t-36.5 -15.5zM367 739q-21 0 -36.5 15.5t-15.5 36.5t15.5 36.5t36.5 15.5t36.5 -15.5t15.5 -36.5t-15.5 -36.5t-36.5 -15.5zM537 116q-17 -35 -32 -93q-6 -23 -30 -23h-440
v29q38 12 45 21q8 9 8 28v468q0 13 -2 20.5t-12.5 13.5t-14.5 7.5t-24 7.5v26h437q10 0 13.5 -3.5t3.5 -14.5v-100h-29l-15 33q-19 41 -80 41h-187v-239h181q7 0 12.5 1t10 4.5l7 5.5t6.5 9.5t5 9.5t5 12.5t5 12.5h18v-153h-18q-2 4 -6 14.5t-5.5 14t-6 11t-8.5 10t-10.5 5
t-14.5 2.5h-181v-255l229 2q11 0 19.5 1.5t13.5 3t10.5 6t7.5 7t7.5 10.5t8.5 11l26 33h37z" />
    <glyph glyph-name="Igrave" unicode="&#xcc;" horiz-adv-x="274" 
d="M196 736l-113 110q-17 16 -32 15t-24 -17q-22 -38 11 -56l143 -77q16 -9 23 2q8 10 -8 23zM180 72q0 -7 1 -12t2.5 -9t5.5 -7.5t6 -5.5t8.5 -4.5l9 -3.5t11.5 -3.5t12 -3.5v-23h-196v23q3 1 12 3.5t11.5 3.5l9 3.5t8.5 4.5t6 5.5t5 7.5t2 9t1 12v474q0 5 -0.5 9.5t-1.5 8
t-3.5 6.5t-3.5 5t-5.5 4.5t-6 3.5t-7.5 3t-8 3t-9.5 3t-9.5 3v26h196v-26l-11 -3.5t-10 -3t-8.5 -3t-8.5 -4l-6 -4.5t-5.5 -5.5t-3.5 -6.5t-2.5 -8.5t-0.5 -10.5v-474z" />
    <glyph glyph-name="Iacute" unicode="&#xcd;" horiz-adv-x="274" 
d="M112 736q-16 -13 -8 -23q8 -11 23 -2l143 77q33 18 11 56q-9 16 -24 17t-32 -15zM180 72q0 -7 1 -12t2.5 -9t5.5 -7.5t6 -5.5t8.5 -4.5l9 -3.5t11.5 -3.5t12 -3.5v-23h-196v23q3 1 12 3.5t11.5 3.5l9 3.5t8.5 4.5t6 5.5t5 7.5t2 9t1 12v474q0 5 -0.5 9.5t-1.5 8t-3.5 6.5
t-3.5 5t-5.5 4.5t-6 3.5t-7.5 3t-8 3t-9.5 3t-9.5 3v26h196v-26l-11 -3.5t-10 -3t-8.5 -3t-8.5 -4l-6 -4.5t-5.5 -5.5t-3.5 -6.5t-2.5 -8.5t-0.5 -10.5v-474z" />
    <glyph glyph-name="Icircumflex" unicode="&#xce;" horiz-adv-x="274" 
d="M142 858l149 -154h-45l-104 74l-103 -74h-46zM180 72q0 -7 1 -12t2.5 -9t5.5 -7.5t6 -5.5t8.5 -4.5l9 -3.5t11.5 -3.5t12 -3.5v-23h-196v23q3 1 12 3.5t11.5 3.5l9 3.5t8.5 4.5t6 5.5t5 7.5t2 9t1 12v474q0 5 -0.5 9.5t-1.5 8t-3.5 6.5t-3.5 5t-5.5 4.5t-6 3.5t-7.5 3
t-8 3t-9.5 3t-9.5 3v26h196v-26l-11 -3.5t-10 -3t-8.5 -3t-8.5 -4l-6 -4.5t-5.5 -5.5t-3.5 -6.5t-2.5 -8.5t-0.5 -10.5v-474z" />
    <glyph glyph-name="Idieresis" unicode="&#xcf;" horiz-adv-x="274" 
d="M40 739q-21 0 -36.5 15.5t-15.5 36.5t15.5 36.5t36.5 15.5t36.5 -15.5t15.5 -36.5t-15.5 -36.5t-36.5 -15.5zM229 739q-21 0 -36.5 15.5t-15.5 36.5t15.5 36.5t36.5 15.5t36.5 -15.5t15.5 -36.5t-15.5 -36.5t-36.5 -15.5zM180 72q0 -7 1 -12t2.5 -9t5.5 -7.5t6 -5.5
t8.5 -4.5l9 -3.5t11.5 -3.5t12 -3.5v-23h-196v23q3 1 12 3.5t11.5 3.5l9 3.5t8.5 4.5t6 5.5t5 7.5t2 9t1 12v474q0 5 -0.5 9.5t-1.5 8t-3.5 6.5t-3.5 5t-5.5 4.5t-6 3.5t-7.5 3t-8 3t-9.5 3t-9.5 3v26h196v-26l-11 -3.5t-10 -3t-8.5 -3t-8.5 -4l-6 -4.5t-5.5 -5.5t-3.5 -6.5
t-2.5 -8.5t-0.5 -10.5v-474z" />
    <glyph glyph-name="Eth" unicode="&#xd0;" horiz-adv-x="638" 
d="M231 621q181 0 271.5 -71.5t90.5 -238.5q0 -324 -350 -309q-128 8 -224 -2v35q65 14 65 48v208h-69v40h69v211q0 33 -65 49v30h212zM262 49q128 -10 184.5 58t56.5 204q0 127 -58 198.5t-176 71.5h-100v-250h116v-40h-116v-206q0 -17 7 -23.5t28 -8.5z" />
    <glyph glyph-name="Ntilde" unicode="&#xd1;" horiz-adv-x="654" 
d="M504 817q-7 -47 -38.5 -73.5t-77.5 -26.5q-34 0 -81.5 34t-68.5 34q-29 0 -46 -16t-17 -32h-23q-8 41 25.5 68.5t76.5 27.5q34 0 78.5 -29t74.5 -29q24 0 45.5 15t21.5 27h30zM629 621v-23q-58 -16 -58 -49v-549q0 -5 -3 -6.5t-7.5 0t-8.5 6.5l-423 513v-440
q0 -33 57 -49v-24h-161v24q58 16 58 49v476q0 33 -58 49v23h136l356 -450v378q0 33 -58 49v23h170z" />
    <glyph glyph-name="Ograve" unicode="&#xd2;" horiz-adv-x="650" 
d="M382 736l-113 110q-17 16 -32 15t-24 -17q-22 -38 11 -56l143 -77q16 -9 23 2q8 10 -8 23zM620 316q0 -142 -83.5 -236.5t-211.5 -94.5q-127 0 -211 96t-84 235q0 138 83.5 229.5t211.5 91.5q129 0 212 -91t83 -230zM323 31q98 0 149.5 56t51.5 199q0 135 -62 223
t-137 88q-96 0 -147 -53.5t-51 -197.5q0 -141 60 -228t136 -87z" />
    <glyph glyph-name="Oacute" unicode="&#xd3;" horiz-adv-x="650" 
d="M298 736q-16 -13 -8 -23q8 -11 23 -2l143 77q33 18 11 56q-9 16 -24 17t-32 -15zM620 316q0 -142 -83.5 -236.5t-211.5 -94.5q-127 0 -211 96t-84 235q0 138 83.5 229.5t211.5 91.5q129 0 212 -91t83 -230zM323 31q98 0 149.5 56t51.5 199q0 135 -62 223t-137 88
q-96 0 -147 -53.5t-51 -197.5q0 -141 60 -228t136 -87z" />
    <glyph glyph-name="Ocircumflex" unicode="&#xd4;" horiz-adv-x="650" 
d="M328 858l149 -154h-45l-104 74l-103 -74h-46zM620 316q0 -142 -83.5 -236.5t-211.5 -94.5q-127 0 -211 96t-84 235q0 138 83.5 229.5t211.5 91.5q129 0 212 -91t83 -230zM323 31q98 0 149.5 56t51.5 199q0 135 -62 223t-137 88q-96 0 -147 -53.5t-51 -197.5
q0 -141 60 -228t136 -87z" />
    <glyph glyph-name="Otilde" unicode="&#xd5;" horiz-adv-x="650" 
d="M502 817q-7 -47 -38.5 -73.5t-77.5 -26.5q-34 0 -81.5 34t-68.5 34q-29 0 -46 -16t-17 -32h-23q-8 41 25.5 68.5t76.5 27.5q34 0 78.5 -29t74.5 -29q24 0 45.5 15t21.5 27h30zM620 316q0 -142 -83.5 -236.5t-211.5 -94.5q-127 0 -211 96t-84 235q0 138 83.5 229.5
t211.5 91.5q129 0 212 -91t83 -230zM323 31q98 0 149.5 56t51.5 199q0 135 -62 223t-137 88q-96 0 -147 -53.5t-51 -197.5q0 -141 60 -228t136 -87z" />
    <glyph glyph-name="Odieresis" unicode="&#xd6;" horiz-adv-x="650" 
d="M226 739q-21 0 -36.5 15.5t-15.5 36.5t15.5 36.5t36.5 15.5t36.5 -15.5t15.5 -36.5t-15.5 -36.5t-36.5 -15.5zM415 739q-21 0 -36.5 15.5t-15.5 36.5t15.5 36.5t36.5 15.5t36.5 -15.5t15.5 -36.5t-15.5 -36.5t-36.5 -15.5zM620 316q0 -142 -83.5 -236.5t-211.5 -94.5
q-127 0 -211 96t-84 235q0 138 83.5 229.5t211.5 91.5q129 0 212 -91t83 -230zM323 31q98 0 149.5 56t51.5 199q0 135 -62 223t-137 88q-96 0 -147 -53.5t-51 -197.5q0 -141 60 -228t136 -87z" />
    <glyph glyph-name="multiply" unicode="&#xd7;" horiz-adv-x="447" 
d="M377 367l-115 -115l115 -116l-39 -38l-115 115l-114 -115l-39 38l115 116l-115 115l39 38l114 -115l115 115z" />
    <glyph glyph-name="Oslash" unicode="&#xd8;" horiz-adv-x="650" 
d="M529 554q91 -93 91 -238q0 -142 -83.5 -236.5t-211.5 -94.5q-101 0 -179 64l-48 -64l-35 26l52 69q-85 96 -85 236q0 138 83.5 229.5t211.5 91.5q97 0 172 -55l40 54l35 -26zM127 346q0 -112 41 -196l284 373q-58 74 -127 74q-96 0 -147 -53.5t-51 -197.5zM323 31
q98 0 149.5 56t51.5 199q0 112 -47 199l-285 -375q56 -79 131 -79z" />
    <glyph glyph-name="Ugrave" unicode="&#xd9;" horiz-adv-x="639" 
d="M385 736l-113 110q-17 16 -32 15t-24 -17q-22 -38 11 -56l143 -77q16 -9 23 2q8 10 -8 23zM599 621v-25q-15 -2 -23.5 -5t-15 -9.5t-6.5 -17.5v-310q0 -122 -61 -193t-170 -71q-126 0 -192.5 70t-66.5 192v312q0 16 -11 22t-33 10v25h181v-25q-15 -2 -23.5 -5t-15.5 -9.5
t-7 -17.5v-267q0 -264 168 -264q74 0 123.5 51.5t49.5 164.5v315q0 16 -11.5 22.5t-35.5 9.5v25h150z" />
    <glyph glyph-name="Uacute" unicode="&#xda;" horiz-adv-x="639" 
d="M301 736q-16 -13 -8 -23q8 -11 23 -2l143 77q33 18 11 56q-9 16 -24 17t-32 -15zM599 621v-25q-15 -2 -23.5 -5t-15 -9.5t-6.5 -17.5v-310q0 -122 -61 -193t-170 -71q-126 0 -192.5 70t-66.5 192v312q0 16 -11 22t-33 10v25h181v-25q-15 -2 -23.5 -5t-15.5 -9.5t-7 -17.5
v-267q0 -264 168 -264q74 0 123.5 51.5t49.5 164.5v315q0 16 -11.5 22.5t-35.5 9.5v25h150z" />
    <glyph glyph-name="Ucircumflex" unicode="&#xdb;" horiz-adv-x="639" 
d="M331 858l149 -154h-45l-104 74l-103 -74h-46zM599 621v-25q-15 -2 -23.5 -5t-15 -9.5t-6.5 -17.5v-310q0 -122 -61 -193t-170 -71q-126 0 -192.5 70t-66.5 192v312q0 16 -11 22t-33 10v25h181v-25q-15 -2 -23.5 -5t-15.5 -9.5t-7 -17.5v-267q0 -264 168 -264
q74 0 123.5 51.5t49.5 164.5v315q0 16 -11.5 22.5t-35.5 9.5v25h150z" />
    <glyph glyph-name="Udieresis" unicode="&#xdc;" horiz-adv-x="639" 
d="M229 739q-21 0 -36.5 15.5t-15.5 36.5t15.5 36.5t36.5 15.5t36.5 -15.5t15.5 -36.5t-15.5 -36.5t-36.5 -15.5zM418 739q-21 0 -36.5 15.5t-15.5 36.5t15.5 36.5t36.5 15.5t36.5 -15.5t15.5 -36.5t-15.5 -36.5t-36.5 -15.5zM599 621v-25q-15 -2 -23.5 -5t-15 -9.5
t-6.5 -17.5v-310q0 -122 -61 -193t-170 -71q-126 0 -192.5 70t-66.5 192v312q0 16 -11 22t-33 10v25h181v-25q-15 -2 -23.5 -5t-15.5 -9.5t-7 -17.5v-267q0 -264 168 -264q74 0 123.5 51.5t49.5 164.5v315q0 16 -11.5 22.5t-35.5 9.5v25h150z" />
    <glyph glyph-name="Yacute" unicode="&#xdd;" horiz-adv-x="622" 
d="M318 711q-15 -9 -23 2q-8 10 8 23l113 110q17 16 32 15t24 -17q22 -38 -11 -56zM436 621h171v-27q-29 -3 -45.5 -16t-38.5 -43l-169 -237v-235q0 -8 5.5 -14t18 -9.5t22 -5l27.5 -4.5v-30h-226v30l28 4.5t22 5t18.5 9.5t5.5 14v209l-167 238l-15 22t-13.5 19.5l-11 13.5
t-11.5 12t-11 7.5t-14.5 6.5t-16.5 3v27h199v-27q-23 -4 -34 -13t-3 -20l156 -223l151 213q11 17 -3 28t-45 15v27z" />
    <glyph glyph-name="Thorn" unicode="&#xde;" horiz-adv-x="546" 
d="M267 512q117 0 184 -53t67 -142q0 -85 -66 -133.5t-184 -48.5h-111v-63q0 -7 1 -12t2 -9t5 -7.5t6 -5.5t8.5 -4.5l9 -3.5t11.5 -3.5t12 -3.5v-23h-196v23q3 1 12 3.5t11.5 3.5l9 3.5t8.5 4.5t6 5.5t5.5 7.5t2.5 9t1 12v474q0 6 -0.5 10.5t-2.5 8.5t-3.5 6.5t-5.5 5.5
l-6 4.5t-8.5 4t-8.5 3t-10 3l-11 3.5v26h196v-26q-3 -1 -10 -3t-9 -3t-8 -3t-7.5 -3t-6 -3.5t-5.5 -4.5t-3.5 -5t-3.5 -6.5t-1.5 -8t-0.5 -9.5v-34h110zM281 168q82 0 111 37t29 110q0 75 -31 118.5t-109 43.5h-124v-309h124z" />
    <glyph glyph-name="germandbls" unicode="&#xdf;" horiz-adv-x="527" 
d="M345 377q60 -14 100.5 -65t40.5 -127q0 -86 -69.5 -136t-190.5 -50v42q87 0 127.5 34.5t40.5 109.5q0 79 -34 120t-129 42v34q43 0 76.5 33t33.5 78q0 58 -23 97.5t-77 39.5q-43 0 -63.5 -33t-20.5 -87v-412q0 -52 -18.5 -74.5t-69.5 -22.5h-38v23q29 4 37.5 10t8.5 23
v438q0 83 41 128t123 45q84 0 128 -48t44 -127q0 -74 -68 -115z" />
    <glyph glyph-name="agrave" unicode="&#xe0;" horiz-adv-x="471" 
d="M284 566l-113 110q-17 16 -32 15t-24 -17q-22 -38 11 -56l143 -77q16 -9 23 2q8 10 -8 23zM396 82q0 -26 12.5 -33.5t42.5 -2.5v-31q-37 -23 -70 -23q-22 0 -38.5 26t-21.5 74q-20 -41 -58.5 -71t-90.5 -31q-63 -1 -108 31t-45 90q0 42 22 70.5t89.5 54.5t186.5 42v12
q0 68 -21.5 100.5t-72.5 32.5q-49 0 -69.5 -17.5t-20.5 -67.5q0 -13 -15.5 -20t-34.5 -7q-37 0 -39 39q0 53 53 81.5t130 28.5q82 0 125.5 -43t43.5 -120v-215zM190 35q21 0 39 6.5t32.5 20.5t22.5 22.5t20 27.5t13 21v113q-68 -10 -112.5 -24.5t-65.5 -33t-28 -35.5t-7 -39
q0 -35 23 -57t63 -22z" />
    <glyph glyph-name="aacute" unicode="&#xe1;" horiz-adv-x="471" 
d="M200 566q-16 -13 -8 -23q8 -11 23 -2l143 77q33 18 11 56q-9 16 -24 17t-32 -15zM396 82q0 -26 12.5 -33.5t42.5 -2.5v-31q-37 -23 -70 -23q-22 0 -38.5 26t-21.5 74q-20 -41 -58.5 -71t-90.5 -31q-63 -1 -108 31t-45 90q0 42 22 70.5t89.5 54.5t186.5 42v12
q0 68 -21.5 100.5t-72.5 32.5q-49 0 -69.5 -17.5t-20.5 -67.5q0 -13 -15.5 -20t-34.5 -7q-37 0 -39 39q0 53 53 81.5t130 28.5q82 0 125.5 -43t43.5 -120v-215zM190 35q21 0 39 6.5t32.5 20.5t22.5 22.5t20 27.5t13 21v113q-68 -10 -112.5 -24.5t-65.5 -33t-28 -35.5t-7 -39
q0 -35 23 -57t63 -22z" />
    <glyph glyph-name="acircumflex" unicode="&#xe2;" horiz-adv-x="471" 
d="M230 688l149 -154h-45l-104 74l-103 -74h-46zM396 82q0 -26 12.5 -33.5t42.5 -2.5v-31q-37 -23 -70 -23q-22 0 -38.5 26t-21.5 74q-20 -41 -58.5 -71t-90.5 -31q-63 -1 -108 31t-45 90q0 42 22 70.5t89.5 54.5t186.5 42v12q0 68 -21.5 100.5t-72.5 32.5
q-49 0 -69.5 -17.5t-20.5 -67.5q0 -13 -15.5 -20t-34.5 -7q-37 0 -39 39q0 53 53 81.5t130 28.5q82 0 125.5 -43t43.5 -120v-215zM190 35q21 0 39 6.5t32.5 20.5t22.5 22.5t20 27.5t13 21v113q-68 -10 -112.5 -24.5t-65.5 -33t-28 -35.5t-7 -39q0 -35 23 -57t63 -22z" />
    <glyph glyph-name="atilde" unicode="&#xe3;" horiz-adv-x="471" 
d="M404 647q-7 -47 -38.5 -73.5t-77.5 -26.5q-34 0 -81.5 34t-68.5 34q-29 0 -46 -16t-17 -32h-23q-8 41 25.5 68.5t76.5 27.5q34 0 78.5 -29t74.5 -29q24 0 45.5 15t21.5 27h30zM396 82q0 -26 12.5 -33.5t42.5 -2.5v-31q-37 -23 -70 -23q-22 0 -38.5 26t-21.5 74
q-20 -41 -58.5 -71t-90.5 -31q-63 -1 -108 31t-45 90q0 42 22 70.5t89.5 54.5t186.5 42v12q0 68 -21.5 100.5t-72.5 32.5q-49 0 -69.5 -17.5t-20.5 -67.5q0 -13 -15.5 -20t-34.5 -7q-37 0 -39 39q0 53 53 81.5t130 28.5q82 0 125.5 -43t43.5 -120v-215zM190 35q21 0 39 6.5
t32.5 20.5t22.5 22.5t20 27.5t13 21v113q-68 -10 -112.5 -24.5t-65.5 -33t-28 -35.5t-7 -39q0 -35 23 -57t63 -22z" />
    <glyph glyph-name="adieresis" unicode="&#xe4;" horiz-adv-x="471" 
d="M128 569q-21 0 -36.5 15.5t-15.5 36.5t15.5 36.5t36.5 15.5t36.5 -15.5t15.5 -36.5t-15.5 -36.5t-36.5 -15.5zM317 569q-21 0 -36.5 15.5t-15.5 36.5t15.5 36.5t36.5 15.5t36.5 -15.5t15.5 -36.5t-15.5 -36.5t-36.5 -15.5zM396 82q0 -26 12.5 -33.5t42.5 -2.5v-31
q-37 -23 -70 -23q-22 0 -38.5 26t-21.5 74q-20 -41 -58.5 -71t-90.5 -31q-63 -1 -108 31t-45 90q0 42 22 70.5t89.5 54.5t186.5 42v12q0 68 -21.5 100.5t-72.5 32.5q-49 0 -69.5 -17.5t-20.5 -67.5q0 -13 -15.5 -20t-34.5 -7q-37 0 -39 39q0 53 53 81.5t130 28.5
q82 0 125.5 -43t43.5 -120v-215zM190 35q21 0 39 6.5t32.5 20.5t22.5 22.5t20 27.5t13 21v113q-68 -10 -112.5 -24.5t-65.5 -33t-28 -35.5t-7 -39q0 -35 23 -57t63 -22z" />
    <glyph glyph-name="aring" unicode="&#xe5;" horiz-adv-x="471" 
d="M227 553q-37 0 -63 25t-26 60t26 60t63 25t62.5 -25t25.5 -60t-25.5 -60t-62.5 -25zM227 587q15 0 27.5 15t12.5 36q0 20 -12.5 36t-27.5 16q-16 0 -29 -16t-13 -36q0 -21 12.5 -36t29.5 -15zM396 82q0 -26 12.5 -33.5t42.5 -2.5v-31q-37 -23 -70 -23q-22 0 -38.5 26
t-21.5 74q-20 -41 -58.5 -71t-90.5 -31q-63 -1 -108 31t-45 90q0 42 22 70.5t89.5 54.5t186.5 42v12q0 68 -21.5 100.5t-72.5 32.5q-49 0 -69.5 -17.5t-20.5 -67.5q0 -13 -15.5 -20t-34.5 -7q-37 0 -39 39q0 53 53 81.5t130 28.5q82 0 125.5 -43t43.5 -120v-215zM190 35
q21 0 39 6.5t32.5 20.5t22.5 22.5t20 27.5t13 21v113q-68 -10 -112.5 -24.5t-65.5 -33t-28 -35.5t-7 -39q0 -35 23 -57t63 -22z" />
    <glyph glyph-name="ae" unicode="&#xe6;" horiz-adv-x="763" 
d="M559 36q33 0 60.5 13t41 26.5t29.5 34.5l27 -35q-18 -24 -33 -38.5t-53 -30.5t-88 -16q-55 0 -101 25.5t-76 70.5q-56 -91 -187 -93q-60 -1 -104.5 30.5t-44.5 87.5q0 40 21.5 69t88.5 55.5t184 42.5v12q0 83 -36.5 112t-120.5 9q-13 -3 -17.5 -13.5t-4.5 -30.5t-2 -29
q-4 -14 -20 -22t-37 -4q-41 8 -28 61q8 33 51.5 56.5t95.5 27.5q129 12 176 -64q57 65 153 65q78 0 136 -51t58 -132q0 -52 -56 -52h-259q0 -82 43.5 -134.5t102.5 -52.5zM534 420q-56 0 -88.5 -43.5t-32.5 -112.5h231q1 69 -28 112.5t-82 43.5zM324 133v114
q-210 -32 -210 -137q0 -32 23.5 -52.5t60.5 -20.5q49 0 77 26.5t49 69.5z" />
    <glyph glyph-name="ccedilla" unicode="&#xe7;" horiz-adv-x="454" 
d="M411 86q-42 -81 -153 -92l-19 -42q42 11 78 -15.5t28 -72.5q-13 -78 -123 -72q-40 2 -64.5 18.5t-29.5 41.5q-5 24 15.5 34.5t41.5 -8.5q7 -39 20 -49q8 -6 21 -7q26 -1 42.5 11.5t20.5 36.5q4 25 -12 39.5t-45 11.5q-10 -1 -23 -3.5t-14 -2.5q-12 -2 -17 7.5t1 18.5
q10 16 26 52q-76 8 -128 73t-52 160q0 109 59.5 171.5t146.5 62.5q83 0 129 -38t46 -90q0 -14 -11.5 -24.5t-31.5 -10.5q-44 0 -44 32v6q0 25 -1.5 36.5t-8 24.5t-22.5 18t-44 5q-74 0 -104 -39.5t-30 -133.5q0 -81 43.5 -142.5t113.5 -62.5q21 0 35 2.5t26 11l16 11.5
t15.5 19t13.5 18q9 15 20 2z" />
    <glyph glyph-name="egrave" unicode="&#xe8;" 
d="M292 566l-113 110q-17 16 -32 15t-24 -17q-22 -38 11 -56l143 -77q16 -9 23 2q8 10 -8 23zM433 275q0 -52 -56 -52h-259q0 -82 43.5 -134.5t102.5 -52.5q76 0 131 74l27 -35q-18 -24 -33 -38.5t-53 -30.5t-88 -16q-93 0 -155.5 68t-62.5 172q0 107 59.5 167.5t149.5 60.5
q78 0 136 -51t58 -132zM349 264q1 69 -28 112.5t-82 43.5q-56 0 -88.5 -43.5t-32.5 -112.5h231z" />
    <glyph glyph-name="eacute" unicode="&#xe9;" 
d="M208 566q-16 -13 -8 -23q8 -11 23 -2l143 77q33 18 11 56q-9 16 -24 17t-32 -15zM433 275q0 -52 -56 -52h-259q0 -82 43.5 -134.5t102.5 -52.5q76 0 131 74l27 -35q-18 -24 -33 -38.5t-53 -30.5t-88 -16q-93 0 -155.5 68t-62.5 172q0 107 59.5 167.5t149.5 60.5
q78 0 136 -51t58 -132zM349 264q1 69 -28 112.5t-82 43.5q-56 0 -88.5 -43.5t-32.5 -112.5h231z" />
    <glyph glyph-name="ecircumflex" unicode="&#xea;" 
d="M238 688l149 -154h-45l-104 74l-103 -74h-46zM433 275q0 -52 -56 -52h-259q0 -82 43.5 -134.5t102.5 -52.5q76 0 131 74l27 -35q-18 -24 -33 -38.5t-53 -30.5t-88 -16q-93 0 -155.5 68t-62.5 172q0 107 59.5 167.5t149.5 60.5q78 0 136 -51t58 -132zM349 264
q1 69 -28 112.5t-82 43.5q-56 0 -88.5 -43.5t-32.5 -112.5h231z" />
    <glyph glyph-name="edieresis" unicode="&#xeb;" 
d="M136 569q-21 0 -36.5 15.5t-15.5 36.5t15.5 36.5t36.5 15.5t36.5 -15.5t15.5 -36.5t-15.5 -36.5t-36.5 -15.5zM325 569q-21 0 -36.5 15.5t-15.5 36.5t15.5 36.5t36.5 15.5t36.5 -15.5t15.5 -36.5t-15.5 -36.5t-36.5 -15.5zM433 275q0 -52 -56 -52h-259q0 -82 43.5 -134.5
t102.5 -52.5q76 0 131 74l27 -35q-18 -24 -33 -38.5t-53 -30.5t-88 -16q-93 0 -155.5 68t-62.5 172q0 107 59.5 167.5t149.5 60.5q78 0 136 -51t58 -132zM349 264q1 69 -28 112.5t-82 43.5q-56 0 -88.5 -43.5t-32.5 -112.5h231z" />
    <glyph glyph-name="igrave" unicode="&#xec;" horiz-adv-x="244" 
d="M169 566l-113 110q-17 16 -32 15t-24 -17q-22 -38 11 -56l143 -77q16 -9 23 2q8 10 -8 23zM161 53q0 -28 43 -28v-25h-165v25q44 0 44 28v325q0 17 -6.5 24t-21.5 7h-20v38l94 9q32 3 32 -31v-372z" />
    <glyph glyph-name="iacute" unicode="&#xed;" horiz-adv-x="244" 
d="M86 566q-16 -13 -8 -23q8 -11 23 -2l143 77q33 18 11 56q-9 16 -24 17t-32 -15zM161 53q0 -28 43 -28v-25h-165v25q44 0 44 28v325q0 17 -6.5 24t-21.5 7h-20v38l94 9q32 3 32 -31v-372z" />
    <glyph glyph-name="icircumflex" unicode="&#xee;" horiz-adv-x="244" 
d="M115 688l149 -154h-45l-104 74l-103 -74h-46zM161 53q0 -28 43 -28v-25h-165v25q44 0 44 28v325q0 17 -6.5 24t-21.5 7h-20v38l94 9q32 3 32 -31v-372z" />
    <glyph glyph-name="idieresis" unicode="&#xef;" horiz-adv-x="244" 
d="M13 569q-21 0 -36.5 15.5t-15.5 36.5t15.5 36.5t36.5 15.5t36.5 -15.5t15.5 -36.5t-15.5 -36.5t-36.5 -15.5zM202 569q-21 0 -36.5 15.5t-15.5 36.5t15.5 36.5t36.5 15.5t36.5 -15.5t15.5 -36.5t-15.5 -36.5t-36.5 -15.5zM161 53q0 -28 43 -28v-25h-165v25q44 0 44 28
v325q0 17 -6.5 24t-21.5 7h-20v38l94 9q32 3 32 -31v-372z" />
    <glyph glyph-name="eth" unicode="&#xf0;" horiz-adv-x="543" 
d="M503 581l-95 -27q23 -48 23 -115v-107q0 -172 -51 -255t-162 -83q-188 0 -188 237q0 110 43 170.5t116 60.5q81 0 159 -78v87q0 35 -5 65l-97 -27l-10 32l98 27q-12 32 -34.5 43t-57.5 13l-31 2v31h11t15.5 -0.5t18 -2t22 -3.5t23 -5.5t24.5 -9t22.5 -12.5t22.5 -17.5
t20 -22.5l103 29zM218 34q41 0 68 19.5t40 60t17.5 85.5t4.5 113q0 26 -40 66.5t-105 40.5q-95 0 -95 -188q0 -102 26.5 -149.5t83.5 -47.5z" />
    <glyph glyph-name="ntilde" unicode="&#xf1;" horiz-adv-x="549" 
d="M442 647q-7 -47 -38.5 -73.5t-77.5 -26.5q-34 0 -81.5 34t-68.5 34q-29 0 -46 -16t-17 -32h-23q-8 41 25.5 68.5t76.5 27.5q34 0 78.5 -29t74.5 -29q24 0 45.5 15t21.5 27h30zM467 84q0 -28 13 -39.5t49 -3.5l-13 -31q-28 -10 -54 -10q-34 0 -55 21t-21 51v220
q0 57 -18.5 87t-63.5 30q-66 0 -139 -84v-272q0 -17 11.5 -22.5t38.5 -5.5v-25h-178v25q25 0 36 5.5t11 22.5v312q0 47 -59 39v38l111 17q25 3 28.5 -19t-3.5 -55l-4 -35q64 110 169 110q74 0 107 -38t34 -136v-202z" />
    <glyph glyph-name="ograve" unicode="&#xf2;" horiz-adv-x="485" 
d="M298 566l-113 110q-17 16 -32 15t-24 -17q-22 -38 11 -56l143 -77q16 -9 23 2q8 10 -8 23zM241 458q90 0 152 -63.5t62 -164.5q0 -105 -61.5 -172.5t-148.5 -67.5q-89 0 -152 66t-63 166q0 105 62 170.5t149 65.5zM374 207q0 90 -41.5 150t-102.5 60q-117 0 -117 -172
q0 -90 40.5 -149.5t102.5 -59.5q118 0 118 171z" />
    <glyph glyph-name="oacute" unicode="&#xf3;" horiz-adv-x="485" 
d="M215 566q-16 -13 -8 -23q8 -11 23 -2l143 77q33 18 11 56q-9 16 -24 17t-32 -15zM241 458q90 0 152 -63.5t62 -164.5q0 -105 -61.5 -172.5t-148.5 -67.5q-89 0 -152 66t-63 166q0 105 62 170.5t149 65.5zM374 207q0 90 -41.5 150t-102.5 60q-117 0 -117 -172
q0 -90 40.5 -149.5t102.5 -59.5q118 0 118 171z" />
    <glyph glyph-name="ocircumflex" unicode="&#xf4;" horiz-adv-x="485" 
d="M245 688l149 -154h-45l-104 74l-103 -74h-46zM241 458q90 0 152 -63.5t62 -164.5q0 -105 -61.5 -172.5t-148.5 -67.5q-89 0 -152 66t-63 166q0 105 62 170.5t149 65.5zM374 207q0 90 -41.5 150t-102.5 60q-117 0 -117 -172q0 -90 40.5 -149.5t102.5 -59.5q118 0 118 171z
" />
    <glyph glyph-name="otilde" unicode="&#xf5;" horiz-adv-x="485" 
d="M419 647q-7 -47 -38.5 -73.5t-77.5 -26.5q-34 0 -81.5 34t-68.5 34q-29 0 -46 -16t-17 -32h-23q-8 41 25.5 68.5t76.5 27.5q34 0 78.5 -29t74.5 -29q24 0 45.5 15t21.5 27h30zM241 458q90 0 152 -63.5t62 -164.5q0 -105 -61.5 -172.5t-148.5 -67.5q-89 0 -152 66t-63 166
q0 105 62 170.5t149 65.5zM374 207q0 90 -41.5 150t-102.5 60q-117 0 -117 -172q0 -90 40.5 -149.5t102.5 -59.5q118 0 118 171z" />
    <glyph glyph-name="odieresis" unicode="&#xf6;" horiz-adv-x="485" 
d="M142 569q-21 0 -36.5 15.5t-15.5 36.5t15.5 36.5t36.5 15.5t36.5 -15.5t15.5 -36.5t-15.5 -36.5t-36.5 -15.5zM331 569q-21 0 -36.5 15.5t-15.5 36.5t15.5 36.5t36.5 15.5t36.5 -15.5t15.5 -36.5t-15.5 -36.5t-36.5 -15.5zM241 458q90 0 152 -63.5t62 -164.5
q0 -105 -61.5 -172.5t-148.5 -67.5q-89 0 -152 66t-63 166q0 105 62 170.5t149 65.5zM374 207q0 90 -41.5 150t-102.5 60q-117 0 -117 -172q0 -90 40.5 -149.5t102.5 -59.5q118 0 118 171z" />
    <glyph glyph-name="divide" unicode="&#xf7;" horiz-adv-x="510" 
d="M257 362q-17 0 -29.5 13t-12.5 30t12.5 29.5t29.5 12.5t29.5 -12.5t12.5 -29.5t-12.5 -30t-29.5 -13zM70 279h370v-54h-370v54zM257 56q-17 0 -29.5 13t-12.5 30t12.5 29.5t29.5 12.5t29.5 -12.5t12.5 -29.5t-12.5 -30t-29.5 -13z" />
    <glyph glyph-name="oslash" unicode="&#xf8;" horiz-adv-x="485" 
d="M394 393q61 -64 61 -163q0 -105 -61.5 -172.5t-148.5 -67.5q-67 0 -123 40l-20 -26l-35 25l23 31q-60 66 -60 162q0 105 62 170.5t149 65.5q68 0 120 -37l22 30l35 -25zM113 245q0 -69 25 -122l184 247q-38 47 -92 47q-117 0 -117 -172zM256 36q118 0 118 171
q0 70 -27 124l-185 -247q40 -48 94 -48z" />
    <glyph glyph-name="ugrave" unicode="&#xf9;" horiz-adv-x="537" 
d="M164 618q-33 18 -11 56q9 16 24 17t32 -15l113 -110q16 -13 8 -23q-7 -11 -23 -2zM456 82q0 -26 12.5 -33.5t43.5 -2.5v-31l-53 -21q-30 -11 -52.5 19t-29.5 97v2q-15 -42 -51.5 -81t-96.5 -39q-75 0 -118 43.5t-43 126.5v222q0 32 -28 32h-15v28l99 16q23 2 23 -19v-284
q0 -62 24 -88t78 -26q90 0 128 127v214q0 17 -6 24.5t-21 7.5h-15v28l98 16q23 4 23 -19v-359z" />
    <glyph glyph-name="uacute" unicode="&#xfa;" horiz-adv-x="537" 
d="M253 541q-15 -9 -23 2q-8 10 8 23l113 110q17 16 32 15t24 -17q22 -38 -11 -56zM456 82q0 -26 12.5 -33.5t43.5 -2.5v-31l-53 -21q-30 -11 -52.5 19t-29.5 97v2q-15 -42 -51.5 -81t-96.5 -39q-75 0 -118 43.5t-43 126.5v222q0 32 -28 32h-15v28l99 16q23 2 23 -19v-284
q0 -62 24 -88t78 -26q90 0 128 127v214q0 17 -6 24.5t-21 7.5h-15v28l98 16q23 4 23 -19v-359z" />
    <glyph glyph-name="ucircumflex" unicode="&#xfb;" horiz-adv-x="537" 
d="M268 608l-103 -74h-46l149 154l149 -154h-45zM456 82q0 -26 12.5 -33.5t43.5 -2.5v-31l-53 -21q-30 -11 -52.5 19t-29.5 97v2q-15 -42 -51.5 -81t-96.5 -39q-75 0 -118 43.5t-43 126.5v222q0 32 -28 32h-15v28l99 16q23 2 23 -19v-284q0 -62 24 -88t78 -26q90 0 128 127
v214q0 17 -6 24.5t-21 7.5h-15v28l98 16q23 4 23 -19v-359z" />
    <glyph glyph-name="udieresis" unicode="&#xfc;" horiz-adv-x="537" 
d="M166 569q-21 0 -36.5 15.5t-15.5 36.5t15.5 36.5t36.5 15.5t36.5 -15.5t15.5 -36.5t-15.5 -36.5t-36.5 -15.5zM355 569q-21 0 -36.5 15.5t-15.5 36.5t15.5 36.5t36.5 15.5t36.5 -15.5t15.5 -36.5t-15.5 -36.5t-36.5 -15.5zM456 82q0 -26 12.5 -33.5t43.5 -2.5v-31
l-53 -21q-30 -11 -52.5 19t-29.5 97v2q-15 -42 -51.5 -81t-96.5 -39q-75 0 -118 43.5t-43 126.5v222q0 32 -28 32h-15v28l99 16q23 2 23 -19v-284q0 -62 24 -88t78 -26q90 0 128 127v214q0 17 -6 24.5t-21 7.5h-15v28l98 16q23 4 23 -19v-359z" />
    <glyph glyph-name="yacute" unicode="&#xfd;" horiz-adv-x="518" 
d="M239 566q-16 -13 -8 -23q8 -11 23 -2l143 77q33 18 11 56q-9 16 -24 17t-32 -15zM498 451v-25l-14 -6q-4 -2 -10.5 -4.5l-10.5 -4t-8.5 -4t-7.5 -6t-5 -8.5l-198 -477q-29 -69 -55 -100t-72 -31q-33 0 -56.5 15t-27.5 40q-10 56 45 56q18 0 25 -9t7 -19.5t6 -19.5t22 -9
q5 0 9.5 2t8 4.5t7.5 7.5t6.5 8.5t6 11l5 10.5t5 11.5t4.5 10.5l48 116l-177 372q-10 19 -33 27l-18 6v25h185v-25l-25 -5q-32 -6 -22 -28l129 -281l111 281q4 10 -3 17.5t-20 10.5l-28 5v25h161z" />
    <glyph glyph-name="thorn" unicode="&#xfe;" horiz-adv-x="517" 
d="M296 462q85 0 133 -62t48 -173q0 -108 -53 -170.5t-131 -62.5q-92 0 -142 85v-208q0 -17 11.5 -22.5t38.5 -5.5v-27h-178v27q25 0 36 5.5t11 22.5v712q0 33 -27 33h-28v36l111 15q24 3 24 -19v-166q0 -63 -16 -124l17 22q19 23 32.5 36.5t45.5 29.5t67 16zM283 35
q113 0 113 179q0 80 -28.5 135.5t-83.5 55.5q-50 0 -77 -16t-56 -53v-196q16 -45 49.5 -75t82.5 -30z" />
    <glyph glyph-name="ydieresis" unicode="&#xff;" horiz-adv-x="518" 
d="M167 569q-21 0 -36.5 15.5t-15.5 36.5t15.5 36.5t36.5 15.5t36.5 -15.5t15.5 -36.5t-15.5 -36.5t-36.5 -15.5zM356 569q-21 0 -36.5 15.5t-15.5 36.5t15.5 36.5t36.5 15.5t36.5 -15.5t15.5 -36.5t-15.5 -36.5t-36.5 -15.5zM498 451v-25l-14 -6q-4 -2 -10.5 -4.5l-10.5 -4
t-8.5 -4t-7.5 -6t-5 -8.5l-198 -477q-29 -69 -55 -100t-72 -31q-33 0 -56.5 15t-27.5 40q-10 56 45 56q18 0 25 -9t7 -19.5t6 -19.5t22 -9q5 0 9.5 2t8 4.5t7.5 7.5t6.5 8.5t6 11l5 10.5t5 11.5t4.5 10.5l48 116l-177 372q-10 19 -33 27l-18 6v25h185v-25l-25 -5
q-32 -6 -22 -28l129 -281l111 281q4 10 -3 17.5t-20 10.5l-28 5v25h161z" />
    <glyph glyph-name="Amacron" unicode="&#x100;" horiz-adv-x="702" 
d="M205 757q-20 0 -20 17v11q0 17 20 17h283q20 0 20 -17v-11q0 -17 -20 -17h-283zM592 115q22 -49 38.5 -64t51.5 -23v-28h-218v28q41 7 49.5 18.5t-3.5 30.5l-59 139h-254l-55 -134q-8 -22 6 -34t52 -20v-28h-180v28q36 8 49.5 18.5t27.5 43.5l224 539l30 -8q21 -7 30 -28
zM212 254h223l-115 267z" />
    <glyph glyph-name="amacron" unicode="&#x101;" horiz-adv-x="471" 
d="M67 615q0 17 20 17h283q20 0 20 -17v-11q0 -17 -20 -17h-283q-20 0 -20 17v11zM396 82q0 -26 12.5 -33.5t42.5 -2.5v-31q-37 -23 -70 -23q-22 0 -38.5 26t-21.5 74q-20 -41 -58.5 -71t-90.5 -31q-63 -1 -108 31t-45 90q0 42 22 70.5t89.5 54.5t186.5 42v12
q0 68 -21.5 100.5t-72.5 32.5q-49 0 -69.5 -17.5t-20.5 -67.5q0 -13 -15.5 -20t-34.5 -7q-37 0 -39 39q0 53 53 81.5t130 28.5q82 0 125.5 -43t43.5 -120v-215zM190 35q21 0 39 6.5t32.5 20.5t22.5 22.5t20 27.5t13 21v113q-68 -10 -112.5 -24.5t-65.5 -33t-28 -35.5t-7 -39
q0 -35 23 -57t63 -22z" />
    <glyph glyph-name="Abreve" unicode="&#x102;" horiz-adv-x="702" 
d="M342 727q-57 0 -94 36.5t-40 86.5q0 11 10 11h14q10 0 11 -11q3 -24 29 -42.5t70 -18.5t70.5 18.5t29.5 42.5q1 11 11 11h14q10 0 10 -11q-3 -50 -40 -86.5t-95 -36.5zM592 115q22 -49 38.5 -64t51.5 -23v-28h-218v28q41 7 49.5 18.5t-3.5 30.5l-59 139h-254l-55 -134
q-8 -22 6 -34t52 -20v-28h-180v28q36 8 49.5 18.5t27.5 43.5l224 539l30 -8q21 -7 30 -28zM212 254h223l-115 267z" />
    <glyph glyph-name="abreve" unicode="&#x103;" horiz-adv-x="471" 
d="M224 557q-57 0 -94 36.5t-40 86.5q0 11 10 11h14q10 0 11 -11q3 -24 29 -42.5t70 -18.5t70.5 18.5t29.5 42.5q1 11 11 11h14q10 0 10 -11q-3 -50 -40 -86.5t-95 -36.5zM396 82q0 -26 12.5 -33.5t42.5 -2.5v-31q-37 -23 -70 -23q-22 0 -38.5 26t-21.5 74
q-20 -41 -58.5 -71t-90.5 -31q-63 -1 -108 31t-45 90q0 42 22 70.5t89.5 54.5t186.5 42v12q0 68 -21.5 100.5t-72.5 32.5q-49 0 -69.5 -17.5t-20.5 -67.5q0 -13 -15.5 -20t-34.5 -7q-37 0 -39 39q0 53 53 81.5t130 28.5q82 0 125.5 -43t43.5 -120v-215zM190 35q21 0 39 6.5
t32.5 20.5t22.5 22.5t20 27.5t13 21v113q-68 -10 -112.5 -24.5t-65.5 -33t-28 -35.5t-7 -39q0 -35 23 -57t63 -22z" />
    <glyph glyph-name="Aogonek" unicode="&#x104;" horiz-adv-x="702" 
d="M594 0q-74 -50 -74 -112q0 -24 16.5 -38.5t37.5 -14.5q56 0 80 54h25q-36 -95 -127 -95q-41 0 -73.5 22t-32.5 62q0 42 32.5 73.5t76.5 48.5h-91v28q41 7 49.5 18.5t-3.5 30.5l-59 139h-254l-55 -134q-8 -22 6 -34t52 -20v-28h-180v28q36 8 49.5 18.5t27.5 43.5l224 539
l30 -8q21 -7 30 -28l211 -478q22 -49 38.5 -64t51.5 -23v-28h-88zM212 254h223l-115 267z" />
    <glyph glyph-name="aogonek" unicode="&#x105;" horiz-adv-x="482" 
d="M437 -98h25q-12 -34 -44.5 -66t-82.5 -32q-39 0 -66.5 20t-27.5 63q0 39 32.5 68.5t83.5 45.5q-29 22 -36 91q-20 -41 -58.5 -71t-90.5 -31q-63 -1 -108 31t-45 90q0 42 22 70.5t89.5 54.5t186.5 42v12q0 68 -21.5 100.5t-72.5 32.5q-49 0 -69.5 -17.5t-20.5 -67.5
q0 -13 -15.5 -20t-34.5 -7q-37 0 -39 39q0 53 53 81.5t130 28.5q82 0 125.5 -43t43.5 -120v-215q0 -26 12.5 -33.5t42.5 -2.5v-31q-12 -8 -33 -16v-3q-51 -15 -77 -40.5t-26 -55.5q0 -27 14 -41t36 -14q46 0 72 57zM317 133v113q-68 -10 -112.5 -24.5t-65.5 -33t-28 -35.5
t-7 -39q0 -35 23 -57t63 -22q21 0 39 6.5t32.5 20.5t22.5 22.5t20 27.5t13 21z" />
    <glyph glyph-name="Cacute" unicode="&#x106;" horiz-adv-x="625" 
d="M300 736q-16 -13 -8 -23q8 -11 23 -2l143 77q33 18 11 56q-9 16 -24 17t-32 -15zM552 415q-17 -6 -23 11q-2 6 -14 36q-28 68 -77.5 101t-109.5 33q-84 0 -143.5 -65.5t-59.5 -187.5q0 -135 69 -222t154 -87q57 0 94.5 26.5t69.5 72.5q4 5 8 12l6 10.5t5.5 7.5t6.5 5.5
t7 1.5q6 0 18 -7t15 -12q5 -10 -16 -44q-73 -122 -233 -122q-125 0 -212.5 97.5t-87.5 237.5q0 131 84.5 224t204.5 93q113 0 183 -82q21 0 29 49q3 17 19 17h20l11 -196z" />
    <glyph glyph-name="cacute" unicode="&#x107;" horiz-adv-x="454" 
d="M213 566q-16 -13 -8 -23q8 -11 23 -2l143 77q33 18 11 56q-9 16 -24 17t-32 -15zM411 86q-48 -94 -186 -94q-83 0 -141.5 66t-58.5 168q0 109 59.5 171.5t146.5 62.5q83 0 129 -38t46 -90q0 -14 -11.5 -24.5t-31.5 -10.5q-44 0 -44 32v6q0 25 -1.5 36.5t-8 24.5t-22.5 18
t-44 5q-74 0 -104 -39.5t-30 -133.5q0 -81 43.5 -142.5t113.5 -62.5q21 0 35 2.5t26 11l16 11.5t15.5 19t13.5 18q9 15 20 2z" />
    <glyph glyph-name="Cdotaccent" unicode="&#x10a;" horiz-adv-x="625" 
d="M317 740q-21 0 -37 15.5t-16 37.5q0 21 16 37t37 16q22 0 37.5 -16t15.5 -37q0 -22 -15.5 -37.5t-37.5 -15.5zM552 415q-17 -6 -23 11q-2 6 -14 36q-28 68 -77.5 101t-109.5 33q-84 0 -143.5 -65.5t-59.5 -187.5q0 -135 69 -222t154 -87q57 0 94.5 26.5t69.5 72.5
q4 5 8 12l6 10.5t5.5 7.5t6.5 5.5t7 1.5q6 0 18 -7t15 -12q5 -10 -16 -44q-73 -122 -233 -122q-125 0 -212.5 97.5t-87.5 237.5q0 131 84.5 224t204.5 93q113 0 183 -82q21 0 29 49q3 17 19 17h20l11 -196z" />
    <glyph glyph-name="cdotaccent" unicode="&#x10b;" horiz-adv-x="454" 
d="M230 570q-21 0 -37 15.5t-16 37.5q0 21 16 37t37 16q22 0 37.5 -16t15.5 -37q0 -22 -15.5 -37.5t-37.5 -15.5zM411 86q-48 -94 -186 -94q-83 0 -141.5 66t-58.5 168q0 109 59.5 171.5t146.5 62.5q83 0 129 -38t46 -90q0 -14 -11.5 -24.5t-31.5 -10.5q-44 0 -44 32v6
q0 25 -1.5 36.5t-8 24.5t-22.5 18t-44 5q-74 0 -104 -39.5t-30 -133.5q0 -81 43.5 -142.5t113.5 -62.5q21 0 35 2.5t26 11l16 11.5t15.5 19t13.5 18q9 15 20 2z" />
    <glyph glyph-name="Ccaron" unicode="&#x10c;" horiz-adv-x="625" 
d="M315 703l-149 154h46l103 -74l104 74h45zM552 415q-17 -6 -23 11q-2 6 -14 36q-28 68 -77.5 101t-109.5 33q-84 0 -143.5 -65.5t-59.5 -187.5q0 -135 69 -222t154 -87q57 0 94.5 26.5t69.5 72.5q4 5 8 12l6 10.5t5.5 7.5t6.5 5.5t7 1.5q6 0 18 -7t15 -12q5 -10 -16 -44
q-73 -122 -233 -122q-125 0 -212.5 97.5t-87.5 237.5q0 131 84.5 224t204.5 93q113 0 183 -82q21 0 29 49q3 17 19 17h20l11 -196z" />
    <glyph glyph-name="ccaron" unicode="&#x10d;" horiz-adv-x="454" 
d="M228 533l-149 154h46l103 -74l104 74h45zM411 86q-48 -94 -186 -94q-83 0 -141.5 66t-58.5 168q0 109 59.5 171.5t146.5 62.5q83 0 129 -38t46 -90q0 -14 -11.5 -24.5t-31.5 -10.5q-44 0 -44 32v6q0 25 -1.5 36.5t-8 24.5t-22.5 18t-44 5q-74 0 -104 -39.5t-30 -133.5
q0 -81 43.5 -142.5t113.5 -62.5q21 0 35 2.5t26 11l16 11.5t15.5 19t13.5 18q9 15 20 2z" />
    <glyph glyph-name="Dcaron" unicode="&#x10e;" horiz-adv-x="634" 
d="M298 703l-149 154h46l103 -74l104 74h45zM227 621q181 0 271.5 -71.5t90.5 -238.5q0 -324 -350 -309q-128 8 -224 -2v35q65 14 65 48v459q0 33 -65 49v30h212zM258 49q128 -10 184.5 58t56.5 204q0 127 -58 198.5t-176 71.5h-100v-496q0 -17 7 -23.5t28 -8.5z" />
    <glyph glyph-name="dcaron" unicode="&#x10f;" horiz-adv-x="560" 
d="M515 660q20 0 29.5 -13t1.5 -38l-31 -107q-5 -18 -18 -18q-7 0 -12.5 5.5t-5.5 12.5l3 119q2 39 33 39zM449 93q0 -25 13 -33t43 -3v-33l-63 -24q-24 -7 -45.5 17t-27.5 75q-11 -20 -17.5 -29.5t-24 -30t-42.5 -30.5t-56 -10q-77 0 -135.5 62.5t-58.5 162.5q0 99 51 169
t131 70q14 0 26.5 -1t23.5 -4.5t19.5 -5.5t18.5 -8t14.5 -8t14.5 -10t12 -10t12 -11t11 -10v171q0 24 -13 34.5t-42 9.5v34l106 19q15 2 22 -5t8 -19.5t0 -32.5q-1 -11 -1 -17v-489zM369 144v193q-53 79 -132 79q-56 0 -88 -52t-32 -134q0 -76 39 -131.5t94 -55.5
q81 0 119 101z" />
    <glyph glyph-name="Dcroat" unicode="&#x110;" horiz-adv-x="638" 
d="M231 621q181 0 271.5 -71.5t90.5 -238.5q0 -324 -350 -309q-128 8 -224 -2v35q65 14 65 48v208h-69v40h69v211q0 33 -65 49v30h212zM262 49q128 -10 184.5 58t56.5 204q0 127 -58 198.5t-176 71.5h-100v-250h116v-40h-116v-206q0 -17 7 -23.5t28 -8.5z" />
    <glyph glyph-name="dcroat" unicode="&#x111;" horiz-adv-x="552" 
d="M508 519q20 0 20 -17v-11q0 -17 -20 -17h-59v-381q0 -25 13 -33t43 -3v-33l-63 -24q-24 -7 -45.5 17t-27.5 75q-11 -20 -17.5 -29.5t-24 -30t-42.5 -30.5t-56 -10q-77 0 -135.5 62.5t-58.5 162.5q0 99 51 169t131 70q14 0 26.5 -1t23.5 -4.5t19.5 -5.5t18.5 -8t14.5 -8
t14.5 -10t12 -10t12 -11t11 -10v86h-144q-20 0 -20 17v11q0 17 20 17h144v40q0 24 -13 34.5t-42 9.5v34l106 19q15 2 22 -5t8 -19.5t0 -32.5q-1 -11 -1 -17v-63h59zM369 144v193q-53 79 -132 79q-56 0 -88 -52t-32 -134q0 -76 39 -131.5t94 -55.5q81 0 119 101z" />
    <glyph glyph-name="Emacron" unicode="&#x112;" horiz-adv-x="572" 
d="M117 785q0 17 20 17h283q20 0 20 -17v-11q0 -17 -20 -17h-283q-20 0 -20 17v11zM537 116q-17 -35 -32 -93q-6 -23 -30 -23h-440v29q38 12 45 21q8 9 8 28v468q0 13 -2 20.5t-12.5 13.5t-14.5 7.5t-24 7.5v26h437q10 0 13.5 -3.5t3.5 -14.5v-100h-29l-15 33q-19 41 -80 41
h-187v-239h181q7 0 12.5 1t10 4.5l7 5.5t6.5 9.5t5 9.5t5 12.5t5 12.5h18v-153h-18q-2 4 -6 14.5t-5.5 14t-6 11t-8.5 10t-10.5 5t-14.5 2.5h-181v-255l229 2q11 0 19.5 1.5t13.5 3t10.5 6t7.5 7t7.5 10.5t8.5 11l26 33h37z" />
    <glyph glyph-name="emacron" unicode="&#x113;" 
d="M75 615q0 17 20 17h283q20 0 20 -17v-11q0 -17 -20 -17h-283q-20 0 -20 17v11zM433 275q0 -52 -56 -52h-259q0 -82 43.5 -134.5t102.5 -52.5q76 0 131 74l27 -35q-18 -24 -33 -38.5t-53 -30.5t-88 -16q-93 0 -155.5 68t-62.5 172q0 107 59.5 167.5t149.5 60.5
q78 0 136 -51t58 -132zM349 264q1 69 -28 112.5t-82 43.5q-56 0 -88.5 -43.5t-32.5 -112.5h231z" />
    <glyph glyph-name="Edotaccent" unicode="&#x116;" horiz-adv-x="572" 
d="M267 740q-21 0 -37 15.5t-16 37.5q0 21 16 37t37 16q22 0 37.5 -16t15.5 -37q0 -22 -15.5 -37.5t-37.5 -15.5zM537 116q-17 -35 -32 -93q-6 -23 -30 -23h-440v29q38 12 45 21q8 9 8 28v468q0 13 -2 20.5t-12.5 13.5t-14.5 7.5t-24 7.5v26h437q10 0 13.5 -3.5t3.5 -14.5
v-100h-29l-15 33q-19 41 -80 41h-187v-239h181q7 0 12.5 1t10 4.5l7 5.5t6.5 9.5t5 9.5t5 12.5t5 12.5h18v-153h-18q-2 4 -6 14.5t-5.5 14t-6 11t-8.5 10t-10.5 5t-14.5 2.5h-181v-255l229 2q11 0 19.5 1.5t13.5 3t10.5 6t7.5 7t7.5 10.5t8.5 11l26 33h37z" />
    <glyph glyph-name="edotaccent" unicode="&#x117;" 
d="M225 570q-21 0 -37 15.5t-16 37.5q0 21 16 37t37 16q22 0 37.5 -16t15.5 -37q0 -22 -15.5 -37.5t-37.5 -15.5zM433 275q0 -52 -56 -52h-259q0 -82 43.5 -134.5t102.5 -52.5q76 0 131 74l27 -35q-18 -24 -33 -38.5t-53 -30.5t-88 -16q-93 0 -155.5 68t-62.5 172
q0 107 59.5 167.5t149.5 60.5q78 0 136 -51t58 -132zM349 264q1 69 -28 112.5t-82 43.5q-56 0 -88.5 -43.5t-32.5 -112.5h231z" />
    <glyph glyph-name="Eogonek" unicode="&#x118;" horiz-adv-x="572" 
d="M420 -165q56 0 80 54h25q-36 -95 -127 -95q-41 0 -73.5 22t-32.5 62q0 42 32.5 73.5t76.5 48.5h-366v29q38 12 45 21q8 9 8 28v468q0 13 -2 20.5t-12.5 13.5t-14.5 7.5t-24 7.5v26h437q10 0 13.5 -3.5t3.5 -14.5v-100h-29l-15 33q-19 41 -80 41h-187v-239h181q7 0 12.5 1
t10 4.5l7 5.5t6.5 9.5t5 9.5t5 12.5t5 12.5h18v-153h-18q-2 4 -6 14.5t-5.5 14t-6 11t-8.5 10t-10.5 5t-14.5 2.5h-181v-255l229 2q11 0 19.5 1.5t13.5 3t10.5 6t7.5 7t7.5 10.5t8.5 11l26 33h37q-17 -35 -32 -93q-6 -23 -30 -23h-35q-74 -50 -74 -112q0 -24 16.5 -38.5
t37.5 -14.5z" />
    <glyph glyph-name="eogonek" unicode="&#x119;" 
d="M264 36q76 0 131 74l27 -35q-39 -51 -84 -69q-94 -50 -94 -107q0 -27 14 -40.5t37 -13.5q45 0 71 57h26q-8 -21 -21 -40.5t-42 -38.5t-66 -19q-36 0 -64 20t-28 62q0 61 79 104h-2q-93 0 -155.5 68t-62.5 172q0 107 59.5 167.5t149.5 60.5q78 0 136 -51t58 -132
q0 -52 -56 -52h-259q0 -82 43.5 -134.5t102.5 -52.5zM239 420q-56 0 -88.5 -43.5t-32.5 -112.5h231q1 69 -28 112.5t-82 43.5z" />
    <glyph glyph-name="Ecaron" unicode="&#x11a;" horiz-adv-x="572" 
d="M265 703l-149 154h46l103 -74l104 74h45zM537 116q-17 -35 -32 -93q-6 -23 -30 -23h-440v29q38 12 45 21q8 9 8 28v468q0 13 -2 20.5t-12.5 13.5t-14.5 7.5t-24 7.5v26h437q10 0 13.5 -3.5t3.5 -14.5v-100h-29l-15 33q-19 41 -80 41h-187v-239h181q7 0 12.5 1t10 4.5
l7 5.5t6.5 9.5t5 9.5t5 12.5t5 12.5h18v-153h-18q-2 4 -6 14.5t-5.5 14t-6 11t-8.5 10t-10.5 5t-14.5 2.5h-181v-255l229 2q11 0 19.5 1.5t13.5 3t10.5 6t7.5 7t7.5 10.5t8.5 11l26 33h37z" />
    <glyph glyph-name="ecaron" unicode="&#x11b;" 
d="M223 533l-149 154h46l103 -74l104 74h45zM433 275q0 -52 -56 -52h-259q0 -82 43.5 -134.5t102.5 -52.5q76 0 131 74l27 -35q-18 -24 -33 -38.5t-53 -30.5t-88 -16q-93 0 -155.5 68t-62.5 172q0 107 59.5 167.5t149.5 60.5q78 0 136 -51t58 -132zM349 264q1 69 -28 112.5
t-82 43.5q-56 0 -88.5 -43.5t-32.5 -112.5h231z" />
    <glyph glyph-name="Gbreve" unicode="&#x11e;" horiz-adv-x="675" 
d="M323 727q-57 0 -94 36.5t-40 86.5q0 11 10 11h14q10 0 11 -11q3 -24 29 -42.5t70 -18.5t70.5 18.5t29.5 42.5q1 11 11 11h14q10 0 10 -11q-3 -50 -40 -86.5t-95 -36.5zM529 408q-3 5 -9 20t-10 26q-30 70 -81 105.5t-113 35.5q-82 0 -138 -65.5t-56 -204.5
q0 -141 58.5 -218.5t145.5 -77.5q61 0 114 34.5t53 66.5v90q0 32 -32 32h-45v43l224 1v-44h-31q-32 0 -32 -32v-215q0 -10 -14 -12t-16 7l-24 78q-92 -88 -197 -88q-130 0 -215.5 91.5t-85.5 238.5q0 136 83.5 226.5t207.5 90.5q116 0 183 -90q24 0 29 81h36l14 -200z" />
    <glyph glyph-name="gbreve" unicode="&#x11f;" horiz-adv-x="533" 
d="M270 557q-57 0 -94 36.5t-40 86.5q0 11 10 11h14q10 0 11 -11q3 -24 29 -42.5t70 -18.5t70.5 18.5t29.5 42.5q1 11 11 11h14q10 0 10 -11q-3 -50 -40 -86.5t-95 -36.5zM469 458q15 0 27 -11t12 -28q0 -20 -11 -31t-26 -6q-25 7 -36.5 -7.5t-11.5 -64.5q0 -62 -47.5 -103
t-135.5 -41q-34 0 -69 11q-55 5 -68 -23q-11 -24 23 -45q20 -13 53 -18l102 -17q107 -16 150 -43.5t43 -90.5q0 -74 -64.5 -117t-174.5 -43q-97 0 -153.5 33.5t-56.5 93.5q0 49 33.5 79t80.5 41q-83 15 -108 71q-21 45 11 77q29 30 86 23q-67 45 -67 117q0 65 45 104t139 39
q53 0 94 -21t51 -47q6 68 79 68zM241 203q101 0 101 113q0 23 -3 38.5t-12.5 32t-31 25t-55.5 8.5q-97 0 -97 -104q0 -16 1 -28t6.5 -29.5t15.5 -28.5t29 -19t46 -8zM174 23q-32 -8 -48 -41.5t-16 -67.5q0 -99 125 -99q92 0 127 23t35 88q0 37 -20.5 52.5t-71.5 24.5z" />
    <glyph glyph-name="Gdotaccent" unicode="&#x120;" horiz-adv-x="675" 
d="M316 740q-21 0 -37 15.5t-16 37.5q0 21 16 37t37 16q22 0 37.5 -16t15.5 -37q0 -22 -15.5 -37.5t-37.5 -15.5zM529 408q-3 5 -9 20t-10 26q-30 70 -81 105.5t-113 35.5q-82 0 -138 -65.5t-56 -204.5q0 -141 58.5 -218.5t145.5 -77.5q61 0 114 34.5t53 66.5v90
q0 32 -32 32h-45v43l224 1v-44h-31q-32 0 -32 -32v-215q0 -10 -14 -12t-16 7l-24 78q-92 -88 -197 -88q-130 0 -215.5 91.5t-85.5 238.5q0 136 83.5 226.5t207.5 90.5q116 0 183 -90q24 0 29 81h36l14 -200z" />
    <glyph glyph-name="gdotaccent" unicode="&#x121;" horiz-adv-x="533" 
d="M263 570q-21 0 -37 15.5t-16 37.5q0 21 16 37t37 16q22 0 37.5 -16t15.5 -37q0 -22 -15.5 -37.5t-37.5 -15.5zM469 458q15 0 27 -11t12 -28q0 -20 -11 -31t-26 -6q-25 7 -36.5 -7.5t-11.5 -64.5q0 -62 -47.5 -103t-135.5 -41q-34 0 -69 11q-55 5 -68 -23q-11 -24 23 -45
q20 -13 53 -18l102 -17q107 -16 150 -43.5t43 -90.5q0 -74 -64.5 -117t-174.5 -43q-97 0 -153.5 33.5t-56.5 93.5q0 49 33.5 79t80.5 41q-83 15 -108 71q-21 45 11 77q29 30 86 23q-67 45 -67 117q0 65 45 104t139 39q53 0 94 -21t51 -47q6 68 79 68zM241 203q101 0 101 113
q0 23 -3 38.5t-12.5 32t-31 25t-55.5 8.5q-97 0 -97 -104q0 -16 1 -28t6.5 -29.5t15.5 -28.5t29 -19t46 -8zM174 23q-32 -8 -48 -41.5t-16 -67.5q0 -99 125 -99q92 0 127 23t35 88q0 37 -20.5 52.5t-71.5 24.5z" />
    <glyph glyph-name="Gcommaaccent" unicode="&#x122;" horiz-adv-x="675" 
d="M529 408q-3 5 -9 20t-10 26q-30 70 -81 105.5t-113 35.5q-82 0 -138 -65.5t-56 -204.5q0 -141 58.5 -218.5t145.5 -77.5q61 0 114 34.5t53 66.5v90q0 32 -32 32h-45v43l224 1v-44h-31q-32 0 -32 -32v-215q0 -10 -14 -12t-16 7l-24 78q-92 -88 -197 -88
q-130 0 -215.5 91.5t-85.5 238.5q0 136 83.5 226.5t207.5 90.5q116 0 183 -90q24 0 29 81h36l14 -200zM389 -223q-11 -38 -49 -71q-8 -6 -16 2l-13 14q26 28 33 45q8 24 3 34q-10 -3 -25 -2q-20 3 -32.5 20t-9.5 38q3 23 20.5 37t40.5 11q41 -6 51 -53q7 -39 -3 -75z" />
    <glyph glyph-name="gcommaaccent" unicode="&#x123;" horiz-adv-x="533" 
d="M236 548q-41 6 -51 53q-7 40 3 75q11 39 48 72q9 5 16 -2l14 -14q-25 -27 -33 -46q-9 -23 -3 -34q10 3 25 2q20 -3 32 -19.5t10 -38.5q-3 -23 -21 -37t-40 -11zM469 458q15 0 27 -11t12 -28q0 -20 -11 -31t-26 -6q-25 7 -36.5 -7.5t-11.5 -64.5q0 -62 -47.5 -103
t-135.5 -41q-34 0 -69 11q-55 5 -68 -23q-11 -24 23 -45q20 -13 53 -18l102 -17q107 -16 150 -43.5t43 -90.5q0 -74 -64.5 -117t-174.5 -43q-97 0 -153.5 33.5t-56.5 93.5q0 49 33.5 79t80.5 41q-83 15 -108 71q-21 45 11 77q29 30 86 23q-67 45 -67 117q0 65 45 104t139 39
q53 0 94 -21t51 -47q6 68 79 68zM241 203q101 0 101 113q0 23 -3 38.5t-12.5 32t-31 25t-55.5 8.5q-97 0 -97 -104q0 -16 1 -28t6.5 -29.5t15.5 -28.5t29 -19t46 -8zM174 23q-32 -8 -48 -41.5t-16 -67.5q0 -99 125 -99q92 0 127 23t35 88q0 37 -20.5 52.5t-71.5 24.5z" />
    <glyph glyph-name="Hbar" unicode="&#x126;" horiz-adv-x="664" 
d="M643 595q-38 -12 -45 -21q-8 -9 -8 -28v-474q0 -6 0.5 -11t2.5 -8.5t3 -6.5t5 -5.5t5.5 -4t7.5 -4t8 -3t10.5 -3t10.5 -3.5v-23h-195v23q2 1 9.5 3t9.5 3t7.5 3t7 3t5.5 3t5 4t3.5 5.5t3 7t1 8t0.5 9.5v222h-328v-222q0 -5 0.5 -9.5t1 -8t3 -7t3.5 -5.5t5 -4t5.5 -3t7 -3
t7.5 -3t9.5 -3t9.5 -3v-23h-195v23q2 1 10.5 3.5t10.5 3t8 3t7.5 4t5.5 4t5 5.5t3 6.5t2.5 8.5t0.5 11v474q0 13 -2 20.5t-12.5 13.5t-14.5 7.5t-24 7.5v26h195v-26q-23 -7 -30.5 -10t-14.5 -12.5t-7 -26.5v-111h328v111q0 17 -7 26.5t-14.5 12.5t-30.5 10v26h195v-26z
M172 336h328v47h-328v-47z" />
    <glyph glyph-name="hbar" unicode="&#x127;" horiz-adv-x="548" 
d="M474 84q0 -28 12.5 -40.5t47.5 -4.5l-13 -31q-18 -8 -54 -8q-34 0 -55 21t-21 51v220q0 117 -81 117q-32 0 -66.5 -17.5t-53 -34t-32.5 -32.5v-272q0 -17 11.5 -22.5t38.5 -5.5v-25h-182v25q25 0 36 5.5t11 22.5v451h-57v41h57v17q0 47 -59 39v36l110 20q6 -1 10.5 0.5
t8 -2t5.5 -5t3.5 -7.5t2 -9.5t1 -10.5t0 -12t-0.5 -13.5v-14.5v-38h189v-41h-189v-124l-4 -30q21 37 69 73.5t113 36.5q74 0 108 -38t34 -136v-202z" />
    <glyph glyph-name="Imacron" unicode="&#x12a;" horiz-adv-x="274" 
d="M-21 785q0 17 20 17h283q20 0 20 -17v-11q0 -17 -20 -17h-283q-20 0 -20 17v11zM180 72q0 -7 1 -12t2.5 -9t5.5 -7.5t6 -5.5t8.5 -4.5l9 -3.5t11.5 -3.5t12 -3.5v-23h-196v23q3 1 12 3.5t11.5 3.5l9 3.5t8.5 4.5t6 5.5t5 7.5t2 9t1 12v474q0 5 -0.5 9.5t-1.5 8t-3.5 6.5
t-3.5 5t-5.5 4.5t-6 3.5t-7.5 3t-8 3t-9.5 3t-9.5 3v26h196v-26l-11 -3.5t-10 -3t-8.5 -3t-8.5 -4l-6 -4.5t-5.5 -5.5t-3.5 -6.5t-2.5 -8.5t-0.5 -10.5v-474z" />
    <glyph glyph-name="imacron" unicode="&#x12b;" horiz-adv-x="244" 
d="M-48 615q0 17 20 17h283q20 0 20 -17v-11q0 -17 -20 -17h-283q-20 0 -20 17v11zM161 53q0 -28 43 -28v-25h-165v25q44 0 44 28v325q0 17 -6.5 24t-21.5 7h-20v38l94 9q32 3 32 -31v-372z" />
    <glyph glyph-name="Iogonek" unicode="&#x12e;" horiz-adv-x="274" 
d="M219 -111h25q-36 -95 -127 -95q-41 0 -73.5 22t-32.5 62q0 42 32.5 73.5t76.5 48.5h-80v23q3 1 12 3.5t11.5 3.5l9 3.5t8.5 4.5t6 5.5t5 7.5t2 9t1 12v474q0 5 -0.5 9.5t-1.5 8t-3.5 6.5t-3.5 5t-5.5 4.5t-6 3.5t-7.5 3t-8 3t-9.5 3t-9.5 3v26h196v-26l-11 -3.5t-10 -3
t-8.5 -3t-8.5 -4l-6 -4.5t-5.5 -5.5t-3.5 -6.5t-2.5 -8.5t-0.5 -10.5v-474q0 -7 1 -12t2.5 -9t5.5 -7.5t6 -5.5t8.5 -4.5l9 -3.5t11.5 -3.5t12 -3.5v-23h-77q-74 -50 -74 -112q0 -24 16.5 -38.5t37.5 -14.5q56 0 80 54z" />
    <glyph glyph-name="iogonek" unicode="&#x12f;" horiz-adv-x="244" 
d="M102 570q-21 0 -37 15.5t-16 37.5q0 21 16 37t37 16q22 0 37.5 -16t15.5 -37q0 -22 -15.5 -37.5t-37.5 -15.5zM199 -111h25q-36 -95 -127 -95q-41 0 -73.5 22t-32.5 62q0 42 32.5 73.5t76.5 48.5h-61v25q44 0 44 28v325q0 17 -6.5 24t-21.5 7h-20v38l94 9q32 3 32 -31
v-372q0 -28 43 -28v-25h-65q-74 -50 -74 -112q0 -24 16.5 -38.5t37.5 -14.5q56 0 80 54z" />
    <glyph glyph-name="Idotaccent" unicode="&#x130;" horiz-adv-x="274" 
d="M129 740q-21 0 -37 15.5t-16 37.5q0 21 16 37t37 16q22 0 37.5 -16t15.5 -37q0 -22 -15.5 -37.5t-37.5 -15.5zM180 72q0 -7 1 -12t2.5 -9t5.5 -7.5t6 -5.5t8.5 -4.5l9 -3.5t11.5 -3.5t12 -3.5v-23h-196v23q3 1 12 3.5t11.5 3.5l9 3.5t8.5 4.5t6 5.5t5 7.5t2 9t1 12v474
q0 5 -0.5 9.5t-1.5 8t-3.5 6.5t-3.5 5t-5.5 4.5t-6 3.5t-7.5 3t-8 3t-9.5 3t-9.5 3v26h196v-26l-11 -3.5t-10 -3t-8.5 -3t-8.5 -4l-6 -4.5t-5.5 -5.5t-3.5 -6.5t-2.5 -8.5t-0.5 -10.5v-474z" />
    <glyph glyph-name="dotlessi" unicode="&#x131;" horiz-adv-x="244" 
d="M161 53q0 -28 43 -28v-25h-165v25q44 0 44 28v325q0 17 -6.5 24t-21.5 7h-20v38l94 9q32 3 32 -31v-372z" />
    <glyph glyph-name="IJ" unicode="&#x132;" horiz-adv-x="609" 
d="M180 72q0 -7 1 -12t2.5 -9t5.5 -7.5t6 -5.5t8.5 -4.5l9 -3.5t11.5 -3.5t12 -3.5v-23h-196v23q3 1 12 3.5t11.5 3.5l9 3.5t8.5 4.5t6 5.5t5 7.5t2 9t1 12v474q0 5 -0.5 9.5t-1.5 8t-3.5 6.5t-3.5 5t-5.5 4.5t-6 3.5t-7.5 3t-8 3t-9.5 3t-9.5 3v26h196v-26l-11 -3.5t-10 -3
t-8.5 -3t-8.5 -4l-6 -4.5t-5.5 -5.5t-3.5 -6.5t-2.5 -8.5t-0.5 -10.5v-474zM569 621v-26q-2 -1 -9.5 -3t-9.5 -3t-8 -3t-7.5 -3t-6 -3.5t-5.5 -4.5t-3.5 -5t-3.5 -6.5t-1.5 -8t-0.5 -9.5v-567q0 -143 -136 -143q-51 0 -80 25.5t-29 55.5q0 52 49 52q41 0 41 -46
q0 -20 9 -36.5t27 -16.5q34 0 34 57v619q0 6 -0.5 10.5t-2.5 8.5t-3.5 6.5t-5.5 5.5l-6 4.5t-8.5 4t-8.5 3t-10 3l-11 3.5v26h196z" />
    <glyph glyph-name="ij" unicode="&#x133;" horiz-adv-x="469" 
d="M125 572q-20 0 -34.5 14.5t-14.5 34.5q0 19 14.5 33.5t34.5 14.5t34.5 -14.5t14.5 -33.5q0 -20 -14.5 -34.5t-34.5 -14.5zM361 572q-20 0 -34.5 14.5t-14.5 34.5q0 19 14.5 33.5t34.5 14.5t34.5 -14.5t14.5 -33.5q0 -20 -14.5 -34.5t-34.5 -14.5zM167 53q0 -28 43 -28
v-25h-165v25q44 0 44 28v325q0 17 -6.5 24t-21.5 7h-20v38l94 9q32 3 32 -31v-372zM371 456q32 3 32 -31v-499q0 -100 -70 -129q-47 -19 -86.5 -7t-46.5 45q-7 39 18 51q13 7 26 5.5t19 -9.5q2 -1 8.5 -15.5t14.5 -25.5t16 -8q24 10 24 50v495q0 17 -6.5 24t-21.5 7h-20v38z
" />
    <glyph glyph-name="Kcommaaccent" unicode="&#x136;" horiz-adv-x="633" 
d="M476 103q28 -31 52 -48.5t35 -21t35 -9.5v-24h-222v24q38 11 41 16q2 5 -4 12l-214 239h-39v-219q0 -7 1 -12t2.5 -9t5.5 -7.5t6 -5.5t8.5 -4.5l9 -3.5t11.5 -3.5t12 -3.5v-23h-196v23q3 1 12 3.5t11.5 3.5l9 3.5t8.5 4.5t6 5.5t5 7.5t2 9t1 12v474q0 5 -0.5 9.5t-1.5 8
t-3.5 6.5t-3.5 5t-5.5 4.5t-6 3.5t-7.5 3t-8 3t-9.5 3t-9.5 3v26h196v-26l-11 -3.5t-10 -3t-8.5 -3t-8.5 -4l-6 -4.5t-5.5 -5.5t-3.5 -6.5t-2.5 -8.5t-0.5 -10.5v-207h19q28 0 46 21l193 206q5 7 6 12t-6 8t-13.5 5t-15.5 3v27h165v-27q-57 -7 -76 -27l-215 -229zM290 -95
q41 -6 51 -53q7 -39 -3 -75q-11 -38 -49 -71q-8 -6 -16 2l-13 14q26 28 33 45q8 24 3 34q-10 -3 -25 -2q-20 3 -32.5 20t-9.5 38q3 23 20.5 37t40.5 11z" />
    <glyph glyph-name="kcommaaccent" unicode="&#x137;" horiz-adv-x="519" 
d="M433 49q16 -16 25.5 -20.5t30.5 -4.5v-24h-166v24q35 0 32 13q-1 3 -4 6l-196 196v-187q0 -28 32 -28v-24h-148v24q36 0 36 28v536q0 33 -28 33h-27v31l111 15q24 3 24 -19v-391l175 138q17 15 0 23q-9 4 -28 4v29h159v-29q-38 0 -61 -20l-175 -138zM267 -95
q41 -6 51 -53q7 -39 -3 -75q-11 -38 -49 -71q-8 -6 -16 2l-13 14q26 28 33 45q8 24 3 34q-10 -3 -25 -2q-20 3 -32.5 20t-9.5 38q3 23 20.5 37t40.5 11z" />
    <glyph glyph-name="Lacute" unicode="&#x139;" horiz-adv-x="551" 
d="M82 736q-16 -13 -8 -23q8 -11 23 -2l143 77q33 18 11 56q-9 16 -24 17t-32 -15zM516 113l-24 -90q-8 -23 -30 -23h-448v23q3 1 12 3.5t11.5 3.5l9 3.5t8.5 4.5t6 5.5t5 7.5t2 9t1 12v474q0 5 -0.5 9.5t-1.5 8t-3.5 6.5t-3.5 5t-5.5 4.5t-6 3.5t-7.5 3t-8 3t-9 3t-10 3v26
h195v-26q-2 -1 -9.5 -3t-9.5 -3t-8 -3t-7.5 -3t-6 -3.5t-5.5 -4.5t-3.5 -5t-3.5 -6.5t-1.5 -8t-0.5 -9.5v-464q1 -21 10.5 -31t24.5 -9l193 8q26 1 37.5 2.5t23.5 8.5t19 20l17 32h37z" />
    <glyph glyph-name="lacute" unicode="&#x13a;" horiz-adv-x="233" 
d="M46 736q-16 -13 -8 -23q8 -11 23 -2l143 77q33 18 11 56q-9 16 -24 17t-32 -15zM153 85q0 -27 13 -38t47 -3l-11 -37q-35 -15 -51 -15q-36 0 -56.5 24.5t-20.5 64.5v478q0 47 -59 39v39l109 19q6 0 10.5 0.5t8 -2.5t5.5 -4.5t3.5 -7t2 -9.5t0.5 -11t-0.5 -12t-0.5 -13.5
v-14.5v-497z" />
    <glyph glyph-name="Lcommaaccent" unicode="&#x13b;" horiz-adv-x="551" 
d="M516 113l-24 -90q-8 -23 -30 -23h-448v23q3 1 12 3.5t11.5 3.5l9 3.5t8.5 4.5t6 5.5t5 7.5t2 9t1 12v474q0 5 -0.5 9.5t-1.5 8t-3.5 6.5t-3.5 5t-5.5 4.5t-6 3.5t-7.5 3t-8 3t-9 3t-10 3v26h195v-26q-2 -1 -9.5 -3t-9.5 -3t-8 -3t-7.5 -3t-6 -3.5t-5.5 -4.5t-3.5 -5
t-3.5 -6.5t-1.5 -8t-0.5 -9.5v-464q1 -21 10.5 -31t24.5 -9l193 8q26 1 37.5 2.5t23.5 8.5t19 20l17 32h37zM328 -223q-11 -38 -49 -71q-8 -6 -16 2l-13 14q26 28 33 45q8 24 3 34q-10 -3 -25 -2q-20 3 -32.5 20t-9.5 38q3 23 20.5 37t40.5 11q41 -6 51 -53q7 -39 -3 -75z
" />
    <glyph glyph-name="lcommaaccent" unicode="&#x13c;" horiz-adv-x="233" 
d="M153 85q0 -27 13 -38t47 -3l-11 -37q-35 -15 -51 -15q-36 0 -56.5 24.5t-20.5 64.5v478q0 47 -59 39v39l109 19q6 0 10.5 0.5t8 -2.5t5.5 -4.5t3.5 -7t2 -9.5t0.5 -11t-0.5 -12t-0.5 -13.5v-14.5v-497zM182 -223q-11 -38 -49 -71q-8 -6 -16 2l-13 14q26 28 33 45
q8 24 3 34q-10 -3 -25 -2q-20 3 -32.5 20t-9.5 38q3 23 20.5 37t40.5 11q41 -6 51 -53q7 -39 -3 -75z" />
    <glyph glyph-name="Lcaron" unicode="&#x13d;" horiz-adv-x="551" 
d="M351 492q-11 -38 -48 -72q-9 -6 -16 2l-14 14q25 25 33 45q9 24 3 35q-12 -4 -25 -3q-20 3 -32 20t-10 38q3 23 21 37.5t40 11.5q20 -3 33.5 -18.5t17.5 -34.5q7 -40 -3 -75zM516 113l-24 -90q-8 -23 -30 -23h-448v23q3 1 12 3.5t11.5 3.5l9 3.5t8.5 4.5t6 5.5t5 7.5t2 9
t1 12v474q0 5 -0.5 9.5t-1.5 8t-3.5 6.5t-3.5 5t-5.5 4.5t-6 3.5t-7.5 3t-8 3t-9 3t-10 3v26h195v-26q-2 -1 -9.5 -3t-9.5 -3t-8 -3t-7.5 -3t-6 -3.5t-5.5 -4.5t-3.5 -5t-3.5 -6.5t-1.5 -8t-0.5 -9.5v-464q1 -21 10.5 -31t24.5 -9l193 8q26 1 37.5 2.5t23.5 8.5t19 20l17 32
h37z" />
    <glyph glyph-name="lcaron" unicode="&#x13e;" horiz-adv-x="267" 
d="M186 502q0 -7 5.5 -12.5t12.5 -5.5q13 0 18 18l31 107q8 25 -1.5 38t-29.5 13q-31 0 -33 -39zM153 85q0 -27 13 -38t47 -3l-11 -37q-35 -15 -51 -15q-36 0 -56.5 24.5t-20.5 64.5v478q0 47 -59 39v39l109 19q6 0 10.5 0.5t8 -2.5t5.5 -4.5t3.5 -7t2 -9.5t0.5 -11
t-0.5 -12t-0.5 -13.5v-14.5v-497z" />
    <glyph glyph-name="Ldot" unicode="&#x13f;" horiz-adv-x="551" 
d="M516 113l-24 -90q-8 -23 -30 -23h-448v23q3 1 12 3.5t11.5 3.5l9 3.5t8.5 4.5t6 5.5t5 7.5t2 9t1 12v474q0 5 -0.5 9.5t-1.5 8t-3.5 6.5t-3.5 5t-5.5 4.5t-6 3.5t-7.5 3t-8 3t-9 3t-10 3v26h195v-26q-2 -1 -9.5 -3t-9.5 -3t-8 -3t-7.5 -3t-6 -3.5t-5.5 -4.5t-3.5 -5
t-3.5 -6.5t-1.5 -8t-0.5 -9.5v-464q1 -21 10.5 -31t24.5 -9l193 8q26 1 37.5 2.5t23.5 8.5t19 20l17 32h37zM350 340q-22 0 -38 16.5t-16 38.5t16 38.5t38 16.5t38.5 -16t16.5 -39t-16.5 -39t-38.5 -16z" />
    <glyph glyph-name="ldot" unicode="&#x140;" horiz-adv-x="352" 
d="M153 85q0 -27 13 -38t47 -3l-11 -37q-35 -15 -51 -15q-36 0 -56.5 24.5t-20.5 64.5v478q0 47 -59 39v39l109 19q6 0 10.5 0.5t8 -2.5t5.5 -4.5t3.5 -7t2 -9.5t0.5 -11t-0.5 -12t-0.5 -13.5v-14.5v-497zM279 338q-22 0 -38 16.5t-16 38.5t16 38.5t38 16.5q23 0 39 -16
t16 -39t-16 -39t-39 -16z" />
    <glyph glyph-name="Lslash" unicode="&#x141;" horiz-adv-x="589" 
d="M518 113h36l-24 -90q-6 -23 -30 -23h-447v23q3 1 12 3.5t11.5 3.5l9 3.5t8.5 4.5t6 5.5t5 7.5t2 9t1 12v179l-94 -29v62l94 29v233q0 5 -0.5 9.5t-1.5 8t-3.5 6.5t-3.5 5t-5.5 4.5t-6 3.5t-7.5 3t-8 3t-9 3t-10 3v26h195v-26q-2 -1 -9.5 -3t-9.5 -3t-8 -3t-7.5 -3
t-6 -3.5t-5.5 -4.5t-3.5 -5t-3.5 -6.5t-1.5 -8t-0.5 -9.5v-207l223 69v-62l-223 -69v-195q1 -42 34 -40l194 8q37 2 53 7t27 24z" />
    <glyph glyph-name="lslash" unicode="&#x142;" horiz-adv-x="295" 
d="M285 327l-101 -32v-210q0 -27 13 -38t47 -3l-11 -37q-35 -15 -51 -15q-36 0 -56.5 24.5t-20.5 64.5v190l-95 -29v62l95 29v226q0 47 -59 39v39l109 19q6 0 10.5 0.5t8 -2.5t5.5 -4.5t3.5 -7t2 -9.5t0.5 -11t-0.5 -12t-0.5 -13.5v-14.5v-225l101 32v-62z" />
    <glyph glyph-name="Nacute" unicode="&#x143;" horiz-adv-x="654" 
d="M300 736q-16 -13 -8 -23q8 -11 23 -2l143 77q33 18 11 56q-9 16 -24 17t-32 -15zM629 621v-23q-58 -16 -58 -49v-549q0 -5 -3 -6.5t-7.5 0t-8.5 6.5l-423 513v-440q0 -33 57 -49v-24h-161v24q58 16 58 49v476q0 33 -58 49v23h136l356 -450v378q0 33 -58 49v23h170z" />
    <glyph glyph-name="nacute" unicode="&#x144;" horiz-adv-x="549" 
d="M238 566q-16 -13 -8 -23q8 -11 23 -2l143 77q33 18 11 56q-9 16 -24 17t-32 -15zM467 84q0 -28 13 -39.5t49 -3.5l-13 -31q-28 -10 -54 -10q-34 0 -55 21t-21 51v220q0 57 -18.5 87t-63.5 30q-66 0 -139 -84v-272q0 -17 11.5 -22.5t38.5 -5.5v-25h-178v25q25 0 36 5.5
t11 22.5v312q0 47 -59 39v38l111 17q25 3 28.5 -19t-3.5 -55l-4 -35q64 110 169 110q74 0 107 -38t34 -136v-202z" />
    <glyph glyph-name="Ncommaaccent" unicode="&#x145;" horiz-adv-x="654" 
d="M629 621v-23q-58 -16 -58 -49v-549q0 -5 -3 -6.5t-7.5 0t-8.5 6.5l-423 513v-440q0 -33 57 -49v-24h-161v24q58 16 58 49v476q0 33 -58 49v23h136l356 -450v378q0 33 -58 49v23h170zM395 -223q-11 -38 -49 -71q-8 -6 -16 2l-13 14q26 28 33 45q8 24 3 34q-10 -3 -25 -2
q-20 3 -32.5 20t-9.5 38q3 23 20.5 37t40.5 11q41 -6 51 -53q7 -39 -3 -75z" />
    <glyph glyph-name="ncommaaccent" unicode="&#x146;" horiz-adv-x="549" 
d="M467 84q0 -28 13 -39.5t49 -3.5l-13 -31q-28 -10 -54 -10q-34 0 -55 21t-21 51v220q0 57 -18.5 87t-63.5 30q-66 0 -139 -84v-272q0 -17 11.5 -22.5t38.5 -5.5v-25h-178v25q25 0 36 5.5t11 22.5v312q0 47 -59 39v38l111 17q25 3 28.5 -19t-3.5 -55l-4 -35q64 110 169 110
q74 0 107 -38t34 -136v-202zM333 -223q-11 -38 -49 -71q-8 -6 -16 2l-13 14q26 28 33 45q8 24 3 34q-10 -3 -25 -2q-20 3 -32.5 20t-9.5 38q3 23 20.5 37t40.5 11q41 -6 51 -53q7 -39 -3 -75z" />
    <glyph glyph-name="Ncaron" unicode="&#x147;" horiz-adv-x="654" 
d="M315 703l-149 154h46l103 -74l104 74h45zM629 621v-23q-58 -16 -58 -49v-549q0 -5 -3 -6.5t-7.5 0t-8.5 6.5l-423 513v-440q0 -33 57 -49v-24h-161v24q58 16 58 49v476q0 33 -58 49v23h136l356 -450v378q0 33 -58 49v23h170z" />
    <glyph glyph-name="ncaron" unicode="&#x148;" horiz-adv-x="549" 
d="M253 533l-149 154h46l103 -74l104 74h45zM467 84q0 -28 13 -39.5t49 -3.5l-13 -31q-28 -10 -54 -10q-34 0 -55 21t-21 51v220q0 57 -18.5 87t-63.5 30q-66 0 -139 -84v-272q0 -17 11.5 -22.5t38.5 -5.5v-25h-178v25q25 0 36 5.5t11 22.5v312q0 47 -59 39v38l111 17
q25 3 28.5 -19t-3.5 -55l-4 -35q64 110 169 110q74 0 107 -38t34 -136v-202z" />
    <glyph glyph-name="Eng" unicode="&#x14a;" horiz-adv-x="659" 
d="M459 621h170v-23q-58 -16 -58 -49v-566q0 -107 -75 -127q-61 -18 -104.5 -7t-53.5 44q-6 14 -2 31.5t18 24.5q17 8 31 6t20 -13q1 -2 6.5 -16t11 -24.5t16.5 -18.5t24 -6q23 5 23 50v153l-357 433v-440q0 -33 57 -49v-24h-161v24q58 16 58 49v476q0 33 -58 49v23h136
l356 -450v378q0 33 -58 49v23z" />
    <glyph glyph-name="eng" unicode="&#x14b;" horiz-adv-x="529" 
d="M328 460q74 0 108.5 -38t34.5 -136v-360q0 -97 -77 -129q-47 -19 -86 -7t-47 45q-7 39 18 51q29 15 46 -4q2 -1 8.5 -15.5t14 -25.5t15.5 -8q24 10 24 50v409q0 57 -18 87t-63 30q-66 0 -139 -84v-272q0 -17 11.5 -22.5t38.5 -5.5v-25h-180v25q25 0 36 5.5t11 22.5v312
q0 47 -59 39v38l113 17q25 3 28.5 -19t-3.5 -55l-4 -35q64 110 169 110z" />
    <glyph glyph-name="Omacron" unicode="&#x14c;" horiz-adv-x="650" 
d="M165 785q0 17 20 17h283q20 0 20 -17v-11q0 -17 -20 -17h-283q-20 0 -20 17v11zM620 316q0 -142 -83.5 -236.5t-211.5 -94.5q-127 0 -211 96t-84 235q0 138 83.5 229.5t211.5 91.5q129 0 212 -91t83 -230zM323 31q98 0 149.5 56t51.5 199q0 135 -62 223t-137 88
q-96 0 -147 -53.5t-51 -197.5q0 -141 60 -228t136 -87z" />
    <glyph glyph-name="omacron" unicode="&#x14d;" horiz-adv-x="485" 
d="M82 615q0 17 20 17h283q20 0 20 -17v-11q0 -17 -20 -17h-283q-20 0 -20 17v11zM241 458q90 0 152 -63.5t62 -164.5q0 -105 -61.5 -172.5t-148.5 -67.5q-89 0 -152 66t-63 166q0 105 62 170.5t149 65.5zM374 207q0 90 -41.5 150t-102.5 60q-117 0 -117 -172
q0 -90 40.5 -149.5t102.5 -59.5q118 0 118 171z" />
    <glyph glyph-name="Ohungarumlaut" unicode="&#x150;" horiz-adv-x="650" 
d="M172 736q-16 -13 -8 -23q8 -11 23 -2l143 77q33 18 11 56q-9 16 -24 17t-32 -15zM379 736q-16 -13 -8 -23q8 -11 23 -2l143 77q33 18 11 56q-9 16 -24 17t-32 -15zM620 316q0 -142 -83.5 -236.5t-211.5 -94.5q-127 0 -211 96t-84 235q0 138 83.5 229.5t211.5 91.5
q129 0 212 -91t83 -230zM323 31q98 0 149.5 56t51.5 199q0 135 -62 223t-137 88q-96 0 -147 -53.5t-51 -197.5q0 -141 60 -228t136 -87z" />
    <glyph glyph-name="ohungarumlaut" unicode="&#x151;" horiz-adv-x="485" 
d="M88 566q-16 -13 -8 -23q8 -11 23 -2l143 77q33 18 11 56q-9 16 -24 17t-32 -15zM295 566q-16 -13 -8 -23q8 -11 23 -2l143 77q33 18 11 56q-9 16 -24 17t-32 -15zM241 458q90 0 152 -63.5t62 -164.5q0 -105 -61.5 -172.5t-148.5 -67.5q-89 0 -152 66t-63 166
q0 105 62 170.5t149 65.5zM374 207q0 90 -41.5 150t-102.5 60q-117 0 -117 -172q0 -90 40.5 -149.5t102.5 -59.5q118 0 118 171z" />
    <glyph glyph-name="OE" unicode="&#x152;" horiz-adv-x="957" 
d="M885 116h37q-18 -35 -32 -93q-6 -23 -30 -23h-440v1q-42 -16 -95 -16q-127 0 -211 96t-84 235q0 138 83.5 229.5t211.5 91.5q50 0 98 -16h434q10 0 13.5 -3.5t3.5 -14.5v-100h-29l-15 33q-19 41 -80 41h-187v-239h181q7 0 12.5 1t10 4.5l7 5.5t6.5 9.5t5 9.5t5 12.5
t5 12.5h18v-153h-18q-2 4 -6 14.5t-5.5 14t-6 11t-8.5 10t-10.5 5t-14.5 2.5h-181v-255l229 2q11 0 19.5 1.5t13.5 3t10.5 6t7.5 7t7.5 10.5t8.5 11zM323 31q104 0 150 57v405q-29 49 -68.5 76.5t-79.5 27.5q-96 0 -147 -53.5t-51 -197.5q0 -141 60 -228t136 -87z" />
    <glyph glyph-name="oe" unicode="&#x153;" horiz-adv-x="810" 
d="M606 37q76 0 131 74l26 -35q-18 -24 -32.5 -38.5t-53 -30.5t-88.5 -16q-110 0 -175 94q-28 -45 -73 -70t-96 -25q-89 0 -152 66t-63 166q0 105 62 170.5t149 65.5q107 0 170 -85q58 86 169 86q79 0 136.5 -51t57.5 -132q0 -52 -56 -52h-259q0 -82 43.5 -134.5
t103.5 -52.5zM580 421q-56 0 -88.5 -43.5t-32.5 -112.5h231q2 69 -27.5 112.5t-82.5 43.5zM256 36q114 0 118 161q-2 22 -2 34v11q-8 77 -47.5 126t-94.5 49q-117 0 -117 -172q0 -90 40.5 -149.5t102.5 -59.5z" />
    <glyph glyph-name="Racute" unicode="&#x154;" horiz-adv-x="628" 
d="M273 736q-16 -13 -8 -23q8 -11 23 -2l143 77q33 18 11 56q-9 16 -24 17t-32 -15zM603 30v-30h-104q-90 49 -116 161q-17 72 -43 99t-90 27h-77v-215q0 -7 1 -12t2.5 -9t5 -7.5l5.5 -5.5t8.5 -4.5t8.5 -3.5t11 -3.5t12 -3.5v-23h-192v23q2 1 10.5 3.5t10.5 3t8 3t7.5 4
t5.5 4t5 5.5t3 6.5t2.5 8.5t0.5 11v465q0 25 -12.5 38.5t-40.5 22.5v23h261q103 0 163.5 -47t60.5 -123q0 -58 -42.5 -100t-120.5 -59q59 -8 83 -37t40 -87q14 -52 40.5 -93.5t59.5 -44.5h23zM305 320q118 0 118 131q0 57 -27.5 95.5t-82.5 38.5h-140v-265h132z" />
    <glyph glyph-name="racute" unicode="&#x155;" horiz-adv-x="399" 
d="M179 566q-16 -13 -8 -23q8 -11 23 -2l143 77q33 18 11 56q-9 16 -24 17t-32 -15zM341 371q-7 -11 -17 -10t-16.5 6.5t-19.5 12t-27 6.5q-30 0 -52.5 -23t-31.5 -45.5t-14 -45.5v-219q0 -17 12.5 -22.5t41.5 -5.5v-25h-183v25q27 0 39 6t12 22v309q0 47 -60 39v39l109 16
q24 3 28 -19.5t-3 -56.5l-9 -84l7 40q10 56 52 88t102 32q33 0 52.5 -18.5t0.5 -39.5z" />
    <glyph glyph-name="Rcommaaccent" unicode="&#x156;" horiz-adv-x="628" 
d="M603 30v-30h-104q-90 49 -116 161q-17 72 -43 99t-90 27h-77v-215q0 -7 1 -12t2.5 -9t5 -7.5l5.5 -5.5t8.5 -4.5t8.5 -3.5t11 -3.5t12 -3.5v-23h-192v23q2 1 10.5 3.5t10.5 3t8 3t7.5 4t5.5 4t5 5.5t3 6.5t2.5 8.5t0.5 11v465q0 25 -12.5 38.5t-40.5 22.5v23h261
q103 0 163.5 -47t60.5 -123q0 -58 -42.5 -100t-120.5 -59q59 -8 83 -37t40 -87q14 -52 40.5 -93.5t59.5 -44.5h23zM305 320q118 0 118 131q0 57 -27.5 95.5t-82.5 38.5h-140v-265h132zM362 -223q-11 -38 -49 -71q-8 -6 -16 2l-13 14q26 28 33 45q8 24 3 34q-10 -3 -25 -2
q-20 3 -32.5 20t-9.5 38q3 23 20.5 37t40.5 11q41 -6 51 -53q7 -39 -3 -75z" />
    <glyph glyph-name="rcommaaccent" unicode="&#x157;" horiz-adv-x="399" 
d="M341 371q-7 -11 -17 -10t-16.5 6.5t-19.5 12t-27 6.5q-30 0 -52.5 -23t-31.5 -45.5t-14 -45.5v-219q0 -17 12.5 -22.5t41.5 -5.5v-25h-183v25q27 0 39 6t12 22v309q0 47 -60 39v39l109 16q24 3 28 -19.5t-3 -56.5l-9 -84l7 40q10 56 52 88t102 32q33 0 52.5 -18.5
t0.5 -39.5zM181 -223q-11 -38 -49 -71q-8 -6 -16 2l-13 14q26 28 33 45q8 24 3 34q-10 -3 -25 -2q-20 3 -32.5 20t-9.5 38q3 23 20.5 37t40.5 11q41 -6 51 -53q7 -39 -3 -75z" />
    <glyph glyph-name="Rcaron" unicode="&#x158;" horiz-adv-x="628" 
d="M288 703l-149 154h46l103 -74l104 74h45zM603 30v-30h-104q-90 49 -116 161q-17 72 -43 99t-90 27h-77v-215q0 -7 1 -12t2.5 -9t5 -7.5l5.5 -5.5t8.5 -4.5t8.5 -3.5t11 -3.5t12 -3.5v-23h-192v23q2 1 10.5 3.5t10.5 3t8 3t7.5 4t5.5 4t5 5.5t3 6.5t2.5 8.5t0.5 11v465
q0 25 -12.5 38.5t-40.5 22.5v23h261q103 0 163.5 -47t60.5 -123q0 -58 -42.5 -100t-120.5 -59q59 -8 83 -37t40 -87q14 -52 40.5 -93.5t59.5 -44.5h23zM305 320q118 0 118 131q0 57 -27.5 95.5t-82.5 38.5h-140v-265h132z" />
    <glyph glyph-name="rcaron" unicode="&#x159;" horiz-adv-x="399" 
d="M194 533l-149 154h46l103 -74l104 74h45zM341 371q-7 -11 -17 -10t-16.5 6.5t-19.5 12t-27 6.5q-30 0 -52.5 -23t-31.5 -45.5t-14 -45.5v-219q0 -17 12.5 -22.5t41.5 -5.5v-25h-183v25q27 0 39 6t12 22v309q0 47 -60 39v39l109 16q24 3 28 -19.5t-3 -56.5l-9 -84l7 40
q10 56 52 88t102 32q33 0 52.5 -18.5t0.5 -39.5z" />
    <glyph glyph-name="Sacute" unicode="&#x15a;" horiz-adv-x="544" 
d="M268 736q-16 -13 -8 -23q8 -11 23 -2l143 77q33 18 11 56q-9 16 -24 17t-32 -15zM463 434q-20 -3 -24 12l-11 40q-12 46 -59 79.5t-101 33.5q-61 0 -98.5 -40.5t-31.5 -89.5q3 -19 13.5 -35t21.5 -25.5t33 -19t33.5 -13.5t36.5 -12q4 -1 30.5 -8.5t41 -13l41.5 -16.5
t44.5 -23.5t36.5 -29.5t29.5 -40t13.5 -50q7 -64 -29 -111t-90 -67t-113 -20q-45 0 -85 13.5t-55.5 21t-53.5 -0.5l-52 157l28 9q21 7 32 -13q21 -39 22 -41q23 -45 65.5 -72t99.5 -27q61 0 103 27.5t35 91.5q-1 15 -7 28.5t-11.5 23t-19 19l-21 14.5t-26 12.5l-26 10.5
t-29 10l-27.5 9q-92 29 -128 54q-59 42 -69 111q-10 73 48.5 134t163.5 61q56 0 94.5 -15t66.5 -34t50 -23l13 -127z" />
    <glyph glyph-name="sacute" unicode="&#x15b;" horiz-adv-x="435" 
d="M201 566q-16 -13 -8 -23q8 -11 23 -2l143 77q33 18 11 56q-9 16 -24 17t-32 -15zM406 124q0 -62 -53 -98t-139 -36q-67 0 -119 25.5t-59 46.5q-25 78 11 85q36 4 42.5 0.5t8.5 -19.5q13 -98 116 -98q56 0 83 21.5t27 58.5q0 49 -125 88q-61 19 -109.5 55t-48.5 86
q0 53 43 85.5t129 32.5q64 0 114 -26.5t52 -45.5q7 -84 -24 -84q-56 -4 -51 31q5 40 -17 63t-74 23q-48 0 -72.5 -20t-24.5 -50q0 -13 8.5 -25t18 -20t29.5 -16.5t30.5 -12l32.5 -10.5q93 -29 126 -55q45 -34 45 -85z" />
    <glyph glyph-name="Scedilla" unicode="&#x15e;" horiz-adv-x="544" 
d="M513 183q7 -59 -23.5 -103.5t-77 -66.5t-102.5 -27l-16 -34q42 11 78 -15.5t28 -72.5q-13 -78 -123 -72q-40 2 -64.5 18.5t-29.5 41.5q-5 24 15.5 34.5t41.5 -8.5q7 -39 20 -49q8 -6 21 -7q26 -1 42.5 11.5t20.5 36.5q4 25 -12 39.5t-45 11.5q-10 -1 -23 -3.5t-14 -2.5
q-12 -2 -17 7.5t1 18.5q14 25 23 45q-36 3 -71.5 16t-49.5 18.5t-49 -1.5l-52 157l28 9q21 7 32 -13q21 -39 22 -41q23 -45 65.5 -72t99.5 -27q61 0 103 27.5t35 91.5q-1 15 -7 28.5t-11.5 23t-19 19l-21 14.5t-26 12.5l-26 10.5t-29 10l-27.5 9q-92 29 -128 54
q-59 42 -69 111q-10 73 48.5 134t163.5 61q56 0 94.5 -15t66.5 -34t50 -23l13 -127l-29 -5q-20 -3 -24 12l-11 40q-12 46 -59 79.5t-101 33.5q-61 0 -98.5 -40.5t-31.5 -89.5q3 -19 13.5 -35t21.5 -25.5t33 -19t33.5 -13.5t36.5 -12q4 -1 30.5 -8.5t41 -13l41.5 -16.5
t44.5 -23.5t36.5 -29.5t29.5 -40t13.5 -50z" />
    <glyph glyph-name="scedilla" unicode="&#x15f;" horiz-adv-x="435" 
d="M406 124q0 -56 -44 -91t-117 -42l-18 -39q42 11 78 -15.5t28 -72.5q-13 -78 -123 -72q-40 2 -64.5 18.5t-29.5 41.5q-5 24 15.5 34.5t41.5 -8.5q7 -39 20 -49q8 -6 21 -7q26 -1 42.5 11.5t20.5 36.5q4 25 -12 39.5t-45 11.5q-10 -1 -23 -3.5t-14 -2.5q-12 -2 -17 7.5
t1 18.5q7 11 25 50q-59 5 -104 29t-52 42q-25 78 11 85q36 4 42.5 0.5t8.5 -19.5q13 -98 116 -98q56 0 83 21.5t27 58.5q0 49 -125 88q-61 19 -109.5 55t-48.5 86q0 53 43 85.5t129 32.5q64 0 114 -26.5t52 -45.5q7 -84 -24 -84q-56 -4 -51 31q5 40 -17 63t-74 23
q-48 0 -72.5 -20t-24.5 -50q0 -13 8.5 -25t18 -20t29.5 -16.5t30.5 -12l32.5 -10.5q93 -29 126 -55q45 -34 45 -85z" />
    <glyph glyph-name="Scaron" unicode="&#x160;" horiz-adv-x="544" 
d="M283 703l-149 154h46l103 -74l104 74h45zM463 434q-20 -3 -24 12l-11 40q-12 46 -59 79.5t-101 33.5q-61 0 -98.5 -40.5t-31.5 -89.5q3 -19 13.5 -35t21.5 -25.5t33 -19t33.5 -13.5t36.5 -12q4 -1 30.5 -8.5t41 -13l41.5 -16.5t44.5 -23.5t36.5 -29.5t29.5 -40t13.5 -50
q7 -64 -29 -111t-90 -67t-113 -20q-45 0 -85 13.5t-55.5 21t-53.5 -0.5l-52 157l28 9q21 7 32 -13q21 -39 22 -41q23 -45 65.5 -72t99.5 -27q61 0 103 27.5t35 91.5q-1 15 -7 28.5t-11.5 23t-19 19l-21 14.5t-26 12.5l-26 10.5t-29 10l-27.5 9q-92 29 -128 54
q-59 42 -69 111q-10 73 48.5 134t163.5 61q56 0 94.5 -15t66.5 -34t50 -23l13 -127z" />
    <glyph glyph-name="scaron" unicode="&#x161;" horiz-adv-x="435" 
d="M216 533l-149 154h46l103 -74l104 74h45zM406 124q0 -62 -53 -98t-139 -36q-67 0 -119 25.5t-59 46.5q-25 78 11 85q36 4 42.5 0.5t8.5 -19.5q13 -98 116 -98q56 0 83 21.5t27 58.5q0 49 -125 88q-61 19 -109.5 55t-48.5 86q0 53 43 85.5t129 32.5q64 0 114 -26.5
t52 -45.5q7 -84 -24 -84q-56 -4 -51 31q5 40 -17 63t-74 23q-48 0 -72.5 -20t-24.5 -50q0 -13 8.5 -25t18 -20t29.5 -16.5t30.5 -12l32.5 -10.5q93 -29 126 -55q45 -34 45 -85z" />
    <glyph glyph-name="uni0162" unicode="&#x162;" horiz-adv-x="584" 
d="M553 599l6 -91h-20l-13 33q-12 30 -45 30h-145v-499q0 -7 1 -12t2 -9t5 -7.5t6 -5.5t8.5 -4.5l9 -3.5t11.5 -3.5t12 -3.5v-23h-67l-22 -48q42 11 78 -15.5t28 -72.5q-13 -78 -123 -72q-40 2 -64.5 18.5t-29.5 41.5q-5 24 15.5 34.5t41.5 -8.5q7 -39 20 -49q8 -6 21 -7
q26 -1 42.5 11.5t20.5 36.5q4 25 -12 39.5t-45 11.5q-10 -1 -23 -3.5t-14 -2.5q-12 -2 -17 7.5t1 18.5q9 15 29 59h-77v23q3 1 12 3.5t11.5 3.5l9 3.5t8.5 4.5t6 5.5t5.5 7.5t2.5 9t1 12v499h-146q-33 0 -46 -30l-13 -33h-20l7 91q1 22 21 22h478q21 0 22 -22z" />
    <glyph glyph-name="uni0163" unicode="&#x163;" horiz-adv-x="324" 
d="M285 63q3 2 9.5 -4.5t9.5 -14.5t-2 -13q-41 -34 -96 -38l-19 -41q42 11 78 -15.5t28 -72.5q-13 -78 -123 -72q-40 2 -64.5 18.5t-29.5 41.5q-5 24 15.5 34.5t41.5 -8.5q7 -39 20 -49q8 -6 21 -7q26 -1 42.5 11.5t20.5 36.5q4 25 -12 39.5t-45 11.5q-10 -1 -23 -3.5
t-14 -2.5q-12 -2 -17 7.5t1 18.5q4 6 28 57q-73 21 -73 132v281h-56v37q64 0 117 108q3 7 8 9.5t9 -0.5t4 -9v-99h114v-31q0 -15 -15 -15h-99v-290q0 -33 13 -57.5t38 -24.5q41 0 70 24z" />
    <glyph glyph-name="Tcaron" unicode="&#x164;" horiz-adv-x="584" 
d="M440 857l-149 -154l-149 154h46l103 -74l104 74h45zM553 599l6 -91h-20l-13 33q-12 30 -45 30h-145v-499q0 -7 1 -12t2 -9t5 -7.5t6 -5.5t8.5 -4.5l9 -3.5t11.5 -3.5t12 -3.5v-23h-197v23q3 1 12 3.5t11.5 3.5l9 3.5t8.5 4.5t6 5.5t5.5 7.5t2.5 9t1 12v499h-146
q-33 0 -46 -30l-13 -33h-20l7 91q1 22 21 22h478q21 0 22 -22z" />
    <glyph glyph-name="tcaron" unicode="&#x165;" horiz-adv-x="316" 
d="M199 502q0 -7 5.5 -12.5t12.5 -5.5q13 0 18 18l31 107q7 25 -2 38t-29 13q-31 0 -33 -39zM285 63q3 2 9.5 -4.5t9.5 -14.5t-2 -13q-46 -38 -109 -38q-111 0 -111 137v281h-56v37q64 0 117 108q3 7 8 9.5t9 -0.5t4 -9v-99h114v-31q0 -15 -15 -15h-99v-290q0 -33 13 -57.5
t38 -24.5q41 0 70 24z" />
    <glyph glyph-name="Tbar" unicode="&#x166;" horiz-adv-x="584" 
d="M553 599l6 -91h-20l-13 33q-12 30 -45 30h-145v-136h108q20 0 20 -17v-12q0 -17 -20 -17h-108v-317q0 -7 1 -12t2 -9t5 -7.5t6 -5.5t8.5 -4.5l9 -3.5t11.5 -3.5t12 -3.5v-23h-197v23q3 1 12 3.5t11.5 3.5l9 3.5t8.5 4.5t6 5.5t5.5 7.5t2.5 9t1 12v317h-109q-20 0 -20 17
v12q0 17 20 17h109v136h-146q-33 0 -46 -30l-13 -33h-20l7 91q1 22 21 22h478q21 0 22 -22z" />
    <glyph glyph-name="tbar" unicode="&#x167;" horiz-adv-x="373" 
d="M323 277q20 0 20 -17v-11q0 -17 -20 -17h-157v-111q0 -33 13 -57.5t38 -24.5q39 0 71 24q2 2 8.5 -4.5t9.5 -14.5t-1 -13q-46 -38 -110 -38q-111 0 -111 137v102h-44q-20 0 -20 17v11q0 17 20 17h44v134h-55v37q64 0 117 108q3 7 8 9t8.5 -0.5t3.5 -8.5v-99h114v-31
q0 -15 -14 -15h-100v-134h157z" />
    <glyph glyph-name="Umacron" unicode="&#x16a;" horiz-adv-x="639" 
d="M168 785q0 17 20 17h283q20 0 20 -17v-11q0 -17 -20 -17h-283q-20 0 -20 17v11zM599 621v-25q-15 -2 -23.5 -5t-15 -9.5t-6.5 -17.5v-310q0 -122 -61 -193t-170 -71q-126 0 -192.5 70t-66.5 192v312q0 16 -11 22t-33 10v25h181v-25q-15 -2 -23.5 -5t-15.5 -9.5t-7 -17.5
v-267q0 -264 168 -264q74 0 123.5 51.5t49.5 164.5v315q0 16 -11.5 22.5t-35.5 9.5v25h150z" />
    <glyph glyph-name="umacron" unicode="&#x16b;" horiz-adv-x="537" 
d="M125 587q-20 0 -20 17v11q0 17 20 17h283q20 0 20 -17v-11q0 -17 -20 -17h-283zM456 82q0 -26 12.5 -33.5t43.5 -2.5v-31l-53 -21q-30 -11 -52.5 19t-29.5 97v2q-15 -42 -51.5 -81t-96.5 -39q-75 0 -118 43.5t-43 126.5v222q0 32 -28 32h-15v28l99 16q23 2 23 -19v-284
q0 -62 24 -88t78 -26q90 0 128 127v214q0 17 -6 24.5t-21 7.5h-15v28l98 16q23 4 23 -19v-359z" />
    <glyph glyph-name="ubreve" unicode="&#x16d;" horiz-adv-x="537" 
d="M262 557q-57 0 -94 36.5t-40 86.5q0 11 10 11h14q10 0 11 -11q3 -24 29 -42.5t70 -18.5t70.5 18.5t29.5 42.5q1 11 11 11h14q10 0 10 -11q-3 -50 -40 -86.5t-95 -36.5zM456 82q0 -26 12.5 -33.5t43.5 -2.5v-31l-53 -21q-30 -11 -52.5 19t-29.5 97v2q-15 -42 -51.5 -81
t-96.5 -39q-75 0 -118 43.5t-43 126.5v222q0 32 -28 32h-15v28l99 16q23 2 23 -19v-284q0 -62 24 -88t78 -26q90 0 128 127v214q0 17 -6 24.5t-21 7.5h-15v28l98 16q23 4 23 -19v-359z" />
    <glyph glyph-name="Uring" unicode="&#x16e;" horiz-adv-x="639" 
d="M328 723q-37 0 -63 25t-26 60t26 60t63 25t62.5 -25t25.5 -60t-25.5 -60t-62.5 -25zM328 757q15 0 27.5 15t12.5 36q0 20 -12.5 36t-27.5 16q-16 0 -29 -16t-13 -36q0 -21 12.5 -36t29.5 -15zM599 621v-25q-15 -2 -23.5 -5t-15 -9.5t-6.5 -17.5v-310q0 -122 -61 -193
t-170 -71q-126 0 -192.5 70t-66.5 192v312q0 16 -11 22t-33 10v25h181v-25q-15 -2 -23.5 -5t-15.5 -9.5t-7 -17.5v-267q0 -264 168 -264q74 0 123.5 51.5t49.5 164.5v315q0 16 -11.5 22.5t-35.5 9.5v25h150z" />
    <glyph glyph-name="uring" unicode="&#x16f;" horiz-adv-x="537" 
d="M265 553q-37 0 -63 25t-26 60t26 60t63 25t62.5 -25t25.5 -60t-25.5 -60t-62.5 -25zM265 690q-16 0 -29 -16t-13 -36q0 -21 12.5 -36t29.5 -15q15 0 27.5 15t12.5 36q0 20 -12.5 36t-27.5 16zM456 82q0 -26 12.5 -33.5t43.5 -2.5v-31l-53 -21q-30 -11 -52.5 19t-29.5 97
v2q-15 -42 -51.5 -81t-96.5 -39q-75 0 -118 43.5t-43 126.5v222q0 32 -28 32h-15v28l99 16q23 2 23 -19v-284q0 -62 24 -88t78 -26q90 0 128 127v214q0 17 -6 24.5t-21 7.5h-15v28l98 16q23 4 23 -19v-359z" />
    <glyph glyph-name="Uhungarumlaut" unicode="&#x170;" horiz-adv-x="639" 
d="M175 736q-16 -13 -8 -23q8 -11 23 -2l143 77q33 18 11 56q-9 16 -24 17t-32 -15zM382 736q-16 -13 -8 -23q8 -11 23 -2l143 77q33 18 11 56q-9 16 -24 17t-32 -15zM599 621v-25q-15 -2 -23.5 -5t-15 -9.5t-6.5 -17.5v-310q0 -122 -61 -193t-170 -71q-126 0 -192.5 70
t-66.5 192v312q0 16 -11 22t-33 10v25h181v-25q-15 -2 -23.5 -5t-15.5 -9.5t-7 -17.5v-267q0 -264 168 -264q74 0 123.5 51.5t49.5 164.5v315q0 16 -11.5 22.5t-35.5 9.5v25h150z" />
    <glyph glyph-name="uhungarumlaut" unicode="&#x171;" horiz-adv-x="537" 
d="M127 541q-15 -9 -23 2q-8 10 8 23l113 110q17 16 32 15t24 -17q22 -38 -11 -56zM334 541q-15 -9 -23 2q-8 10 8 23l113 110q17 16 32 15t24 -17q22 -38 -11 -56zM456 82q0 -26 12.5 -33.5t43.5 -2.5v-31l-53 -21q-30 -11 -52.5 19t-29.5 97v2q-15 -42 -51.5 -81
t-96.5 -39q-75 0 -118 43.5t-43 126.5v222q0 32 -28 32h-15v28l99 16q23 2 23 -19v-284q0 -62 24 -88t78 -26q90 0 128 127v214q0 17 -6 24.5t-21 7.5h-15v28l98 16q23 4 23 -19v-359z" />
    <glyph glyph-name="Uogonek" unicode="&#x172;" horiz-adv-x="639" 
d="M449 621h150v-25q-15 -2 -23.5 -5t-15 -9.5t-6.5 -17.5v-310q0 -98 -40 -164t-114 -89h1q-76 -49 -76 -113q0 -24 16.5 -38.5t37.5 -14.5q56 0 80 54h25q-36 -95 -127 -95q-41 0 -73.5 22t-32.5 62q0 69 88 112h-16q-126 0 -192.5 70t-66.5 192v312q0 16 -11 22t-33 10
v25h181v-25q-15 -2 -23.5 -5t-15.5 -9.5t-7 -17.5v-267q0 -264 168 -264q74 0 123.5 51.5t49.5 164.5v315q0 16 -11.5 22.5t-35.5 9.5v25z" />
    <glyph glyph-name="uogonek" unicode="&#x173;" horiz-adv-x="537" 
d="M462 -4q-99 -41 -99 -96q0 -27 14 -41t37 -14q44 0 70 57h26q-13 -34 -45 -66t-80 -32q-40 0 -68 20t-28 63q0 41 34.5 71t90.5 46q-30 30 -37 106v2q-15 -42 -51.5 -81t-96.5 -39q-75 0 -118 43.5t-43 126.5v222q0 32 -28 32h-15v28l99 16q23 2 23 -19v-284
q0 -62 24 -88t78 -26q90 0 128 127v214q0 17 -6 24.5t-21 7.5h-15v28l98 16q23 4 23 -19v-359q0 -26 12.5 -33.5t43.5 -2.5v-31z" />
    <glyph glyph-name="Wcircumflex" unicode="&#x174;" horiz-adv-x="945" 
d="M480 778l-103 -74h-46l149 154l149 -154h-45zM764 621h166v-27q-31 -5 -44 -16.5t-24 -40.5l-190 -542h-12q-22 0 -32 24l-154 396l-137 -420h-11q-22 0 -32 24l-193 493q-19 47 -35.5 61.5t-50.5 20.5v27h191v-27q-21 -6 -29.5 -12.5t-4.5 -18.5l166 -431l112 344
l-14 36q-19 47 -35.5 61.5t-50.5 20.5v27h191v-27q-18 -5 -27.5 -14t-6.5 -17l165 -431l145 421q6 17 -8 26t-45 15v27z" />
    <glyph glyph-name="wcircumflex" unicode="&#x175;" horiz-adv-x="775" 
d="M394 608l-103 -74h-46l149 154l149 -154h-45zM597 451q84 -3 168 0v-26l-23 -8q-39 -13 -67 -79l-140 -338h-13q-19 0 -29 22l-107 252l-123 -274h-12q-19 0 -29 22l-127 318q-25 64 -59 77l-21 8v26q94 -3 187 0v-26l-23 -8q-19 -7 -21.5 -17t14.5 -60l93 -229l93 227v2
q-28 64 -37 71q-4 4 -9 6l-33 8v26q99 -3 200 0v-26l-37 -8q-20 -5 -23 -17t15 -60l102 -229l84 226q18 49 17.5 61.5t-18.5 18.5l-22 8v26z" />
    <glyph glyph-name="Ycircumflex" unicode="&#x176;" horiz-adv-x="622" 
d="M333 778l-103 -74h-46l149 154l149 -154h-45zM436 621h171v-27q-29 -3 -45.5 -16t-38.5 -43l-169 -237v-235q0 -8 5.5 -14t18 -9.5t22 -5l27.5 -4.5v-30h-226v30l28 4.5t22 5t18.5 9.5t5.5 14v209l-167 238l-15 22t-13.5 19.5l-11 13.5t-11.5 12t-11 7.5t-14.5 6.5
t-16.5 3v27h199v-27q-23 -4 -34 -13t-3 -20l156 -223l151 213q11 17 -3 28t-45 15v27z" />
    <glyph glyph-name="ycircumflex" unicode="&#x177;" horiz-adv-x="518" 
d="M269 688l149 -154h-45l-104 74l-103 -74h-46zM498 451v-25l-14 -6q-4 -2 -10.5 -4.5l-10.5 -4t-8.5 -4t-7.5 -6t-5 -8.5l-198 -477q-29 -69 -55 -100t-72 -31q-33 0 -56.5 15t-27.5 40q-10 56 45 56q18 0 25 -9t7 -19.5t6 -19.5t22 -9q5 0 9.5 2t8 4.5t7.5 7.5t6.5 8.5
t6 11l5 10.5t5 11.5t4.5 10.5l48 116l-177 372q-10 19 -33 27l-18 6v25h185v-25l-25 -5q-32 -6 -22 -28l129 -281l111 281q4 10 -3 17.5t-20 10.5l-28 5v25h161z" />
    <glyph glyph-name="Ydieresis" unicode="&#x178;" horiz-adv-x="622" 
d="M231 739q-21 0 -36.5 15.5t-15.5 36.5t15.5 36.5t36.5 15.5t36.5 -15.5t15.5 -36.5t-15.5 -36.5t-36.5 -15.5zM420 739q-21 0 -36.5 15.5t-15.5 36.5t15.5 36.5t36.5 15.5t36.5 -15.5t15.5 -36.5t-15.5 -36.5t-36.5 -15.5zM436 621h171v-27q-29 -3 -45.5 -16t-38.5 -43
l-169 -237v-235q0 -8 5.5 -14t18 -9.5t22 -5l27.5 -4.5v-30h-226v30l28 4.5t22 5t18.5 9.5t5.5 14v209l-167 238l-15 22t-13.5 19.5l-11 13.5t-11.5 12t-11 7.5t-14.5 6.5t-16.5 3v27h199v-27q-23 -4 -34 -13t-3 -20l156 -223l151 213q11 17 -3 28t-45 15v27z" />
    <glyph glyph-name="Zacute" unicode="&#x179;" horiz-adv-x="595" 
d="M275 736q-16 -13 -8 -23q8 -11 23 -2l143 77q33 18 11 56q-9 16 -24 17t-32 -15zM555 114l-25 -114h-474q-20 0 -26 16t7 33l383 531l-325 -4q-19 0 -27 -31l-10 -40h-33l20 116h506l-422 -581l346 5q9 0 15.5 5t9.5 10t7 16l15 38h33z" />
    <glyph glyph-name="zacute" unicode="&#x17a;" horiz-adv-x="468" 
d="M214 566q-16 -13 -8 -23q8 -11 23 -2l143 77q33 18 11 56q-9 16 -24 17t-32 -15zM428 105l-18 -105h-350q-20 0 -26 16t6 32l263 366l-221 -8q-6 0 -11 -4.5t-6.5 -8.5l-4.5 -12t-4 -11l-6 -19h-30l18 109h389l-304 -413l242 5q5 0 8.5 1.5t6 4t5 6.5t3.5 7t3 8.5t3 7.5
l6 18h28z" />
    <glyph glyph-name="Zdotaccent" unicode="&#x17b;" horiz-adv-x="595" 
d="M292 740q-21 0 -37 15.5t-16 37.5q0 21 16 37t37 16q22 0 37.5 -16t15.5 -37q0 -22 -15.5 -37.5t-37.5 -15.5zM555 114l-25 -114h-474q-20 0 -26 16t7 33l383 531l-325 -4q-19 0 -27 -31l-10 -40h-33l20 116h506l-422 -581l346 5q9 0 15.5 5t9.5 10t7 16l15 38h33z" />
    <glyph glyph-name="zdotaccent" unicode="&#x17c;" horiz-adv-x="468" 
d="M231 570q-21 0 -37 15.5t-16 37.5q0 21 16 37t37 16q22 0 37.5 -16t15.5 -37q0 -22 -15.5 -37.5t-37.5 -15.5zM428 105l-18 -105h-350q-20 0 -26 16t6 32l263 366l-221 -8q-6 0 -11 -4.5t-6.5 -8.5l-4.5 -12t-4 -11l-6 -19h-30l18 109h389l-304 -413l242 5q5 0 8.5 1.5
t6 4t5 6.5t3.5 7t3 8.5t3 7.5l6 18h28z" />
    <glyph glyph-name="Zcaron" unicode="&#x17d;" horiz-adv-x="595" 
d="M290 703l-149 154h46l103 -74l104 74h45zM555 114l-25 -114h-474q-20 0 -26 16t7 33l383 531l-325 -4q-19 0 -27 -31l-10 -40h-33l20 116h506l-422 -581l346 5q9 0 15.5 5t9.5 10t7 16l15 38h33z" />
    <glyph glyph-name="zcaron" unicode="&#x17e;" horiz-adv-x="468" 
d="M229 533l-149 154h46l103 -74l104 74h45zM428 105l-18 -105h-350q-20 0 -26 16t6 32l263 366l-221 -8q-6 0 -11 -4.5t-6.5 -8.5l-4.5 -12t-4 -11l-6 -19h-30l18 109h389l-304 -413l242 5q5 0 8.5 1.5t6 4t5 6.5t3.5 7t3 8.5t3 7.5l6 18h28z" />
    <glyph glyph-name="florin" unicode="&#x192;" horiz-adv-x="634" 
d="M636 598q9 -12 5.5 -30t-19.5 -28q-17 -10 -32.5 -6.5t-20.5 16.5q-1 2 -3.5 10t-3.5 10.5t-3.5 10t-4.5 10t-5.5 8.5t-6.5 8.5l-8 6.5t-10 5.5t-12 3t-14 1.5q-21 0 -36 -7t-23 -15t-14.5 -29.5t-8.5 -33.5l-7 -43l-6 -39h136q5 0 8.5 -2.5t1.5 -6.5l-5 -11l-7 -12.5
t-6 -8.5t-8.5 -6.5t-11.5 -1.5h-115l-59 -425q-13 -88 -59.5 -136.5t-115.5 -48.5q-45 0 -79.5 21.5t-47.5 51.5q-8 12 -3 30t22 26q18 9 33 4t19 -19q1 -2 3 -10.5t2.5 -11.5t2.5 -10.5t4 -10.5t5 -9t6 -8.5t7.5 -5.5t10 -4t11.5 -1q42 0 61 33t28 97l61 437h-52
q-11 0 -9 10l5 39h63l4 27q26 183 185 183q93 0 132 -69z" />
    <glyph glyph-name="Scommaaccent" unicode="&#x218;" horiz-adv-x="544" 
d="M463 434q-20 -3 -24 12l-11 40q-12 46 -59 79.5t-101 33.5q-61 0 -98.5 -40.5t-31.5 -89.5q3 -19 13.5 -35t21.5 -25.5t33 -19t33.5 -13.5t36.5 -12q4 -1 30.5 -8.5t41 -13l41.5 -16.5t44.5 -23.5t36.5 -29.5t29.5 -40t13.5 -50q7 -64 -29 -111t-90 -67t-113 -20
q-45 0 -85 13.5t-55.5 21t-53.5 -0.5l-52 157l28 9q21 7 32 -13q21 -39 22 -41q23 -45 65.5 -72t99.5 -27q61 0 103 27.5t35 91.5q-1 15 -7 28.5t-11.5 23t-19 19l-21 14.5t-26 12.5l-26 10.5t-29 10l-27.5 9q-92 29 -128 54q-59 42 -69 111q-10 73 48.5 134t163.5 61
q56 0 94.5 -15t66.5 -34t50 -23l13 -127zM333 -223q-11 -38 -49 -71q-8 -6 -16 2l-13 14q26 28 33 45q8 24 3 34q-10 -3 -25 -2q-20 3 -32.5 20t-9.5 38q3 23 20.5 37t40.5 11q41 -6 51 -53q7 -39 -3 -75z" />
    <glyph glyph-name="scommaaccent" unicode="&#x219;" horiz-adv-x="435" 
d="M406 124q0 -62 -53 -98t-139 -36q-67 0 -119 25.5t-59 46.5q-25 78 11 85q36 4 42.5 0.5t8.5 -19.5q13 -98 116 -98q56 0 83 21.5t27 58.5q0 49 -125 88q-61 19 -109.5 55t-48.5 86q0 53 43 85.5t129 32.5q64 0 114 -26.5t52 -45.5q7 -84 -24 -84q-56 -4 -51 31
q5 40 -17 63t-74 23q-48 0 -72.5 -20t-24.5 -50q0 -13 8.5 -25t18 -20t29.5 -16.5t30.5 -12l32.5 -10.5q93 -29 126 -55q45 -34 45 -85zM266 -223q-11 -38 -49 -71q-8 -6 -16 2l-13 14q26 28 33 45q8 24 3 34q-10 -3 -25 -2q-20 3 -32.5 20t-9.5 38q3 23 20.5 37t40.5 11
q41 -6 51 -53q7 -39 -3 -75z" />
    <glyph glyph-name="uni021A" unicode="&#x21a;" horiz-adv-x="584" 
d="M553 599l6 -91h-20l-13 33q-12 30 -45 30h-145v-499q0 -7 1 -12t2 -9t5 -7.5t6 -5.5t8.5 -4.5l9 -3.5t11.5 -3.5t12 -3.5v-23h-197v23q3 1 12 3.5t11.5 3.5l9 3.5t8.5 4.5t6 5.5t5.5 7.5t2.5 9t1 12v499h-146q-33 0 -46 -30l-13 -33h-20l7 91q1 22 21 22h478q21 0 22 -22
zM293 -95q41 -6 51 -53q7 -39 -3 -75q-11 -38 -49 -71q-8 -6 -16 2l-13 14q26 28 33 45q8 24 3 34q-10 -3 -25 -2q-20 3 -32.5 20t-9.5 38q3 23 20.5 37t40.5 11z" />
    <glyph glyph-name="uni021B" unicode="&#x21b;" horiz-adv-x="324" 
d="M285 63q3 2 9.5 -4.5t9.5 -14.5t-2 -13q-46 -38 -109 -38q-111 0 -111 137v281h-56v37q64 0 117 108q3 7 8 9.5t9 -0.5t4 -9v-99h114v-31q0 -15 -15 -15h-99v-290q0 -33 13 -57.5t38 -24.5q41 0 70 24zM226 -223q-11 -38 -49 -71q-8 -6 -16 2l-13 14q26 28 33 45
q8 24 3 34q-10 -3 -25 -2q-20 3 -32.5 20t-9.5 38q3 23 20.5 37t40.5 11q41 -6 51 -53q7 -39 -3 -75z" />
    <glyph glyph-name="uni0237" unicode="&#x237;" horiz-adv-x="212" 
d="M121 456q32 3 32 -31v-499q0 -100 -70 -129q-47 -19 -86.5 -7t-46.5 45q-9 38 17 51q31 15 46 -4q2 -1 8.5 -15.5t14.5 -25.5t16 -8q24 10 24 50v495q0 17 -6.5 24t-21.5 7h-20v38z" />
    <glyph glyph-name="circumflex" unicode="&#x2c6;" horiz-adv-x="408" 
d="M204 689l149 -155h-45l-104 75l-103 -75h-46z" />
    <glyph glyph-name="caron" unicode="&#x2c7;" horiz-adv-x="408" 
d="M204 533l-149 154h46l103 -74l104 74h45z" />
    <glyph glyph-name="breve" unicode="&#x2d8;" horiz-adv-x="384" 
d="M192 557q-57 0 -94 36.5t-40 86.5q0 11 10 11h14q10 0 11 -11q3 -24 29 -42.5t70 -18.5t70.5 18.5t29.5 42.5q1 11 11 11h14q10 0 10 -11q-3 -50 -40 -86.5t-95 -36.5z" />
    <glyph glyph-name="dotaccent" unicode="&#x2d9;" horiz-adv-x="234" 
d="M117 570q-21 0 -37 15.5t-16 37.5q0 21 16 37t37 16q22 0 37.5 -16t15.5 -37q0 -22 -15.5 -37.5t-37.5 -15.5z" />
    <glyph glyph-name="ring" unicode="&#x2da;" horiz-adv-x="390" 
d="M195 553q-37 0 -63 25t-26 60t26 60t63 25t62.5 -25t25.5 -60t-25.5 -60t-62.5 -25zM195 587q15 0 27.5 15t12.5 36q0 20 -12.5 36t-27.5 16q-16 0 -29 -16t-13 -36q0 -21 12.5 -36t29.5 -15z" />
    <glyph glyph-name="ogonek" unicode="&#x2db;" horiz-adv-x="309" 
d="M269 -95q-36 -95 -127 -95q-41 0 -73.5 22t-32.5 62q0 43 33.5 74t77.5 49h39q-76 -49 -76 -113q0 -24 16.5 -38.5t37.5 -14.5q56 0 80 54h25z" />
    <glyph glyph-name="tilde" unicode="&#x2dc;" horiz-adv-x="434" 
d="M394 647q-7 -47 -38.5 -73.5t-77.5 -26.5q-34 0 -81.5 34t-68.5 34q-29 0 -46 -16t-17 -32h-23q-8 41 25.5 68.5t76.5 27.5q34 0 78.5 -29t74.5 -29q24 0 45.5 15t21.5 27h30z" />
    <glyph glyph-name="hungarumlaut" unicode="&#x2dd;" horiz-adv-x="494" 
d="M60 566q-16 -13 -7 -23q7 -11 23 -2l142 77q33 18 11 56q-9 16 -23.5 17t-31.5 -15zM267 566q-16 -13 -7 -23q7 -11 23 -2l142 77q33 18 11 56q-9 16 -23.5 17t-31.5 -15z" />
    <glyph glyph-name="acutecomb" unicode="&#x301;" horiz-adv-x="0" 
d="M-233 566q-16 -13 -8 -23q8 -11 23 -2l143 77q33 18 11 56q-9 16 -24 17t-32 -15z" />
    <glyph glyph-name="uni0326" unicode="&#x326;" horiz-adv-x="0" 
d="M-46 -223q-11 -38 -49 -71q-8 -6 -16 2l-13 14q26 28 33 45q8 24 3 34q-10 -3 -25 -2q-20 3 -32.5 20t-9.5 38q3 23 20.5 37t40.5 11q41 -6 51 -53q7 -39 -3 -75z" />
    <glyph glyph-name="Delta" unicode="&#x394;" horiz-adv-x="594" 
d="M574 0h-554l280 634zM91 72h361l-176 426z" />
    <glyph glyph-name="Omega" unicode="&#x3a9;" horiz-adv-x="679" 
d="M613 115h26l-21 -92q-6 -23 -30 -23h-172v118q55 5 87 66.5t32 168.5q0 113 -54 178t-141 65t-141.5 -65t-54.5 -178q0 -107 32 -168.5t88 -66.5v-118h-172q-25 0 -30 23l-22 92h27l17 -27q23 -38 69 -41l68 -3q9 -1 11.5 6.5t0.5 26.5q-78 21 -133 97.5t-55 168.5
q0 116 86 205t209 89t209 -89t86 -205q0 -87 -56 -165.5t-134 -100.5q-2 -19 0.5 -26.5t13.5 -6.5l55 3q34 1 52 10.5t30 30.5z" />
    <glyph glyph-name="mu" unicode="&#x3bc;" horiz-adv-x="537" 
d="M456 82q0 -26 12.5 -33.5t43.5 -2.5v-31l-53 -21q-30 -11 -52.5 19t-29.5 97v2q-15 -42 -51.5 -81t-96.5 -39q-80 0 -122 47q2 -47 11.5 -80.5t20 -47t18 -25t6.5 -19.5q-7 -46 -41 -63q-31 -15 -47 14q-7 14 -7 37v529q0 32 -28 32h-15v28l99 16q23 2 23 -19v-284
q0 -62 24 -88t78 -26q90 0 128 127v214q0 17 -6 24.5t-21 7.5h-15v28l98 16q23 4 23 -19v-359z" />
    <glyph glyph-name="pi" unicode="&#x3c0;" horiz-adv-x="719" 
d="M628 96q27 -14 16 -55q-11 -34 -50 -46.5t-88 7.5q-71 31 -71 128v259h-137v-273q0 -56 -32.5 -89t-73.5 -33q-38 0 -66 10l-13 31q40 -9 71.5 14t31.5 69v271h-57q-24 0 -35.5 -22t-2.5 -59l-36 8q-12 33 -12 58q0 34 22 55.5t57 21.5h465v-62h-73q-15 0 -21.5 -7
t-6.5 -24v-276q0 -39 24 -49q8 -3 15 8t13.5 28.5t8.5 20.5q18 23 51 6z" />
    <glyph glyph-name="uni0400" unicode="&#x400;" horiz-adv-x="572" 
d="M334 736l-113 110q-17 16 -32 15t-24 -17q-22 -38 11 -56l143 -77q16 -9 23 2q8 10 -8 23zM537 116q-17 -35 -32 -93q-6 -23 -30 -23h-440v29q38 12 45 21q8 9 8 28v468q0 13 -2 20.5t-12.5 13.5t-14.5 7.5t-24 7.5v26h437q10 0 13.5 -3.5t3.5 -14.5v-100h-29l-15 33
q-19 41 -80 41h-187v-239h181q7 0 12.5 1t10 4.5l7 5.5t6.5 9.5t5 9.5t5 12.5t5 12.5h18v-153h-18q-2 4 -6 14.5t-5.5 14t-6 11t-8.5 10t-10.5 5t-14.5 2.5h-181v-255l229 2q11 0 19.5 1.5t13.5 3t10.5 6t7.5 7t7.5 10.5t8.5 11l26 33h37z" />
    <glyph glyph-name="uni0401" unicode="&#x401;" horiz-adv-x="572" 
d="M178 739q-21 0 -36.5 15.5t-15.5 36.5t15.5 36.5t36.5 15.5t36.5 -15.5t15.5 -36.5t-15.5 -36.5t-36.5 -15.5zM367 739q-21 0 -36.5 15.5t-15.5 36.5t15.5 36.5t36.5 15.5t36.5 -15.5t15.5 -36.5t-15.5 -36.5t-36.5 -15.5zM537 116q-17 -35 -32 -93q-6 -23 -30 -23h-440
v29q38 12 45 21q8 9 8 28v468q0 13 -2 20.5t-12.5 13.5t-14.5 7.5t-24 7.5v26h437q10 0 13.5 -3.5t3.5 -14.5v-100h-29l-15 33q-19 41 -80 41h-187v-239h181q7 0 12.5 1t10 4.5l7 5.5t6.5 9.5t5 9.5t5 12.5t5 12.5h18v-153h-18q-2 4 -6 14.5t-5.5 14t-6 11t-8.5 10t-10.5 5
t-14.5 2.5h-181v-255l229 2q11 0 19.5 1.5t13.5 3t10.5 6t7.5 7t7.5 10.5t8.5 11l26 33h37z" />
    <glyph glyph-name="uni0403" unicode="&#x403;" horiz-adv-x="532" 
d="M238 711q-15 -9 -23 2q-8 10 8 23l113 110q17 16 32 15t24 -17q22 -38 -11 -56zM483 598l24 -89h-29l-16 32q-18 36 -80 37l-163 3q-19 -1 -27.5 -2t-14.5 -6t-6 -15v-485q0 -32 68 -35v-38h-224v38q68 3 68 35v488q0 16 -15 20.5t-53 2.5v37h438q22 0 30 -23z" />
    <glyph glyph-name="uni0404" unicode="&#x404;" horiz-adv-x="625" 
d="M545 170q6 0 18 -7t15 -12q5 -10 -16 -44q-73 -122 -233 -122q-125 0 -212.5 97.5t-87.5 237.5q0 131 84.5 224t204.5 93q113 0 183 -82q21 0 29 49q3 17 19 17h20l11 -196l-28 -10q-17 -6 -23 11q-2 6 -14 36q-28 68 -77.5 101t-109.5 33q-84 0 -143.5 -65.5
t-59.5 -187.5v-5h262v-43h-259q13 -116 78.5 -188.5t141.5 -72.5q57 0 94.5 26.5t69.5 72.5q4 5 8 12l6 10.5t5.5 7.5t6.5 5.5t7 1.5z" />
    <glyph glyph-name="uni0405" unicode="&#x405;" horiz-adv-x="544" 
d="M463 434q-20 -3 -24 12l-11 40q-12 46 -59 79.5t-101 33.5q-61 0 -98.5 -40.5t-31.5 -89.5q3 -19 13.5 -35t21.5 -25.5t33 -19t33.5 -13.5t36.5 -12q4 -1 30.5 -8.5t41 -13l41.5 -16.5t44.5 -23.5t36.5 -29.5t29.5 -40t13.5 -50q7 -64 -29 -111t-90 -67t-113 -20
q-45 0 -85 13.5t-55.5 21t-53.5 -0.5l-52 157l28 9q21 7 32 -13q21 -39 22 -41q23 -45 65.5 -72t99.5 -27q61 0 103 27.5t35 91.5q-1 15 -7 28.5t-11.5 23t-19 19l-21 14.5t-26 12.5l-26 10.5t-29 10l-27.5 9q-92 29 -128 54q-59 42 -69 111q-10 73 48.5 134t163.5 61
q56 0 94.5 -15t66.5 -34t50 -23l13 -127z" />
    <glyph glyph-name="uni0406" unicode="&#x406;" horiz-adv-x="274" 
d="M180 72q0 -7 1 -12t2.5 -9t5.5 -7.5t6 -5.5t8.5 -4.5l9 -3.5t11.5 -3.5t12 -3.5v-23h-196v23q3 1 12 3.5t11.5 3.5l9 3.5t8.5 4.5t6 5.5t5 7.5t2 9t1 12v474q0 5 -0.5 9.5t-1.5 8t-3.5 6.5t-3.5 5t-5.5 4.5t-6 3.5t-7.5 3t-8 3t-9.5 3t-9.5 3v26h196v-26l-11 -3.5t-10 -3
t-8.5 -3t-8.5 -4l-6 -4.5t-5.5 -5.5t-3.5 -6.5t-2.5 -8.5t-0.5 -10.5v-474z" />
    <glyph glyph-name="uni0407" unicode="&#x407;" horiz-adv-x="274" 
d="M40 739q-21 0 -36.5 15.5t-15.5 36.5t15.5 36.5t36.5 15.5t36.5 -15.5t15.5 -36.5t-15.5 -36.5t-36.5 -15.5zM229 739q-21 0 -36.5 15.5t-15.5 36.5t15.5 36.5t36.5 15.5t36.5 -15.5t15.5 -36.5t-15.5 -36.5t-36.5 -15.5zM180 72q0 -7 1 -12t2.5 -9t5.5 -7.5t6 -5.5
t8.5 -4.5l9 -3.5t11.5 -3.5t12 -3.5v-23h-196v23q3 1 12 3.5t11.5 3.5l9 3.5t8.5 4.5t6 5.5t5 7.5t2 9t1 12v474q0 5 -0.5 9.5t-1.5 8t-3.5 6.5t-3.5 5t-5.5 4.5t-6 3.5t-7.5 3t-8 3t-9.5 3t-9.5 3v26h196v-26l-11 -3.5t-10 -3t-8.5 -3t-8.5 -4l-6 -4.5t-5.5 -5.5t-3.5 -6.5
t-2.5 -8.5t-0.5 -10.5v-474z" />
    <glyph glyph-name="uni0408" unicode="&#x408;" horiz-adv-x="335" 
d="M295 621v-26q-2 -1 -9.5 -3t-9.5 -3t-8 -3t-7.5 -3t-6 -3.5t-5.5 -4.5t-3.5 -5t-3.5 -6.5t-1.5 -8t-0.5 -9.5v-567q0 -143 -136 -143q-51 0 -80 25.5t-29 55.5q0 52 49 52q41 0 41 -46q0 -20 9 -36.5t27 -16.5q34 0 34 57v619q0 6 -0.5 10.5t-2.5 8.5t-3.5 6.5t-5.5 5.5
l-6 4.5t-8.5 4t-8.5 3t-10 3l-11 3.5v26h196z" />
    <glyph glyph-name="uni040D" unicode="&#x40d;" horiz-adv-x="669" 
d="M240 788q-33 18 -11 56q9 16 24 17t32 -15l113 -110q16 -13 8 -23q-7 -11 -23 -2zM632 595l-11 -3.5t-10 -3t-8.5 -3t-8.5 -4l-6 -4.5t-5.5 -5.5t-3.5 -6.5t-2.5 -8.5t-0.5 -10.5v-474q0 -7 1 -12t2.5 -9t5.5 -7.5t6 -5.5t8.5 -4.5l9 -3.5t11.5 -3.5t12 -3.5v-23h-196v23
q3 1 12 3.5t11.5 3.5l9 3.5t8.5 4.5t6 5.5t5 7.5t2 9t1 12v388l-311 -344v-44q0 -7 1 -12t2.5 -9t5.5 -7.5t6 -5.5t8.5 -4.5l9 -3.5t11.5 -3.5t12 -3.5v-23h-196v23q3 1 12 3.5t11.5 3.5l9 3.5t8.5 4.5t6 5.5t5 7.5t2 9t1 12v474q0 5 -0.5 9.5t-1.5 8t-3.5 6.5t-3.5 5
t-5.5 4.5t-6 3.5t-7.5 3t-8 3t-9.5 3t-9.5 3v26h196v-26l-11 -3.5t-10 -3t-8.5 -3t-8.5 -4l-6 -4.5t-5.5 -5.5t-3.5 -6.5t-2.5 -8.5t-0.5 -10.5v-374l311 344v30q0 5 -0.5 9.5t-1.5 8t-3.5 6.5t-3.5 5t-5.5 4.5t-6 3.5t-7.5 3t-8 3t-9.5 3t-9.5 3v26h196v-26z" />
    <glyph glyph-name="uni040E" unicode="&#x40e;" horiz-adv-x="654" 
d="M345 727q-57 0 -94 36.5t-40 86.5q0 11 10 11h14q10 0 11 -11q3 -24 29 -42.5t70 -18.5t70.5 18.5t29.5 42.5q1 11 11 11h14q10 0 10 -11q-3 -50 -40 -86.5t-95 -36.5zM639 621v-26q-28 -4 -40 -15.5t-28 -44.5l-188 -371q-53 -105 -85 -142t-80 -37q-43 0 -71.5 15
t-36.5 40q-7 24 4.5 41t33.5 17q21 0 32.5 -9.5t14.5 -20.5t13 -20.5t28 -9.5q15 0 25 3.5t20 16.5t14 21l17 34l5 10l-216 387q-28 52 -42 66.5t-44 18.5v26h203v-26q-27 -5 -38.5 -13.5t-4.5 -20.5l185 -349l167 339q8 18 -8 28.5t-48 15.5v26h168z" />
    <glyph glyph-name="uni0410" unicode="&#x410;" horiz-adv-x="702" 
d="M592 115q22 -49 38.5 -64t51.5 -23v-28h-218v28q41 7 49.5 18.5t-3.5 30.5l-59 139h-254l-55 -134q-8 -22 6 -34t52 -20v-28h-180v28q36 8 49.5 18.5t27.5 43.5l224 539l30 -8q21 -7 30 -28zM212 254h223l-115 267z" />
    <glyph glyph-name="uni0411" unicode="&#x411;" horiz-adv-x="583" 
d="M307 381q100 0 166.5 -52t66.5 -138q0 -88 -66.5 -139.5t-175.5 -51.5h-283v38q68 3 68 35v488q0 16 -15 20.5t-53 2.5v37h438q22 0 30 -23l24 -89h-29l-16 32q-18 36 -80 37l-163 3q-19 -1 -27.5 -2t-14.5 -6t-6 -15v-177h136zM315 38q127 0 127 153q0 154 -143 154
h-128v-272q0 -32 68 -35h76z" />
    <glyph glyph-name="uni0412" unicode="&#x412;" horiz-adv-x="607" 
d="M416 336q74 -13 115 -56t41 -103q0 -88 -62 -133.5t-175 -43.5l-88 2q-127 8 -222 -2v35q65 14 65 48v459q0 34 -64 44v35h288q224 0 224 -147q0 -44 -31.5 -83t-90.5 -55zM175 581v-226h208q21 0 42 34.5t21 85.5q0 106 -120 106h-151zM329 43q78 0 114.5 30.5
t36.5 103.5q0 70 -54 106t-183 36h-68v-235q0 -41 29 -41h125z" />
    <glyph glyph-name="uni0413" unicode="&#x413;" horiz-adv-x="532" 
d="M483 598l24 -89h-29l-16 32q-18 36 -80 37l-163 3q-19 -1 -27.5 -2t-14.5 -6t-6 -15v-485q0 -32 68 -35v-38h-224v38q68 3 68 35v488q0 16 -15 20.5t-53 2.5v37h438q22 0 30 -23z" />
    <glyph glyph-name="uni0414" unicode="&#x414;" horiz-adv-x="670" 
d="M627 584q-79 0 -79 -28v-483q0 -22 15.5 -29.5t56.5 -8.5q11 0 11 -12l-24 -188h-17q-11 0 -11 11q0 10 0.5 30.5t0 27.5t-1.5 22.5t-4.5 20.5t-9.5 16t-15 14.5t-22.5 9.5t-32 7.5l-42.5 3.5t-54 2h-127q-48 0 -81.5 -3.5t-55.5 -13t-35 -19.5t-19 -30.5t-7.5 -38
t-1.5 -49.5q0 -11 -11 -11h-21v190q0 10 10 11q83 15 114.5 144.5t31.5 374.5q0 17 -17 23t-62 6v37h511v-37zM404 36q30 0 44 7.5t14 30.5v474q0 28 -58 28h-114q-51 0 -51 -26q0 -461 -107 -514h272z" />
    <glyph glyph-name="uni0415" unicode="&#x415;" horiz-adv-x="572" 
d="M537 116q-17 -35 -32 -93q-6 -23 -30 -23h-440v29q38 12 45 21q8 9 8 28v468q0 13 -2 20.5t-12.5 13.5t-14.5 7.5t-24 7.5v26h437q10 0 13.5 -3.5t3.5 -14.5v-100h-29l-15 33q-19 41 -80 41h-187v-239h181q7 0 12.5 1t10 4.5l7 5.5t6.5 9.5t5 9.5t5 12.5t5 12.5h18v-153
h-18q-2 4 -6 14.5t-5.5 14t-6 11t-8.5 10t-10.5 5t-14.5 2.5h-181v-255l229 2q11 0 19.5 1.5t13.5 3t10.5 6t7.5 7t7.5 10.5t8.5 11l26 33h37z" />
    <glyph glyph-name="uni0416" unicode="&#x416;" horiz-adv-x="944" 
d="M784 115q43 -50 66.5 -66.5t58.5 -20.5v-28h-215v28q24 4 32.5 14.5t-5.5 29.5l-185 214h-21v-218q0 -33 68 -40v-28h-223v28q69 7 69 40v218h-21l-188 -214q-13 -19 -3.5 -29.5t33.5 -14.5v-28h-215v28q35 4 58.5 20.5t66.5 66.5l190 223l-165 215q-6 8 -12 11.5
t-14 0.5t-12.5 -5.5t-17 -12t-18.5 -13.5q-25 -15 -44.5 -0.5t-19.5 40.5q0 47 87 47q57 0 111 -76l119 -164q32 -42 64 -42h1v214q0 22 -13.5 28.5t-55.5 11.5v28h223v-28q-51 -8 -60 -16q-8 -8 -8 -24v-214h1q32 0 64 42l119 164q54 76 110 76q87 0 87 -47
q0 -26 -19 -40.5t-44 0.5q-6 4 -18.5 13.5t-17 12t-12.5 5.5t-14 -0.5t-12 -11.5l-165 -215z" />
    <glyph glyph-name="uni0417" unicode="&#x417;" horiz-adv-x="594" 
d="M409 367q49 3 94.5 -42t45.5 -119q0 -96 -71 -157t-173 -61q-117 0 -185.5 51t-68.5 132q0 31 9.5 43.5t31.5 12.5q14 0 21 -7t9 -16.5t6 -31t10 -38.5q39 -111 169 -111q66 0 110.5 43t44.5 121q0 58 -36 93.5t-82 35.5q-20 0 -38 -6l-41 -14l-14 34l43 17
q121 47 121 141q0 51 -27.5 80.5t-81.5 29.5q-120 0 -167 -123l-14 -42q-6 -17 -23 -11l-35 9l11 190h16q16 0 19 -17q8 -46 31 -46q59 79 155 79q90 0 144.5 -45.5t54.5 -100.5q0 -44 -26 -77.5t-63 -46.5z" />
    <glyph glyph-name="uni0418" unicode="&#x418;" horiz-adv-x="669" 
d="M632 595l-11 -3.5t-10 -3t-8.5 -3t-8.5 -4l-6 -4.5t-5.5 -5.5t-3.5 -6.5t-2.5 -8.5t-0.5 -10.5v-474q0 -7 1 -12t2.5 -9t5.5 -7.5t6 -5.5t8.5 -4.5l9 -3.5t11.5 -3.5t12 -3.5v-23h-196v23q3 1 12 3.5t11.5 3.5l9 3.5t8.5 4.5t6 5.5t5 7.5t2 9t1 12v388l-311 -344v-44
q0 -7 1 -12t2.5 -9t5.5 -7.5t6 -5.5t8.5 -4.5l9 -3.5t11.5 -3.5t12 -3.5v-23h-196v23q3 1 12 3.5t11.5 3.5l9 3.5t8.5 4.5t6 5.5t5 7.5t2 9t1 12v474q0 5 -0.5 9.5t-1.5 8t-3.5 6.5t-3.5 5t-5.5 4.5t-6 3.5t-7.5 3t-8 3t-9.5 3t-9.5 3v26h196v-26l-11 -3.5t-10 -3t-8.5 -3
t-8.5 -4l-6 -4.5t-5.5 -5.5t-3.5 -6.5t-2.5 -8.5t-0.5 -10.5v-374l311 344v30q0 5 -0.5 9.5t-1.5 8t-3.5 6.5t-3.5 5t-5.5 4.5t-6 3.5t-7.5 3t-8 3t-9.5 3t-9.5 3v26h196v-26z" />
    <glyph glyph-name="uni0419" unicode="&#x419;" horiz-adv-x="669" 
d="M339 727q-57 0 -94 36.5t-40 86.5q0 11 10 11h14q10 0 11 -11q3 -24 29 -42.5t70 -18.5t70.5 18.5t29.5 42.5q1 11 11 11h14q10 0 10 -11q-3 -50 -40 -86.5t-95 -36.5zM632 595l-11 -3.5t-10 -3t-8.5 -3t-8.5 -4l-6 -4.5t-5.5 -5.5t-3.5 -6.5t-2.5 -8.5t-0.5 -10.5v-474
q0 -7 1 -12t2.5 -9t5.5 -7.5t6 -5.5t8.5 -4.5l9 -3.5t11.5 -3.5t12 -3.5v-23h-196v23q3 1 12 3.5t11.5 3.5l9 3.5t8.5 4.5t6 5.5t5 7.5t2 9t1 12v388l-311 -344v-44q0 -7 1 -12t2.5 -9t5.5 -7.5t6 -5.5t8.5 -4.5l9 -3.5t11.5 -3.5t12 -3.5v-23h-196v23q3 1 12 3.5t11.5 3.5
l9 3.5t8.5 4.5t6 5.5t5 7.5t2 9t1 12v474q0 5 -0.5 9.5t-1.5 8t-3.5 6.5t-3.5 5t-5.5 4.5t-6 3.5t-7.5 3t-8 3t-9.5 3t-9.5 3v26h196v-26l-11 -3.5t-10 -3t-8.5 -3t-8.5 -4l-6 -4.5t-5.5 -5.5t-3.5 -6.5t-2.5 -8.5t-0.5 -10.5v-374l311 344v30q0 5 -0.5 9.5t-1.5 8t-3.5 6.5
t-3.5 5t-5.5 4.5t-6 3.5t-7.5 3t-8 3t-9.5 3t-9.5 3v26h196v-26z" />
    <glyph glyph-name="uni041A" unicode="&#x41a;" horiz-adv-x="636" 
d="M476 115q43 -50 66.5 -66.5t58.5 -20.5v-28h-215v28q24 4 32.5 14.5t-5.5 29.5l-185 214h-53v-218q0 -33 68 -40v-28h-223v28q68 7 68 40v485q0 22 -13.5 28.5t-54.5 11.5v28h223v-28q-51 -8 -60 -16q-8 -8 -8 -24v-214h33q33 0 64 42l119 164q54 76 111 76q87 0 87 -47
q0 -26 -19.5 -41t-44.5 1q-6 4 -18 13.5t-16.5 12t-12.5 5.5t-14 -0.5t-12 -11.5l-166 -215z" />
    <glyph glyph-name="uni041B" unicode="&#x41b;" horiz-adv-x="660" 
d="M621 595q-2 -1 -9.5 -3t-9.5 -3t-8 -3t-7.5 -3t-6 -3.5t-5.5 -4.5t-3.5 -5t-3.5 -6.5t-1.5 -8t-0.5 -9.5v-474q0 -7 1 -12t2 -9t5 -7.5t6 -5.5t8.5 -4.5l9 -3.5t11.5 -3.5t12 -3.5v-23h-195v23q3 1 12 3.5t11.5 3.5l9 3.5t8.5 4.5t6 5.5t5 7.5t2 9t1 12v474q0 25 -12 32
t-42 7h-195v-308q0 -10 0.5 -40t0 -44l-1.5 -42t-4 -43t-8.5 -37t-14.5 -34t-21 -24.5t-29.5 -18t-39.5 -5.5q-76 0 -91 50q-6 17 -1.5 35t18.5 24q16 9 35 4.5t23 -18.5q2 -7 3 -27.5t6.5 -29t19.5 -7.5q16 1 27.5 9.5t18.5 27.5t11 34.5t5.5 49.5t2 52.5t0.5 61.5l-1 302
q0 28 -39 28h-60v36h529v-26z" />
    <glyph glyph-name="uni041C" unicode="&#x41c;" horiz-adv-x="820" 
d="M780 597q-27 -8 -38 -21.5t-11 -39.5v-463q0 -24 9.5 -32.5t39.5 -17.5v-23h-185v23q37 13 44 23q7 9 7 27v441l-225 -459q-7 -13 -12.5 -17t-11 0t-12.5 17l-253 462v-444q0 -24 10.5 -32t42.5 -18v-23h-155v23l24 8t15.5 7.5t12 13.5t2.5 21v463q0 25 -13 38.5
t-41 22.5v24h148l246 -453l226 453h130v-24z" />
    <glyph glyph-name="uni041D" unicode="&#x41d;" horiz-adv-x="671" 
d="M643 595q-38 -12 -45 -21q-8 -9 -8 -28v-474q0 -6 0.5 -11t2.5 -8.5t3 -6.5t5 -5.5t5.5 -4t7.5 -4t8 -3t10.5 -3t10.5 -3.5v-23h-195v23q2 1 9.5 3t9.5 3t7.5 3t7 3t5.5 3t5 4t3.5 5.5t3 7t1 8t0.5 9.5v222h-328v-222q0 -5 0.5 -9.5t1 -8t3 -7t3.5 -5.5t5 -4t5.5 -3t7 -3
t7.5 -3t9.5 -3t9.5 -3v-23h-195v23q2 1 10.5 3.5t10.5 3t8 3t7.5 4t5.5 4t5 5.5t3 6.5t2.5 8.5t0.5 11v474q0 13 -2 20.5t-12.5 13.5t-14.5 7.5t-24 7.5v26h195v-26q-23 -7 -30.5 -10t-14.5 -12.5t-7 -26.5v-210h328v210q0 17 -7 26.5t-14.5 12.5t-30.5 10v26h195v-26z" />
    <glyph glyph-name="uni041E" unicode="&#x41e;" horiz-adv-x="650" 
d="M620 316q0 -142 -83.5 -236.5t-211.5 -94.5q-127 0 -211 96t-84 235q0 138 83.5 229.5t211.5 91.5q129 0 212 -91t83 -230zM323 31q98 0 149.5 56t51.5 199q0 135 -62 223t-137 88q-96 0 -147 -53.5t-51 -197.5q0 -141 60 -228t136 -87z" />
    <glyph glyph-name="uni041F" unicode="&#x41f;" horiz-adv-x="669" 
d="M632 595l-11 -3.5t-10 -3t-8.5 -3t-8.5 -4l-6 -4.5t-5.5 -5.5t-3.5 -6.5t-2.5 -8.5t-0.5 -10.5v-474q0 -7 1 -12t2.5 -9t5.5 -7.5t6 -5.5t8.5 -4.5l9 -3.5t11.5 -3.5t12 -3.5v-23h-196v23q3 1 12 3.5t11.5 3.5l9 3.5t8.5 4.5t6 5.5t5 7.5t2 9t1 12v474q0 28 -24 39h-262
q-25 -11 -25 -39v-474q0 -7 1 -12t2.5 -9t5.5 -7.5t6 -5.5t8.5 -4.5l9 -3.5t11.5 -3.5t12 -3.5v-23h-196v23q3 1 12 3.5t11.5 3.5l9 3.5t8.5 4.5t6 5.5t5 7.5t2 9t1 12v474q0 5 -0.5 9.5t-1.5 8t-3.5 6.5t-3.5 5t-5.5 4.5t-6 3.5t-7.5 3t-8 3t-9.5 3t-9.5 3v26h592v-26z" />
    <glyph glyph-name="uni0420" unicode="&#x420;" horiz-adv-x="559" 
d="M295 621q107 0 173 -51.5t66 -139.5q0 -87 -69 -137t-183 -50h-117v-171q0 -7 1 -12t2.5 -9t5.5 -7.5t6 -5.5t8.5 -4.5l9 -3.5t11.5 -3.5t12 -3.5v-23h-196v23q3 1 12 3.5t11.5 3.5l9 3.5t8.5 4.5t6 5.5t5 7.5t2 9t1 12v474q0 5 -0.5 9.5t-1.5 8t-3.5 6.5t-3.5 5
t-5.5 4.5t-6 3.5t-7.5 3t-8 3t-9.5 3t-9.5 3v26h270zM296 276q141 0 141 154q0 71 -30.5 113t-97.5 42h-144v-309h131z" />
    <glyph glyph-name="uni0421" unicode="&#x421;" horiz-adv-x="625" 
d="M552 415q-17 -6 -23 11q-2 6 -14 36q-28 68 -77.5 101t-109.5 33q-84 0 -143.5 -65.5t-59.5 -187.5q0 -135 69 -222t154 -87q57 0 94.5 26.5t69.5 72.5q4 5 8 12l6 10.5t5.5 7.5t6.5 5.5t7 1.5q6 0 18 -7t15 -12q5 -10 -16 -44q-73 -122 -233 -122q-125 0 -212.5 97.5
t-87.5 237.5q0 131 84.5 224t204.5 93q113 0 183 -82q21 0 29 49q3 17 19 17h20l11 -196z" />
    <glyph glyph-name="uni0422" unicode="&#x422;" horiz-adv-x="584" 
d="M553 599l6 -91h-20l-13 33q-12 30 -45 30h-145v-499q0 -7 1 -12t2 -9t5 -7.5t6 -5.5t8.5 -4.5l9 -3.5t11.5 -3.5t12 -3.5v-23h-197v23q3 1 12 3.5t11.5 3.5l9 3.5t8.5 4.5t6 5.5t5.5 7.5t2.5 9t1 12v499h-146q-33 0 -46 -30l-13 -33h-20l7 91q1 22 21 22h478q21 0 22 -22
z" />
    <glyph glyph-name="uni0423" unicode="&#x423;" horiz-adv-x="654" 
d="M639 621v-26q-28 -4 -40 -15.5t-28 -44.5l-188 -371q-53 -105 -85 -142t-80 -37q-43 0 -71.5 15t-36.5 40q-7 24 4.5 41t33.5 17q21 0 32.5 -9.5t14.5 -20.5t13 -20.5t28 -9.5q15 0 25 3.5t20 16.5t14 21l17 34l5 10l-216 387q-28 52 -42 66.5t-44 18.5v26h203v-26
q-27 -5 -38.5 -13.5t-4.5 -20.5l185 -349l167 339q8 18 -8 28.5t-48 15.5v26h168z" />
    <glyph glyph-name="uni0424" unicode="&#x424;" horiz-adv-x="754" 
d="M465 94h-45v-22q0 -7 1 -12t2 -9t5 -7.5t6 -5.5t8.5 -4.5l9 -3.5t11.5 -3.5t12 -3.5v-23h-195v23q3 1 12 3.5t11.5 3.5l9 3.5t8.5 4.5t6 5.5t5 7.5t2 9t1 12v22h-45q-114 0 -179.5 61t-65.5 156q0 94 66.5 155t177.5 61h46v19q0 5 -0.5 9.5t-1.5 8t-3.5 6.5t-3.5 5
t-5.5 4.5t-6 3.5t-7.5 3t-8 3t-9.5 3t-9.5 3v26h195v-26q-2 -1 -9.5 -3t-9.5 -3t-8 -3t-7.5 -3t-6 -3.5t-5.5 -4.5t-3.5 -5t-3.5 -6.5t-1.5 -8t-0.5 -9.5v-19h46q110 0 176.5 -61t66.5 -155q0 -96 -65 -156.5t-179 -60.5zM295 132h40v359h-44q-72 0 -110 -52t-38 -128
q0 -78 37 -128.5t115 -50.5zM464 491h-44v-359h40q78 0 115 50.5t37 128.5q0 76 -38 128t-110 52z" />
    <glyph glyph-name="uni0425" unicode="&#x425;" horiz-adv-x="672" 
d="M546 113l22 -30t18.5 -24t14.5 -14t19 -11.5t22 -3.5v-30h-201v30q24 3 37 11.5t4 20.5l-177 222l-154 -212q-12 -17 0.5 -28t43.5 -14v-30h-176v30q30 3 47 15t39 43l173 231l-153 193l-22 28t-18 23t-14 14.5t-18.5 12t-22.5 4.5v27h200v-27q-23 -4 -36 -12.5t-5 -18.5
l160 -202l137 192q10 15 -5 26t-47 15v27h173v-27q-30 -3 -46 -16t-35 -41l-151 -209z" />
    <glyph glyph-name="uni0426" unicode="&#x426;" horiz-adv-x="701" 
d="M651 37q11 0 11 -12l-24 -190h-15q-11 0 -11 11q0 77 -4 92q-10 40 -65 53q-39 9 -113 9h-390v23q3 1 12 3.5t11.5 3.5l9 3.5t8.5 4.5t6 5.5t5 7.5t2 9t1 12v474q0 5 -0.5 9.5t-1.5 8t-3.5 6.5t-3.5 5t-5.5 4.5t-6 3.5t-7.5 3t-8 3t-9.5 3t-9.5 3v26h196v-26l-11 -3.5
t-10 -3t-8.5 -3t-8.5 -4l-6 -4.5t-5.5 -5.5t-3.5 -6.5t-2.5 -8.5t-0.5 -10.5v-474q0 -26 17 -35h236q31 0 44.5 6t13.5 29v474q0 5 -0.5 9.5t-1.5 8t-3.5 6.5t-3.5 5t-5.5 4.5t-6 3.5t-7.5 3t-8 3t-9.5 3t-9.5 3v26h196v-26l-11 -3.5t-10 -3t-8.5 -3t-8.5 -4l-6 -4.5
t-5.5 -5.5t-3.5 -6.5t-2.5 -8.5t-0.5 -10.5v-474q0 -12 3 -19q8 -16 72 -16z" />
    <glyph glyph-name="uni0427" unicode="&#x427;" horiz-adv-x="611" 
 />
    <glyph glyph-name="uni0428" unicode="&#x428;" horiz-adv-x="869" 
d="M832 595l-11 -3.5t-10 -3t-8.5 -3t-8.5 -4l-6 -4.5t-5.5 -5.5t-3.5 -6.5t-2.5 -8.5t-0.5 -10.5v-474q0 -7 1 -12t2.5 -9t5.5 -7.5t6 -5.5t8.5 -4.5l9 -3.5t11.5 -3.5t12 -3.5v-23h-792v23q3 1 12 3.5t11.5 3.5l9 3.5t8.5 4.5t6 5.5t5 7.5t2 9t1 12v474q0 5 -0.5 9.5
t-1.5 8t-3.5 6.5t-3.5 5t-5.5 4.5t-6 3.5t-7.5 3t-8 3t-9.5 3t-9.5 3v26h196v-26l-11 -3.5t-10 -3t-8.5 -3t-8.5 -4l-6 -4.5t-5.5 -5.5t-3.5 -6.5t-2.5 -8.5t-0.5 -10.5v-474q0 -26 17 -35h179q17 9 17 35v474q0 5 -0.5 9.5t-1.5 8t-3.5 6.5t-3.5 5t-5.5 4.5t-6 3.5t-7.5 3
t-8 3t-9.5 3t-9.5 3v26h196v-26l-11 -3.5t-10 -3t-8.5 -3t-8.5 -4l-6 -4.5t-5.5 -5.5t-3.5 -6.5t-2.5 -8.5t-0.5 -10.5v-474q0 -26 18 -35h178q17 9 17 35v474q0 5 -0.5 9.5t-1.5 8t-3.5 6.5t-3.5 5t-5.5 4.5t-6 3.5t-7.5 3t-8 3t-9 3t-10 3v26h196v-26z" />
    <glyph glyph-name="uni0429" unicode="&#x429;" horiz-adv-x="897" 
d="M846 37q11 0 11 -12l-24 -190h-15q-11 0 -11 11q0 77 -2 89q-9 40 -54 54q-39 11 -118 11h-590v23q3 1 12 3.5t11.5 3.5l9 3.5t8.5 4.5t6 5.5t5 7.5t2 9t1 12v474q0 5 -0.5 9.5t-1.5 8t-3.5 6.5t-3.5 5t-5.5 4.5t-6 3.5t-7.5 3t-8 3t-9.5 3t-9.5 3v26h195v-26
q-3 -1 -10 -3t-9 -3t-8 -3t-7.5 -3t-6 -3.5t-5.5 -4.5t-3.5 -5t-3.5 -6.5t-1.5 -8t-0.5 -9.5v-474q0 -25 16 -35h181q16 10 16 35v474q0 5 -0.5 9.5t-1.5 8t-3.5 6.5t-3.5 5t-5.5 4.5t-6 3.5t-7.5 3t-8 3t-9 3t-10 3v26h196v-26l-11 -3.5t-10 -3t-8.5 -3t-8.5 -4l-6 -4.5
t-5.5 -5.5t-3.5 -6.5t-2.5 -8.5t-0.5 -10.5v-474q0 -26 17 -35h157q20 2 29.5 9t9.5 26v474q0 5 -0.5 9.5t-1.5 8t-3.5 6.5t-3.5 5t-5.5 4.5t-6 3.5t-7.5 3t-8 3t-9 3t-10 3v26h196v-26l-11 -3.5t-10 -3t-8.5 -3t-8.5 -4l-6 -4.5t-5.5 -5.5t-3.5 -6.5t-2.5 -8.5t-0.5 -10.5
v-474q0 -20 11 -31q15 -4 56 -4z" />
    <glyph glyph-name="uni042A" unicode="&#x42a;" horiz-adv-x="677" 
d="M419 381q100 0 166.5 -52t66.5 -138q0 -88 -66.5 -139.5t-175.5 -51.5h-275v23q3 1 12 3.5t11.5 3.5l9 3.5t8.5 4.5t6 5.5t5 7.5t2 9t1 12v474q0 22 -11 31l-52 -2q-34 -2 -53 -10.5t-29 -28.5l-16 -33l-29 2l24 93q6 23 30 23h276v-26q-2 -1 -9.5 -3t-9.5 -3t-8 -3
t-7.5 -3t-6 -3.5t-5.5 -4.5t-3.5 -5t-3.5 -6.5t-1.5 -8t-0.5 -9.5v-165h144zM427 37q127 0 127 154t-143 154h-136v-273q0 -25 16 -35h136z" />
    <glyph glyph-name="uni042B" unicode="&#x42b;" horiz-adv-x="843" 
d="M325 381q99 0 165.5 -52t66.5 -138q0 -88 -66.5 -139.5t-174.5 -51.5h-276v23q3 1 12 3.5t11.5 3.5l9 3.5t8.5 4.5t6 5.5t5 7.5t2 9t1 12v474q0 5 -0.5 9.5t-1.5 8t-3.5 6.5t-3.5 5t-5.5 4.5t-6 3.5t-7.5 3t-8 3t-9.5 3t-9.5 3v26h196v-26l-11 -3.5t-10 -3t-8.5 -3
t-8.5 -4l-6 -4.5t-5.5 -5.5t-3.5 -6.5t-2.5 -8.5t-0.5 -10.5v-165h145zM806 595l-11 -3.5t-10 -3t-8.5 -3t-8.5 -4l-6 -4.5t-5.5 -5.5t-3.5 -6.5t-2.5 -8.5t-0.5 -10.5v-474q0 -7 1 -12t2.5 -9t5.5 -7.5t6 -5.5t8.5 -4.5l9 -3.5t11.5 -3.5t12 -3.5v-23h-196v23q3 1 12 3.5
t11.5 3.5l9 3.5t8.5 4.5t6 5.5t5 7.5t2 9t1 12v474q0 5 -0.5 9.5t-1.5 8t-3.5 6.5t-3.5 5t-5.5 4.5t-6 3.5t-7.5 3t-8 3t-9.5 3t-9.5 3v26h196v-26zM332 37q128 0 128 154t-144 154h-136v-273q0 -26 17 -35h135z" />
    <glyph glyph-name="uni042C" unicode="&#x42c;" horiz-adv-x="580" 
d="M325 381q99 0 165.5 -52t66.5 -138q0 -88 -66.5 -139.5t-174.5 -51.5h-276v23q3 1 12 3.5t11.5 3.5l9 3.5t8.5 4.5t6 5.5t5 7.5t2 9t1 12v474q0 5 -0.5 9.5t-1.5 8t-3.5 6.5t-3.5 5t-5.5 4.5t-6 3.5t-7.5 3t-8 3t-9.5 3t-9.5 3v26h196v-26l-11 -3.5t-10 -3t-8.5 -3
t-8.5 -4l-6 -4.5t-5.5 -5.5t-3.5 -6.5t-2.5 -8.5t-0.5 -10.5v-165h145zM332 37q128 0 128 154t-144 154h-136v-273q0 -26 17 -35h135z" />
    <glyph glyph-name="uni042D" unicode="&#x42d;" horiz-adv-x="626" 
d="M308 637q120 0 204.5 -93t84.5 -224q0 -140 -88 -237.5t-213 -97.5q-161 0 -232 122q-21 34 -17 44q4 5 16 12t18 7q4 0 7 -1.5t6 -5.5t5 -7.5t6.5 -10.5l7.5 -12q31 -46 69.5 -72.5t95.5 -26.5q77 0 142 72.5t77 188.5h-259v43h262v5q0 122 -59.5 187.5t-142.5 65.5
q-61 0 -110.5 -33t-77.5 -101q-12 -30 -14 -36q-6 -17 -23 -11l-27 10l11 196h20q16 0 19 -17q8 -49 29 -49q68 82 183 82z" />
    <glyph glyph-name="uni042E" unicode="&#x42e;" horiz-adv-x="924" 
d="M599 637q129 0 212 -91t83 -230q0 -142 -83.5 -236.5t-211.5 -94.5q-121 0 -204 89t-90 221h-125v-223q0 -7 1 -12t2.5 -9t5.5 -7.5t6 -5.5t8.5 -4.5l9 -3.5t11.5 -3.5t12 -3.5v-23h-196v23q3 1 12 3.5t11.5 3.5l9 3.5t8.5 4.5t6 5.5t5 7.5t2 9t1 12v474q0 5 -0.5 9.5
t-1.5 8t-3.5 6.5t-3.5 5t-5.5 4.5t-6 3.5t-7.5 3t-8 3t-9.5 3t-9.5 3v26h196v-26l-11 -3.5t-10 -3t-8.5 -3t-8.5 -4l-6 -4.5t-5.5 -5.5t-3.5 -6.5t-2.5 -8.5t-0.5 -10.5v-208h125q7 130 89.5 214.5t204.5 84.5zM597 31q98 0 149.5 56t51.5 199q0 135 -62 223t-137 88
q-96 0 -147 -53.5t-51 -197.5q0 -141 60 -228t136 -87z" />
    <glyph glyph-name="uni042F" unicode="&#x42f;" horiz-adv-x="628" 
d="M26 30h23q33 3 58.5 44t40.5 94q16 58 40 87t83 37q-78 17 -120.5 59t-42.5 100q0 76 60.5 123t163.5 47h261v-23q-28 -9 -40.5 -22.5t-12.5 -38.5v-465q0 -6 0.5 -11t2.5 -8.5t3 -6.5t5 -5.5t5.5 -4t7.5 -4t8 -3t10.5 -3t10.5 -3.5v-23h-192v23q3 1 12 3.5t11 3.5
t8.5 3.5t8.5 4.5l5.5 5.5t5 7.5t2.5 9t1 12v215h-76q-65 0 -91 -27t-43 -99q-24 -112 -115 -161h-104v30zM323 320h132v265h-140q-55 0 -82.5 -39t-27.5 -95q0 -131 118 -131z" />
    <glyph glyph-name="uni0430" unicode="&#x430;" horiz-adv-x="471" 
d="M396 82q0 -26 12.5 -33.5t42.5 -2.5v-31q-37 -23 -70 -23q-22 0 -38.5 26t-21.5 74q-20 -41 -58.5 -71t-90.5 -31q-63 -1 -108 31t-45 90q0 42 22 70.5t89.5 54.5t186.5 42v12q0 68 -21.5 100.5t-72.5 32.5q-49 0 -69.5 -17.5t-20.5 -67.5q0 -13 -15.5 -20t-34.5 -7
q-37 0 -39 39q0 53 53 81.5t130 28.5q82 0 125.5 -43t43.5 -120v-215zM190 35q21 0 39 6.5t32.5 20.5t22.5 22.5t20 27.5t13 21v113q-68 -10 -112.5 -24.5t-65.5 -33t-28 -35.5t-7 -39q0 -35 23 -57t63 -22z" />
    <glyph glyph-name="uni0431" unicode="&#x431;" horiz-adv-x="488" 
d="M248 458q89 0 151.5 -64t62.5 -164q0 -105 -62 -172.5t-149 -67.5q-78 0 -136.5 56.5t-79.5 173.5q-9 61 -10 118.5t14.5 109t41.5 90t70 61t101 22.5h124q11 0 19.5 3.5t17 8.5t14.5 7h18q-15 -58 -43.5 -77.5t-70.5 -19.5h-101q-84 0 -118.5 -48t-50.5 -154
q28 55 77.5 86t109.5 31zM262 36q118 0 118 171q0 90 -41 150t-103 60q-117 0 -117 -172q0 -90 40.5 -149.5t102.5 -59.5z" />
    <glyph glyph-name="uni0432" unicode="&#x432;" horiz-adv-x="480" 
d="M317 243q57 -10 89.5 -40.5t32.5 -74.5q0 -63 -45.5 -96.5t-124.5 -31.5l-56 2q-100 7 -188 -2v37q57 9 57 35v318q0 13 -14.5 22t-42.5 9v30h217q79 0 126 -27t47 -81q0 -31 -26 -59.5t-72 -40.5zM162 421v-158h125q22 0 34 19.5t12 53.5q0 40 -22.5 62.5t-64.5 22.5
h-84zM257 42q101 -2 101 86q0 49 -37 73t-119 24h-40v-152q0 -30 21 -30z" />
    <glyph glyph-name="uni0433" unicode="&#x433;" horiz-adv-x="449" 
d="M400 428l24 -93l-29 -2l-16 33q-27 53 -80 53h-85h-1q-18 0 -25 -1t-16.5 -3t-12.5 -7t-3 -13v-324q0 -16 15 -22.5t53 -10.5v-38h-209v38q31 4 44.5 10.5t13.5 22.5v323q0 28 -58 28v29h355q24 0 30 -23z" />
    <glyph glyph-name="uni0434" unicode="&#x434;" horiz-adv-x="613" 
d="M574 422q-79 0 -79 -28v-318q0 -22 15.5 -29.5t56.5 -8.5q9 0 11 -12l-24 -161h-18q-11 0 -11 11q0 7 0.5 22t0.5 21t-1.5 18t-4.5 16.5l-9 13.5t-14.5 12t-21.5 8.5t-31 7.5t-41 3.5t-52 1.5h-86q-69 0 -110 -7.5t-59.5 -26t-23 -37t-4.5 -53.5q0 -11 -11 -11h-22v163
q0 10 10 11q141 24 141 354q0 17 -17 23t-62 6v29h467v-29zM354 38q30 0 44 7.5t14 30.5v315q0 17 -8 23t-28 6h-112q-19 0 -25 -5t-6 -22q0 -138 -24.5 -232t-73.5 -123h219z" />
    <glyph glyph-name="uni0435" unicode="&#x435;" 
d="M433 275q0 -52 -56 -52h-259q0 -82 43.5 -134.5t102.5 -52.5q76 0 131 74l27 -35q-18 -24 -33 -38.5t-53 -30.5t-88 -16q-93 0 -155.5 68t-62.5 172q0 107 59.5 167.5t149.5 60.5q78 0 136 -51t58 -132zM349 264q1 69 -28 112.5t-82 43.5q-56 0 -88.5 -43.5t-32.5 -112.5
h231z" />
    <glyph glyph-name="uni0436" unicode="&#x436;" horiz-adv-x="728" 
d="M608 87q21 -25 37 -37.5t24.5 -16t23.5 -5.5v-28h-165v28q29 5 28 13q0 2 -2 4l-128 156h-21v-140q0 -11 7.5 -18t15.5 -9.5t24 -5.5v-28h-174v28q16 3 24.5 5.5t16 9.5t7.5 18v140h-25l-127 -156q-9 -9 14 -15q5 -1 12 -2v-28h-165v28q15 2 23.5 5.5t24 16t36.5 37.5
l133 155l-109 158q-9 8 -16 5.5t-25 -13.5l-9 -6q-19 -13 -35.5 0.5t-16.5 31.5q0 34 56 34q58 0 93 -53l84 -125q18 -28 43 -28h9v146q0 11 -7.5 18t-16 9.5t-24.5 5.5v26h174v-26q-16 -3 -24 -5.5t-15.5 -9.5t-7.5 -18v-146h5q25 0 43 28l84 125q35 53 93 53q56 0 56 -34
q0 -18 -16.5 -31.5t-35.5 -0.5q-34 21 -41 20q-5 0 -9 -6l-108 -158z" />
    <glyph glyph-name="uni0437" unicode="&#x437;" horiz-adv-x="444" 
d="M310 268q38 -6 63.5 -37.5t25.5 -81.5q0 -68 -54.5 -112.5t-126.5 -44.5q-76 0 -124 41t-49 99q0 35 31 35q17 0 23 -8t9.5 -29.5t9.5 -36.5q23 -57 101 -57q46 0 75.5 26.5t29.5 72.5q0 42 -23 67t-52 25q-16 0 -33 -6l-28 -11l-13 32l35 14q76 29 76 95q0 33 -17.5 54
t-54.5 21q-46 0 -70 -22t-37 -68q-9 -34 -21 -37q-4 -2 -10 0l-28 10l8 140h17q16 0 20 -19.5t11 -23.5q44 54 115 54q66 0 105 -33.5t39 -74.5q0 -25 -15.5 -47.5t-37.5 -36.5z" />
    <glyph glyph-name="uni0438" unicode="&#x438;" horiz-adv-x="570" 
d="M531 425q-16 -3 -24 -5.5t-15.5 -9.5t-7.5 -18v-336q0 -11 7.5 -18t15.5 -9.5t24 -5.5v-23h-172v23q16 3 24.5 5.5t16 9.5t7.5 18v272l-244 -245v-27q0 -11 7.5 -18t15.5 -9.5t24 -5.5v-23h-171v23q16 3 24.5 5.5t16 9.5t7.5 18v336q0 11 -7.5 18t-16 9.5t-24.5 5.5v26
h171v-26q-16 -3 -24 -5.5t-15.5 -9.5t-7.5 -18v-258l244 250v8q0 11 -7.5 18t-16 9.5t-24.5 5.5v26h172v-26z" />
    <glyph glyph-name="uni0439" unicode="&#x439;" horiz-adv-x="570" 
d="M298 557q-57 0 -94 36.5t-40 86.5q0 11 10 11h14q10 0 11 -11q3 -24 29 -42.5t70 -18.5t70.5 18.5t29.5 42.5q1 11 11 11h14q10 0 10 -11q-3 -50 -40 -86.5t-95 -36.5zM531 425q-16 -3 -24 -5.5t-15.5 -9.5t-7.5 -18v-336q0 -11 7.5 -18t15.5 -9.5t24 -5.5v-23h-172v23
q16 3 24.5 5.5t16 9.5t7.5 18v272l-244 -245v-27q0 -11 7.5 -18t15.5 -9.5t24 -5.5v-23h-171v23q16 3 24.5 5.5t16 9.5t7.5 18v336q0 11 -7.5 18t-16 9.5t-24.5 5.5v26h171v-26q-16 -3 -24 -5.5t-15.5 -9.5t-7.5 -18v-258l244 250v8q0 11 -7.5 18t-16 9.5t-24.5 5.5v26h172
v-26z" />
    <glyph glyph-name="uni043A" unicode="&#x43a;" horiz-adv-x="480" 
d="M371 88q36 -37 51 -48.5t33 -13.5v-26h-164v26q29 4 28 15q-1 2 -3 5l-139 155h-32v-145q0 -11 7.5 -18t15.5 -9.5t24 -5.5v-23h-172v23q16 3 24.5 5.5t16 9.5t7.5 18v336q0 11 -7.5 18t-16 9.5t-24.5 5.5v26h172v-28q-20 -4 -28.5 -6.5t-13.5 -9t-5 -17.5v-144h16
q21 0 43 28l96 125q42 53 81 53q68 0 68 -34q0 -18 -16.5 -31.5t-35.5 -0.5q-33 21 -40 20q-5 -1 -9 -6l-125 -158z" />
    <glyph glyph-name="uni043B" unicode="&#x43b;" horiz-adv-x="592" 
d="M553 424q-71 -2 -71 -32v-326q0 -6 1.5 -11t6 -9t8 -6.5t11.5 -5l12.5 -4t15.5 -4t16 -3.5v-23h-219v23q3 1 10 3t10 2.5t8.5 2.5t7.5 3t6.5 3t6 4t4 4.5t3 5.5t1.5 7t1 8v325q0 19 -8.5 25t-29.5 6h-123v-157v-27q0 -39 -0.5 -59t-3 -55t-10 -54t-20.5 -40.5t-34.5 -31
t-50.5 -9.5q-74 0 -89 50q-5 16 -0.5 34.5t17.5 24.5q15 8 34.5 4t23.5 -18q2 -7 3 -27t6.5 -28t19.5 -7q23 2 37 17.5t20 49.5t7 65.5t1 88.5l-1 149q0 17 -19 23.5t-73 6.5v29h454v-27z" />
    <glyph glyph-name="uni043C" unicode="&#x43c;" horiz-adv-x="605" 
d="M565 427q-20 -5 -27.5 -13t-7.5 -25v-336q0 -16 6 -20.5t29 -11.5v-21h-151v21q31 10 35 17q3 5 3 15v283l-146 -301q-5 -11 -13.5 -11t-14.5 11l-167 301v-283q0 -14 6.5 -19t27.5 -11q5 -1 7 -2v-21h-122v21q31 9 35 16q3 5 3 16v336q0 17 -8.5 24.5t-29.5 13.5v24h113
q70 -160 167 -319q90 186 148 319h107v-24z" />
    <glyph glyph-name="uni043D" unicode="&#x43d;" horiz-adv-x="545" 
d="M521 425q-16 -3 -24 -5.5t-15.5 -9.5t-7.5 -18v-336q0 -11 7.5 -18t15.5 -9.5t24 -5.5v-23h-172v23q16 3 24.5 5.5t16 9.5t7.5 18v155h-244v-155q0 -11 7.5 -18t15.5 -9.5t24 -5.5v-23h-171v23q16 3 24.5 5.5t16 9.5t7.5 18v336q0 11 -7.5 18t-16 9.5t-24.5 5.5v26h171
v-26q-16 -3 -24 -5.5t-15.5 -9.5t-7.5 -18v-146h244v146q0 11 -7.5 18t-16 9.5t-24.5 5.5v26h172v-26z" />
    <glyph glyph-name="uni043E" unicode="&#x43e;" horiz-adv-x="485" 
d="M241 458q90 0 152 -63.5t62 -164.5q0 -105 -61.5 -172.5t-148.5 -67.5q-89 0 -152 66t-63 166q0 105 62 170.5t149 65.5zM374 207q0 90 -41.5 150t-102.5 60q-117 0 -117 -172q0 -90 40.5 -149.5t102.5 -59.5q118 0 118 171z" />
    <glyph glyph-name="uni043F" unicode="&#x43f;" horiz-adv-x="570" 
d="M531 425q-16 -3 -24 -5.5t-15.5 -9.5t-7.5 -18v-336q0 -11 7.5 -18t15.5 -9.5t24 -5.5v-23h-172v23q16 3 24.5 5.5t16 9.5t7.5 18v334q0 26 -26 32h-192q-26 -6 -26 -32v-334q0 -11 7.5 -18t15.5 -9.5t24 -5.5v-23h-171v23q16 3 24.5 5.5t16 9.5t7.5 18v336q0 11 -7.5 18
t-16 9.5t-24.5 5.5v26h492v-26z" />
    <glyph glyph-name="uni0440" unicode="&#x440;" horiz-adv-x="515" 
d="M304 462q87 0 135.5 -61t48.5 -174q0 -108 -53.5 -170.5t-130.5 -62.5q-53 0 -90.5 23t-55.5 54v-200q0 -17 11.5 -22.5t38.5 -5.5v-27h-176v27q25 0 36 5.5t11 22.5v492q0 47 -59 39v41l111 17q25 4 29.5 -21t-7.5 -58q1 1 7 7.5t9 9.5l10.5 10t12.5 11t14 10.5t16 10.5
t17.5 8.5t20 7t21 4.5t23.5 2zM294 35q112 0 112 179q0 80 -28 135.5t-83 55.5q-53 0 -81 -17t-56 -54v-191q16 -46 50.5 -77t85.5 -31z" />
    <glyph glyph-name="uni0441" unicode="&#x441;" horiz-adv-x="454" 
d="M411 86q-48 -94 -186 -94q-83 0 -141.5 66t-58.5 168q0 109 59.5 171.5t146.5 62.5q83 0 129 -38t46 -90q0 -14 -11.5 -24.5t-31.5 -10.5q-44 0 -44 32v6q0 25 -1.5 36.5t-8 24.5t-22.5 18t-44 5q-74 0 -104 -39.5t-30 -133.5q0 -81 43.5 -142.5t113.5 -62.5q21 0 35 2.5
t26 11l16 11.5t15.5 19t13.5 18q9 15 20 2z" />
    <glyph glyph-name="uni0442" unicode="&#x442;" horiz-adv-x="469" 
d="M442 428l7 -75h-20l-16 33q-17 33 -46 33h-94v-363q0 -11 7.5 -18t15.5 -9.5t24 -5.5v-23h-171v23q16 3 24.5 5.5t16 9.5t7.5 18v363h-95q-30 0 -46 -33l-16 -33h-20l7 75q2 23 22 23h371q20 0 22 -23z" />
    <glyph glyph-name="uni0443" unicode="&#x443;" horiz-adv-x="518" 
d="M498 451v-25l-14 -6q-4 -2 -10.5 -4.5l-10.5 -4t-8.5 -4t-7.5 -6t-5 -8.5l-198 -477q-29 -69 -55 -100t-72 -31q-33 0 -56.5 15t-27.5 40q-10 56 45 56q18 0 25 -9t7 -19.5t6 -19.5t22 -9q5 0 9.5 2t8 4.5t7.5 7.5t6.5 8.5t6 11l5 10.5t5 11.5t4.5 10.5l48 116l-177 372
q-10 19 -33 27l-18 6v25h185v-25l-25 -5q-32 -6 -22 -28l129 -281l111 281q4 10 -3 17.5t-20 10.5l-28 5v25h161z" />
    <glyph glyph-name="uni0444" unicode="&#x444;" horiz-adv-x="674" 
d="M494 457q61 0 106.5 -65.5t45.5 -162.5q0 -110 -44 -172.5t-109 -62.5q-71 0 -114 92v-215q0 -11 7.5 -18t15.5 -9.5t24 -5.5v-22h-172v22q16 3 24.5 5.5t16 9.5t7.5 18v215q-43 -92 -114 -92q-65 0 -109 62.5t-44 172.5q0 97 46 162.5t106 65.5q49 0 72 -23.5t43 -69.5
v195q0 47 -59 39v39l107 19q6 0 10.5 0.5t8 -2.5t5.5 -4.5t3.5 -7t2 -9.5t0.5 -11t-0.5 -12t-0.5 -13.5v-14.5v-218q13 31 23.5 47.5t34 31t57.5 14.5zM201 46q65 0 101 88v183q-38 99 -105 99q-36 0 -59 -49t-23 -138q0 -77 24 -130t62 -53zM480 46q39 0 63 53t24 130
q0 89 -23 138t-60 49q-67 0 -105 -99v-183q36 -88 101 -88z" />
    <glyph glyph-name="uni0445" unicode="&#x445;" horiz-adv-x="544" 
d="M490 34l29 -5v-29h-201v29l29 4q18 2 22.5 6.5t-6.5 21.5l-108 134l-96 -129q-10 -14 -5.5 -22.5t18.5 -10.5l23 -4v-29h-170v29l29 5q26 3 50 33l126 159l-121 151q-12 15 -24 24t-17.5 10.5l-20.5 5.5l-21 5v29q100 -3 200 0v-29l-28 -4q-22 -3 -3 -30l85 -109l83 103
q26 30 -6 36l-23 4v29q84 -3 168 0v-29l-24 -5q-40 -8 -78 -53l-95 -118l141 -181q22 -27 44 -31z" />
    <glyph glyph-name="uni0446" unicode="&#x446;" horiz-adv-x="602" 
d="M561 38q11 0 11 -12l-24 -161h-18q-11 0 -11 11q0 7 0.5 22.5t0 21t-1.5 17.5t-4.5 16.5t-9.5 13.5t-15 12t-22.5 8.5t-32 7.5t-42.5 3.5t-54 1.5h-303v23q16 3 24.5 5.5t16 9.5t7.5 18v336q0 11 -7.5 18t-16 9.5t-24.5 5.5v26h172v-26q-16 -3 -24 -5.5t-15.5 -9.5
t-7.5 -18v-332q0 -32 47 -32h136q27 0 40 5q21 9 21 32v327q0 11 -7.5 18t-16 9.5t-24.5 5.5v26h171v-26q-16 -3 -24 -5.5t-15.5 -9.5t-7.5 -18v-316q0 -23 17 -30t64 -8z" />
    <glyph glyph-name="uni0447" unicode="&#x447;" horiz-adv-x="553" 
d="M515 423q-20 -4 -28.5 -6.5t-13.5 -9t-5 -17.5v-334q0 -11 7.5 -18t15.5 -9.5t24 -5.5v-23h-172v23q16 3 24.5 5.5t16 9.5t7.5 18v168q-13 -35 -51 -71t-90 -36q-85 0 -130.5 39t-45.5 139v73q0 29 -10.5 41t-43.5 16l7 26h189v-26q-23 -3 -32.5 -5.5t-17.5 -9t-8 -18.5
v-99q0 -57 26.5 -89t75.5 -32q42 0 76 25t55 53v142q0 11 -7.5 18t-16 9.5t-24.5 5.5v26h172v-28z" />
    <glyph glyph-name="uni0448" unicode="&#x448;" horiz-adv-x="709" 
d="M670 425q-47 4 -47 -26v-348q0 -29 47 -27v-24h-631v24q48 -2 48 27v348q0 30 -48 26v26h171v-26q-47 4 -47 -26v-348q0 -16 8.5 -21.5t28.5 -5.5h79q20 0 29 5.5t9 21.5v348q0 30 -48 26v26h171v-26q-47 4 -47 -26v-348q0 -16 8.5 -21.5t28.5 -5.5h78q20 0 29 5.5
t9 21.5v348q0 30 -48 26v26h172v-26z" />
    <glyph glyph-name="uni0449" unicode="&#x449;" horiz-adv-x="754" 
d="M704 38q11 0 11 -12l-24 -161h-18q-11 0 -11 11q0 7 0.5 22.5t0 21t-1.5 17.5t-4.5 16.5t-9.5 13.5t-15 12t-22.5 8.5t-32 7.5t-42.5 3.5t-54 1.5h-442v24q48 -2 48 27v348q0 30 -48 26v26h171v-26q-47 4 -47 -26v-348q0 -16 8.5 -21.5t28.5 -5.5h79q20 0 29 5.5t9 21.5
v348q0 30 -48 26v26h171v-26q-47 4 -47 -26v-348q0 -16 8.5 -21.5t28.5 -5.5h56q31 0 45.5 7.5t14.5 30.5v337q0 30 -48 26v26h172v-26q-47 4 -47 -26v-323q0 -23 17 -30t64 -8z" />
    <glyph glyph-name="uni044A" unicode="&#x44a;" horiz-adv-x="593" 
d="M330 341q103 0 170.5 -47t67.5 -123q0 -77 -67.5 -124t-169.5 -47h-197v23q16 3 24.5 5.5t16 9.5t7.5 18v336q0 29 -18 31l-39 -1q-59 -1 -77 -37l-16 -32h-32l24 75q8 23 30 23h205v-110h71zM347 24q61 0 91 43t30 104q0 60 -33 99.5t-109 39.5h-67v-254q0 -32 37 -32
h51z" />
    <glyph glyph-name="uni044B" unicode="&#x44b;" horiz-adv-x="754" 
d="M235 341q103 0 170.5 -47t67.5 -123q0 -77 -67.5 -124t-169.5 -47h-197v23q16 3 24.5 5.5t16 9.5t7.5 18v336q0 11 -7.5 18t-16 9.5t-24.5 5.5v26h171v-28q-20 -4 -28.5 -6.5t-13.5 -9t-5 -17.5v-49h72zM715 423q-20 -4 -28.5 -6.5t-13.5 -9t-5 -17.5v-334q0 -11 7.5 -18
t15.5 -9.5t24 -5.5v-23h-171v23q16 3 24.5 5.5t16 9.5t7.5 18v336q0 11 -7.5 18t-16 9.5t-24.5 5.5v26h171v-28zM252 24q61 0 91 43t30 104q0 60 -33 99.5t-109 39.5h-68v-254q0 -32 37 -32h52z" />
    <glyph glyph-name="uni044C" unicode="&#x44c;" horiz-adv-x="495" 
d="M235 341q103 0 170.5 -47t67.5 -123q0 -77 -67.5 -124t-169.5 -47h-197v23q16 3 24.5 5.5t16 9.5t7.5 18v336q0 11 -7.5 18t-16 9.5t-24.5 5.5v26h171v-28q-20 -4 -28.5 -6.5t-13.5 -9t-5 -17.5v-49h72zM252 24q61 0 91 43t30 104q0 60 -33 99.5t-109 39.5h-68v-254
q0 -32 37 -32h52z" />
    <glyph glyph-name="uni044D" unicode="&#x44d;" horiz-adv-x="482" 
d="M242 460q89 0 150 -66t61 -160q0 -108 -63.5 -175t-155.5 -67q-122 0 -180 97q-12 19 -7 27q4 7 16 14q10 2 15 4.5t12 -4.5t9 -10.5l7 -12.5t7 -12q20 -33 44 -47.5t60 -14.5q56 0 98 47.5t50 130.5h-151v35h153v2q0 92 -34.5 133t-88.5 41q-100 0 -136 -93
q-2 -4 -4.5 -11.5l-3.5 -10.5t-4 -8.5t-5.5 -5.5t-8 -2.5t-11.5 1.5l-25 11l8 145h23q15 0 18.5 -5t5 -18t7.5 -23q47 58 134 58z" />
    <glyph glyph-name="uni044E" unicode="&#x44e;" horiz-adv-x="717" 
d="M473 458q90 0 152 -63.5t62 -164.5q0 -105 -61.5 -172.5t-148.5 -67.5q-86 0 -148.5 62.5t-66.5 158.5h-99v-155q0 -11 7.5 -18t15.5 -9.5t24 -5.5v-23h-171v23q16 3 24.5 5.5t16 9.5t7.5 18v336q0 11 -7.5 18t-16 9.5t-24.5 5.5v26h171v-26q-16 -3 -24 -5.5t-15.5 -9.5
t-7.5 -18v-146h100q7 96 67.5 154t142.5 58zM488 36q118 0 118 171q0 90 -41.5 150t-102.5 60q-117 0 -117 -172q0 -90 40.5 -149.5t102.5 -59.5z" />
    <glyph glyph-name="uni044F" unicode="&#x44f;" horiz-adv-x="467" 
d="M437 422q-38 0 -38 -40v-331q0 -8 1 -12.5t8 -8.5t10.5 -5t18.5 -5v-20h-150v20q14 4 18 5t10 5t7 8.5t1 12.5v145h-62q-40 0 -57 -17t-29 -64q-27 -108 -89 -115h-71v29h13q20 0 39 28.5t25 63.5t25 57t64 28q-127 22 -127 117q0 57 43.5 92.5t119.5 35.5h220v-29z
M323 230v189h-119q-33 0 -49.5 -26.5t-16.5 -69.5q0 -93 72 -93h113z" />
    <glyph glyph-name="uni0450" unicode="&#x450;" 
d="M292 566l-113 110q-17 16 -32 15t-24 -17q-22 -38 11 -56l143 -77q16 -9 23 2q8 10 -8 23zM433 275q0 -52 -56 -52h-259q0 -82 43.5 -134.5t102.5 -52.5q76 0 131 74l27 -35q-18 -24 -33 -38.5t-53 -30.5t-88 -16q-93 0 -155.5 68t-62.5 172q0 107 59.5 167.5t149.5 60.5
q78 0 136 -51t58 -132zM349 264q1 69 -28 112.5t-82 43.5q-56 0 -88.5 -43.5t-32.5 -112.5h231z" />
    <glyph glyph-name="uni0451" unicode="&#x451;" 
d="M136 569q-21 0 -36.5 15.5t-15.5 36.5t15.5 36.5t36.5 15.5t36.5 -15.5t15.5 -36.5t-15.5 -36.5t-36.5 -15.5zM325 569q-21 0 -36.5 15.5t-15.5 36.5t15.5 36.5t36.5 15.5t36.5 -15.5t15.5 -36.5t-15.5 -36.5t-36.5 -15.5zM433 275q0 -52 -56 -52h-259q0 -82 43.5 -134.5
t102.5 -52.5q76 0 131 74l27 -35q-18 -24 -33 -38.5t-53 -30.5t-88 -16q-93 0 -155.5 68t-62.5 172q0 107 59.5 167.5t149.5 60.5q78 0 136 -51t58 -132zM349 264q1 69 -28 112.5t-82 43.5q-56 0 -88.5 -43.5t-32.5 -112.5h231z" />
    <glyph glyph-name="uni0453" unicode="&#x453;" horiz-adv-x="449" 
d="M176 541q-15 -9 -23 2q-8 10 8 23l113 110q17 16 32 15t24 -17q22 -38 -11 -56zM400 428l24 -93l-29 -2l-16 33q-27 53 -80 53h-85h-1q-18 0 -25 -1t-16.5 -3t-12.5 -7t-3 -13v-324q0 -16 15 -22.5t53 -10.5v-38h-209v38q31 4 44.5 10.5t13.5 22.5v323q0 28 -58 28v29
h355q24 0 30 -23z" />
    <glyph glyph-name="uni0454" unicode="&#x454;" horiz-adv-x="481" 
d="M418 130q5 -3 8.5 -6l6 -5t3 -5t1 -4.5t-1 -5.5t-2 -4.5t-3.5 -5t-3 -5.5q-58 -97 -179 -97q-92 0 -155.5 67t-63.5 175q0 94 61 160t150 66q87 0 134 -58q5 8 7 18t2 15t5 9t17 4h22l8 -145l-25 -11q-6 0 -10 -1.5t-7.5 1l-5.5 4t-4 6t-3 8t-3 9.5t-4 10q-36 93 -136 93
q-54 0 -88.5 -41t-34.5 -133v-2h154v-35h-152q9 -83 51 -130.5t98 -47.5q36 0 59.5 14.5t43.5 47.5q2 3 7 12l7 12.5t9 10.5t12 4.5t15 -4.5z" />
    <glyph glyph-name="uni0455" unicode="&#x455;" horiz-adv-x="435" 
d="M406 124q0 -62 -53 -98t-139 -36q-67 0 -119 25.5t-59 46.5q-25 78 11 85q36 4 42.5 0.5t8.5 -19.5q13 -98 116 -98q56 0 83 21.5t27 58.5q0 49 -125 88q-61 19 -109.5 55t-48.5 86q0 53 43 85.5t129 32.5q64 0 114 -26.5t52 -45.5q7 -84 -24 -84q-56 -4 -51 31
q5 40 -17 63t-74 23q-48 0 -72.5 -20t-24.5 -50q0 -13 8.5 -25t18 -20t29.5 -16.5t30.5 -12l32.5 -10.5q93 -29 126 -55q45 -34 45 -85z" />
    <glyph glyph-name="uni0456" unicode="&#x456;" horiz-adv-x="250" 
d="M125 572q-20 0 -34.5 14.5t-14.5 34.5q0 19 14.5 33.5t34.5 14.5t34.5 -14.5t14.5 -33.5q0 -20 -14.5 -34.5t-34.5 -14.5zM167 53q0 -28 43 -28v-25h-165v25q44 0 44 28v325q0 17 -6.5 24t-21.5 7h-20v38l94 9q32 3 32 -31v-372z" />
    <glyph glyph-name="uni0457" unicode="&#x457;" horiz-adv-x="244" 
d="M13 569q-21 0 -36.5 15.5t-15.5 36.5t15.5 36.5t36.5 15.5t36.5 -15.5t15.5 -36.5t-15.5 -36.5t-36.5 -15.5zM202 569q-21 0 -36.5 15.5t-15.5 36.5t15.5 36.5t36.5 15.5t36.5 -15.5t15.5 -36.5t-15.5 -36.5t-36.5 -15.5zM161 53q0 -28 43 -28v-25h-165v25q44 0 44 28
v325q0 17 -6.5 24t-21.5 7h-20v38l94 9q32 3 32 -31v-372z" />
    <glyph glyph-name="uni0458" unicode="&#x458;" horiz-adv-x="219" 
d="M111 572q-20 0 -34.5 14.5t-14.5 34.5q0 19 14.5 33.5t34.5 14.5t34.5 -14.5t14.5 -33.5q0 -20 -14.5 -34.5t-34.5 -14.5zM121 456q32 3 32 -31v-499q0 -100 -70 -129q-47 -19 -86.5 -7t-46.5 45q-9 38 17 51q31 15 46 -4q2 -1 8.5 -15.5t14.5 -25.5t16 -8q24 10 24 50
v495q0 17 -6.5 24t-21.5 7h-20v38z" />
    <glyph glyph-name="uni045E" unicode="&#x45e;" horiz-adv-x="518" 
d="M263 557q-57 0 -94 36.5t-40 86.5q0 11 10 11h14q10 0 11 -11q3 -24 29 -42.5t70 -18.5t70.5 18.5t29.5 42.5q1 11 11 11h14q10 0 10 -11q-3 -50 -40 -86.5t-95 -36.5zM498 451v-25l-14 -6q-4 -2 -10.5 -4.5l-10.5 -4t-8.5 -4t-7.5 -6t-5 -8.5l-198 -477
q-29 -69 -55 -100t-72 -31q-33 0 -56.5 15t-27.5 40q-10 56 45 56q18 0 25 -9t7 -19.5t6 -19.5t22 -9q5 0 9.5 2t8 4.5t7.5 7.5t6.5 8.5t6 11l5 10.5t5 11.5t4.5 10.5l48 116l-177 372q-10 19 -33 27l-18 6v25h185v-25l-25 -5q-32 -6 -22 -28l129 -281l111 281q4 10 -3 17.5
t-20 10.5l-28 5v25h161z" />
    <glyph glyph-name="uni0490" unicode="&#x490;" horiz-adv-x="504" 
d="M448 695h31v-90q0 -10 -9.5 -16.5t-20.5 -6.5h-243q-35 -2 -35 -24v-485q0 -32 68 -35v-38h-224v38q68 3 68 35v488q0 16 -15 20.5t-53 2.5v37h337q60 0 80 41z" />
    <glyph glyph-name="uni0491" unicode="&#x491;" horiz-adv-x="410" 
d="M356 525h29v-74q0 -14 -11.5 -23t-25.5 -9l-162 -1q-30 -3 -30 -23v-324q0 -16 15 -22.5t53 -10.5v-38h-209v38q31 4 44.5 10.5t13.5 22.5v323q0 28 -58 28v29h245q60 0 80 41z" />
    <glyph glyph-name="Wgrave" unicode="&#x1e80;" horiz-adv-x="945" 
d="M375 788q-33 18 -11 56q9 16 24 17t32 -15l113 -110q16 -13 8 -23q-7 -11 -23 -2zM764 621h166v-27q-31 -5 -44 -16.5t-24 -40.5l-190 -542h-12q-22 0 -32 24l-154 396l-137 -420h-11q-22 0 -32 24l-193 493q-19 47 -35.5 61.5t-50.5 20.5v27h191v-27q-21 -6 -29.5 -12.5
t-4.5 -18.5l166 -431l112 344l-14 36q-19 47 -35.5 61.5t-50.5 20.5v27h191v-27q-18 -5 -27.5 -14t-6.5 -17l165 -431l145 421q6 17 -8 26t-45 15v27z" />
    <glyph glyph-name="wgrave" unicode="&#x1e81;" horiz-adv-x="775" 
d="M289 618q-33 18 -11 56q9 16 24 17t32 -15l113 -110q16 -13 8 -23q-7 -11 -23 -2zM597 451q84 -3 168 0v-26l-23 -8q-39 -13 -67 -79l-140 -338h-13q-19 0 -29 22l-107 252l-123 -274h-12q-19 0 -29 22l-127 318q-25 64 -59 77l-21 8v26q94 -3 187 0v-26l-23 -8
q-19 -7 -21.5 -17t14.5 -60l93 -229l93 227v2q-28 64 -37 71q-4 4 -9 6l-33 8v26q99 -3 200 0v-26l-37 -8q-20 -5 -23 -17t15 -60l102 -229l84 226q18 49 17.5 61.5t-18.5 18.5l-22 8v26z" />
    <glyph glyph-name="Wacute" unicode="&#x1e82;" horiz-adv-x="945" 
d="M465 711q-15 -9 -23 2q-8 10 8 23l113 110q17 16 32 15t24 -17q22 -38 -11 -56zM764 621h166v-27q-31 -5 -44 -16.5t-24 -40.5l-190 -542h-12q-22 0 -32 24l-154 396l-137 -420h-11q-22 0 -32 24l-193 493q-19 47 -35.5 61.5t-50.5 20.5v27h191v-27q-21 -6 -29.5 -12.5
t-4.5 -18.5l166 -431l112 344l-14 36q-19 47 -35.5 61.5t-50.5 20.5v27h191v-27q-18 -5 -27.5 -14t-6.5 -17l165 -431l145 421q6 17 -8 26t-45 15v27z" />
    <glyph glyph-name="wacute" unicode="&#x1e83;" horiz-adv-x="775" 
d="M379 541q-15 -9 -23 2q-8 10 8 23l113 110q17 16 32 15t24 -17q22 -38 -11 -56zM597 451q84 -3 168 0v-26l-23 -8q-39 -13 -67 -79l-140 -338h-13q-19 0 -29 22l-107 252l-123 -274h-12q-19 0 -29 22l-127 318q-25 64 -59 77l-21 8v26q94 -3 187 0v-26l-23 -8
q-19 -7 -21.5 -17t14.5 -60l93 -229l93 227v2q-28 64 -37 71q-4 4 -9 6l-33 8v26q99 -3 200 0v-26l-37 -8q-20 -5 -23 -17t15 -60l102 -229l84 226q18 49 17.5 61.5t-18.5 18.5l-22 8v26z" />
    <glyph glyph-name="Wdieresis" unicode="&#x1e84;" horiz-adv-x="945" 
d="M377 739q-21 0 -36.5 15.5t-15.5 36.5t15.5 36.5t36.5 15.5t36.5 -15.5t15.5 -36.5t-15.5 -36.5t-36.5 -15.5zM566 739q-21 0 -36.5 15.5t-15.5 36.5t15.5 36.5t36.5 15.5t36.5 -15.5t15.5 -36.5t-15.5 -36.5t-36.5 -15.5zM764 621h166v-27q-31 -5 -44 -16.5t-24 -40.5
l-190 -542h-12q-22 0 -32 24l-154 396l-137 -420h-11q-22 0 -32 24l-193 493q-19 47 -35.5 61.5t-50.5 20.5v27h191v-27q-21 -6 -29.5 -12.5t-4.5 -18.5l166 -431l112 344l-14 36q-19 47 -35.5 61.5t-50.5 20.5v27h191v-27q-18 -5 -27.5 -14t-6.5 -17l165 -431l145 421
q6 17 -8 26t-45 15v27z" />
    <glyph glyph-name="wdieresis" unicode="&#x1e85;" horiz-adv-x="775" 
d="M291 569q-21 0 -36.5 15.5t-15.5 36.5t15.5 36.5t36.5 15.5t36.5 -15.5t15.5 -36.5t-15.5 -36.5t-36.5 -15.5zM480 569q-21 0 -36.5 15.5t-15.5 36.5t15.5 36.5t36.5 15.5t36.5 -15.5t15.5 -36.5t-15.5 -36.5t-36.5 -15.5zM597 451q84 -3 168 0v-26l-23 -8
q-39 -13 -67 -79l-140 -338h-13q-19 0 -29 22l-107 252l-123 -274h-12q-19 0 -29 22l-127 318q-25 64 -59 77l-21 8v26q94 -3 187 0v-26l-23 -8q-19 -7 -21.5 -17t14.5 -60l93 -229l93 227v2q-28 64 -37 71q-4 4 -9 6l-33 8v26q99 -3 200 0v-26l-37 -8q-20 -5 -23 -17
t15 -60l102 -229l84 226q18 49 17.5 61.5t-18.5 18.5l-22 8v26z" />
    <glyph glyph-name="uni1EBC" unicode="&#x1ebc;" horiz-adv-x="572" 
d="M454 817q-7 -47 -38.5 -73.5t-77.5 -26.5q-34 0 -81.5 34t-68.5 34q-29 0 -46 -16t-17 -32h-23q-8 41 25.5 68.5t76.5 27.5q34 0 78.5 -29t74.5 -29q24 0 45.5 15t21.5 27h30zM537 116q-17 -35 -32 -93q-6 -23 -30 -23h-440v29q38 12 45 21q8 9 8 28v468q0 13 -2 20.5
t-12.5 13.5t-14.5 7.5t-24 7.5v26h437q10 0 13.5 -3.5t3.5 -14.5v-100h-29l-15 33q-19 41 -80 41h-187v-239h181q7 0 12.5 1t10 4.5l7 5.5t6.5 9.5t5 9.5t5 12.5t5 12.5h18v-153h-18q-2 4 -6 14.5t-5.5 14t-6 11t-8.5 10t-10.5 5t-14.5 2.5h-181v-255l229 2q11 0 19.5 1.5
t13.5 3t10.5 6t7.5 7t7.5 10.5t8.5 11l26 33h37z" />
    <glyph glyph-name="uni1EBD" unicode="&#x1ebd;" 
d="M412 647q-7 -47 -38.5 -73.5t-77.5 -26.5q-34 0 -81.5 34t-68.5 34q-29 0 -46 -16t-17 -32h-23q-8 41 25.5 68.5t76.5 27.5q34 0 78.5 -29t74.5 -29q24 0 45.5 15t21.5 27h30zM433 275q0 -52 -56 -52h-259q0 -82 43.5 -134.5t102.5 -52.5q76 0 131 74l27 -35
q-18 -24 -33 -38.5t-53 -30.5t-88 -16q-93 0 -155.5 68t-62.5 172q0 107 59.5 167.5t149.5 60.5q78 0 136 -51t58 -132zM349 264q1 69 -28 112.5t-82 43.5q-56 0 -88.5 -43.5t-32.5 -112.5h231z" />
    <glyph glyph-name="Ygrave" unicode="&#x1ef2;" horiz-adv-x="622" 
d="M229 788q-33 18 -11 56q9 16 24 17t32 -15l113 -110q16 -13 8 -23q-7 -11 -23 -2zM436 621h171v-27q-29 -3 -45.5 -16t-38.5 -43l-169 -237v-235q0 -8 5.5 -14t18 -9.5t22 -5l27.5 -4.5v-30h-226v30l28 4.5t22 5t18.5 9.5t5.5 14v209l-167 238l-15 22t-13.5 19.5
l-11 13.5t-11.5 12t-11 7.5t-14.5 6.5t-16.5 3v27h199v-27q-23 -4 -34 -13t-3 -20l156 -223l151 213q11 17 -3 28t-45 15v27z" />
    <glyph glyph-name="ygrave" unicode="&#x1ef3;" horiz-adv-x="518" 
d="M323 566l-113 110q-17 16 -32 15t-24 -17q-22 -38 11 -56l143 -77q16 -9 23 2q8 10 -8 23zM498 451v-25l-14 -6q-4 -2 -10.5 -4.5l-10.5 -4t-8.5 -4t-7.5 -6t-5 -8.5l-198 -477q-29 -69 -55 -100t-72 -31q-33 0 -56.5 15t-27.5 40q-10 56 45 56q18 0 25 -9t7 -19.5
t6 -19.5t22 -9q5 0 9.5 2t8 4.5t7.5 7.5t6.5 8.5t6 11l5 10.5t5 11.5t4.5 10.5l48 116l-177 372q-10 19 -33 27l-18 6v25h185v-25l-25 -5q-32 -6 -22 -28l129 -281l111 281q4 10 -3 17.5t-20 10.5l-28 5v25h161z" />
    <glyph glyph-name="endash" unicode="&#x2013;" horiz-adv-x="667" 
d="M30 275h582v-48h-582v48z" />
    <glyph glyph-name="emdash" unicode="&#x2014;" horiz-adv-x="889" 
d="M25 275h819v-48h-819v48z" />
    <glyph glyph-name="uni2015" unicode="&#x2015;" horiz-adv-x="889" 
d="M25 275h819v-48h-819v48z" />
    <glyph glyph-name="quoteleft" unicode="&#x2018;" horiz-adv-x="177" 
d="M47 561q11 38 49 71q8 6 16 -2l13 -14q-26 -28 -33 -45q-8 -24 -3 -34q10 3 25 2q20 -3 32.5 -20t9.5 -38q-3 -23 -20.5 -37t-40.5 -11q-41 6 -51 53q-7 39 3 75z" />
    <glyph glyph-name="quoteright" unicode="&#x2019;" horiz-adv-x="177" 
d="M130 511q-11 -39 -49 -72q-8 -6 -16 2l-13 14q26 28 33 45q8 24 3 35q-12 -4 -25 -3q-20 3 -32.5 20t-9.5 38q3 23 21 37.5t40 11.5q20 -3 33.5 -18.5t17.5 -34.5q7 -40 -3 -75z" />
    <glyph glyph-name="quotesinglbase" unicode="&#x201a;" horiz-adv-x="198" 
d="M156 -30q-11 -38 -49 -71q-8 -6 -16 2l-13 14q26 28 33 45q8 24 3 34q-10 -3 -25 -2q-20 3 -32.5 20t-9.5 38q3 23 21 37.5t40 11.5q20 -3 33.5 -18.5t17.5 -34.5q7 -40 -3 -76z" />
    <glyph glyph-name="quotedblleft" unicode="&#x201c;" horiz-adv-x="350" 
d="M27 561q13 40 49 71q8 6 16 -2l13 -14q-26 -28 -32 -45q-9 -23 -4 -34q11 3 25 2q20 -3 32.5 -20t9.5 -38q-3 -23 -20.5 -37t-40.5 -11q-41 6 -51 53q-6 40 3 75zM201 561q13 40 49 71q8 6 16 -2l13 -14q-26 -28 -32 -45q-9 -23 -4 -34q11 3 25 2q20 -3 32.5 -20t9.5 -38
q-3 -23 -20.5 -37t-40.5 -11q-41 6 -51 53q-6 40 3 75z" />
    <glyph glyph-name="quotedblright" unicode="&#x201d;" horiz-adv-x="350" 
d="M125 511q-11 -39 -49 -72q-8 -6 -16 2l-13 14q26 28 33 45q8 24 3 35q-12 -4 -25 -3q-20 3 -32.5 20t-9.5 38q3 23 21 37.5t40 11.5q20 -3 33.5 -18.5t17.5 -34.5q7 -40 -3 -75zM299 511q-11 -39 -49 -72q-8 -6 -16 2l-13 14q26 28 33 45q8 24 3 35q-12 -4 -25 -3
q-20 3 -32.5 20t-9.5 38q3 23 21 37.5t40 11.5q20 -3 33.5 -18.5t17.5 -34.5q7 -40 -3 -75z" />
    <glyph glyph-name="quotedblbase" unicode="&#x201e;" horiz-adv-x="360" 
d="M318 -30q-11 -38 -49 -71q-8 -6 -16 2l-13 14q26 28 33 45q8 24 3 34q-10 -3 -25 -2q-20 3 -32.5 20t-9.5 38q3 23 21 37.5t40 11.5q20 -3 33.5 -18.5t17.5 -34.5q7 -40 -3 -76zM156 -30q-11 -38 -49 -71q-8 -6 -16 2l-13 14q26 28 33 45q8 24 3 34q-10 -3 -25 -2
q-20 3 -32.5 20t-9.5 38q3 23 21 37.5t40 11.5q20 -3 33.5 -18.5t17.5 -34.5q7 -40 -3 -76z" />
    <glyph glyph-name="dagger" unicode="&#x2020;" horiz-adv-x="546" 
d="M404 507q22 0 38.5 -17t16.5 -39t-16.5 -38.5t-38.5 -16.5q-11 0 -46.5 19.5t-66.5 19.5l2 -42l50 -50l-63 -208h-14l-63 208l50 50l2 42q-31 0 -66.5 -19.5t-46.5 -19.5q-22 0 -38.5 16.5t-16.5 38.5t16.5 39t38.5 17q10 0 46.5 -20t68.5 -19q2 30 -18.5 65.5
t-20.5 46.5q0 22 16.5 39t38.5 17t38.5 -17t16.5 -39q0 -11 -20.5 -46.5t-18.5 -65.5q32 -1 68.5 19t46.5 20z" />
    <glyph glyph-name="daggerdbl" unicode="&#x2021;" horiz-adv-x="544" 
d="M404 207q22 0 38.5 -17t16.5 -39t-16.5 -38.5t-38.5 -16.5q-10 0 -47.5 21t-69.5 20q-1 -30 20 -67t21 -48q0 -22 -16.5 -39t-38.5 -17t-38.5 17t-16.5 39q0 11 21 48t20 67q-32 1 -69.5 -20t-47.5 -21q-22 0 -38.5 16.5t-16.5 38.5t16.5 39t38.5 17q10 0 47.5 -21
t69.5 -20v38l-55 98l55 96v39q-32 1 -69.5 -20t-47.5 -21q-22 0 -38.5 16.5t-16.5 38.5t16.5 39t38.5 17q10 0 47.5 -21t69.5 -20q1 30 -20 66.5t-21 47.5q0 22 16.5 39t38.5 17t38.5 -17t16.5 -39q0 -11 -21 -47.5t-20 -66.5q32 -1 69.5 20t47.5 21q22 0 38.5 -17t16.5 -39
t-16.5 -38.5t-38.5 -16.5q-10 0 -47.5 21t-69.5 20v-39l55 -97l-55 -97v-38q32 -1 69.5 20t47.5 21z" />
    <glyph glyph-name="bullet" unicode="&#x2022;" horiz-adv-x="289" 
d="M144 209q-34 0 -59 24.5t-25 59.5t25 60t59 25t59.5 -25t25.5 -60q0 -34 -25 -59t-60 -25z" />
    <glyph glyph-name="ellipsis" unicode="&#x2026;" horiz-adv-x="559" 
d="M279 -10q-22 0 -38 16.5t-16 38.5t16 38.5t38 16.5q23 0 39 -16t16 -39t-16 -39t-39 -16zM449 -10q-22 0 -38 16.5t-16 38.5t16 38.5t38 16.5q23 0 39 -16t16 -39t-16 -39t-39 -16zM109 -10q-22 0 -38 16.5t-16 38.5t16 38.5t38 16.5q23 0 39 -16t16 -39t-16 -39t-39 -16
z" />
    <glyph glyph-name="perthousand" unicode="&#x2030;" horiz-adv-x="959" 
d="M520 636h45l-432 -641h-75l442 613q-107 -86 -188 -48q6 -26 1 -55q-8 -49 -51.5 -93t-97.5 -44t-82 43t-20 94q10 50 54 94t98 44q29 0 52 -14l16 -7q16 -8 20.5 -9.5t21 -8t25.5 -7t27 -3t32 0.5l33 7t38.5 13t40.5 21zM249 505q18 103 -40 103q-60 0 -80 -103
q-16 -100 41 -100q59 0 79 100zM490 264q55 0 82.5 -43.5t16.5 -94.5q-7 -48 -51 -92.5t-98 -44.5t-82 43t-20 94q11 50 55 94t97 44zM787 264q55 0 82.5 -43.5t16.5 -94.5q-7 -48 -51 -92.5t-98 -44.5t-82 43t-20 94q11 50 55 94t97 44zM525 126q20 103 -40 103
q-58 0 -80 -103q-16 -100 41 -100q61 0 79 100zM822 126q20 103 -40 103q-58 0 -80 -103q-16 -100 41 -100q61 0 79 100z" />
    <glyph glyph-name="guilsinglleft" unicode="&#x2039;" horiz-adv-x="235" 
d="M36 229l155 149v-45l-75 -104l75 -103v-46z" />
    <glyph glyph-name="guilsinglright" unicode="&#x203a;" horiz-adv-x="235" 
d="M199 229l-155 -149v46l75 103l-75 104v45z" />
    <glyph glyph-name="fraction" unicode="&#x2044;" horiz-adv-x="155" 
d="M277 636h53l-432 -641h-53z" />
    <glyph glyph-name="Euro" unicode="&#x20ac;" horiz-adv-x="718" 
d="M635 170q6 0 18 -7t15 -12q5 -10 -16 -44q-73 -122 -233 -122q-102 0 -182 67.5t-106 174.5h-95l9 44h77q-3 24 -3 49q0 14 1 21h-65l9 44h61q20 108 99.5 180t183.5 72q113 0 183 -82q21 0 29 49q3 17 19 17h20l11 -196l-28 -10q-17 -6 -23 11q-2 6 -14 36
q-28 68 -77.5 101t-109.5 33q-76 0 -133 -54.5t-68 -156.5h257l-9 -44h-250q0 -37 6 -70h234l-9 -44h-215q26 -88 84.5 -140.5t122.5 -52.5q57 0 94.5 26.5t69.5 72.5q4 5 8 12l6 10.5t5.5 7.5t6.5 5.5t7 1.5z" />
    <glyph glyph-name="trademark" unicode="&#x2122;" horiz-adv-x="630" 
d="M237 621q6 0 10.5 -4t4.5 -9l3 -48h-22l-8 16q-4 8 -13 8h-45v-155q0 -10 26 -10v-25h-111v25q25 0 25 10v155h-44q-9 0 -13 -8l-8 -16h-22l3 48q0 5 4.5 9t10.5 4h199zM606 597q-11 -4 -14 -7t-3 -12v-145q0 -8 3 -10t18 -6v-23h-98v23q14 4 18 6.5t4 9.5v110l-77 -125
q-5 -11 -14 -11t-15 11l-86 126v-111q0 -7 4 -9.5t18 -6.5v-23h-82v23q15 4 18.5 6.5t3.5 9.5v145q0 9 -4 12t-18 6v25h76l91 -138l90 138h67v-24z" />
    <glyph glyph-name="oneeighth" unicode="&#x215b;" horiz-adv-x="644" 
d="M122 431q0 -16 29 -18v-21h-109v21q29 2 29 18v168l-31 -10v26l56 25q24 10 26 -15v-194zM463 636h53l-432 -641h-53zM546 133q47 -21 47 -69q0 -28 -30.5 -51.5t-71.5 -23.5q-42 0 -70 24t-28 56q0 38 43 62q-29 19 -29 50q0 25 22.5 44t61.5 19q37 0 61 -18.5t24 -43.5
q0 -30 -30 -49zM486 147l21 -5q9 -3 17.5 11t8.5 28q0 37 -41 37q-17 0 -25.5 -11t-8.5 -25q0 -28 28 -35zM536 65q0 19 -9 28.5t-33 15.5l-25 6q-9 2 -19.5 -12.5t-10.5 -34.5q0 -23 13 -37.5t39 -14.5q45 0 45 49z" />
    <glyph glyph-name="threeeighths" unicode="&#x215c;" horiz-adv-x="750" 
d="M222 538q17 -8 29 -25t12 -41q0 -37 -29.5 -63t-71.5 -26q-45 0 -73.5 24t-28.5 55q0 24 25 24q15 0 21 -5.5t8 -20t3 -17.5q6 -19 16 -26t30 -7q18 0 31.5 15t13.5 40q0 35 -23 42.5t-48 -7.5l-10 24l24 11q41 15 41 44q0 35 -32 35q-27 0 -37 -21t-4 -42l-35 6
q-12 5 -12 14q-1 31 23 51t64 20q38 0 61.5 -19.5t23.5 -41.5q0 -27 -22 -43zM570 636h53l-432 -641h-53zM658 133q47 -21 47 -69q0 -28 -30.5 -51.5t-71.5 -23.5t-69.5 24t-28.5 56q0 38 43 62q-29 19 -29 50q0 25 22.5 44t61.5 19q37 0 61 -18.5t24 -43.5q0 -30 -30 -49z
M598 147l21 -5q9 -3 17.5 11t8.5 28q0 17 -8.5 27t-32.5 10q-17 0 -25 -10.5t-8 -25.5q0 -29 27 -35zM648 65q0 19 -9 28.5t-33 15.5l-25 6q-9 2 -19.5 -12.5t-10.5 -34.5q0 -23 13 -37.5t39 -14.5q45 0 45 49z" />
    <glyph glyph-name="fiveeighths" unicode="&#x215d;" horiz-adv-x="743" 
d="M263 481q0 -42 -29 -67t-74 -25t-71.5 20.5t-28.5 57.5q-1 11 6 17.5t19 6.5q11 0 17.5 -4.5t8 -9t3 -14.5t2.5 -14q9 -34 44 -34q20 0 33 15t13 40q0 31 -14.5 48.5t-39.5 17.5q-23 0 -50 -19h-28l10 125h132l7 5h21l-3 -38l-12 -10h-116l-3 -44q28 11 55 11
q37 0 67.5 -23t30.5 -62zM558 636h53l-432 -641h-53zM646 133q47 -21 47 -69q0 -28 -30.5 -51.5t-71.5 -23.5q-42 0 -70 24t-28 56q0 38 43 62q-29 19 -29 50q0 25 22.5 44t61.5 19q37 0 61 -18.5t24 -43.5q0 -30 -30 -49zM586 147l21 -5q9 -3 17.5 11t8.5 28q0 37 -41 37
q-17 0 -25.5 -11t-8.5 -25q0 -28 28 -35zM636 65q0 19 -9 28.5t-33 15.5l-25 6q-9 2 -19.5 -12.5t-10.5 -34.5q0 -23 13 -37.5t39 -14.5q45 0 45 49z" />
    <glyph glyph-name="seveneighths" unicode="&#x215e;" horiz-adv-x="723" 
d="M198 597h-111l-6 -17h-26l11 46q3 14 21 14h168l-125 -250h-14q-12 0 -16.5 7.5t0.5 16.5zM533 636h53l-432 -641h-53zM621 133q47 -21 47 -69q0 -28 -30.5 -51.5t-71.5 -23.5q-42 0 -70 24t-28 56q0 38 43 62q-29 19 -29 50q0 25 22.5 44t61.5 19q37 0 61 -18.5
t24 -43.5q0 -30 -30 -49zM561 147l21 -5q9 -3 17.5 11t8.5 28q0 37 -41 37q-17 0 -25.5 -11t-8.5 -25q0 -28 28 -35zM611 65q0 19 -9 28.5t-33 15.5l-25 6q-9 2 -19.5 -12.5t-10.5 -34.5q0 -23 13 -37.5t39 -14.5q45 0 45 49z" />
    <glyph glyph-name="partialdiff" unicode="&#x2202;" horiz-adv-x="538" 
d="M120 570l-9 11q-8 11 2 18q50 37 127 37q81 0 140.5 -57t85.5 -135.5t27 -162.5q0 -58 -11.5 -108t-37 -93t-72 -67.5t-109.5 -24.5q-100 0 -159 63.5t-59 144.5q0 86 61 139.5t151 53.5q48 0 90 -21.5t58 -41.5q-19 270 -170 270q-20 0 -37 -4t-26.5 -8.5l-33.5 -16.5
q-12 -5 -18 3zM403 281q-1 16 -48.5 42t-100.5 26q-56 0 -89.5 -41.5t-33.5 -108.5q0 -77 31.5 -124t100.5 -47q68 0 106.5 65t33.5 188z" />
    <glyph glyph-name="emptyset" unicode="&#x2205;" horiz-adv-x="517" 
d="M412 399q70 -67 70 -169q0 -106 -66 -172t-157 -66q-70 0 -125 38l-23 -30l-40 30l24 32q-60 67 -60 160q0 107 66.5 172.5t157.5 65.5q60 0 113 -31l25 33l40 -30zM120 242q0 -62 24 -115l193 255q-36 39 -75 39q-71 0 -106.5 -40.5t-35.5 -138.5zM257 34q70 0 105.5 40
t35.5 136q0 72 -31 129l-194 -257q38 -48 84 -48z" />
    <glyph glyph-name="product" unicode="&#x220f;" horiz-adv-x="623" 
d="M553 800v-1000h-54v946h-375v-946h-54v1000h483z" />
    <glyph glyph-name="summation" unicode="&#x2211;" horiz-adv-x="570" 
d="M500 800v-54h-363l298 -447l-298 -445h363v-54h-430v54l290 446l-290 446v54h430z" />
    <glyph glyph-name="minus" unicode="&#x2212;" horiz-adv-x="510" 
d="M70 279h370v-54h-370v54z" />
    <glyph glyph-name="radical" unicode="&#x221a;" horiz-adv-x="731" 
d="M312 -200q-21 0 -32 24l-141 313q-28 62 -68 77l-21 8v29q60 -4 113 -2l157 -334l297 886h114v-29l-27 -8q-42 -11 -67 -79l-318 -885h-7z" />
    <glyph glyph-name="infinity" unicode="&#x221e;" horiz-adv-x="733" 
d="M387 160q-51 -94 -160 -94q-64 0 -115.5 53.5t-51.5 127.5q0 75 53.5 130t120.5 55q48 0 88 -23.5t62 -66.5q45 76 141 76q60 0 104 -50t44 -121q0 -74 -44 -124.5t-107 -50.5q-45 0 -82.5 23.5t-52.5 64.5zM227 132q56 0 87.5 20.5t39.5 69.5l11 66q5 29 -39 55t-93 26
q-57 0 -97 -31t-40 -91q0 -57 39.5 -86t91.5 -29zM405 273l-9 -57q-6 -35 34 -61t90 -26q119 0 119 118q0 50 -37 80t-84 30q-43 0 -75 -23t-38 -61z" />
    <glyph glyph-name="integral" unicode="&#x222b;" horiz-adv-x="451" 
d="M428 726q8 -13 5 -29.5t-17 -23.5q-18 -8 -32 -1.5t-19 21.5l-3.5 14.5t-3.5 13.5l-3.5 11t-4.5 10.5l-6 7.5t-8.5 7t-10.5 3.5t-14 1.5q-55 0 -55 -99v-724q0 -82 -27 -118t-91 -36q-81 0 -115 74q-7 13 -4 30t17 24q17 8 32 1t17 -22q2 -6 5.5 -18.5t5 -17t5.5 -13
t8.5 -11.5t12.5 -6t18 -3q56 0 56 99v724q0 82 27 118t91 36q77 0 114 -74z" />
    <glyph glyph-name="approxequal" unicode="&#x2248;" horiz-adv-x="551" 
d="M481 381h-36q-6 0 -29 -21t-46 -21q-34 0 -83.5 29t-90.5 29q-43 0 -76.5 -25.5t-49.5 -69.5h35q11 0 19.5 12t21 23.5t33.5 11.5q24 0 80 -33.5t100 -33.5q39 0 73.5 26.5t48.5 72.5zM481 211h-36q-6 0 -29 -21t-46 -21q-34 0 -83.5 29t-90.5 29q-43 0 -76.5 -25.5
t-49.5 -69.5h35q11 0 19.5 12t21 23.5t33.5 11.5q24 0 80 -33.5t100 -33.5q39 0 73.5 26.5t48.5 72.5z" />
    <glyph glyph-name="notequal" unicode="&#x2260;" horiz-adv-x="510" 
d="M440 315h-128l-53 -126h181v-54h-203l-56 -135h-58l56 135h-109v54h131l53 126h-184v54h206l54 127h58l-54 -127h106v-54z" />
    <glyph glyph-name="lessequal" unicode="&#x2264;" horiz-adv-x="509" 
d="M70 360q184 70 369 171v-56q-143 -81 -325 -142q185 -63 325 -143v-55q-185 101 -369 171v54zM439 58v-54h-370v54h370z" />
    <glyph glyph-name="greaterequal" unicode="&#x2265;" horiz-adv-x="509" 
d="M439 360v-54q-185 -70 -369 -171v55q140 80 325 143q-182 61 -325 142v56q184 -101 369 -171zM70 58h370v-54h-370v54z" />
    <glyph glyph-name="lozenge" unicode="&#x25ca;" horiz-adv-x="412" 
d="M377 310l-130 -310h-82l-130 310l130 311h82zM301 310l-95 247l-95 -247l95 -247z" />
    <glyph glyph-name="i.loclTRK" horiz-adv-x="244" 
d="M108 570q-21 0 -37 15.5t-16 37.5q0 21 16 37t37 16q22 0 37.5 -16t15.5 -37q0 -22 -15.5 -37.5t-37.5 -15.5zM161 53q0 -28 43 -28v-25h-165v25q44 0 44 28v325q0 17 -6.5 24t-21.5 7h-20v38l94 9q32 3 32 -31v-372z" />
    <glyph glyph-name="f_b" horiz-adv-x="890" 
d="M670 462q84 0 133.5 -62.5t49.5 -172.5q0 -108 -54.5 -171.5t-131.5 -63.5q-59 0 -99 29.5t-53 63.5l-39 -83q-7 -14 -20 -10.5t-13 15.5v529q0 30 -50 60.5t-99 30.5q-64 0 -91.5 -40.5t-27.5 -100.5v-29h153q-11 -31 -15 -37t-17 -6h-121v-362q0 -17 9.5 -22.5
t42.5 -5.5v-24h-188v24q37 0 46.5 5t9.5 23v362h-56q-10 0 -10 10v33h66v17q0 87 49 140t150 53q87 0 156 -19l49 9q24 5 24 -19v-156q0 -63 -16 -124l17 22q21 24 33.5 36.5t44.5 29t68 16.5zM656 32q115 0 115 182q0 79 -29.5 135t-84.5 56q-50 0 -78 -16t-55 -53v-196
q16 -45 50 -76.5t82 -31.5z" />
    <glyph glyph-name="f_h" horiz-adv-x="925" 
d="M845 84q0 -28 12.5 -40.5t47.5 -4.5l-13 -31q-19 -8 -54 -8t-56 21t-21 51v220q0 57 -18 87t-63 30t-86.5 -28t-65.5 -56v-272q0 -17 11.5 -22.5t38.5 -5.5v-25h-182v25q25 0 36 5.5t11 22.5v483q0 34 -54 66q-1 -1 -5 -1v3q-43 23 -90 23q-64 0 -91.5 -40.5
t-27.5 -100.5v-29h128q-11 -31 -15 -37t-17 -6h-96v-362q0 -17 9.5 -22.5t42.5 -5.5v-24h-176v24q27 0 35.5 5.5t8.5 22.5v362h-56q-10 0 -10 10v33h66v17q0 87 49 140t150 53q90 0 158 -18l42 8q6 -1 10.5 0.5t8 -2t5.5 -5t3.5 -7.5t2 -9.5t1 -10.5t0 -12t-0.5 -13.5v-14.5
v-203l-4 -30q21 36 69 73t113 37q74 0 108.5 -37.5t34.5 -136.5v-202z" />
    <glyph glyph-name="f_j" horiz-adv-x="588" 
d="M300 627q-70 0 -97.5 -37t-27.5 -104v-29h120q-10 -31 -14 -37t-18 -6h-88v-362q0 -17 9.5 -22.5t42.5 -5.5v-24h-176v24q27 0 35.5 5.5t8.5 22.5v362h-56q-10 0 -10 10v33h66v17q0 95 48.5 144t156.5 49q86 0 148 -35.5t62 -83.5q0 -22 -9.5 -30.5t-32.5 -8.5
q-45 0 -45 39q0 37 -27 58t-96 21zM494 456q32 3 32 -31v-499q0 -100 -70 -129q-47 -19 -86.5 -7t-46.5 45q-7 39 18 51q13 7 26 5.5t19 -9.5q2 -1 8.5 -15.5t14.5 -25.5t16 -8q24 10 24 50v495q0 17 -6.5 24t-21.5 7h-20v38z" />
    <glyph glyph-name="f_k" horiz-adv-x="885" 
d="M800 49q16 -16 25.5 -20.5t30.5 -4.5v-24h-166v24q35 0 32 13q-1 3 -4 6l-196 197v-188q0 -28 32 -28v-24h-148v24q36 0 36 28v494q-9 29 -56 55t-91 26q-64 0 -91.5 -40.5t-27.5 -100.5v-29h140q-10 -30 -14.5 -36.5t-17.5 -6.5h-108v-362q0 -17 9.5 -22.5t42.5 -5.5
v-24h-166v24q20 0 27 5.5t7 22.5v362h-56q-10 0 -10 10v33h66v17q0 87 49 140t150 53q58 0 121 -11l82 11q24 3 24 -19v-390l176 137q7 6 7.5 12t-8 10.5t-27.5 4.5v29h158v-29q-37 0 -60 -20l-176 -138z" />
    <glyph glyph-name="zero.osf" horiz-adv-x="517" 
d="M259 460q91 0 157 -63.5t66 -166.5q0 -106 -66 -172t-157 -66t-157.5 64.5t-66.5 165.5q0 107 66.5 172.5t157.5 65.5zM398 210q0 87 -43 149t-93 62q-71 0 -106.5 -40.5t-35.5 -138.5q0 -85 43 -146.5t94 -61.5q70 0 105.5 40t35.5 136z" />
    <glyph glyph-name="one.osf" horiz-adv-x="344" 
d="M214 63q0 -14 23.5 -21t62.5 -13q6 -1 9 -1v-28h-270v28q78 11 90 25q4 4 4 10v284q0 18 -7.5 26.5t-21.5 4.5l-51 -14v35l131 59q30 13 30 -16v-379z" />
    <glyph glyph-name="two.osf" horiz-adv-x="532" 
d="M487 120l-23 -97q-1 -6 -0.5 -10t-0.5 -7t-6.5 -4.5t-17.5 -1.5h-394l121 94q100 78 147.5 126.5t47.5 91.5q0 50 -27 78t-78 28q-88 0 -99 -87q-2 -16 -2 -30t-2 -24q-25 -26 -57 -15t-32 45q0 57 53.5 105t138.5 48q87 0 139.5 -45.5t52.5 -114.5q0 -27 -18.5 -55.5
t-42 -51t-63.5 -49.5t-65.5 -42t-66.5 -37l178 4q34 0 51 6t30 25l14 20h22z" />
    <glyph glyph-name="three.osf" horiz-adv-x="548" 
d="M497 41q0 -101 -71 -171t-181 -70q-131 0 -184 99q-6 28 17.5 43t52.5 -6q16 -47 45.5 -72t80.5 -25q64 0 107.5 50.5t43.5 132.5q0 55 -32 87.5t-70 32.5q-17 0 -38 -7l-40 -15l-12 33l41 15q119 45 119 144q0 52 -29 80.5t-78 28.5q-25 0 -45.5 -10.5t-33 -24
t-22.5 -36.5t-14.5 -38t-9.5 -37q-26 -10 -52 2.5t-26 30.5q0 57 56.5 104.5t135.5 47.5q94 0 148 -43.5t54 -105.5q0 -48 -27.5 -81.5t-65.5 -43.5q41 4 85.5 -38.5t44.5 -106.5z" />
    <glyph glyph-name="four.osf" horiz-adv-x="557" 
d="M507 1h-100v-124q0 -8 5.5 -14t18 -9.5t22 -5.5t28.5 -4v-28h-233v28q25 3 37.5 5.5t24 9.5t11.5 18v124h-285v28l330 407q11 14 26 10t15 -20v-383h100v-42zM96 43h225v268z" />
    <glyph glyph-name="five.osf" horiz-adv-x="576" 
d="M521 43q0 -104 -77.5 -173.5t-181.5 -69.5q-154 0 -201 109q-6 28 19.5 42t56.5 -9q24 -107 129 -107q65 0 113 50t48 131t-40 133t-108 52q-59 0 -93.5 -15t-64.5 -44h-35l37 309h316l17 13l19 1l-8 -77l-17 -15h-290l-24 -179q65 53 172 53q90 0 151.5 -51.5
t61.5 -152.5z" />
    <glyph glyph-name="six.osf" horiz-adv-x="538" 
d="M419 570q-6 -8 -18 -3l-34.5 16.5t-26.5 8.5t-37 4q-151 0 -170 -270q16 20 58 41.5t90 21.5q90 0 151 -53.5t61 -139.5q0 -82 -59 -145t-159 -63q-63 0 -109.5 24.5t-72 67.5t-37 93t-11.5 108q1 84 27 162.5t85.5 135.5t140.5 57q77 0 127 -37q10 -7 2 -18zM135 281
q-5 -123 33.5 -188t106.5 -65q69 0 100.5 47t31.5 124q0 68 -33 109t-90 41q-52 0 -100 -26t-49 -42z" />
    <glyph glyph-name="seven.osf" horiz-adv-x="533" 
d="M417 375h-318l-21 -45h-23l22 98q5 23 28 23h388l-281 -633h-14q-13 0 -20.5 10.5t-1.5 23.5z" />
    <glyph glyph-name="eight.osf" horiz-adv-x="573" 
d="M380 348q69 -23 106 -66t37 -116q0 -72 -68.5 -126t-170.5 -54q-105 0 -169.5 56.5t-64.5 133.5q0 125 128 169q-46 17 -69.5 52.5t-23.5 78.5q0 62 53.5 107t146.5 45q88 0 139.5 -45t51.5 -109q0 -37 -25 -72.5t-71 -53.5zM265 372l53 -12q38 -8 68.5 32t30.5 84
q0 48 -30 82t-104 34q-111 0 -111 -116q0 -82 93 -104zM428 172q0 52 -30.5 83t-102.5 47l-78 18q-34 8 -66.5 -37.5t-32.5 -106.5t43 -107t122 -46q76 0 110.5 43t34.5 106z" />
    <glyph glyph-name="nine.osf" horiz-adv-x="538" 
d="M160 -163q114 15 176 96.5t72 204.5q-17 -28 -59 -51.5t-93 -23.5q-89 0 -150 53.5t-61 138.5q0 80 59 143t159 63q63 0 109.5 -24t72 -65.5t37 -90t11.5 -103.5q0 -63 -21.5 -127t-60.5 -120t-103.5 -92t-142.5 -39q-14 -1 -15 17t10 20zM406 179q3 112 -36.5 175.5
t-106.5 63.5q-69 0 -100.5 -45.5t-31.5 -120.5q0 -65 33.5 -107.5t89.5 -42.5q52 0 102 30.5t50 46.5z" />
    <glyph glyph-name="zero.tf" horiz-adv-x="600" 
d="M550 313q0 -84 -25 -155.5t-82.5 -120.5t-138.5 -49t-138.5 49t-82.5 120.5t-25 155.5t25 155t82.5 119.5t138.5 48.5t138.5 -48.5t82.5 -119.5t25 -155zM304 25q82 0 115.5 69.5t33.5 218.5t-33.5 218t-115.5 69q-84 0 -117.5 -69t-33.5 -218q0 -150 33.5 -219
t117.5 -69z" />
    <glyph glyph-name="one.tf" horiz-adv-x="600" 
d="M341 72q0 -28 113 -37v-35h-307v35q113 8 113 37v442q0 18 -7.5 26.5t-21.5 4.5l-51 -14v35l132 59q29 13 29 -16v-537z" />
    <glyph glyph-name="two.tf" horiz-adv-x="600" 
d="M545 122l-23 -99q-8 -23 -30 -23h-436q34 183 227 313q10 7 34 22t34 22t27 21t24 25.5t13 29t6 37.5q0 54 -36 89.5t-93 35.5q-53 0 -87.5 -23.5t-43.5 -65.5q-8 -34 -1 -64.5t6 -37.5q-17 -35 -50 -35q-19 0 -34 14.5t-15 32.5q0 97 60.5 159t167.5 62q104 0 158 -48.5
t54 -131.5q0 -20 -5 -38.5t-11 -32.5t-19.5 -29t-23 -24.5t-28.5 -23t-29 -20l-32 -20t-31 -19.5l-36 -22t-35 -22l-28.5 -19.5t-28.5 -23l-23 -24t-24 -30.5t-20 -36l294 -2q34 0 50 5t29 24l16 22h23z" />
    <glyph glyph-name="three.tf" horiz-adv-x="600" 
d="M393 371q48 4 93 -45t45 -120q0 -90 -71 -154t-170 -64q-106 0 -168.5 49.5t-69.5 134.5q-3 51 42 51q27 0 34.5 -9t10 -38t10.5 -52q19 -51 51.5 -75.5t93.5 -24.5q59 0 103.5 45.5t44.5 117.5q0 65 -36.5 100t-84.5 35q-20 0 -38 -6l-42 -14l-13 33l43 17
q124 48 124 138q0 51 -29 79.5t-82 28.5q-93 0 -105 -90q-2 -16 -2 -30t-2 -24q-26 -29 -59.5 -17.5t-33.5 47.5q0 58 55.5 105.5t146.5 47.5t144 -45.5t53 -100.5q0 -42 -24.5 -73t-63.5 -47z" />
    <glyph glyph-name="four.tf" horiz-adv-x="600" 
d="M532 204h-101v-143q0 -8 5 -14t17.5 -9.5t18.5 -5t23 -4.5v-28h-214v28q16 3 23 4.5t18 5t16 9.5t5 14v143h-283v27l330 405q11 14 26 10t15 -19v-381h101v-42zM116 246h227v265z" />
    <glyph glyph-name="five.tf" horiz-adv-x="600" 
d="M518 205q0 -90 -71 -153.5t-173 -63.5q-103 0 -166.5 50t-70.5 136q-3 49 44 49q26 0 33 -9t9.5 -38t10.5 -52q19 -50 50.5 -74.5t89.5 -24.5q62 0 106 45t44 117q0 80 -49 134.5t-120 54.5q-19 0 -36.5 -2.5t-29 -5.5t-25.5 -9.5t-20.5 -10t-19 -11t-15.5 -9.5h-34
l23 293h335l17 13l17 1l-8 -76l-17 -15h-310l-14 -181q27 27 71 42.5t92 15.5q57 0 109 -21t90 -72t38 -123z" />
    <glyph glyph-name="six.tf" horiz-adv-x="600" 
d="M451 570q-6 -8 -18 -3q-23 12 -33.5 16.5t-27.5 8.5t-37 4q-150 0 -169 -270q16 20 57.5 41.5t90.5 21.5q89 0 150 -53.5t61 -139.5q0 -82 -59 -145t-159 -63q-63 0 -109.5 24.5t-72 67.5t-37 93t-11.5 108q1 84 27 162.5t85.5 135.5t140.5 57q77 0 127 -37q10 -7 2 -18z
M168 281q-6 -123 32.5 -188t106.5 -65q69 0 100.5 46.5t31.5 124.5q0 68 -33 109t-90 41q-52 0 -99.5 -26t-48.5 -42z" />
    <glyph glyph-name="seven.tf" horiz-adv-x="600" 
d="M438 545h-339l-21 -45h-23l22 98q5 23 28 23h412l-315 -626h-16q-14 0 -21.5 10.5t-0.5 23.5z" />
    <glyph glyph-name="eight.tf" horiz-adv-x="600" 
d="M392 348q69 -23 105.5 -66t36.5 -116q0 -72 -68.5 -126t-169.5 -54q-105 0 -169.5 56.5t-64.5 133.5q0 125 128 169q-46 17 -69.5 52.5t-23.5 78.5q0 62 53 107t147 45q88 0 139.5 -45t51.5 -109q0 -37 -25 -72.5t-71 -53.5zM277 372l52 -12q39 -8 69.5 32t30.5 84
q0 48 -30 82t-104 34q-111 0 -111 -116q0 -82 93 -104zM439 172q0 52 -30 83t-102 47l-78 18q-34 8 -66.5 -37.5t-32.5 -106.5t43 -107t122 -46q76 0 110 43t34 106z" />
    <glyph glyph-name="nine.tf" horiz-adv-x="600" 
d="M150 55q6 8 18 3q32 -17 50.5 -23t47.5 -6q151 0 170 269q-16 -20 -58 -41t-90 -21q-90 0 -151 53.5t-61 138.5q0 82 58.5 145t159.5 63q63 0 109.5 -24.5t72 -67t37 -92.5t11.5 -108q-1 -84 -27 -162.5t-85.5 -136t-140.5 -57.5q-77 0 -127 37q-10 7 -2 18zM434 343
q5 123 -33.5 188t-106.5 65q-69 0 -100.5 -47t-31.5 -124q0 -67 33 -108.5t90 -41.5q52 0 100 26t49 42z" />
    <glyph glyph-name="zero.dnom" horiz-adv-x="264" 
d="M229 116q0 -53 -24.5 -90t-71.5 -37q-48 0 -73 37t-25 90t25 90.5t73 37.5q47 0 71.5 -37.5t24.5 -90.5zM133 25q47 0 47 91q0 93 -47 93q-48 0 -48 -93q0 -91 48 -91z" />
    <glyph glyph-name="one.dnom" horiz-adv-x="186" 
d="M122 33q0 -16 29 -18v-21h-109v21q29 2 29 18v168l-31 -10v26l56 25q24 10 26 -15v-194z" />
    <glyph glyph-name="two.dnom" horiz-adv-x="300" 
d="M255 55l-10 -47q-3 -14 -21 -14h-179q7 32 24 57.5t32 37.5t38 26q15 9 23.5 15.5t15.5 17.5t7 24q0 20 -10.5 33.5t-28.5 13.5q-32 0 -39 -28q-2 -11 0.5 -22t1.5 -16q-11 -22 -34 -15t-23 23q-2 37 24 62t72 25q45 0 69 -20.5t24 -55.5q0 -11 -4 -21t-8 -16.5
t-14 -14.5t-14.5 -11t-18.5 -11t-16 -9q-57 -32 -67 -48q-2 -4 -3 -7h104q16 0 21 8l9 13h25z" />
    <glyph glyph-name="three.dnom" horiz-adv-x="313" 
d="M222 144q17 -8 29 -25t12 -41q0 -37 -29.5 -63t-71.5 -26q-45 0 -73.5 24t-28.5 55q0 24 25 24q15 0 21 -5.5t8 -20t3 -17.5q6 -19 16 -26t30 -7q18 0 31.5 15t13.5 40q0 35 -23 42.5t-48 -7.5l-10 24l24 11q41 15 41 44q0 35 -32 35q-27 0 -37 -21t-4 -42l-35 6
q-12 5 -12 14q-1 31 23 51t64 20q38 0 61.5 -19.5t23.5 -41.5q0 -27 -22 -43z" />
    <glyph glyph-name="four.dnom" horiz-adv-x="299" 
d="M249 71h-38v-36q0 -18 25 -18v-23h-102v23q24 0 24 18v36h-103v26l120 148q9 11 22.5 7t13.5 -16v-137h38v-28zM98 99h60v71z" />
    <glyph glyph-name="five.dnom" horiz-adv-x="317" 
d="M263 81q0 -42 -29 -67t-74 -25t-71.5 20.5t-28.5 57.5q-1 11 6 17.5t19 6.5q11 0 17.5 -4.5t8 -9t3 -14.5t2.5 -14q9 -34 44 -34q20 0 33 15t13 40q0 31 -14.5 48.5t-39.5 17.5q-23 0 -50 -19h-28l10 125h132l7 5h21l-3 -38l-12 -10h-116l-3 -44q28 11 55 11
q37 0 67.5 -23t30.5 -62z" />
    <glyph glyph-name="six.dnom" horiz-adv-x="280" 
d="M205 213q-7 -6 -12 -4.5t-17.5 6.5t-21.5 5q-46 0 -53 -78q24 13 47 13q38 0 62.5 -22t24.5 -59q0 -32 -25.5 -58.5t-66.5 -26.5q-50 0 -74 35t-24 83q0 52 28.5 96.5t78.5 44.5q31 0 53 -15q8 -6 0 -20zM143 18q40 0 40 58q0 51 -37 51q-17 0 -32 -8.5t-15 -13.5
q-3 -87 44 -87z" />
    <glyph glyph-name="seven.dnom" horiz-adv-x="295" 
d="M198 199h-111l-6 -17h-26l11 46q3 14 21 14h168l-125 -250h-14q-12 0 -16.5 7.5t0.5 16.5z" />
    <glyph glyph-name="eight.dnom" horiz-adv-x="304" 
d="M205 133q47 -21 47 -69q0 -28 -30.5 -51.5t-71.5 -23.5q-42 0 -70 24t-28 56q0 38 43 62q-29 19 -29 50q0 25 22.5 44t61.5 19q37 0 61 -18.5t24 -43.5q0 -30 -30 -49zM145 147l21 -5q9 -3 17.5 11t8.5 28q0 37 -41 37q-17 0 -25.5 -11t-8.5 -25q0 -28 28 -35zM195 65
q0 19 -9 28.5t-33 15.5l-25 6q-9 2 -19.5 -12.5t-10.5 -34.5q0 -23 13 -37.5t39 -14.5q45 0 45 49z" />
    <glyph glyph-name="nine.dnom" horiz-adv-x="280" 
d="M75 24q7 6 12 4.5t18 -6.5t22 -5q45 0 52 78q-22 -12 -47 -12q-38 0 -62.5 21.5t-24.5 58.5q0 33 25.5 59t67.5 26q50 0 73.5 -34.5t23.5 -83.5q0 -52 -28 -96.5t-78 -44.5q-32 0 -54 15q-8 6 0 20zM138 219q-41 0 -41 -58q0 -24 10.5 -37.5t27.5 -13.5t31.5 8t14.5 14
q1 42 -10.5 64.5t-32.5 22.5z" />
    <glyph glyph-name="zero.numr" horiz-adv-x="264" 
d="M229 515q0 -53 -24.5 -90t-71.5 -37q-48 0 -73 37t-25 90t25 90.5t73 37.5q47 0 71.5 -37.5t24.5 -90.5zM133 424q47 0 47 91q0 93 -47 93q-48 0 -48 -93q0 -91 48 -91z" />
    <glyph glyph-name="one.numr" horiz-adv-x="186" 
d="M122 431q0 -16 29 -18v-21h-109v21q29 2 29 18v168l-31 -10v26l56 25q24 10 26 -15v-194z" />
    <glyph glyph-name="two.numr" horiz-adv-x="300" 
d="M255 448l-10 -47q-3 -14 -21 -14h-179q7 32 24 57.5t32 37.5t38 26q15 9 23.5 15.5t15.5 17.5t7 24q0 20 -10.5 33.5t-28.5 13.5q-32 0 -39 -28q-2 -11 0.5 -22t1.5 -16q-11 -22 -34 -15t-23 23q-2 37 24 62t72 25q45 0 69 -20.5t24 -55.5q0 -11 -4 -21t-8 -16.5
t-14 -14.5t-14.5 -11t-18.5 -11t-16 -9q-57 -32 -67 -48q-2 -4 -3 -7h104q16 0 21 8l9 13h25z" />
    </font>
</defs>
</svg>
