<svg width="183" height="78" viewBox="0 0 183 78" fill="none" xmlns="http://www.w3.org/2000/svg">
<path d="M120.078 14.3166L121.581 44.6275H118.476L119.979 14.3166H120.078V14.3166ZM32.3093 14.1724C31.6603 14.1724 31.2622 14.3647 31.1126 14.85C30.9124 15.3329 30.9124 15.8937 30.9124 23.5046C30.9124 30.66 30.9124 31.6123 31.1126 32.0975C31.2622 32.5805 31.6603 32.7751 32.3093 32.7751C32.9076 32.7751 33.3081 32.5828 33.506 32.0975C33.6556 31.6146 33.6556 31.7885 33.6556 23.5046C33.6556 15.9624 33.6556 15.3352 33.506 14.85C33.3081 14.3647 32.9099 14.1724 32.3093 14.1724ZM183 5.90229V72.0954C183 75.2473 180.082 77.5958 176.982 76.9412L4.21978 40.4157C1.91849 39.9282 0.273071 37.9093 0.273071 35.5699V5.90229C0.273071 3.16695 2.50302 0.948914 5.25536 0.948914H178.02C180.77 0.948914 183 3.16695 183 5.90229ZM14.5203 21.7261C14.5203 15.9624 14.5203 15.3352 14.7206 14.8523C14.8701 14.3693 15.2706 14.1747 15.9218 14.1747C16.3223 14.1747 16.6237 14.3189 16.8239 14.4654C17.275 14.8523 17.275 15.3352 17.275 20.252H22.232C22.232 14.7515 22.1307 12.7716 20.2805 11.1304C19.1782 10.1644 17.7767 9.72949 15.9241 9.72949C13.1212 9.72949 11.2686 10.6474 10.3182 12.7258C9.56798 14.3212 9.56798 14.8248 9.56798 20.9913C9.56798 27.6409 9.56798 28.5404 10.3182 30.1359C11.2686 32.2143 13.1212 33.1322 15.9241 33.1322C17.9263 33.1322 19.2771 32.6492 20.2298 31.8274C21.8661 30.3373 22.1928 28.9525 22.2297 24.2509L17.2773 23.2048C17.275 27.5768 17.252 28.03 16.8262 28.3939C16.626 28.5381 16.3246 28.6846 15.9241 28.6846C15.2729 28.6846 14.8724 28.4924 14.7229 28.0071C14.5203 27.5218 14.5203 26.7527 14.5203 21.7261ZM38.6471 23.5024C38.6471 15.4405 38.5964 14.3166 37.8485 12.7212C36.9004 10.6428 35.0547 9.72491 32.3116 9.72491C29.5178 9.72491 27.6722 10.6428 26.7241 12.7212C25.9762 14.3166 25.9762 15.4405 25.9762 23.5024C25.9762 31.4406 25.9762 32.6263 26.7241 34.2217C27.6722 36.3001 29.5178 37.218 32.3116 37.218C35.0547 37.218 36.9004 36.3001 37.8485 34.2217C38.5964 32.6263 38.6471 30.9759 38.6471 23.5024ZM56.7191 10.1118H51.9669V27.9155L47.5116 10.1118H42.5616V39.3857H47.2654V21.5682L52.0175 40.5782H56.7214V10.1118H56.7191ZM73.1595 35.7828C73.1595 31.143 73.1595 30.1748 72.3586 28.5313C71.758 27.2266 70.6557 26.1141 68.5546 24.8094C67.2037 23.9876 66.5525 23.3582 66.1521 22.5364C65.7516 21.6185 65.7516 20.8448 65.7516 18.185C65.7516 15.1887 65.7516 15.0903 65.8506 14.7035C66.0002 14.2686 66.3523 14.074 66.9023 14.074C67.4523 14.074 67.8044 14.2182 68.0046 14.6531C68.1542 14.9919 68.1542 15.2345 68.1542 20.2611H73.0099C73.0099 13.8314 72.9593 13.3965 72.4599 12.284C71.6084 10.4963 69.8571 9.72262 66.854 9.72262C64.0004 9.72262 62.2974 10.4963 61.3976 12.3824C60.797 13.6872 60.7463 14.4128 60.7463 18.1827C60.7463 22.0511 60.797 23.6466 61.5472 25.1939C62.1478 26.5467 63.2985 27.563 65.3512 28.9158C66.6537 29.7376 67.3533 30.3671 67.7538 31.2369C68.1542 32.1548 68.2048 32.8804 68.2048 35.7805C68.2048 39.0675 68.1542 39.2621 68.0046 39.6489C67.855 40.0838 67.4546 40.2784 66.9023 40.2784C66.3523 40.2784 66.0002 40.0838 65.8 39.6489C65.6504 39.2621 65.6504 39.1659 65.6504 33.8967H60.6934C60.6934 40.5187 60.744 40.8575 61.3447 42.0661C62.1961 43.8538 63.9981 44.6275 66.9506 44.6275C69.8548 44.6275 71.7074 43.7577 72.5566 41.9677C73.1595 40.6172 73.1595 39.9396 73.1595 35.7828ZM89.8093 29.2271C89.8093 17.6265 89.7587 14.3555 89.0085 12.7464C88.058 10.6497 86.2055 9.72491 83.4509 9.72491C80.6479 9.72491 78.7953 10.652 77.8449 12.7464C77.0947 14.3555 77.0947 17.6265 77.0947 29.2271C77.0947 40.8277 77.0947 43.6821 77.8449 45.289C78.7953 47.3857 80.6479 48.3105 83.4509 48.3105C86.2032 48.3105 88.0557 47.3834 89.0085 45.289C89.761 43.6821 89.8093 40.83 89.8093 29.2271ZM108.666 10.1118H103.861V32.2806L99.3551 10.1118H94.3498V50.5445H99.1065V27.4806L103.912 51.5379H108.668V10.1118H108.666ZM127.187 55.1362L123.933 10.1118H116.122L112.868 54.342H117.724L118.124 49.0773H121.928L122.329 55.1385H127.187V55.1362ZM145.71 10.1118H140.905V36.9685L136.399 10.1118H131.394V58.0662H136.15V30.4998L140.955 58.8627H145.712V10.1118H145.71ZM160.383 10.1118H149.666V14.6554H152.662V62.4679H157.589V14.6554H160.385V10.1118H160.383ZM173.795 10.1118H164.274V65.0178H173.795V60.4742H169.162V37.8246H173.636V33.2809H169.162V14.6554H173.795V10.1118ZM83.4532 14.209C82.8019 14.209 82.4015 14.4036 82.2519 14.8912C82.0517 15.3787 82.0517 17.5762 82.0517 29.2271C82.0517 40.8781 82.0517 42.6567 82.2519 43.1442C82.4015 43.6318 82.8019 43.8263 83.4532 43.8263C84.0538 43.8263 84.4542 43.6318 84.6544 43.1442C84.804 42.6567 84.804 40.8758 84.804 29.2271C84.804 17.5762 84.804 15.3787 84.6544 14.8912C84.4542 14.4036 84.0538 14.209 83.4532 14.209Z" fill="white"/>
</svg>
